<?xml version="1.0" encoding="utf-8"?>
<!-- Generator: Adobe Illustrator 23.1.0, SVG Export Plug-In . SVG Version: 6.00 Build 0)  -->
<svg version="1.1" id="Capa_1" xmlns="http://www.w3.org/2000/svg" xmlns:xlink="http://www.w3.org/1999/xlink" x="0px" y="0px"
	 viewBox="0 0 218 54" style="enable-background:new 0 0 218 54;" xml:space="preserve">
<style type="text/css">
	.st0{fill:#3D3D3D;}
	.st1{fill:#697BBB;stroke:#697BBB;}
</style>
<g>
	<path class="st0" d="M82.5,20.2c0-0.5-0.2-0.9-0.5-1.2c-0.2-0.2-0.6-0.3-1.1-0.3l-11,0v11h-4.4V15l16.1-0.1c1.7,0,3,0.5,4,1.5
		c0.8,0.9,1.2,1.9,1.2,3v1.5h-4.4V20.2z"/>
	<path class="st0" d="M95.9,24.4c0,1,0.5,1.6,1.5,1.6h13.4V15h4.4v14.7H96.7c-1.8,0-3.1-0.5-4-1.4s-1.3-2-1.3-3.1V15h4.4V24.4z"/>
	<path class="st0" d="M178.9,20.2c0-1-0.5-1.5-1.5-1.5h-7.2v11h-4.4v-11h-8.6v11h-4.4V15h25.4c1.8,0,3.1,0.5,4,1.4
		c0.8,0.9,1.2,1.9,1.2,3.1v10.2h-4.4V20.2z"/>
	<path class="st0" d="M189.1,18.4V15h17.6c1.7,0,3.1,0.5,4.2,1.4c0.6,0.6,1.1,1.2,1.3,2c0.2,0.6,0.2,1.4,0.2,2.4v9h-19.7
		c-1.4,0-2.6-0.4-3.4-1.2c-0.8-0.8-1.2-1.9-1.2-3.3s0.4-2.5,1.3-3.3c0.8-0.8,2-1.2,3.4-1.2H208v-0.1c0-1.1-0.4-1.8-1.2-2
		c-0.2-0.1-0.6-0.1-1.1-0.1H189.1z M208,26.2V24h-14.1c-0.9,0-1.4,0.4-1.4,1.1c0,0.7,0.5,1.1,1.4,1.1H208z"/>
	<path class="st0" d="M65.5,45.5v-6.1h2.2c0.5,0,0.9,0.1,1.3,0.2c0.4,0.2,0.7,0.4,0.9,0.7c0.3,0.3,0.4,0.6,0.6,1
		c0.1,0.4,0.2,0.8,0.2,1.2c0,0.5-0.1,0.9-0.2,1.3c-0.1,0.4-0.3,0.7-0.6,1c-0.3,0.3-0.6,0.5-0.9,0.6c-0.4,0.1-0.8,0.2-1.2,0.2H65.5z
		 M69.5,42.4c0-0.3,0-0.6-0.1-0.8c-0.1-0.2-0.2-0.5-0.4-0.6c-0.2-0.2-0.3-0.3-0.6-0.4c-0.2-0.1-0.5-0.1-0.8-0.1h-1v4h1
		c0.3,0,0.6-0.1,0.8-0.2c0.2-0.1,0.4-0.2,0.6-0.4c0.2-0.2,0.3-0.4,0.3-0.6C69.5,43,69.5,42.7,69.5,42.4z"/>
	<path class="st0" d="M90.1,45.5v-6.1h1.2v6.1H90.1z"/>
	<path class="st0" d="M115.3,44.8c-0.5,0.5-1.1,0.7-1.7,0.7c-0.4,0-0.8-0.1-1.1-0.2c-0.4-0.2-0.7-0.4-0.9-0.7
		c-0.3-0.3-0.5-0.6-0.6-1c-0.2-0.4-0.2-0.8-0.2-1.2c0-0.4,0.1-0.8,0.2-1.2c0.2-0.4,0.4-0.7,0.6-1c0.3-0.3,0.6-0.5,0.9-0.7
		c0.4-0.2,0.8-0.2,1.2-0.2c0.6,0,1.1,0.1,1.5,0.4c0.4,0.2,0.7,0.6,0.9,1l-0.9,0.7c-0.2-0.3-0.4-0.5-0.6-0.7
		c-0.3-0.2-0.6-0.2-0.9-0.2c-0.3,0-0.5,0.1-0.7,0.2c-0.2,0.1-0.4,0.3-0.5,0.4c-0.2,0.2-0.3,0.4-0.4,0.7c-0.1,0.2-0.1,0.5-0.1,0.8
		c0,0.3,0,0.6,0.1,0.8c0.1,0.2,0.2,0.5,0.4,0.6c0.2,0.2,0.3,0.3,0.6,0.4c0.2,0.1,0.5,0.2,0.7,0.2c0.6,0,1.1-0.3,1.6-0.8v-0.4H114
		v-0.9h2.2v3.1h-1V44.8z"/>
	<path class="st0" d="M135.7,45.5v-6.1h1.2v6.1H135.7z"/>
	<path class="st0" d="M161.2,40.4h-1.9v5.1h-1.2v-5.1h-1.9v-1h5.1V40.4z"/>
	<path class="st0" d="M181.6,39.4h1l2.3,6.1h-1.2l-0.6-1.5H181l-0.6,1.5h-1.2L181.6,39.4z M182.9,43.1l-0.8-2.4l-0.9,2.4H182.9z"/>
	<path class="st0" d="M204.1,45.5v-6.1h1.2v5.1h3.1v1H204.1z"/>
	<ellipse id="Elipse_14" class="st0" cx="104.1" cy="17.5" rx="2.2" ry="2.2"/>
	<path id="Trazado_6" class="st1" d="M58,27.2C58.1,12.7,46.4,0.9,31.9,0.8S5.6,12.4,5.5,26.8s11.6,26.3,26.1,26.4
		c0.1,0,0.1,0,0.2,0C46.2,53.3,57.9,41.6,58,27.2z M8.7,27.2C8.6,14.4,18.9,4,31.6,3.9c12.7-0.1,23.1,10.2,23.2,22.9
		S44.7,50,31.9,50.1c0,0-0.1,0-0.1,0C19.1,50.1,8.7,39.9,8.7,27.2L8.7,27.2z"/>
	<path id="Trazado_7" class="st1" d="M40,38.3l-2.1-4.1H26.2l2.9-5.1l2.6,2.8v-5.1L31,25.9l2.6-5.3l8.9,16v-7.2l-8.9-16.1l-5.4,9.8
		l-8.1-8.6v5.2l6.5,6.9L20,38.3H40z"/>
	<path class="st0" d="M144.6,21.6c-1.1-0.6-2.3-0.8-3.8-0.8l-0.1,0v0c2.5,0,3.7-1.3,3.7-3.8v-2h0h-0.1h-3.7v2c0,1-0.5,1.9-1.5,2.7
		c-0.9,0.7-1.9,1.1-2.9,1.1l-11.4,0V9.1h-4.4v20.5h4.4v-5.2h15.5c1,0,1.8,0.4,2.3,1.1c0.5,0.6,0.7,1.5,0.7,2.6
		c0,0.6-0.1,1.1-0.2,1.5h4.7c0.1-0.4,0.1-0.9,0.1-1.5C147.9,25,146.8,22.8,144.6,21.6z"/>
</g>
</svg>
