<svg width="132" height="34" viewBox="0 0 132 34" fill="none" xmlns="http://www.w3.org/2000/svg">
<path d="M29.611 27.287C29.5957 27.4863 29.519 27.655 29.381 27.793C29.243 27.931 29.0743 28 28.875 28C28.6603 28 28.484 27.9387 28.346 27.816C28.2233 27.678 28.162 27.5017 28.162 27.287V12.613C28.162 12.3983 28.231 12.2297 28.369 12.107C28.507 11.969 28.6833 11.9 28.898 11.9C29.0973 11.9 29.266 11.969 29.404 12.107C29.542 12.245 29.611 12.4137 29.611 12.613V27.287ZM39.11 15.971C40.536 15.971 41.5787 16.3927 42.238 17.236C42.9127 18.064 43.25 19.168 43.25 20.548V27.31C43.25 27.5093 43.181 27.678 43.043 27.816C42.905 27.9387 42.744 28 42.56 28C42.3607 28 42.192 27.9387 42.054 27.816C41.9313 27.678 41.87 27.5093 41.87 27.31V20.617C41.87 19.6203 41.617 18.8153 41.111 18.202C40.6203 17.5733 39.8537 17.259 38.811 17.259C38.1517 17.259 37.523 17.4123 36.925 17.719C36.3423 18.0257 35.867 18.4397 35.499 18.961C35.131 19.467 34.947 20.019 34.947 20.617V27.31C34.947 27.5093 34.878 27.678 34.74 27.816C34.6173 27.9387 34.4563 28 34.257 28C34.0577 28 33.889 27.9387 33.751 27.816C33.6283 27.678 33.567 27.5093 33.567 27.31V17.006C33.567 16.8067 33.6283 16.6457 33.751 16.523C33.889 16.385 34.0577 16.316 34.257 16.316C34.4563 16.316 34.6173 16.385 34.74 16.523C34.878 16.6457 34.947 16.8067 34.947 17.006V18.271C35.361 17.6117 35.9513 17.0673 36.718 16.638C37.5 16.1933 38.2973 15.971 39.11 15.971ZM50.9579 12.291C50.4672 12.291 50.0839 12.452 49.8079 12.774C49.5472 13.096 49.4169 13.5407 49.4169 14.108V16.477H51.9929C52.1615 16.477 52.3072 16.5383 52.4299 16.661C52.5679 16.7837 52.6369 16.937 52.6369 17.121C52.6369 17.305 52.5679 17.4583 52.4299 17.581C52.3072 17.7037 52.1615 17.765 51.9929 17.765H49.4169V27.31C49.4169 27.5093 49.3479 27.678 49.2099 27.816C49.0872 27.9387 48.9262 28 48.7269 28C48.5275 28 48.3589 27.9387 48.2209 27.816C48.0982 27.678 48.0369 27.5093 48.0369 27.31V17.765H46.3579C46.1739 17.765 46.0205 17.7037 45.8979 17.581C45.7752 17.443 45.7139 17.2897 45.7139 17.121C45.7139 16.9217 45.7752 16.7683 45.8979 16.661C46.0205 16.5383 46.1739 16.477 46.3579 16.477H48.0369V14.108C48.0369 13.142 48.3129 12.3983 48.8649 11.877C49.4322 11.3403 50.1835 11.072 51.1189 11.072C51.5482 11.072 51.9469 11.141 52.3149 11.279C52.6829 11.4017 52.8669 11.6087 52.8669 11.9C52.8669 12.084 52.8055 12.2373 52.6829 12.36C52.5602 12.4827 52.4222 12.544 52.2689 12.544C52.1309 12.544 51.9622 12.5057 51.7629 12.429C51.4255 12.337 51.1572 12.291 50.9579 12.291ZM65.8283 22.112C65.8283 23.262 65.5753 24.3047 65.0693 25.24C64.5633 26.1753 63.8656 26.9113 62.9763 27.448C62.0869 27.9693 61.0979 28.23 60.0093 28.23C58.9206 28.23 57.9316 27.9693 57.0423 27.448C56.1529 26.9113 55.4553 26.1753 54.9493 25.24C54.4433 24.3047 54.1903 23.262 54.1903 22.112C54.1903 20.962 54.4433 19.9193 54.9493 18.984C55.4553 18.0487 56.1529 17.3127 57.0423 16.776C57.9316 16.2393 58.9206 15.971 60.0093 15.971C61.0979 15.971 62.0869 16.2393 62.9763 16.776C63.8656 17.3127 64.5633 18.0487 65.0693 18.984C65.5753 19.9193 65.8283 20.962 65.8283 22.112ZM64.4483 22.112C64.4483 21.192 64.2566 20.364 63.8733 19.628C63.4899 18.892 62.9533 18.317 62.2633 17.903C61.5886 17.4737 60.8373 17.259 60.0093 17.259C59.1813 17.259 58.4299 17.4737 57.7553 17.903C57.0806 18.317 56.5439 18.892 56.1453 19.628C55.7619 20.364 55.5703 21.192 55.5703 22.112C55.5703 23.0167 55.7619 23.837 56.1453 24.573C56.5439 25.309 57.0806 25.8917 57.7553 26.321C58.4299 26.735 59.1813 26.942 60.0093 26.942C60.8373 26.942 61.5886 26.735 62.2633 26.321C62.9533 25.907 63.4899 25.332 63.8733 24.596C64.2566 23.86 64.4483 23.032 64.4483 22.112ZM75.206 11.9C75.988 11.9 76.7317 12.1377 77.437 12.613C78.1423 13.073 78.7097 13.7017 79.139 14.499C79.5683 15.281 79.783 16.1397 79.783 17.075C79.783 17.995 79.5683 18.8537 79.139 19.651C78.7097 20.4483 78.1423 21.0847 77.437 21.56C76.7317 22.02 75.988 22.25 75.206 22.25H71.204V26.597C71.204 27.011 71.0813 27.3483 70.836 27.609C70.5907 27.8697 70.2687 28 69.87 28C69.4867 28 69.1723 27.8697 68.927 27.609C68.6817 27.333 68.559 26.9957 68.559 26.597V13.303C68.559 12.9043 68.6893 12.5747 68.95 12.314C69.226 12.038 69.5633 11.9 69.962 11.9H75.206ZM75.206 19.628C75.4973 19.628 75.781 19.5053 76.057 19.26C76.3483 19.0147 76.5783 18.7003 76.747 18.317C76.931 17.9183 77.023 17.5043 77.023 17.075C77.023 16.6457 76.931 16.2393 76.747 15.856C76.5783 15.4573 76.3483 15.143 76.057 14.913C75.781 14.6677 75.4973 14.545 75.206 14.545H71.204V19.628H75.206ZM92.0341 15.465C92.4327 15.465 92.7624 15.5953 93.0231 15.856C93.2837 16.1167 93.4141 16.454 93.4141 16.868V26.597C93.4141 26.9957 93.2837 27.333 93.0231 27.609C92.7624 27.8697 92.4327 28 92.0341 28C91.6354 28 91.3057 27.8697 91.0451 27.609C90.7997 27.3483 90.6694 27.0187 90.6541 26.62C90.2707 27.0647 89.7494 27.448 89.0901 27.77C88.4461 28.0767 87.7637 28.23 87.0431 28.23C85.9851 28.23 85.0267 27.9617 84.1681 27.425C83.3094 26.873 82.6271 26.114 82.1211 25.148C81.6304 24.182 81.3851 23.0857 81.3851 21.859C81.3851 20.6323 81.6304 19.536 82.1211 18.57C82.6117 17.5887 83.2787 16.8297 84.1221 16.293C84.9807 15.741 85.9237 15.465 86.9511 15.465C87.6871 15.465 88.3771 15.603 89.0211 15.879C89.6651 16.1397 90.2094 16.477 90.6541 16.891V16.868C90.6541 16.4693 90.7844 16.1397 91.0451 15.879C91.3057 15.603 91.6354 15.465 92.0341 15.465ZM87.3881 25.7C88.3847 25.7 89.1974 25.3397 89.8261 24.619C90.4547 23.883 90.7691 22.963 90.7691 21.859C90.7691 20.755 90.4547 19.835 89.8261 19.099C89.1974 18.363 88.3847 17.995 87.3881 17.995C86.4067 17.995 85.6017 18.363 84.9731 19.099C84.3444 19.835 84.0301 20.755 84.0301 21.859C84.0301 22.963 84.3367 23.883 84.9501 24.619C85.5787 25.3397 86.3914 25.7 87.3881 25.7ZM95.6922 26.091C95.5542 25.907 95.4852 25.677 95.4852 25.401C95.4852 25.0023 95.6845 24.665 96.0832 24.389C96.2978 24.251 96.5202 24.182 96.7502 24.182C97.0722 24.182 97.3788 24.3277 97.6702 24.619C98.1302 25.0943 98.6055 25.447 99.0962 25.677C99.6022 25.907 100.208 26.022 100.913 26.022C102.109 25.976 102.707 25.5237 102.707 24.665C102.707 24.2203 102.5 23.883 102.086 23.653C101.687 23.423 101.059 23.193 100.2 22.963C99.3108 22.7177 98.5825 22.4723 98.0152 22.227C97.4632 21.9817 96.9802 21.6137 96.5662 21.123C96.1675 20.617 95.9682 19.9423 95.9682 19.099C95.9682 18.363 96.1752 17.7267 96.5892 17.19C97.0185 16.638 97.5705 16.2163 98.2452 15.925C98.9352 15.6183 99.6635 15.465 100.43 15.465C101.212 15.465 101.994 15.6107 102.776 15.902C103.558 16.1933 104.171 16.6227 104.616 17.19C104.815 17.4353 104.915 17.7113 104.915 18.018C104.915 18.3707 104.769 18.662 104.478 18.892C104.263 19.0607 104.018 19.145 103.742 19.145C103.405 19.145 103.129 19.0377 102.914 18.823C102.638 18.4857 102.278 18.2173 101.833 18.018C101.404 17.8187 100.913 17.719 100.361 17.719C99.1958 17.719 98.6132 18.1407 98.6132 18.984C98.6132 19.3213 98.7205 19.5973 98.9352 19.812C99.1498 20.0113 99.4182 20.1723 99.7402 20.295C100.077 20.4023 100.545 20.5403 101.143 20.709C101.971 20.939 102.661 21.1767 103.213 21.422C103.765 21.6673 104.233 22.043 104.616 22.549C104.999 23.055 105.191 23.722 105.191 24.55C105.191 25.3013 104.969 25.9607 104.524 26.528C104.079 27.08 103.504 27.5017 102.799 27.793C102.109 28.0843 101.396 28.23 100.66 28.23C99.6482 28.23 98.7052 28.0613 97.8312 27.724C96.9572 27.3867 96.2442 26.8423 95.6922 26.091ZM119.323 21.859C119.323 23.0857 119.047 24.1897 118.495 25.171C117.943 26.137 117.184 26.8883 116.218 27.425C115.267 27.9617 114.217 28.23 113.067 28.23C111.902 28.23 110.844 27.9617 109.893 27.425C108.942 26.8883 108.191 26.137 107.639 25.171C107.087 24.1897 106.811 23.0857 106.811 21.859C106.811 20.6323 107.087 19.536 107.639 18.57C108.191 17.5887 108.942 16.8297 109.893 16.293C110.844 15.741 111.902 15.465 113.067 15.465C114.217 15.465 115.267 15.741 116.218 16.293C117.184 16.8297 117.943 17.5887 118.495 18.57C119.047 19.536 119.323 20.6323 119.323 21.859ZM116.563 21.859C116.563 21.1077 116.402 20.4407 116.08 19.858C115.773 19.26 115.352 18.8 114.815 18.478C114.294 18.156 113.711 17.995 113.067 17.995C112.423 17.995 111.833 18.156 111.296 18.478C110.775 18.8 110.353 19.26 110.031 19.858C109.724 20.4407 109.571 21.1077 109.571 21.859C109.571 22.6103 109.724 23.2773 110.031 23.86C110.353 24.4427 110.775 24.895 111.296 25.217C111.833 25.539 112.423 25.7 113.067 25.7C113.711 25.7 114.294 25.539 114.815 25.217C115.352 24.895 115.773 24.4427 116.08 23.86C116.402 23.2773 116.563 22.6103 116.563 21.859ZM120.916 26.091C120.778 25.907 120.709 25.677 120.709 25.401C120.709 25.0023 120.908 24.665 121.307 24.389C121.521 24.251 121.744 24.182 121.974 24.182C122.296 24.182 122.602 24.3277 122.894 24.619C123.354 25.0943 123.829 25.447 124.32 25.677C124.826 25.907 125.431 26.022 126.137 26.022C127.333 25.976 127.931 25.5237 127.931 24.665C127.931 24.2203 127.724 23.883 127.31 23.653C126.911 23.423 126.282 23.193 125.424 22.963C124.534 22.7177 123.806 22.4723 123.239 22.227C122.687 21.9817 122.204 21.6137 121.79 21.123C121.391 20.617 121.192 19.9423 121.192 19.099C121.192 18.363 121.399 17.7267 121.813 17.19C122.242 16.638 122.794 16.2163 123.469 15.925C124.159 15.6183 124.887 15.465 125.654 15.465C126.436 15.465 127.218 15.6107 128 15.902C128.782 16.1933 129.395 16.6227 129.84 17.19C130.039 17.4353 130.139 17.7113 130.139 18.018C130.139 18.3707 129.993 18.662 129.702 18.892C129.487 19.0607 129.242 19.145 128.966 19.145C128.628 19.145 128.352 19.0377 128.138 18.823C127.862 18.4857 127.501 18.2173 127.057 18.018C126.627 17.8187 126.137 17.719 125.585 17.719C124.419 17.719 123.837 18.1407 123.837 18.984C123.837 19.3213 123.944 19.5973 124.159 19.812C124.373 20.0113 124.642 20.1723 124.964 20.295C125.301 20.4023 125.769 20.5403 126.367 20.709C127.195 20.939 127.885 21.1767 128.437 21.422C128.989 21.6673 129.456 22.043 129.84 22.549C130.223 23.055 130.415 23.722 130.415 24.55C130.415 25.3013 130.192 25.9607 129.748 26.528C129.303 27.08 128.728 27.5017 128.023 27.793C127.333 28.0843 126.62 28.23 125.884 28.23C124.872 28.23 123.929 28.0613 123.055 27.724C122.181 27.3867 121.468 26.8423 120.916 26.091Z" fill="white"/>
<path d="M14.0175 31.3242C13.7144 31.258 13.4172 31.1449 13.1332 30.9833C12.2929 30.5056 11.6862 29.6692 11.425 28.6281C11.1636 27.5873 11.2787 26.4663 11.7494 25.4718L11.7677 25.4331C12.5264 23.8295 13.0231 22.117 13.2433 20.3437L13.3424 19.5461C13.4587 18.6096 13.7209 17.7055 14.1216 16.8588C15.4531 14.0452 18.4698 12.8559 20.847 14.2075C23.2241 15.5593 24.075 18.9478 22.7435 21.7612L22.726 21.7982C21.2969 24.8183 19.5001 27.5986 17.3859 30.0613C16.4688 31.1296 15.1988 31.5825 14.0175 31.3242V31.3242ZM14.2399 20.4354C14.0018 22.351 13.4655 24.2003 12.646 25.9324L12.6277 25.9713C12.2886 26.6881 12.2054 27.4958 12.3939 28.2463C12.5821 28.9965 13.0194 29.5993 13.6249 29.9438C14.6277 30.5138 15.8596 30.2468 16.6903 29.2791C18.7324 26.9006 20.4676 24.2156 21.8479 21.2983L21.8655 21.2616C22.9254 19.0215 22.2479 16.3233 20.3553 15.247C18.4623 14.1707 16.0602 15.1178 15.0001 17.3581C14.6601 18.0763 14.4376 18.8434 14.339 19.6378L14.2399 20.4354Z" fill="white"/>
<path d="M20.4663 21.1424C20.4183 21.1319 20.3707 21.1153 20.3246 21.092C20.0424 20.9495 19.9296 20.6148 20.0729 20.3448L20.0917 20.3089C20.3499 19.8216 20.3979 19.2607 20.2267 18.7298C20.1321 18.4369 20.3006 18.1293 20.6026 18.043C20.9048 17.9567 21.2262 18.1241 21.3205 18.417C21.5815 19.2261 21.5081 20.0813 21.114 20.8253L21.0951 20.8613C20.9752 21.0872 20.7139 21.1966 20.4663 21.1424V21.1424ZM19.2757 17.5119C19.227 17.5013 19.1791 17.4844 19.1326 17.4608C19.1324 17.4607 19.1274 17.4581 19.1272 17.4581C18.8451 17.3147 18.7335 16.9799 18.8775 16.71C19.0214 16.4403 19.3666 16.338 19.6484 16.4813L19.654 16.4841C19.9359 16.6274 20.0477 16.9623 19.9037 17.2322C19.7833 17.4574 19.5226 17.5659 19.2757 17.5119Z" fill="white"/>
<path d="M2.8674 8.42296C2.54394 8.35223 2.33702 8.04144 2.40539 7.72875L2.4141 7.68894C2.48247 7.37625 2.80018 7.18041 3.12363 7.25114C3.44732 7.32192 3.65429 7.63249 3.58591 7.94518L3.57721 7.98498C3.50883 8.29768 3.19108 8.49374 2.8674 8.42296Z" fill="white"/>
<path d="M4.34967 20.6163C2.8715 20.2931 1.82573 18.9219 1.74756 17.2046C1.63151 14.6602 1.78828 12.0834 2.21348 9.54574C2.26348 9.2472 2.51553 9.03714 2.77661 9.07669C3.03893 9.11584 3.20854 9.39025 3.15854 9.68879C2.74792 12.1397 2.59647 14.6284 2.70844 17.0857C2.76479 18.3236 3.51855 19.3118 4.58397 19.5448C5.91211 19.8352 7.26395 18.8308 7.59739 17.306L7.60618 17.2658C7.99652 15.4807 8.6628 13.793 9.5867 12.2498L9.97133 11.6073C10.3545 10.9673 10.6309 10.2673 10.7928 9.52698C11.2977 7.21819 10.0724 4.98179 8.06135 4.54203C6.58847 4.21996 5.0477 4.93867 4.13616 6.37291C3.97679 6.62384 3.67513 6.69211 3.46267 6.52546C3.25015 6.35901 3.20728 6.02043 3.36665 5.76949C4.51118 3.9686 6.44607 3.0663 8.29543 3.47069C10.8212 4.02299 12.36 6.83131 11.7259 9.73101C11.5351 10.6037 11.2093 11.4288 10.7577 12.1833L10.3729 12.826C9.51759 14.2545 8.90066 15.817 8.53925 17.4698L8.53046 17.51C8.06803 19.6256 6.19246 21.0193 4.34967 20.6163V20.6163Z" fill="white"/>
<circle cx="4.82568" cy="1.00317" r="1" transform="rotate(-0.0419116 4.82568 1.00317)" fill="white"/>
<circle cx="23.999" cy="13.9915" r="1" transform="rotate(-0.0419116 23.999 13.9915)" fill="white"/>
<circle cx="8.82568" cy="1.00024" r="1" transform="rotate(-0.0419116 8.82568 1.00024)" fill="white"/>
<circle cx="20.9976" cy="11.9934" r="1" transform="rotate(-0.0419116 20.9976 11.9934)" fill="white"/>
<circle cx="13.3268" cy="2.49695" r="1.5" transform="rotate(-0.0419116 13.3268 2.49695)" fill="white"/>
<circle cx="17.4965" cy="10.496" r="1.5" transform="rotate(-0.0419116 17.4965 10.496)" fill="white"/>
</svg>
