<svg width="30" height="30" viewBox="0 0 30 30" fill="none" xmlns="http://www.w3.org/2000/svg">
<path d="M11.5022 18.0164L5.6319 23.547L5.65345 18.9463C5.65582 18.4329 5.21602 18.0166 4.67111 18.0164C4.12617 18.0162 3.68252 18.4322 3.68012 18.9456L3.64811 25.7981L3.64814 25.7993C3.64646 26.312 4.08787 26.7295 4.63379 26.728L4.63508 26.7281L11.9084 26.6979C12.4532 26.6956 12.8949 26.2777 12.8947 25.7642C12.8945 25.2509 12.4526 24.8365 11.9077 24.8387L7.02446 24.859L12.8947 19.3284C13.2808 18.9646 13.2821 18.3761 12.8975 18.0138C12.513 17.6515 11.8883 17.6526 11.5022 18.0164Z" fill="#6F7187"/>
<path d="M18.5312 10.6634L23.987 5.52332L23.9654 10.124C23.9631 10.6374 24.4029 11.0537 24.9478 11.0539C25.4927 11.0542 25.9364 10.6381 25.9388 10.1247L25.9708 3.27226L25.9708 3.27104C25.9724 2.75832 25.531 2.34081 24.9851 2.34229L24.9838 2.34226L17.7105 2.37242C17.1657 2.37468 16.724 2.7926 16.7242 3.30607C16.7244 3.81945 17.1663 4.2338 17.7112 4.23157L22.5944 4.21133L17.1386 9.35145C16.7525 9.7152 16.7513 10.3037 17.1359 10.666C17.5204 11.0283 18.1451 11.0272 18.5312 10.6634Z" fill="#6F7187"/>
</svg>
