<svg width="18" height="18" viewBox="0 0 18 18" fill="none" xmlns="http://www.w3.org/2000/svg">
<circle cx="9" cy="9" r="8.5" stroke="white"/>
<path d="M9.90374 13.146C9.90374 13.3887 9.82441 13.594 9.66574 13.762C9.50708 13.9207 9.30641 14 9.06374 14C8.82108 14 8.62041 13.9207 8.46174 13.762C8.30308 13.594 8.22374 13.3887 8.22374 13.146V7.364C8.22374 7.12133 8.30308 6.92067 8.46174 6.762C8.62041 6.594 8.82108 6.51 9.06374 6.51C9.30641 6.51 9.50708 6.594 9.66574 6.762C9.82441 6.92067 9.90374 7.12133 9.90374 7.364V13.146ZM9.04974 5.6C8.73241 5.6 8.50841 5.54867 8.37774 5.446C8.24708 5.34333 8.18174 5.16133 8.18174 4.9V4.634C8.18174 4.37267 8.25174 4.19067 8.39174 4.088C8.53174 3.98533 8.75574 3.934 9.06374 3.934C9.39041 3.934 9.61908 3.98533 9.74974 4.088C9.88041 4.19067 9.94574 4.37267 9.94574 4.634V4.9C9.94574 5.17067 9.87574 5.35733 9.73574 5.46C9.60508 5.55333 9.37641 5.6 9.04974 5.6Z" fill="white"/>
</svg>
