<?xml version="1.0" encoding="utf-8"?>
<!-- Generator: Adobe Illustrator 23.1.0, SVG Export Plug-In . SVG Version: 6.00 Build 0)  -->
<svg version="1.1" id="Capa_1" xmlns="http://www.w3.org/2000/svg" xmlns:xlink="http://www.w3.org/1999/xlink" x="0px" y="0px"
	 viewBox="0 0 146.1 36" style="enable-background:new 0 0 146.1 36;" xml:space="preserve">
<style type="text/css">
	.st0{fill:url(#SVGID_1_);}
	.st1{fill:#FFFFFF;}
	.st2{fill:#6F7187;}
	.st3{fill:url(#SVGID_2_);}
</style>
<g>
	<g>
		<g>
			
				<linearGradient id="SVGID_1_" gradientUnits="userSpaceOnUse" x1="16.6082" y1="1632.1604" x2="23.0173" y2="1623.98" gradientTransform="matrix(1 0 0 1 0 -1609.8898)">
				<stop  offset="0" style="stop-color:#5870E4"/>
				<stop  offset="1" style="stop-color:#415CDD"/>
			</linearGradient>
			<path class="st0" d="M14.4,0h11.5c6.6,0,12,5.4,12,12v11.5c0,6.6-5.4,12-12,12H14.4c-6.6,0-12-5.4-12-12V12C2.4,5.4,7.8,0,14.4,0
				z"/>
			<path class="st1" d="M29.5,12.5c-1.6-2.5-4.5-4-6.7-0.8c-1.8,2.5,1.4,4.5,0.9,6.9c-0.9,4.3-7.1,2.9-6.4,5.1
				c1.1,3.7,6.8,1.7,10.2-1.6S31.2,14.9,29.5,12.5z"/>
			<path class="st1" d="M27.9,5.8c0.9,0.4,1.3,1.4,0.9,2.3c-0.3,0.9-1.3,1.3-2.2,1c-0.9-0.4-1.3-1.4-0.9-2.3
				C26.1,5.9,27.1,5.5,27.9,5.8z"/>
			<path class="st1" d="M30.5,8.7c0.6,0.2,0.8,0.9,0.6,1.5c-0.2,0.6-0.9,0.9-1.4,0.7c-0.6-0.2-0.8-0.9-0.6-1.5
				C29.3,8.7,29.9,8.4,30.5,8.7z"/>
			<path class="st1" d="M32,11.1c0.5,0.2,0.8,0.8,0.6,1.3s-0.8,0.8-1.3,0.6s-0.8-0.8-0.6-1.3C30.9,11.1,31.5,10.9,32,11.1z"/>
			<path class="st1" d="M14.9,21.8c1.2-2.2,4.7-1.4,5-4.5c0.4-3.9-2.8-4.8-5.5-4.1c-2.8,0.7-5.1,3.8-4.6,8.6s3.5,10.3,6.6,8.4
				C18.3,29,12.8,25.7,14.9,21.8z"/>
			<path class="st1" d="M19.8,9.3c0.9,0.3,1.3,1.3,1,2.3c-0.3,0.9-1.3,1.4-2.1,1c-0.9-0.3-1.3-1.3-1-2.3C18,9.4,19,9,19.8,9.3z"/>
			<path class="st1" d="M16.1,9.6c0.6,0.2,0.9,0.9,0.6,1.5c-0.2,0.6-0.8,0.9-1.4,0.7c-0.6-0.2-0.9-0.9-0.6-1.5
				C14.9,9.7,15.5,9.4,16.1,9.6z"/>
			<path class="st1" d="M13.4,10.3c0.5,0.2,0.8,0.8,0.6,1.3s-0.8,0.8-1.3,0.6s-0.8-0.8-0.6-1.3C12.4,10.4,12.9,10.1,13.4,10.3z"/>
			<path class="st2" d="M50.1,26.3c0,0.2-0.1,0.4-0.2,0.5c-0.1,0.1-0.3,0.2-0.5,0.2s-0.4-0.1-0.6-0.2c-0.1-0.1-0.2-0.3-0.2-0.6V10.9
				c0-0.2,0.1-0.4,0.2-0.5c0.1-0.1,0.3-0.2,0.6-0.2c0.2,0,0.4,0.1,0.5,0.2c0.1,0.1,0.2,0.3,0.2,0.5V26.3z M60.1,14.4
				c1.5,0,2.6,0.4,3.3,1.3c0.7,0.9,1.1,2,1.1,3.5v7.1c0,0.2-0.1,0.4-0.2,0.5C64,26.9,63.8,27,63.7,27c-0.2,0-0.4-0.1-0.5-0.2
				S63,26.5,63,26.3v-7c0-1-0.3-1.9-0.8-2.5c-0.5-0.7-1.3-1-2.4-1c-0.7,0-1.3,0.2-2,0.5c-0.6,0.3-1.1,0.8-1.5,1.3s-0.6,1.1-0.6,1.7
				v7c0,0.2-0.1,0.4-0.2,0.5C55.4,26.9,55.2,27,55,27s-0.4-0.1-0.5-0.2s-0.2-0.3-0.2-0.5V15.5c0-0.2,0.1-0.4,0.2-0.5
				c0.1-0.1,0.3-0.2,0.5-0.2s0.4,0.1,0.5,0.2c0.1,0.1,0.2,0.3,0.2,0.5v1.3c0.4-0.7,1-1.3,1.8-1.7C58.4,14.7,59.2,14.4,60.1,14.4z
				 M72.4,10.6c-0.5,0-0.9,0.2-1.2,0.5c-0.3,0.3-0.4,0.8-0.4,1.4V15h2.7c0.2,0,0.3,0.1,0.5,0.2c0.1,0.1,0.2,0.3,0.2,0.5
				s-0.1,0.4-0.2,0.5s-0.3,0.2-0.5,0.2h-2.7v10c0,0.2-0.1,0.4-0.2,0.5s-0.3,0.2-0.5,0.2s-0.4-0.1-0.5-0.2s-0.2-0.3-0.2-0.5v-10h-1.8
				c-0.2,0-0.4-0.1-0.5-0.2s-0.2-0.3-0.2-0.5s0.1-0.4,0.2-0.5s0.3-0.2,0.5-0.2h1.8v-2.5c0-1,0.3-1.8,0.9-2.3
				c0.6-0.6,1.4-0.8,2.4-0.8c0.4,0,0.9,0.1,1.2,0.2c0.4,0.1,0.6,0.3,0.6,0.6c0,0.2-0.1,0.4-0.2,0.5s-0.3,0.2-0.4,0.2s-0.3,0-0.5-0.1
				C72.9,10.7,72.6,10.6,72.4,10.6z M87.9,20.9c0,1.2-0.3,2.3-0.8,3.3s-1.3,1.7-2.2,2.3c-0.9,0.5-2,0.8-3.1,0.8s-2.2-0.3-3.1-0.8
				c-0.9-0.6-1.7-1.3-2.2-2.3s-0.8-2.1-0.8-3.3c0-1.2,0.3-2.3,0.8-3.3s1.3-1.7,2.2-2.3c0.9-0.6,2-0.8,3.1-0.8s2.2,0.3,3.1,0.8
				c0.9,0.6,1.7,1.3,2.2,2.3C87.7,18.6,87.9,19.7,87.9,20.9z M86.5,20.9c0-1-0.2-1.8-0.6-2.6c-0.4-0.8-1-1.4-1.7-1.8
				s-1.5-0.7-2.4-0.7s-1.6,0.2-2.4,0.7c-0.7,0.4-1.3,1-1.7,1.8c-0.4,0.8-0.6,1.6-0.6,2.6c0,0.9,0.2,1.8,0.6,2.6
				c0.4,0.8,1,1.4,1.7,1.8s1.5,0.6,2.4,0.6s1.6-0.2,2.4-0.6c0.7-0.4,1.3-1,1.7-1.8C86.3,22.7,86.5,21.8,86.5,20.9z M97.7,10.2
				c0.8,0,1.6,0.2,2.3,0.7c0.7,0.5,1.3,1.1,1.8,2c0.4,0.8,0.7,1.7,0.7,2.7c0,1-0.2,1.9-0.7,2.7s-1,1.5-1.8,2
				c-0.7,0.5-1.5,0.7-2.3,0.7h-4.2v4.5c0,0.4-0.1,0.8-0.4,1.1c-0.3,0.3-0.6,0.4-1,0.4s-0.7-0.1-1-0.4s-0.4-0.6-0.4-1.1V11.7
				c0-0.4,0.1-0.8,0.4-1c0.3-0.3,0.6-0.4,1.1-0.4h5.5V10.2z M97.7,18.3c0.3,0,0.6-0.1,0.9-0.4s0.5-0.6,0.7-1s0.3-0.8,0.3-1.3
				c0-0.5-0.1-0.9-0.3-1.3c-0.2-0.4-0.4-0.7-0.7-1C98.3,13.1,98,13,97.7,13h-4.2v5.3H97.7z M115.3,13.9c0.4,0,0.8,0.1,1,0.4
				c0.3,0.3,0.4,0.6,0.4,1.1v10.2c0,0.4-0.1,0.8-0.4,1.1c-0.3,0.3-0.6,0.4-1,0.4s-0.8-0.1-1-0.4c-0.3-0.3-0.4-0.6-0.4-1
				c-0.4,0.5-0.9,0.9-1.6,1.2c-0.7,0.3-1.4,0.5-2.1,0.5c-1.1,0-2.1-0.3-3-0.8c-0.9-0.6-1.6-1.4-2.1-2.4s-0.8-2.2-0.8-3.4
				c0-1.3,0.3-2.4,0.8-3.4s1.2-1.8,2.1-2.4c0.9-0.6,1.9-0.9,3-0.9c0.8,0,1.5,0.1,2.2,0.4c0.7,0.3,1.2,0.6,1.7,1.1l0,0
				c0-0.4,0.1-0.8,0.4-1C114.5,14.1,114.9,13.9,115.3,13.9z M110.4,24.6c1,0,1.9-0.4,2.5-1.1c0.7-0.8,1-1.7,1-2.9
				c0-1.2-0.3-2.1-1-2.9s-1.5-1.2-2.5-1.2s-1.9,0.4-2.5,1.2c-0.7,0.8-1,1.7-1,2.9c0,1.2,0.3,2.1,1,2.9
				C108.5,24.2,109.4,24.6,110.4,24.6z M119.1,25c-0.1-0.2-0.2-0.4-0.2-0.7c0-0.4,0.2-0.8,0.6-1.1c0.2-0.1,0.5-0.2,0.7-0.2
				c0.3,0,0.7,0.2,1,0.5c0.5,0.5,1,0.9,1.5,1.1s1.2,0.4,1.9,0.4c1.2,0,1.9-0.5,1.9-1.4c0-0.5-0.2-0.8-0.6-1.1
				c-0.4-0.2-1.1-0.5-2-0.7c-0.9-0.3-1.7-0.5-2.3-0.8c-0.6-0.3-1.1-0.6-1.5-1.2c-0.4-0.5-0.6-1.2-0.6-2.1c0-0.8,0.2-1.4,0.6-2
				c0.4-0.6,1-1,1.7-1.3s1.5-0.5,2.3-0.5s1.6,0.2,2.4,0.5s1.5,0.8,1.9,1.3c0.2,0.3,0.3,0.5,0.3,0.9s-0.2,0.7-0.5,0.9
				c-0.2,0.2-0.5,0.3-0.8,0.3c-0.4,0-0.6-0.1-0.9-0.3c-0.3-0.4-0.7-0.6-1.1-0.8c-0.4-0.2-1-0.3-1.5-0.3c-1.2,0-1.8,0.4-1.8,1.3
				c0,0.4,0.1,0.6,0.3,0.9c0.2,0.2,0.5,0.4,0.8,0.5c0.4,0.1,0.8,0.3,1.5,0.4c0.9,0.2,1.6,0.5,2.2,0.7c0.6,0.3,1.1,0.6,1.5,1.2
				c0.4,0.5,0.6,1.2,0.6,2.1c0,0.8-0.2,1.5-0.7,2.1s-1.1,1-1.8,1.3c-0.7,0.3-1.5,0.5-2.2,0.5c-1.1,0-2-0.2-3-0.5
				C120.4,26.4,119.7,25.8,119.1,25z M143.8,20.6c0,1.3-0.3,2.4-0.9,3.5c-0.6,1-1.4,1.8-2.4,2.4s-2.1,0.8-3.3,0.8s-2.3-0.3-3.3-0.8
				c-1-0.6-1.8-1.3-2.4-2.4c-0.6-1-0.9-2.2-0.9-3.5s0.3-2.4,0.9-3.4c0.6-1,1.4-1.8,2.4-2.4c1-0.6,2.1-0.9,3.3-0.9s2.3,0.3,3.3,0.9
				c1,0.6,1.8,1.4,2.4,2.4S143.8,19.3,143.8,20.6z M140.9,20.6c0-0.8-0.2-1.5-0.5-2.1s-0.8-1.1-1.3-1.4s-1.2-0.5-1.8-0.5
				c-0.7,0-1.3,0.2-1.8,0.5s-1,0.8-1.3,1.4s-0.5,1.3-0.5,2.1c0,0.8,0.2,1.5,0.5,2.1s0.8,1.1,1.3,1.4c0.6,0.3,1.2,0.5,1.8,0.5
				c0.7,0,1.3-0.2,1.8-0.5c0.6-0.3,1-0.8,1.3-1.4S140.9,21.4,140.9,20.6z"/>
		</g>
	</g>
	<g>
		<g>
			
				<linearGradient id="SVGID_2_" gradientUnits="userSpaceOnUse" x1="16.6082" y1="1632.1604" x2="23.0173" y2="1623.98" gradientTransform="matrix(1 0 0 1 0 -1609.8898)">
				<stop  offset="0" style="stop-color:#5870E4"/>
				<stop  offset="1" style="stop-color:#415CDD"/>
			</linearGradient>
			<path class="st3" d="M14.4,0h11.5c6.6,0,12,5.4,12,12v11.5c0,6.6-5.4,12-12,12H14.4c-6.6,0-12-5.4-12-12V12C2.4,5.4,7.8,0,14.4,0
				z"/>
			<path class="st1" d="M29.5,12.5c-1.6-2.5-4.5-4-6.7-0.8c-1.8,2.5,1.4,4.5,0.9,6.9c-0.9,4.3-7.1,2.9-6.4,5.1
				c1.1,3.7,6.8,1.7,10.2-1.6S31.2,14.9,29.5,12.5z"/>
			<path class="st1" d="M27.9,5.8c0.9,0.4,1.3,1.4,0.9,2.3c-0.3,0.9-1.3,1.3-2.2,1c-0.9-0.4-1.3-1.4-0.9-2.3
				C26.1,5.9,27.1,5.5,27.9,5.8z"/>
			<path class="st1" d="M30.5,8.7c0.6,0.2,0.8,0.9,0.6,1.5c-0.2,0.6-0.9,0.9-1.4,0.7c-0.6-0.2-0.8-0.9-0.6-1.5
				C29.3,8.7,29.9,8.4,30.5,8.7z"/>
			<path class="st1" d="M32,11.1c0.5,0.2,0.8,0.8,0.6,1.3s-0.8,0.8-1.3,0.6s-0.8-0.8-0.6-1.3C30.9,11.1,31.5,10.9,32,11.1z"/>
			<path class="st1" d="M14.9,21.8c1.2-2.2,4.7-1.4,5-4.5c0.4-3.9-2.8-4.8-5.5-4.1c-2.8,0.7-5.1,3.8-4.6,8.6s3.5,10.3,6.6,8.4
				C18.3,29,12.8,25.7,14.9,21.8z"/>
			<path class="st1" d="M19.8,9.3c0.9,0.3,1.3,1.3,1,2.3c-0.3,0.9-1.3,1.4-2.1,1c-0.9-0.3-1.3-1.3-1-2.3C18,9.4,19,9,19.8,9.3z"/>
			<path class="st1" d="M16.1,9.6c0.6,0.2,0.9,0.9,0.6,1.5c-0.2,0.6-0.8,0.9-1.4,0.7c-0.6-0.2-0.9-0.9-0.6-1.5
				C14.9,9.7,15.5,9.4,16.1,9.6z"/>
			<path class="st1" d="M13.4,10.3c0.5,0.2,0.8,0.8,0.6,1.3s-0.8,0.8-1.3,0.6s-0.8-0.8-0.6-1.3C12.4,10.4,12.9,10.1,13.4,10.3z"/>
			<path class="st2" d="M50.1,26.3c0,0.2-0.1,0.4-0.2,0.5c-0.1,0.1-0.3,0.2-0.5,0.2s-0.4-0.1-0.6-0.2c-0.1-0.1-0.2-0.3-0.2-0.6V10.9
				c0-0.2,0.1-0.4,0.2-0.5c0.1-0.1,0.3-0.2,0.6-0.2c0.2,0,0.4,0.1,0.5,0.2c0.1,0.1,0.2,0.3,0.2,0.5V26.3z M60.1,14.4
				c1.5,0,2.6,0.4,3.3,1.3c0.7,0.9,1.1,2,1.1,3.5v7.1c0,0.2-0.1,0.4-0.2,0.5C64,26.9,63.8,27,63.7,27c-0.2,0-0.4-0.1-0.5-0.2
				S63,26.5,63,26.3v-7c0-1-0.3-1.9-0.8-2.5c-0.5-0.7-1.3-1-2.4-1c-0.7,0-1.3,0.2-2,0.5c-0.6,0.3-1.1,0.8-1.5,1.3s-0.6,1.1-0.6,1.7
				v7c0,0.2-0.1,0.4-0.2,0.5C55.4,26.9,55.2,27,55,27s-0.4-0.1-0.5-0.2s-0.2-0.3-0.2-0.5V15.5c0-0.2,0.1-0.4,0.2-0.5
				c0.1-0.1,0.3-0.2,0.5-0.2s0.4,0.1,0.5,0.2c0.1,0.1,0.2,0.3,0.2,0.5v1.3c0.4-0.7,1-1.3,1.8-1.7C58.4,14.7,59.2,14.4,60.1,14.4z
				 M72.4,10.6c-0.5,0-0.9,0.2-1.2,0.5c-0.3,0.3-0.4,0.8-0.4,1.4V15h2.7c0.2,0,0.3,0.1,0.5,0.2c0.1,0.1,0.2,0.3,0.2,0.5
				s-0.1,0.4-0.2,0.5s-0.3,0.2-0.5,0.2h-2.7v10c0,0.2-0.1,0.4-0.2,0.5s-0.3,0.2-0.5,0.2s-0.4-0.1-0.5-0.2s-0.2-0.3-0.2-0.5v-10h-1.8
				c-0.2,0-0.4-0.1-0.5-0.2s-0.2-0.3-0.2-0.5s0.1-0.4,0.2-0.5s0.3-0.2,0.5-0.2h1.8v-2.5c0-1,0.3-1.8,0.9-2.3
				c0.6-0.6,1.4-0.8,2.4-0.8c0.4,0,0.9,0.1,1.2,0.2c0.4,0.1,0.6,0.3,0.6,0.6c0,0.2-0.1,0.4-0.2,0.5s-0.3,0.2-0.4,0.2s-0.3,0-0.5-0.1
				C72.9,10.7,72.6,10.6,72.4,10.6z M87.9,20.9c0,1.2-0.3,2.3-0.8,3.3s-1.3,1.7-2.2,2.3c-0.9,0.5-2,0.8-3.1,0.8s-2.2-0.3-3.1-0.8
				c-0.9-0.6-1.7-1.3-2.2-2.3s-0.8-2.1-0.8-3.3c0-1.2,0.3-2.3,0.8-3.3s1.3-1.7,2.2-2.3c0.9-0.6,2-0.8,3.1-0.8s2.2,0.3,3.1,0.8
				c0.9,0.6,1.7,1.3,2.2,2.3C87.7,18.6,87.9,19.7,87.9,20.9z M86.5,20.9c0-1-0.2-1.8-0.6-2.6c-0.4-0.8-1-1.4-1.7-1.8
				s-1.5-0.7-2.4-0.7s-1.6,0.2-2.4,0.7c-0.7,0.4-1.3,1-1.7,1.8c-0.4,0.8-0.6,1.6-0.6,2.6c0,0.9,0.2,1.8,0.6,2.6
				c0.4,0.8,1,1.4,1.7,1.8s1.5,0.6,2.4,0.6s1.6-0.2,2.4-0.6c0.7-0.4,1.3-1,1.7-1.8C86.3,22.7,86.5,21.8,86.5,20.9z M97.7,10.2
				c0.8,0,1.6,0.2,2.3,0.7c0.7,0.5,1.3,1.1,1.8,2c0.4,0.8,0.7,1.7,0.7,2.7c0,1-0.2,1.9-0.7,2.7s-1,1.5-1.8,2
				c-0.7,0.5-1.5,0.7-2.3,0.7h-4.2v4.5c0,0.4-0.1,0.8-0.4,1.1c-0.3,0.3-0.6,0.4-1,0.4s-0.7-0.1-1-0.4s-0.4-0.6-0.4-1.1V11.7
				c0-0.4,0.1-0.8,0.4-1c0.3-0.3,0.6-0.4,1.1-0.4h5.5V10.2z M97.7,18.3c0.3,0,0.6-0.1,0.9-0.4s0.5-0.6,0.7-1s0.3-0.8,0.3-1.3
				c0-0.5-0.1-0.9-0.3-1.3c-0.2-0.4-0.4-0.7-0.7-1C98.3,13.1,98,13,97.7,13h-4.2v5.3H97.7z M115.3,13.9c0.4,0,0.8,0.1,1,0.4
				c0.3,0.3,0.4,0.6,0.4,1.1v10.2c0,0.4-0.1,0.8-0.4,1.1c-0.3,0.3-0.6,0.4-1,0.4s-0.8-0.1-1-0.4c-0.3-0.3-0.4-0.6-0.4-1
				c-0.4,0.5-0.9,0.9-1.6,1.2c-0.7,0.3-1.4,0.5-2.1,0.5c-1.1,0-2.1-0.3-3-0.8c-0.9-0.6-1.6-1.4-2.1-2.4s-0.8-2.2-0.8-3.4
				c0-1.3,0.3-2.4,0.8-3.4s1.2-1.8,2.1-2.4c0.9-0.6,1.9-0.9,3-0.9c0.8,0,1.5,0.1,2.2,0.4c0.7,0.3,1.2,0.6,1.7,1.1l0,0
				c0-0.4,0.1-0.8,0.4-1C114.5,14.1,114.9,13.9,115.3,13.9z M110.4,24.6c1,0,1.9-0.4,2.5-1.1c0.7-0.8,1-1.7,1-2.9
				c0-1.2-0.3-2.1-1-2.9s-1.5-1.2-2.5-1.2s-1.9,0.4-2.5,1.2c-0.7,0.8-1,1.7-1,2.9c0,1.2,0.3,2.1,1,2.9
				C108.5,24.2,109.4,24.6,110.4,24.6z M119.1,25c-0.1-0.2-0.2-0.4-0.2-0.7c0-0.4,0.2-0.8,0.6-1.1c0.2-0.1,0.5-0.2,0.7-0.2
				c0.3,0,0.7,0.2,1,0.5c0.5,0.5,1,0.9,1.5,1.1s1.2,0.4,1.9,0.4c1.2,0,1.9-0.5,1.9-1.4c0-0.5-0.2-0.8-0.6-1.1
				c-0.4-0.2-1.1-0.5-2-0.7c-0.9-0.3-1.7-0.5-2.3-0.8c-0.6-0.3-1.1-0.6-1.5-1.2c-0.4-0.5-0.6-1.2-0.6-2.1c0-0.8,0.2-1.4,0.6-2
				c0.4-0.6,1-1,1.7-1.3s1.5-0.5,2.3-0.5s1.6,0.2,2.4,0.5s1.5,0.8,1.9,1.3c0.2,0.3,0.3,0.5,0.3,0.9s-0.2,0.7-0.5,0.9
				c-0.2,0.2-0.5,0.3-0.8,0.3c-0.4,0-0.6-0.1-0.9-0.3c-0.3-0.4-0.7-0.6-1.1-0.8c-0.4-0.2-1-0.3-1.5-0.3c-1.2,0-1.8,0.4-1.8,1.3
				c0,0.4,0.1,0.6,0.3,0.9c0.2,0.2,0.5,0.4,0.8,0.5c0.4,0.1,0.8,0.3,1.5,0.4c0.9,0.2,1.6,0.5,2.2,0.7c0.6,0.3,1.1,0.6,1.5,1.2
				c0.4,0.5,0.6,1.2,0.6,2.1c0,0.8-0.2,1.5-0.7,2.1s-1.1,1-1.8,1.3c-0.7,0.3-1.5,0.5-2.2,0.5c-1.1,0-2-0.2-3-0.5
				C120.4,26.4,119.7,25.8,119.1,25z M143.8,20.6c0,1.3-0.3,2.4-0.9,3.5c-0.6,1-1.4,1.8-2.4,2.4s-2.1,0.8-3.3,0.8s-2.3-0.3-3.3-0.8
				c-1-0.6-1.8-1.3-2.4-2.4c-0.6-1-0.9-2.2-0.9-3.5s0.3-2.4,0.9-3.4c0.6-1,1.4-1.8,2.4-2.4c1-0.6,2.1-0.9,3.3-0.9s2.3,0.3,3.3,0.9
				c1,0.6,1.8,1.4,2.4,2.4S143.8,19.3,143.8,20.6z M140.9,20.6c0-0.8-0.2-1.5-0.5-2.1s-0.8-1.1-1.3-1.4s-1.2-0.5-1.8-0.5
				c-0.7,0-1.3,0.2-1.8,0.5s-1,0.8-1.3,1.4s-0.5,1.3-0.5,2.1c0,0.8,0.2,1.5,0.5,2.1s0.8,1.1,1.3,1.4c0.6,0.3,1.2,0.5,1.8,0.5
				c0.7,0,1.3-0.2,1.8-0.5c0.6-0.3,1-0.8,1.3-1.4S140.9,21.4,140.9,20.6z"/>
		</g>
	</g>
</g>
</svg>
