<?xml version="1.0" encoding="utf-8"?>
<!-- Generator: Adobe Illustrator 23.1.0, SVG Export Plug-In . SVG Version: 6.00 Build 0)  -->
<svg version="1.1" xmlns="http://www.w3.org/2000/svg" xmlns:xlink="http://www.w3.org/1999/xlink" x="0px" y="0px"
	 viewBox="0 0 146.1 36" style="enable-background:new 0 0 146.1 36;" xml:space="preserve">
<style type="text/css">
	.st0{display:none;}
	.st1{display:inline;}
	.st2{fill:url(#SVGID_1_);}
	.st3{fill:#FFFFFF;}
	.st4{fill:#6F7187;}
	.st5{fill:url(#SVGID_2_);}
	.st6{clip-path:url(#SVGID_4_);}
	.st7{fill:#F33636;}
	.st8{fill:#CA3939;}
	.st9{fill:#B2DFED;}
	.st10{fill:#8C2828;}
	.st11{fill:#89BAC7;}
	.st12{fill:url(#SVGID_5_);}
	.st13{clip-path:url(#SVGID_7_);}
</style>
<g id="Capa_1" class="st0">
	<g class="st1">
		<g>
			
				<linearGradient id="SVGID_1_" gradientUnits="userSpaceOnUse" x1="16.6082" y1="-790.2706" x2="23.0173" y2="-782.0902" gradientTransform="matrix(1 0 0 -1 0 -768)">
				<stop  offset="0" style="stop-color:#5870E4"/>
				<stop  offset="1" style="stop-color:#415CDD"/>
			</linearGradient>
			<path class="st2" d="M14.4,0h11.5c6.6,0,12,5.4,12,12v11.5c0,6.6-5.4,12-12,12H14.4c-6.6,0-12-5.4-12-12V12C2.4,5.4,7.8,0,14.4,0
				z"/>
			<path class="st3" d="M29.5,12.5c-1.6-2.5-4.5-4-6.7-0.8c-1.8,2.5,1.4,4.5,0.9,6.9c-0.9,4.3-7.1,2.9-6.4,5.1
				c1.1,3.7,6.8,1.7,10.2-1.6S31.2,14.9,29.5,12.5z"/>
			<path class="st3" d="M27.9,5.8c0.9,0.4,1.3,1.4,0.9,2.3c-0.3,0.9-1.3,1.3-2.2,1c-0.9-0.4-1.3-1.4-0.9-2.3
				C26.1,5.9,27.1,5.5,27.9,5.8z"/>
			<path class="st3" d="M30.5,8.7c0.6,0.2,0.8,0.9,0.6,1.5c-0.2,0.6-0.9,0.9-1.4,0.7c-0.6-0.2-0.8-0.9-0.6-1.5
				C29.3,8.7,29.9,8.4,30.5,8.7z"/>
			<path class="st3" d="M32,11.1c0.5,0.2,0.8,0.8,0.6,1.3s-0.8,0.8-1.3,0.6s-0.8-0.8-0.6-1.3C30.9,11.1,31.5,10.9,32,11.1z"/>
			<path class="st3" d="M14.9,21.8c1.2-2.2,4.7-1.4,5-4.5c0.4-3.9-2.8-4.8-5.5-4.1c-2.8,0.7-5.1,3.8-4.6,8.6s3.5,10.3,6.6,8.4
				C18.3,29,12.8,25.7,14.9,21.8z"/>
			<path class="st3" d="M19.8,9.3c0.9,0.3,1.3,1.3,1,2.3c-0.3,0.9-1.3,1.4-2.1,1c-0.9-0.3-1.3-1.3-1-2.3C18,9.4,19,9,19.8,9.3z"/>
			<path class="st3" d="M16.1,9.6c0.6,0.2,0.9,0.9,0.6,1.5c-0.2,0.6-0.8,0.9-1.4,0.7c-0.6-0.2-0.9-0.9-0.6-1.5
				C14.9,9.7,15.5,9.4,16.1,9.6z"/>
			<path class="st3" d="M13.4,10.3c0.5,0.2,0.8,0.8,0.6,1.3s-0.8,0.8-1.3,0.6s-0.8-0.8-0.6-1.3C12.4,10.4,12.9,10.1,13.4,10.3z"/>
			<path class="st4" d="M50.1,26.3c0,0.2-0.1,0.4-0.2,0.5c-0.1,0.1-0.3,0.2-0.5,0.2s-0.4-0.1-0.6-0.2c-0.1-0.1-0.2-0.3-0.2-0.6V10.9
				c0-0.2,0.1-0.4,0.2-0.5c0.1-0.1,0.3-0.2,0.6-0.2c0.2,0,0.4,0.1,0.5,0.2c0.1,0.1,0.2,0.3,0.2,0.5V26.3z M60.1,14.4
				c1.5,0,2.6,0.4,3.3,1.3c0.7,0.9,1.1,2,1.1,3.5v7.1c0,0.2-0.1,0.4-0.2,0.5C64,26.9,63.8,27,63.7,27c-0.2,0-0.4-0.1-0.5-0.2
				S63,26.5,63,26.3v-7c0-1-0.3-1.9-0.8-2.5c-0.5-0.7-1.3-1-2.4-1c-0.7,0-1.3,0.2-2,0.5c-0.6,0.3-1.1,0.8-1.5,1.3s-0.6,1.1-0.6,1.7
				v7c0,0.2-0.1,0.4-0.2,0.5C55.4,26.9,55.2,27,55,27s-0.4-0.1-0.5-0.2s-0.2-0.3-0.2-0.5V15.5c0-0.2,0.1-0.4,0.2-0.5
				c0.1-0.1,0.3-0.2,0.5-0.2s0.4,0.1,0.5,0.2c0.1,0.1,0.2,0.3,0.2,0.5v1.3c0.4-0.7,1-1.3,1.8-1.7C58.4,14.7,59.2,14.4,60.1,14.4z
				 M72.4,10.6c-0.5,0-0.9,0.2-1.2,0.5c-0.3,0.3-0.4,0.8-0.4,1.4V15h2.7c0.2,0,0.3,0.1,0.5,0.2c0.1,0.1,0.2,0.3,0.2,0.5
				s-0.1,0.4-0.2,0.5s-0.3,0.2-0.5,0.2h-2.7v10c0,0.2-0.1,0.4-0.2,0.5s-0.3,0.2-0.5,0.2s-0.4-0.1-0.5-0.2s-0.2-0.3-0.2-0.5v-10h-1.8
				c-0.2,0-0.4-0.1-0.5-0.2s-0.2-0.3-0.2-0.5s0.1-0.4,0.2-0.5s0.3-0.2,0.5-0.2h1.8v-2.5c0-1,0.3-1.8,0.9-2.3
				c0.6-0.6,1.4-0.8,2.4-0.8c0.4,0,0.9,0.1,1.2,0.2c0.4,0.1,0.6,0.3,0.6,0.6c0,0.2-0.1,0.4-0.2,0.5s-0.3,0.2-0.4,0.2s-0.3,0-0.5-0.1
				C72.9,10.7,72.6,10.6,72.4,10.6z M87.9,20.9c0,1.2-0.3,2.3-0.8,3.3s-1.3,1.7-2.2,2.3c-0.9,0.5-2,0.8-3.1,0.8s-2.2-0.3-3.1-0.8
				c-0.9-0.6-1.7-1.3-2.2-2.3s-0.8-2.1-0.8-3.3c0-1.2,0.3-2.3,0.8-3.3s1.3-1.7,2.2-2.3c0.9-0.6,2-0.8,3.1-0.8s2.2,0.3,3.1,0.8
				c0.9,0.6,1.7,1.3,2.2,2.3C87.7,18.6,87.9,19.7,87.9,20.9z M86.5,20.9c0-1-0.2-1.8-0.6-2.6c-0.4-0.8-1-1.4-1.7-1.8
				s-1.5-0.7-2.4-0.7s-1.6,0.2-2.4,0.7c-0.7,0.4-1.3,1-1.7,1.8c-0.4,0.8-0.6,1.6-0.6,2.6c0,0.9,0.2,1.8,0.6,2.6
				c0.4,0.8,1,1.4,1.7,1.8s1.5,0.6,2.4,0.6s1.6-0.2,2.4-0.6c0.7-0.4,1.3-1,1.7-1.8C86.3,22.7,86.5,21.8,86.5,20.9z M97.7,10.2
				c0.8,0,1.6,0.2,2.3,0.7c0.7,0.5,1.3,1.1,1.8,2c0.4,0.8,0.7,1.7,0.7,2.7c0,1-0.2,1.9-0.7,2.7s-1,1.5-1.8,2
				c-0.7,0.5-1.5,0.7-2.3,0.7h-4.2v4.5c0,0.4-0.1,0.8-0.4,1.1c-0.3,0.3-0.6,0.4-1,0.4s-0.7-0.1-1-0.4s-0.4-0.6-0.4-1.1V11.7
				c0-0.4,0.1-0.8,0.4-1c0.3-0.3,0.6-0.4,1.1-0.4h5.5V10.2z M97.7,18.3c0.3,0,0.6-0.1,0.9-0.4s0.5-0.6,0.7-1s0.3-0.8,0.3-1.3
				s-0.1-0.9-0.3-1.3c-0.2-0.4-0.4-0.7-0.7-1C98.3,13.1,98,13,97.7,13h-4.2v5.3H97.7z M115.3,13.9c0.4,0,0.8,0.1,1,0.4
				c0.3,0.3,0.4,0.6,0.4,1.1v10.2c0,0.4-0.1,0.8-0.4,1.1c-0.3,0.3-0.6,0.4-1,0.4s-0.8-0.1-1-0.4c-0.3-0.3-0.4-0.6-0.4-1
				c-0.4,0.5-0.9,0.9-1.6,1.2c-0.7,0.3-1.4,0.5-2.1,0.5c-1.1,0-2.1-0.3-3-0.8c-0.9-0.6-1.6-1.4-2.1-2.4s-0.8-2.2-0.8-3.4
				c0-1.3,0.3-2.4,0.8-3.4s1.2-1.8,2.1-2.4c0.9-0.6,1.9-0.9,3-0.9c0.8,0,1.5,0.1,2.2,0.4c0.7,0.3,1.2,0.6,1.7,1.1l0,0
				c0-0.4,0.1-0.8,0.4-1C114.5,14.1,114.9,13.9,115.3,13.9z M110.4,24.6c1,0,1.9-0.4,2.5-1.1c0.7-0.8,1-1.7,1-2.9
				c0-1.2-0.3-2.1-1-2.9s-1.5-1.2-2.5-1.2s-1.9,0.4-2.5,1.2c-0.7,0.8-1,1.7-1,2.9c0,1.2,0.3,2.1,1,2.9
				C108.5,24.2,109.4,24.6,110.4,24.6z M119.1,25c-0.1-0.2-0.2-0.4-0.2-0.7c0-0.4,0.2-0.8,0.6-1.1c0.2-0.1,0.5-0.2,0.7-0.2
				c0.3,0,0.7,0.2,1,0.5c0.5,0.5,1,0.9,1.5,1.1s1.2,0.4,1.9,0.4c1.2,0,1.9-0.5,1.9-1.4c0-0.5-0.2-0.8-0.6-1.1
				c-0.4-0.2-1.1-0.5-2-0.7c-0.9-0.3-1.7-0.5-2.3-0.8c-0.6-0.3-1.1-0.6-1.5-1.2c-0.4-0.5-0.6-1.2-0.6-2.1c0-0.8,0.2-1.4,0.6-2
				c0.4-0.6,1-1,1.7-1.3s1.5-0.5,2.3-0.5s1.6,0.2,2.4,0.5s1.5,0.8,1.9,1.3c0.2,0.3,0.3,0.5,0.3,0.9s-0.2,0.7-0.5,0.9
				c-0.2,0.2-0.5,0.3-0.8,0.3c-0.4,0-0.6-0.1-0.9-0.3c-0.3-0.4-0.7-0.6-1.1-0.8c-0.4-0.2-1-0.3-1.5-0.3c-1.2,0-1.8,0.4-1.8,1.3
				c0,0.4,0.1,0.6,0.3,0.9c0.2,0.2,0.5,0.4,0.8,0.5c0.4,0.1,0.8,0.3,1.5,0.4c0.9,0.2,1.6,0.5,2.2,0.7c0.6,0.3,1.1,0.6,1.5,1.2
				c0.4,0.5,0.6,1.2,0.6,2.1c0,0.8-0.2,1.5-0.7,2.1s-1.1,1-1.8,1.3c-0.7,0.3-1.5,0.5-2.2,0.5c-1.1,0-2-0.2-3-0.5
				C120.4,26.4,119.7,25.8,119.1,25z M143.8,20.6c0,1.3-0.3,2.4-0.9,3.5c-0.6,1-1.4,1.8-2.4,2.4s-2.1,0.8-3.3,0.8s-2.3-0.3-3.3-0.8
				c-1-0.6-1.8-1.3-2.4-2.4c-0.6-1-0.9-2.2-0.9-3.5s0.3-2.4,0.9-3.4c0.6-1,1.4-1.8,2.4-2.4c1-0.6,2.1-0.9,3.3-0.9s2.3,0.3,3.3,0.9
				c1,0.6,1.8,1.4,2.4,2.4S143.8,19.3,143.8,20.6z M140.9,20.6c0-0.8-0.2-1.5-0.5-2.1s-0.8-1.1-1.3-1.4s-1.2-0.5-1.8-0.5
				c-0.7,0-1.3,0.2-1.8,0.5s-1,0.8-1.3,1.4s-0.5,1.3-0.5,2.1c0,0.8,0.2,1.5,0.5,2.1s0.8,1.1,1.3,1.4c0.6,0.3,1.2,0.5,1.8,0.5
				c0.7,0,1.3-0.2,1.8-0.5c0.6-0.3,1-0.8,1.3-1.4S140.9,21.4,140.9,20.6z"/>
		</g>
	</g>
	<g>
		<g class="st1">
			
				<linearGradient id="SVGID_2_" gradientUnits="userSpaceOnUse" x1="16.6082" y1="-790.2706" x2="23.0173" y2="-782.0902" gradientTransform="matrix(1 0 0 -1 0 -768)">
				<stop  offset="0" style="stop-color:#5870E4"/>
				<stop  offset="1" style="stop-color:#415CDD"/>
			</linearGradient>
			<path class="st5" d="M14.4,0h11.5c6.6,0,12,5.4,12,12v11.5c0,6.6-5.4,12-12,12H14.4c-6.6,0-12-5.4-12-12V12C2.4,5.4,7.8,0,14.4,0
				z"/>
			<path class="st3" d="M29.5,12.5c-1.6-2.5-4.5-4-6.7-0.8c-1.8,2.5,1.4,4.5,0.9,6.9c-0.9,4.3-7.1,2.9-6.4,5.1
				c1.1,3.7,6.8,1.7,10.2-1.6S31.2,14.9,29.5,12.5z"/>
			<path class="st3" d="M27.9,5.8c0.9,0.4,1.3,1.4,0.9,2.3c-0.3,0.9-1.3,1.3-2.2,1c-0.9-0.4-1.3-1.4-0.9-2.3
				C26.1,5.9,27.1,5.5,27.9,5.8z"/>
			<path class="st3" d="M30.5,8.7c0.6,0.2,0.8,0.9,0.6,1.5c-0.2,0.6-0.9,0.9-1.4,0.7c-0.6-0.2-0.8-0.9-0.6-1.5
				C29.3,8.7,29.9,8.4,30.5,8.7z"/>
			<path class="st3" d="M32,11.1c0.5,0.2,0.8,0.8,0.6,1.3s-0.8,0.8-1.3,0.6s-0.8-0.8-0.6-1.3C30.9,11.1,31.5,10.9,32,11.1z"/>
			<path class="st3" d="M14.9,21.8c1.2-2.2,4.7-1.4,5-4.5c0.4-3.9-2.8-4.8-5.5-4.1c-2.8,0.7-5.1,3.8-4.6,8.6s3.5,10.3,6.6,8.4
				C18.3,29,12.8,25.7,14.9,21.8z"/>
			<path class="st3" d="M19.8,9.3c0.9,0.3,1.3,1.3,1,2.3c-0.3,0.9-1.3,1.4-2.1,1c-0.9-0.3-1.3-1.3-1-2.3C18,9.4,19,9,19.8,9.3z"/>
			<path class="st3" d="M16.1,9.6c0.6,0.2,0.9,0.9,0.6,1.5c-0.2,0.6-0.8,0.9-1.4,0.7c-0.6-0.2-0.9-0.9-0.6-1.5
				C14.9,9.7,15.5,9.4,16.1,9.6z"/>
			<path class="st3" d="M13.4,10.3c0.5,0.2,0.8,0.8,0.6,1.3s-0.8,0.8-1.3,0.6s-0.8-0.8-0.6-1.3C12.4,10.4,12.9,10.1,13.4,10.3z"/>
			<path class="st4" d="M50.1,26.3c0,0.2-0.1,0.4-0.2,0.5c-0.1,0.1-0.3,0.2-0.5,0.2s-0.4-0.1-0.6-0.2c-0.1-0.1-0.2-0.3-0.2-0.6V10.9
				c0-0.2,0.1-0.4,0.2-0.5c0.1-0.1,0.3-0.2,0.6-0.2c0.2,0,0.4,0.1,0.5,0.2c0.1,0.1,0.2,0.3,0.2,0.5V26.3z M60.1,14.4
				c1.5,0,2.6,0.4,3.3,1.3c0.7,0.9,1.1,2,1.1,3.5v7.1c0,0.2-0.1,0.4-0.2,0.5C64,26.9,63.8,27,63.7,27c-0.2,0-0.4-0.1-0.5-0.2
				S63,26.5,63,26.3v-7c0-1-0.3-1.9-0.8-2.5c-0.5-0.7-1.3-1-2.4-1c-0.7,0-1.3,0.2-2,0.5c-0.6,0.3-1.1,0.8-1.5,1.3s-0.6,1.1-0.6,1.7
				v7c0,0.2-0.1,0.4-0.2,0.5C55.4,26.9,55.2,27,55,27s-0.4-0.1-0.5-0.2s-0.2-0.3-0.2-0.5V15.5c0-0.2,0.1-0.4,0.2-0.5
				c0.1-0.1,0.3-0.2,0.5-0.2s0.4,0.1,0.5,0.2c0.1,0.1,0.2,0.3,0.2,0.5v1.3c0.4-0.7,1-1.3,1.8-1.7C58.4,14.7,59.2,14.4,60.1,14.4z
				 M72.4,10.6c-0.5,0-0.9,0.2-1.2,0.5c-0.3,0.3-0.4,0.8-0.4,1.4V15h2.7c0.2,0,0.3,0.1,0.5,0.2c0.1,0.1,0.2,0.3,0.2,0.5
				s-0.1,0.4-0.2,0.5s-0.3,0.2-0.5,0.2h-2.7v10c0,0.2-0.1,0.4-0.2,0.5s-0.3,0.2-0.5,0.2s-0.4-0.1-0.5-0.2s-0.2-0.3-0.2-0.5v-10h-1.8
				c-0.2,0-0.4-0.1-0.5-0.2s-0.2-0.3-0.2-0.5s0.1-0.4,0.2-0.5s0.3-0.2,0.5-0.2h1.8v-2.5c0-1,0.3-1.8,0.9-2.3
				c0.6-0.6,1.4-0.8,2.4-0.8c0.4,0,0.9,0.1,1.2,0.2c0.4,0.1,0.6,0.3,0.6,0.6c0,0.2-0.1,0.4-0.2,0.5s-0.3,0.2-0.4,0.2s-0.3,0-0.5-0.1
				C72.9,10.7,72.6,10.6,72.4,10.6z M87.9,20.9c0,1.2-0.3,2.3-0.8,3.3s-1.3,1.7-2.2,2.3c-0.9,0.5-2,0.8-3.1,0.8s-2.2-0.3-3.1-0.8
				c-0.9-0.6-1.7-1.3-2.2-2.3s-0.8-2.1-0.8-3.3c0-1.2,0.3-2.3,0.8-3.3s1.3-1.7,2.2-2.3c0.9-0.6,2-0.8,3.1-0.8s2.2,0.3,3.1,0.8
				c0.9,0.6,1.7,1.3,2.2,2.3C87.7,18.6,87.9,19.7,87.9,20.9z M86.5,20.9c0-1-0.2-1.8-0.6-2.6c-0.4-0.8-1-1.4-1.7-1.8
				s-1.5-0.7-2.4-0.7s-1.6,0.2-2.4,0.7c-0.7,0.4-1.3,1-1.7,1.8c-0.4,0.8-0.6,1.6-0.6,2.6c0,0.9,0.2,1.8,0.6,2.6
				c0.4,0.8,1,1.4,1.7,1.8s1.5,0.6,2.4,0.6s1.6-0.2,2.4-0.6c0.7-0.4,1.3-1,1.7-1.8C86.3,22.7,86.5,21.8,86.5,20.9z M97.7,10.2
				c0.8,0,1.6,0.2,2.3,0.7c0.7,0.5,1.3,1.1,1.8,2c0.4,0.8,0.7,1.7,0.7,2.7c0,1-0.2,1.9-0.7,2.7s-1,1.5-1.8,2
				c-0.7,0.5-1.5,0.7-2.3,0.7h-4.2v4.5c0,0.4-0.1,0.8-0.4,1.1c-0.3,0.3-0.6,0.4-1,0.4s-0.7-0.1-1-0.4s-0.4-0.6-0.4-1.1V11.7
				c0-0.4,0.1-0.8,0.4-1c0.3-0.3,0.6-0.4,1.1-0.4h5.5V10.2z M97.7,18.3c0.3,0,0.6-0.1,0.9-0.4s0.5-0.6,0.7-1s0.3-0.8,0.3-1.3
				s-0.1-0.9-0.3-1.3c-0.2-0.4-0.4-0.7-0.7-1C98.3,13.1,98,13,97.7,13h-4.2v5.3H97.7z M115.3,13.9c0.4,0,0.8,0.1,1,0.4
				c0.3,0.3,0.4,0.6,0.4,1.1v10.2c0,0.4-0.1,0.8-0.4,1.1c-0.3,0.3-0.6,0.4-1,0.4s-0.8-0.1-1-0.4c-0.3-0.3-0.4-0.6-0.4-1
				c-0.4,0.5-0.9,0.9-1.6,1.2c-0.7,0.3-1.4,0.5-2.1,0.5c-1.1,0-2.1-0.3-3-0.8c-0.9-0.6-1.6-1.4-2.1-2.4s-0.8-2.2-0.8-3.4
				c0-1.3,0.3-2.4,0.8-3.4s1.2-1.8,2.1-2.4c0.9-0.6,1.9-0.9,3-0.9c0.8,0,1.5,0.1,2.2,0.4c0.7,0.3,1.2,0.6,1.7,1.1l0,0
				c0-0.4,0.1-0.8,0.4-1C114.5,14.1,114.9,13.9,115.3,13.9z M110.4,24.6c1,0,1.9-0.4,2.5-1.1c0.7-0.8,1-1.7,1-2.9
				c0-1.2-0.3-2.1-1-2.9s-1.5-1.2-2.5-1.2s-1.9,0.4-2.5,1.2c-0.7,0.8-1,1.7-1,2.9c0,1.2,0.3,2.1,1,2.9
				C108.5,24.2,109.4,24.6,110.4,24.6z M119.1,25c-0.1-0.2-0.2-0.4-0.2-0.7c0-0.4,0.2-0.8,0.6-1.1c0.2-0.1,0.5-0.2,0.7-0.2
				c0.3,0,0.7,0.2,1,0.5c0.5,0.5,1,0.9,1.5,1.1s1.2,0.4,1.9,0.4c1.2,0,1.9-0.5,1.9-1.4c0-0.5-0.2-0.8-0.6-1.1
				c-0.4-0.2-1.1-0.5-2-0.7c-0.9-0.3-1.7-0.5-2.3-0.8c-0.6-0.3-1.1-0.6-1.5-1.2c-0.4-0.5-0.6-1.2-0.6-2.1c0-0.8,0.2-1.4,0.6-2
				c0.4-0.6,1-1,1.7-1.3s1.5-0.5,2.3-0.5s1.6,0.2,2.4,0.5s1.5,0.8,1.9,1.3c0.2,0.3,0.3,0.5,0.3,0.9s-0.2,0.7-0.5,0.9
				c-0.2,0.2-0.5,0.3-0.8,0.3c-0.4,0-0.6-0.1-0.9-0.3c-0.3-0.4-0.7-0.6-1.1-0.8c-0.4-0.2-1-0.3-1.5-0.3c-1.2,0-1.8,0.4-1.8,1.3
				c0,0.4,0.1,0.6,0.3,0.9c0.2,0.2,0.5,0.4,0.8,0.5c0.4,0.1,0.8,0.3,1.5,0.4c0.9,0.2,1.6,0.5,2.2,0.7c0.6,0.3,1.1,0.6,1.5,1.2
				c0.4,0.5,0.6,1.2,0.6,2.1c0,0.8-0.2,1.5-0.7,2.1s-1.1,1-1.8,1.3c-0.7,0.3-1.5,0.5-2.2,0.5c-1.1,0-2-0.2-3-0.5
				C120.4,26.4,119.7,25.8,119.1,25z M143.8,20.6c0,1.3-0.3,2.4-0.9,3.5c-0.6,1-1.4,1.8-2.4,2.4s-2.1,0.8-3.3,0.8s-2.3-0.3-3.3-0.8
				c-1-0.6-1.8-1.3-2.4-2.4c-0.6-1-0.9-2.2-0.9-3.5s0.3-2.4,0.9-3.4c0.6-1,1.4-1.8,2.4-2.4c1-0.6,2.1-0.9,3.3-0.9s2.3,0.3,3.3,0.9
				c1,0.6,1.8,1.4,2.4,2.4S143.8,19.3,143.8,20.6z M140.9,20.6c0-0.8-0.2-1.5-0.5-2.1s-0.8-1.1-1.3-1.4s-1.2-0.5-1.8-0.5
				c-0.7,0-1.3,0.2-1.8,0.5s-1,0.8-1.3,1.4s-0.5,1.3-0.5,2.1c0,0.8,0.2,1.5,0.5,2.1s0.8,1.1,1.3,1.4c0.6,0.3,1.2,0.5,1.8,0.5
				c0.7,0,1.3-0.2,1.8-0.5c0.6-0.3,1-0.8,1.3-1.4S140.9,21.4,140.9,20.6z"/>
		</g>
		<g class="st1">
			<g>
				<defs>
					<path id="SVGID_3_" d="M4.7,9.4C4.9,9.2,7,6.9,7.1,6.7s2.9-2,5.3-2.8c1.9-0.6,3.8-1.1,3.8-1.1l3-0.2l-3.6-8.9
						c0,0-12.6,0.4-12.9,0.5c-0.3,0.2-3.6-1-4.2,0.3s-0.7,1.6-0.7,1.6l-0.7,14.5v3l2.3,4l3.9-2.1L4.7,9.4z"/>
				</defs>
				<clipPath id="SVGID_4_">
					<use xlink:href="#SVGID_3_"  style="overflow:visible;"/>
				</clipPath>
				<g class="st6">
					<g>
						<path class="st7" d="M4.8-4.9c-0.5,0-1,0-1.5,0.2C1.9-4,0.7-2.8-0.1-1.2c-1.1,2-1.6,4.1-1.6,6.4c0,1.3,0.3,7,0.9,6.5
							c1.4-1,1.3-3.1,1.5-4.1C0.9,6.1,1.3,2.9,2.5,2c-0.3,0.7,0,1.4,0.9,1.1C3.3,3.9,3.6,4.5,4.2,4.8l2.3-1.1c1.6-1,3.1-1.7,4.7-2.3
							C11,0.5,10.6-0.3,10.1-1C8.8-2.9,7.2-4.7,4.8-4.9z"/>
						<path class="st8" d="M15.1-2.6c-1.4-1.3-3.1-2.3-5-2.7C7.6-5.9,5.2-5.7,3.2-4.7c0.5-0.1,1-0.2,1.5-0.2c2.4,0.2,4,2,5.3,3.8
							c0.5,0.7,0.8,1.5,1.1,2.4c0.7-0.3,1.5-0.5,2.3-0.8c0.4-0.2,3.3-0.7,3.4-1C17.1-1.1,15.5-2.2,15.1-2.6z"/>
					</g>
					<g>
						<path class="st3" d="M14.8,1.1c-0.2-0.9-0.5-1.9-1.4-2.5l0,0c-2.9,0.3-5.9,1.5-8,3.4c-1.6,1.4-3,2.9-2,5
							c0.4,0.8,0.8,1.3,1.4,1.6c1.4,0.7,3.3-0.1,4.9-0.8c1.3-0.6,2.5-1.2,3.7-1.9c0.4-0.2,0.8-0.4,1.2-0.6C15,3.8,15.1,2.2,14.8,1.1
							z"/>
						<path class="st9" d="M18.2,1.5c-0.4-1.9-1.1-2.9-3.1-2.9c-0.6,0-1.1,0-1.7,0.1l0,0c0.8,0.5,1.1,1.6,1.4,2.5
							c0.3,1.2,0.2,2.7-0.3,4.1C15.3,4.9,16.2,4.5,17,4C18,3.3,18.4,2.6,18.2,1.5z"/>
					</g>
					<path class="st10" d="M4.6-1.6C4.5-1.4,4.3-1.2,4.2-1L3.8-0.4L3.1,1L2.9,0.7l0.5-0.2l0.5-0.2L4.4,0l0.4-0.3l0.9-0.6
						C5.8-0.9,6-1,6.1-1.1c0.2-0.1,0.3-0.2,0.5-0.3l0,0c0.1,0,0.2,0,0.2,0v0.1c0,0.1-0.1,0.1-0.1,0.2S6.6-1,6.6-0.9
						c0,0.1-0.1,0.1-0.1,0.2S6.4-0.6,6.3-0.5C6.1-0.3,5.9-0.1,5.7,0.1C5.5,0.2,5.3,0.4,5.1,0.6c0,0-0.1,0.1-0.1,0.2S4.9,0.9,4.9,1
						c0,0.1-0.1,0.1-0.1,0.2S4.7,1.3,4.7,1.4c0-0.1,0-0.1,0.1-0.2c0-0.1,0-0.1,0.1-0.2C4.9,0.9,5,0.9,5,0.8s0-0.2,0-0.2
						C5.2,0.4,5.3,0.2,5.5,0C5.8-0.3,6-0.5,6.1-0.7c0-0.1,0.1-0.1,0.1-0.2S6.3-1,6.3-1.1s0.1-0.1,0.1-0.2s0-0.1,0.1-0.2l0.2,0.2
						C6.6-1.1,6.4-1,6.3-0.9L5.9-0.6C5.6-0.3,5.3-0.1,5,0.1L4.5,0.4L4,0.6L3.5,0.8C3.4,0.9,3.2,1,3,1C2.9,1,2.9,1,2.8,0.9V0.8l0,0
						l0.4-0.6l0.4-0.6l0.2-0.3C3.9-0.9,4-1,4.1-1.1C4.3-1.3,4.4-1.5,4.6-1.6z"/>
					<path class="st10" d="M4.7,1.9c0,0,0-0.1,0.1-0.2c0-0.1,0.1-0.1,0.1-0.2L5,1.4l0.1-0.1C5.3,1.2,5.4,1.1,5.5,1
						c0.1,0,0.2-0.1,0.3-0.2C5.9,0.7,6,0.6,6.1,0.5s0.2-0.2,0.4-0.2c0.1-0.1,0.3-0.1,0.4-0.2s0.2-0.2,0.4-0.2
						c0.1-0.1,0.2-0.1,0.4-0.2C7.8-0.4,7.9-0.4,8-0.5c0.2-0.1,0.4-0.2,0.5-0.2c0.1-0.1,0.2-0.1,0.2-0.1S8.5-0.7,8.4-0.6
						C8.3-0.6,8.2-0.4,8-0.3C7.9-0.2,7.6,0,7.4,0.1C7.3,0.2,7.2,0.3,7,0.4c-0.1,0-0.2,0.1-0.3,0.2C6.6,0.7,6.4,0.7,6.3,0.8
						c-0.1,0-0.1,0.1-0.2,0.1C6.1,1,6,1,5.9,1C5.8,1.1,5.7,1.2,5.6,1.2C5.5,1.3,5.4,1.4,5.3,1.4C5.2,1.5,5.2,1.6,5.1,1.6
						C5,1.7,5,1.7,4.9,1.8C4.8,1.8,4.7,1.9,4.7,1.9z"/>
					<path class="st11" d="M5.9,8.2c0,0,0,0,0.1-0.1C6,8,6,7.9,6.1,7.7c0.1-0.2,0.2-0.3,0.4-0.5C6.6,7,6.8,6.8,7,6.6
						C7.2,6.4,7.5,6.2,7.7,6C8,5.8,8.3,5.6,8.6,5.4s0.7-0.4,1-0.5c0.4-0.2,0.7-0.3,1.1-0.5c0.7-0.3,1.5-0.5,2.2-0.7s1.4-0.4,1.9-0.5
						c1.1-0.3,1.9-0.5,1.9-0.5s0,0-0.1,0.1c-0.1,0-0.2,0.1-0.4,0.1c-0.3,0.1-0.8,0.3-1.3,0.5C14.3,3.6,13.7,3.8,13,4
						c-0.3,0.1-0.7,0.2-1.1,0.4c-0.4,0.1-0.7,0.3-1.1,0.4c-0.3,0-0.7,0.2-1,0.3c-0.3,0.2-0.7,0.3-1,0.5C8.5,5.8,8.2,6,7.9,6.2
						C7.7,6.3,7.6,6.4,7.5,6.5c-0.1,0-0.1,0.1-0.2,0.1S7.2,6.7,7.1,6.7C6.9,6.9,6.7,7.1,6.6,7.3C6.4,7.4,6.3,7.6,6.2,7.7
						C6.1,7.9,6,8,5.9,8.2L5.9,8.2z"/>
					<g>
						<path class="st9" d="M1.1,10.9c-0.3-0.3-0.6-0.4-1-0.5c1.4,1.1,0.7,4.2-1.5,4.5c1.2,0.5,2.5,0.1,3.1-1.2
							C2,12.7,1.8,11.5,1.1,10.9z"/>
						<path class="st3" d="M0.1,10.4c-0.2,0-0.4-0.1-0.6-0.1c-0.7,0-1.5,0.3-1.9,0.9c-0.8,1.1-0.4,2.9,0.7,3.5
							c0.1,0,0.2,0.1,0.2,0.1C0.7,14.6,1.5,11.5,0.1,10.4z"/>
					</g>
				</g>
			</g>
		</g>
	</g>
</g>
<g id="Capa_2">
	<path class="st4" d="M50.1,26.3c0,0.2-0.1,0.4-0.2,0.5c-0.1,0.1-0.3,0.2-0.5,0.2s-0.4-0.1-0.6-0.2c-0.1-0.1-0.2-0.3-0.2-0.6V10.9
		c0-0.2,0.1-0.4,0.2-0.5c0.1-0.1,0.3-0.2,0.6-0.2c0.2,0,0.4,0.1,0.5,0.2c0.1,0.1,0.2,0.3,0.2,0.5V26.3z M60.1,14.4
		c1.5,0,2.6,0.4,3.3,1.3c0.7,0.9,1.1,2,1.1,3.5v7.1c0,0.2-0.1,0.4-0.2,0.5C64,26.9,63.8,27,63.7,27c-0.2,0-0.4-0.1-0.5-0.2
		S63,26.5,63,26.3v-7c0-1-0.3-1.9-0.8-2.5c-0.5-0.7-1.3-1-2.4-1c-0.7,0-1.3,0.2-2,0.5c-0.6,0.3-1.1,0.8-1.5,1.3s-0.6,1.1-0.6,1.7v7
		c0,0.2-0.1,0.4-0.2,0.5C55.4,26.9,55.2,27,55,27s-0.4-0.1-0.5-0.2s-0.2-0.3-0.2-0.5V15.5c0-0.2,0.1-0.4,0.2-0.5
		c0.1-0.1,0.3-0.2,0.5-0.2s0.4,0.1,0.5,0.2c0.1,0.1,0.2,0.3,0.2,0.5v1.3c0.4-0.7,1-1.3,1.8-1.7C58.4,14.7,59.2,14.4,60.1,14.4z
		 M72.4,10.6c-0.5,0-0.9,0.2-1.2,0.5c-0.3,0.3-0.4,0.8-0.4,1.4V15h2.7c0.2,0,0.3,0.1,0.5,0.2c0.1,0.1,0.2,0.3,0.2,0.5
		s-0.1,0.4-0.2,0.5s-0.3,0.2-0.5,0.2h-2.7v10c0,0.2-0.1,0.4-0.2,0.5s-0.3,0.2-0.5,0.2s-0.4-0.1-0.5-0.2s-0.2-0.3-0.2-0.5v-10h-1.8
		c-0.2,0-0.4-0.1-0.5-0.2s-0.2-0.3-0.2-0.5s0.1-0.4,0.2-0.5s0.3-0.2,0.5-0.2h1.8v-2.5c0-1,0.3-1.8,0.9-2.3c0.6-0.6,1.4-0.8,2.4-0.8
		c0.4,0,0.9,0.1,1.2,0.2c0.4,0.1,0.6,0.3,0.6,0.6c0,0.2-0.1,0.4-0.2,0.5s-0.3,0.2-0.4,0.2s-0.3,0-0.5-0.1
		C72.9,10.7,72.6,10.6,72.4,10.6z M87.9,20.9c0,1.2-0.3,2.3-0.8,3.3s-1.3,1.7-2.2,2.3c-0.9,0.5-2,0.8-3.1,0.8s-2.2-0.3-3.1-0.8
		c-0.9-0.6-1.7-1.3-2.2-2.3s-0.8-2.1-0.8-3.3c0-1.2,0.3-2.3,0.8-3.3s1.3-1.7,2.2-2.3c0.9-0.6,2-0.8,3.1-0.8s2.2,0.3,3.1,0.8
		c0.9,0.6,1.7,1.3,2.2,2.3C87.7,18.6,87.9,19.7,87.9,20.9z M86.5,20.9c0-1-0.2-1.8-0.6-2.6c-0.4-0.8-1-1.4-1.7-1.8s-1.5-0.7-2.4-0.7
		s-1.6,0.2-2.4,0.7c-0.7,0.4-1.3,1-1.7,1.8c-0.4,0.8-0.6,1.6-0.6,2.6c0,0.9,0.2,1.8,0.6,2.6c0.4,0.8,1,1.4,1.7,1.8s1.5,0.6,2.4,0.6
		s1.6-0.2,2.4-0.6c0.7-0.4,1.3-1,1.7-1.8C86.3,22.7,86.5,21.8,86.5,20.9z M97.7,10.2c0.8,0,1.6,0.2,2.3,0.7c0.7,0.5,1.3,1.1,1.8,2
		c0.4,0.8,0.7,1.7,0.7,2.7c0,1-0.2,1.9-0.7,2.7s-1,1.5-1.8,2c-0.7,0.5-1.5,0.7-2.3,0.7h-4.2v4.5c0,0.4-0.1,0.8-0.4,1.1
		c-0.3,0.3-0.6,0.4-1,0.4s-0.7-0.1-1-0.4s-0.4-0.6-0.4-1.1V11.7c0-0.4,0.1-0.8,0.4-1c0.3-0.3,0.6-0.4,1.1-0.4h5.5V10.2z M97.7,18.3
		c0.3,0,0.6-0.1,0.9-0.4s0.5-0.6,0.7-1s0.3-0.8,0.3-1.3s-0.1-0.9-0.3-1.3c-0.2-0.4-0.4-0.7-0.7-1C98.3,13.1,98,13,97.7,13h-4.2v5.3
		H97.7z M115.3,13.9c0.4,0,0.8,0.1,1,0.4c0.3,0.3,0.4,0.6,0.4,1.1v10.2c0,0.4-0.1,0.8-0.4,1.1c-0.3,0.3-0.6,0.4-1,0.4
		s-0.8-0.1-1-0.4c-0.3-0.3-0.4-0.6-0.4-1c-0.4,0.5-0.9,0.9-1.6,1.2c-0.7,0.3-1.4,0.5-2.1,0.5c-1.1,0-2.1-0.3-3-0.8
		c-0.9-0.6-1.6-1.4-2.1-2.4s-0.8-2.2-0.8-3.4c0-1.3,0.3-2.4,0.8-3.4s1.2-1.8,2.1-2.4c0.9-0.6,1.9-0.9,3-0.9c0.8,0,1.5,0.1,2.2,0.4
		c0.7,0.3,1.2,0.6,1.7,1.1l0,0c0-0.4,0.1-0.8,0.4-1C114.5,14.1,114.9,13.9,115.3,13.9z M110.4,24.6c1,0,1.9-0.4,2.5-1.1
		c0.7-0.8,1-1.7,1-2.9c0-1.2-0.3-2.1-1-2.9s-1.5-1.2-2.5-1.2s-1.9,0.4-2.5,1.2c-0.7,0.8-1,1.7-1,2.9c0,1.2,0.3,2.1,1,2.9
		C108.5,24.2,109.4,24.6,110.4,24.6z M119.1,25c-0.1-0.2-0.2-0.4-0.2-0.7c0-0.4,0.2-0.8,0.6-1.1c0.2-0.1,0.5-0.2,0.7-0.2
		c0.3,0,0.7,0.2,1,0.5c0.5,0.5,1,0.9,1.5,1.1s1.2,0.4,1.9,0.4c1.2,0,1.9-0.5,1.9-1.4c0-0.5-0.2-0.8-0.6-1.1c-0.4-0.2-1.1-0.5-2-0.7
		c-0.9-0.3-1.7-0.5-2.3-0.8c-0.6-0.3-1.1-0.6-1.5-1.2c-0.4-0.5-0.6-1.2-0.6-2.1c0-0.8,0.2-1.4,0.6-2c0.4-0.6,1-1,1.7-1.3
		s1.5-0.5,2.3-0.5s1.6,0.2,2.4,0.5s1.5,0.8,1.9,1.3c0.2,0.3,0.3,0.5,0.3,0.9s-0.2,0.7-0.5,0.9c-0.2,0.2-0.5,0.3-0.8,0.3
		c-0.4,0-0.6-0.1-0.9-0.3c-0.3-0.4-0.7-0.6-1.1-0.8c-0.4-0.2-1-0.3-1.5-0.3c-1.2,0-1.8,0.4-1.8,1.3c0,0.4,0.1,0.6,0.3,0.9
		c0.2,0.2,0.5,0.4,0.8,0.5c0.4,0.1,0.8,0.3,1.5,0.4c0.9,0.2,1.6,0.5,2.2,0.7c0.6,0.3,1.1,0.6,1.5,1.2c0.4,0.5,0.6,1.2,0.6,2.1
		c0,0.8-0.2,1.5-0.7,2.1s-1.1,1-1.8,1.3c-0.7,0.3-1.5,0.5-2.2,0.5c-1.1,0-2-0.2-3-0.5C120.4,26.4,119.7,25.8,119.1,25z M143.8,20.6
		c0,1.3-0.3,2.4-0.9,3.5c-0.6,1-1.4,1.8-2.4,2.4s-2.1,0.8-3.3,0.8s-2.3-0.3-3.3-0.8c-1-0.6-1.8-1.3-2.4-2.4c-0.6-1-0.9-2.2-0.9-3.5
		s0.3-2.4,0.9-3.4c0.6-1,1.4-1.8,2.4-2.4c1-0.6,2.1-0.9,3.3-0.9s2.3,0.3,3.3,0.9c1,0.6,1.8,1.4,2.4,2.4S143.8,19.3,143.8,20.6z
		 M140.9,20.6c0-0.8-0.2-1.5-0.5-2.1s-0.8-1.1-1.3-1.4s-1.2-0.5-1.8-0.5c-0.7,0-1.3,0.2-1.8,0.5s-1,0.8-1.3,1.4s-0.5,1.3-0.5,2.1
		c0,0.8,0.2,1.5,0.5,2.1s0.8,1.1,1.3,1.4c0.6,0.3,1.2,0.5,1.8,0.5c0.7,0,1.3-0.2,1.8-0.5c0.6-0.3,1-0.8,1.3-1.4
		S140.9,21.4,140.9,20.6z"/>
	<g>
		<g>
			
				<linearGradient id="SVGID_5_" gradientUnits="userSpaceOnUse" x1="22.218" y1="-793.274" x2="27.1855" y2="-786.9335" gradientTransform="matrix(1 0 0 -1 0 -768)">
				<stop  offset="0" style="stop-color:#5870E4"/>
				<stop  offset="1" style="stop-color:#415CDD"/>
			</linearGradient>
			<path class="st12" d="M20.5,8h8.9c5.1,0,9.3,4.2,9.3,9.3v8.9c0,5.1-4.2,9.3-9.3,9.3h-8.9c-5.1,0-9.3-4.2-9.3-9.3v-8.9
				C11.2,12.2,15.4,8,20.5,8z"/>
			<path class="st3" d="M32.2,17.7c-1.2-1.9-3.5-3.1-5.2-0.6c-1.4,1.9,1.1,3.5,0.7,5.3c-0.7,3.3-5.5,2.2-5,4
				c0.9,2.9,5.3,1.3,7.9-1.2S33.5,19.6,32.2,17.7z"/>
			<path class="st3" d="M31,12.5c0.7,0.3,1,1.1,0.7,1.8c-0.2,0.7-1,1-1.7,0.8c-0.7-0.3-1-1.1-0.7-1.8C29.6,12.6,30.3,12.3,31,12.5z"
				/>
			<path class="st3" d="M33,14.8c0.5,0.2,0.6,0.7,0.5,1.2c-0.2,0.5-0.7,0.7-1.1,0.5c-0.5-0.2-0.6-0.7-0.5-1.2
				C32.1,14.8,32.5,14.5,33,14.8z"/>
			<path class="st3" d="M34.1,16.6c0.4,0.2,0.6,0.6,0.5,1c-0.2,0.4-0.6,0.6-1,0.5c-0.4-0.2-0.6-0.6-0.5-1
				C33.3,16.6,33.8,16.5,34.1,16.6z"/>
			<path class="st3" d="M20.9,24.9c0.9-1.7,3.6-1.1,3.9-3.5c0.3-3-2.2-3.7-4.3-3.2c-2.2,0.5-4,2.9-3.6,6.7c0.4,3.7,2.7,8,5.1,6.5
				C23.5,30.5,19.3,27.9,20.9,24.9z"/>
			<path class="st3" d="M24.7,15.2c0.7,0.2,1,1,0.8,1.8c-0.2,0.7-1,1.1-1.6,0.8c-0.7-0.2-1-1-0.8-1.8C23.3,15.3,24.1,15,24.7,15.2z"
				/>
			<path class="st3" d="M21.8,15.5c0.5,0.2,0.7,0.7,0.5,1.2c-0.2,0.5-0.6,0.7-1.1,0.5c-0.5-0.2-0.7-0.7-0.5-1.2
				C20.9,15.5,21.4,15.3,21.8,15.5z"/>
			<path class="st3" d="M19.7,16c0.4,0.2,0.6,0.6,0.5,1c-0.2,0.4-0.6,0.6-1,0.5s-0.6-0.6-0.5-1C19,16.1,19.3,15.8,19.7,16z"/>
		</g>
		<g>
			<g>
				<defs>
					<path id="SVGID_6_" d="M11.3,14c0.2-0.2,2-2.3,2.2-2.4c0.1-0.1,2.6-1.8,4.7-2.5c1.7-0.5,3.4-1,3.4-1l2.7-0.2L21,0
						C21,0,9.8,0.3,9.6,0.4c-0.3,0.1-3.2-1-3.8,0.2S5.1,2.1,5.1,2.1L4.6,15v2.7l2,3.6l3.5-1.8L11.3,14z"/>
				</defs>
				<clipPath id="SVGID_7_">
					<use xlink:href="#SVGID_6_"  style="overflow:visible;"/>
				</clipPath>
				<g class="st13">
					<g>
						<path class="st7" d="M11.4,1.3c-0.5,0-0.9,0-1.4,0.1C8.8,2.1,7.7,3,7,4.5c-1,1.8-1.4,3.6-1.5,5.7c0,1.2,0.3,6.2,0.8,5.8
							c1.2-0.9,1.2-2.8,1.3-3.6c0.2-1.3,0.6-4.2,1.7-5c-0.3,0.7,0,1.2,0.8,1C10,9,10.3,9.6,10.8,9.9l2.1-1C14.3,8,15.6,7.3,17,6.8
							c-0.2-0.8-0.5-1.5-1-2.1C14.9,3,13.5,1.4,11.4,1.3z"/>
						<path class="st8" d="M20.6,3.3c-1.2-1.2-2.8-2.1-4.4-2.4c-2.2-0.5-4.3-0.4-6.1,0.5c0.4-0.1,0.9-0.2,1.4-0.1
							C13.6,1.4,15,3,16.2,4.7c0.5,0.7,0.8,1.4,1,2.1c0.7-0.2,1.3-0.5,2-0.7c0.4-0.1,2.9-0.6,3-0.9C22.4,4.6,20.9,3.6,20.6,3.3z"/>
					</g>
					<g>
						<path class="st3" d="M20.3,6.5c-0.2-0.8-0.5-1.7-1.2-2.2c0,0,0,0,0,0c-2.6,0.3-5.2,1.3-7.1,3c-1.5,1.2-2.7,2.6-1.8,4.4
							c0.3,0.7,0.8,1.2,1.2,1.4c1.3,0.6,3-0.1,4.3-0.8c1.1-0.5,2.2-1.1,3.3-1.7c0.3-0.2,0.7-0.4,1.1-0.5C20.5,9,20.6,7.6,20.3,6.5z"
							/>
						<path class="st9" d="M23.3,6.9c-0.4-1.7-1-2.6-2.8-2.6c-0.5,0-1,0-1.5,0.1c0,0,0,0,0,0c0.7,0.5,1,1.4,1.2,2.2
							c0.2,1.1,0.2,2.4-0.2,3.6c0.8-0.4,1.5-0.7,2.2-1.1C23.2,8.6,23.5,7.9,23.3,6.9z"/>
					</g>
					<path class="st10" d="M11.2,4.1c-0.1,0.2-0.2,0.4-0.4,0.5l-0.3,0.6L9.9,6.4L9.8,6.2l0.4-0.2l0.4-0.2L11,5.6l0.4-0.3l0.8-0.5
						c0.1-0.1,0.3-0.2,0.4-0.3c0.1-0.1,0.3-0.2,0.4-0.2l0,0c0.1,0,0.1,0,0.2,0s0,0.1,0,0.1c0,0.1-0.1,0.1-0.1,0.2
						c0,0.1-0.1,0.1-0.1,0.2c0,0-0.1,0.1-0.1,0.1c0,0-0.1,0.1-0.1,0.1c-0.2,0.2-0.3,0.3-0.5,0.5c-0.2,0.2-0.3,0.3-0.5,0.5
						c0,0-0.1,0.1-0.1,0.1c0,0-0.1,0.1-0.1,0.1c0,0-0.1,0.1-0.1,0.2s0,0.1-0.1,0.2c0-0.1,0-0.1,0-0.2c0-0.1,0-0.1,0.1-0.2
						s0.1-0.1,0.1-0.2c0,0,0.1-0.1,0.1-0.2c0.1-0.2,0.3-0.4,0.5-0.5s0.3-0.3,0.5-0.5c0,0,0.1-0.1,0.1-0.1c0,0,0.1-0.1,0.1-0.1
						c0,0,0.1-0.1,0.1-0.1c0,0,0-0.1,0.1-0.1l0.2,0.2c-0.1,0.1-0.3,0.2-0.4,0.3l-0.4,0.3c-0.3,0.2-0.5,0.4-0.8,0.5l-0.4,0.3
						l-0.4,0.2l-0.4,0.2C10.1,6.4,10,6.4,9.8,6.5c-0.1,0-0.1,0-0.2-0.1c0,0,0-0.1,0-0.1l0,0L10,5.7l0.4-0.6l0.2-0.3
						c0.1-0.1,0.1-0.2,0.2-0.3C10.9,4.4,11.1,4.3,11.2,4.1z"/>
					<path class="st10" d="M11.3,7.3c0,0,0-0.1,0.1-0.1c0,0,0.1-0.1,0.1-0.2c0,0,0-0.1,0.1-0.1c0,0,0.1-0.1,0.1-0.1
						c0.1-0.1,0.1-0.1,0.2-0.2c0.1-0.1,0.2-0.1,0.3-0.2c0.1-0.1,0.2-0.2,0.3-0.2c0.1-0.1,0.2-0.1,0.3-0.2c0.1-0.1,0.2-0.1,0.3-0.2
						s0.2-0.1,0.3-0.2c0.1-0.1,0.2-0.1,0.3-0.2s0.2-0.1,0.3-0.1c0.2-0.1,0.3-0.2,0.4-0.2c0.1,0,0.2-0.1,0.2-0.1s0,0-0.1,0.1
						c-0.1,0.1-0.2,0.2-0.4,0.3c-0.2,0.1-0.3,0.2-0.5,0.4c-0.1,0.1-0.2,0.1-0.3,0.2S13.2,6,13,6.1c-0.1,0.1-0.2,0.1-0.3,0.2
						c-0.1,0-0.1,0.1-0.2,0.1c-0.1,0-0.1,0.1-0.2,0.1c-0.1,0.1-0.2,0.1-0.3,0.2c-0.1,0.1-0.2,0.1-0.2,0.2c-0.1,0.1-0.2,0.1-0.2,0.2
						c-0.1,0-0.1,0.1-0.2,0.1C11.4,7.2,11.3,7.3,11.3,7.3z"/>
					<path class="st11" d="M12.4,12.9c0,0,0,0,0.1-0.1s0.1-0.2,0.2-0.3c0.1-0.1,0.2-0.3,0.3-0.4c0.1-0.2,0.3-0.3,0.5-0.5
						c0.2-0.2,0.4-0.4,0.7-0.5c0.2-0.2,0.5-0.4,0.8-0.5c0.3-0.2,0.6-0.3,0.9-0.5c0.3-0.1,0.7-0.3,1-0.4c0.7-0.2,1.3-0.5,2-0.7
						s1.2-0.3,1.7-0.5C21.4,8.1,22,8,22,8s0,0-0.1,0s-0.2,0.1-0.3,0.1c-0.3,0.1-0.7,0.2-1.2,0.4c-0.5,0.2-1.1,0.3-1.7,0.5
						c-0.3,0.1-0.6,0.2-1,0.3c-0.3,0.1-0.7,0.2-1,0.4c-0.3,0.1-0.7,0.3-1,0.4c-0.3,0.1-0.6,0.3-0.9,0.4c-0.3,0.1-0.5,0.3-0.8,0.5
						c-0.1,0.1-0.2,0.2-0.3,0.2c-0.1,0-0.1,0.1-0.2,0.1c-0.1,0-0.1,0.1-0.1,0.1c-0.2,0.2-0.4,0.3-0.5,0.5s-0.3,0.3-0.3,0.4
						C12.5,12.7,12.4,12.8,12.4,12.9C12.4,12.8,12.4,12.9,12.4,12.9z"/>
					<g>
						<path class="st9" d="M8.1,15.3c-0.2-0.2-0.6-0.4-0.9-0.4c1.3,1,0.6,3.7-1.4,4c1.1,0.5,2.3,0,2.8-1.1
							C8.9,16.9,8.8,15.8,8.1,15.3z"/>
						<path class="st3" d="M7.2,14.8c-0.2,0-0.3,0-0.5,0c-0.7,0-1.3,0.3-1.7,0.8c-0.7,1-0.4,2.6,0.6,3.1c0.1,0,0.1,0.1,0.2,0.1
							C7.8,18.5,8.5,15.8,7.2,14.8z"/>
					</g>
				</g>
			</g>
		</g>
	</g>
</g>
</svg>
