<?xml version="1.0" encoding="utf-8"?>
<!-- Generator: Adobe Illustrator 23.1.0, SVG Export Plug-In . SVG Version: 6.00 Build 0)  -->
<svg version="1.1" xmlns="http://www.w3.org/2000/svg" xmlns:xlink="http://www.w3.org/1999/xlink" x="0px" y="0px"
	 viewBox="0 0 83 83" style="enable-background:new 0 0 83 83;" xml:space="preserve">
<style type="text/css">
	.st0{display:none;}
	.st1{display:inline;}
	.st2{fill:#F2F2F2;}
	.st3{fill:#366EFC;}
	.st4{clip-path:url(#SVGID_2_);}
	.st5{fill:#F33636;}
	.st6{fill:#CA3939;}
	.st7{fill:#FFFFFF;}
	.st8{fill:#B2DFED;}
	.st9{fill:#8C2828;}
	.st10{fill:#89BAC7;}
</style>
<g id="Capa_1" class="st0">
	<g class="st1">
		<path class="st2" d="M12,0h58.5c6.6,0,12,5.4,12,12v58.5c0,6.6-5.4,12-12,12H12c-6.6,0-12-5.4-12-12V12C0,5.4,5.4,0,12,0z"/>
		<path class="st3" d="M64,30.1c-3.8-5.7-10.5-9.3-15.6-2c-4.1,5.9,3.2,10.4,2,16.1c-2.1,10.1-16.5,6.7-15,11.9
			c2.5,8.5,15.8,3.9,23.8-3.7C67.1,44.9,67.7,35.8,64,30.1z"/>
		<path class="st3" d="M60.2,14.6c2,0.8,3,3.2,2.2,5.3c-0.8,2.1-3,3.1-5,2.3c-2-0.8-3-3.2-2.2-5.3C55.9,14.8,58.2,13.8,60.2,14.6z"
			/>
		<path class="st3" d="M66.2,21.3c1.3,0.5,2,2.1,1.4,3.5c-0.5,1.4-2,2.1-3.3,1.5c-1.3-0.5-2-2.1-1.4-3.5
			C63.4,21.4,64.9,20.7,66.2,21.3z"/>
		<path class="st3" d="M69.7,26.9c1.2,0.5,1.7,1.9,1.3,3.1c-0.5,1.2-1.8,1.8-3,1.4c-1.2-0.5-1.7-1.9-1.3-3.1
			C67.2,27,68.5,26.4,69.7,26.9z"/>
		<path class="st3" d="M29,50.6c2.7-5.1,11-3.2,11.7-10.5c0.9-9.1-6.5-11.2-12.9-9.6c-6.4,1.6-11.8,8.8-10.6,20
			c1.1,11.2,8,24,15.3,19.5C37,67.3,24.1,59.6,29,50.6z"/>
		<path class="st3" d="M40.5,21.6c2,0.8,3,3.1,2.3,5.2c-0.7,2.1-3,3.2-5,2.4c-2-0.8-3-3.1-2.3-5.2C36.3,21.9,38.5,20.8,40.5,21.6z"
			/>
		<path class="st3" d="M31.8,22.3c1.3,0.5,2,2.1,1.5,3.5c-0.5,1.4-2,2.1-3.3,1.6s-2-2.1-1.5-3.5C29,22.5,30.5,21.8,31.8,22.3z"/>
		<path class="st3" d="M25.7,24c1.2,0.5,1.8,1.8,1.3,3.1c-0.4,1.2-1.8,1.9-2.9,1.4c-1.2-0.5-1.8-1.8-1.3-3.1S24.5,23.5,25.7,24z"/>
	</g>
</g>
<g id="Capa_2">
	<g>
		<path class="st2" d="M30.6,22.9h41.9c4.7,0,8.6,3.8,8.6,8.6v41.9c0,4.7-3.8,8.6-8.6,8.6H30.6c-4.7,0-8.6-3.8-8.6-8.6V31.5
			C22,26.8,25.9,22.9,30.6,22.9z"/>
		<path class="st3" d="M67.8,44.4c-2.7-4.1-7.5-6.7-11.2-1.4c-2.9,4.2,2.3,7.4,1.5,11.5c-1.5,7.2-11.8,4.8-10.7,8.6
			c1.8,6.1,11.3,2.8,17-2.7C70.1,55,70.5,48.5,67.8,44.4z"/>
		<path class="st3" d="M65.1,33.4c1.4,0.6,2.1,2.3,1.6,3.8c-0.6,1.5-2.2,2.2-3.6,1.6c-1.4-0.6-2.1-2.3-1.6-3.8
			C62.1,33.5,63.7,32.8,65.1,33.4z"/>
		<path class="st3" d="M69.4,38.1c0.9,0.4,1.4,1.5,1,2.5c-0.4,1-1.4,1.5-2.4,1.1s-1.4-1.5-1-2.5C67.4,38.2,68.5,37.7,69.4,38.1z"/>
		<path class="st3" d="M71.9,42.1c0.8,0.3,1.2,1.3,0.9,2.2c-0.3,0.9-1.3,1.3-2.1,1c-0.8-0.3-1.2-1.3-0.9-2.2
			C70.1,42.2,71.1,41.8,71.9,42.1z"/>
		<path class="st3" d="M42.8,59.2c2-3.6,7.9-2.3,8.4-7.5c0.6-6.5-4.6-8-9.2-6.8c-4.6,1.1-8.4,6.3-7.6,14.3c0.8,8,5.7,17.2,11,13.9
			C48.5,71.1,39.3,65.6,42.8,59.2z"/>
		<path class="st3" d="M51,38.4c1.4,0.6,2.2,2.2,1.6,3.7c-0.5,1.5-2.1,2.3-3.6,1.7c-1.4-0.6-2.2-2.2-1.6-3.7
			C48,38.6,49.6,37.8,51,38.4z"/>
		<path class="st3" d="M44.8,38.9c0.9,0.4,1.4,1.5,1.1,2.5c-0.4,1-1.4,1.5-2.4,1.1S42.1,41,42.5,40C42.8,39,43.9,38.5,44.8,38.9z"/>
		<path class="st3" d="M40.4,40.1c0.8,0.3,1.3,1.3,1,2.2c-0.3,0.9-1.3,1.3-2.1,1c-0.8-0.3-1.3-1.3-1-2.2S39.6,39.8,40.4,40.1z"/>
	</g>
	<g>
		<defs>
			<path id="SVGID_1_" d="M19.8,40.7c0.5-0.6,5.8-6.7,6.3-7c0.4-0.4,7.6-5.3,13.8-7.3c5-1.6,9.9-2.9,9.9-2.9l7.8-0.5L48.1-0.2
				c0,0-32.7,0.9-33.5,1.3S5.2-1.7,3.5,1.7S1.7,6,1.7,6L0,43.6v7.9l5.9,10.5L16,56.6L19.8,40.7z"/>
		</defs>
		<clipPath id="SVGID_2_">
			<use xlink:href="#SVGID_1_"  style="overflow:visible;"/>
		</clipPath>
		<g class="st4">
			<g>
				<path class="st5" d="M19.9,3.5c-1.4-0.1-2.7,0.1-4,0.4c-3.6,1.9-6.6,4.8-8.8,9c-2.8,5.3-4,10.6-4.3,16.6c0,3.4,0.8,18.2,2.3,17
					c3.6-2.6,3.4-8.1,3.8-10.6c0.6-3.8,1.7-12.3,4.9-14.7c-0.9,1.9,0,3.6,2.3,3c-0.2,1.9,0.6,3.6,2.1,4.5l6-3
					c4.3-2.6,8-4.5,12.2-6.1c-0.6-2.2-1.4-4.4-2.8-6.2C30.3,8.6,26.2,3.9,19.9,3.5z"/>
				<path class="st6" d="M46.8,9.3c-3.6-3.4-8.1-6-13-7C27.3,0.8,21.1,1.2,16,3.9c1.3-0.3,2.6-0.5,4-0.4c6.3,0.4,10.4,5.2,13.9,9.9
					c1.4,1.9,2.2,4,2.8,6.2c1.9-0.7,3.8-1.4,5.9-2c1.1-0.4,8.5-1.7,8.9-2.6C52.1,13.3,47.9,10.4,46.8,9.3z"/>
			</g>
			<g>
				<path class="st7" d="M46.1,18.9c-0.6-2.3-1.4-5-3.5-6.4c0,0,0,0-0.1,0c-7.6,0.8-15.2,3.9-20.8,8.8c-4.3,3.6-7.9,7.7-5.3,13
					c0.9,2.1,2.2,3.4,3.6,4c3.7,1.7,8.7-0.3,12.7-2.2c3.3-1.5,6.4-3.2,9.6-5c1-0.6,2.1-1.1,3.1-1.6C46.7,26,46.8,21.9,46.1,18.9z"/>
				<path class="st8" d="M54.9,19.9c-1.1-4.9-2.8-7.5-8.1-7.7c-1.4,0-2.9,0-4.4,0.2c0,0,0,0,0.1,0c2.1,1.4,3,4.1,3.5,6.4
					c0.7,3.1,0.6,7.1-0.7,10.6c2.2-1.1,4.4-2.1,6.5-3.3C54.4,24.8,55.5,22.8,54.9,19.9z"/>
			</g>
			<path class="st9" d="M19.5,11.8c-0.4,0.5-0.7,1.1-1.1,1.6l-1,1.7l-1.8,3.5L15.2,18l1.3-0.5l1.2-0.6l1.2-0.7l1.2-0.8l2.3-1.6
				c0.4-0.3,0.8-0.5,1.2-0.8c0.4-0.2,0.8-0.5,1.2-0.7l0,0c0.2-0.1,0.4,0,0.5,0.1c0.1,0.1,0.1,0.2,0,0.3c-0.1,0.2-0.2,0.4-0.2,0.5
				c-0.1,0.2-0.2,0.3-0.3,0.5c-0.1,0.1-0.2,0.3-0.3,0.4c-0.1,0.1-0.2,0.3-0.4,0.4c-0.5,0.5-1,1-1.6,1.5c-0.5,0.5-1,0.9-1.5,1.5
				c-0.1,0.1-0.2,0.3-0.3,0.4c-0.1,0.1-0.2,0.3-0.3,0.4c-0.1,0.1-0.2,0.3-0.3,0.5c-0.1,0.2-0.1,0.3-0.2,0.5c0-0.2,0.1-0.3,0.1-0.5
				c0.1-0.2,0.1-0.3,0.2-0.5c0.1-0.2,0.2-0.3,0.3-0.5c0.1-0.1,0.2-0.3,0.3-0.5c0.4-0.6,0.9-1.1,1.4-1.6c0.5-0.5,1-1,1.4-1.6
				c0.1-0.1,0.2-0.3,0.3-0.4c0.1-0.1,0.2-0.3,0.3-0.4c0.1-0.1,0.2-0.3,0.2-0.4c0.1-0.1,0.1-0.3,0.2-0.4l0.5,0.5
				c-0.4,0.3-0.8,0.5-1.2,0.8l-1.1,0.8c-0.8,0.5-1.5,1.1-2.3,1.6L19.3,17L18,17.7l-1.3,0.6c-0.5,0.2-0.9,0.3-1.4,0.4
				c-0.2,0.1-0.4,0-0.5-0.2c0-0.1,0-0.2,0-0.3l0,0l1-1.7l1.1-1.7l0.6-0.8c0.2-0.3,0.4-0.5,0.6-0.8C18.6,12.8,19.1,12.3,19.5,11.8z"
				/>
			<path class="st9" d="M19.8,21c0,0,0.1-0.2,0.3-0.4c0.1-0.1,0.2-0.3,0.4-0.5c0.1-0.1,0.1-0.2,0.2-0.3c0.1-0.1,0.2-0.2,0.3-0.3
				c0.2-0.2,0.4-0.4,0.7-0.7c0.3-0.2,0.5-0.4,0.8-0.7c0.3-0.2,0.6-0.5,0.9-0.7c0.3-0.2,0.6-0.4,1-0.6c0.3-0.2,0.7-0.4,1-0.6
				c0.3-0.2,0.7-0.4,1-0.5c0.3-0.2,0.6-0.3,0.9-0.5c0.3-0.2,0.6-0.3,0.8-0.4c0.5-0.2,0.9-0.5,1.2-0.6c0.3-0.1,0.5-0.2,0.5-0.2
				s-0.1,0.1-0.4,0.4c-0.3,0.2-0.6,0.6-1.1,0.9c-0.5,0.3-1,0.7-1.6,1.1c-0.3,0.2-0.6,0.4-0.9,0.6c-0.3,0.2-0.6,0.4-1,0.6
				c-0.3,0.2-0.6,0.4-1,0.6c-0.2,0.1-0.3,0.2-0.5,0.3c-0.2,0.1-0.3,0.2-0.5,0.3c-0.3,0.2-0.6,0.4-0.9,0.5c-0.3,0.2-0.5,0.4-0.7,0.5
				c-0.2,0.2-0.5,0.3-0.6,0.5c-0.2,0.1-0.3,0.3-0.5,0.4C20,20.9,19.8,21,19.8,21z"/>
			<path class="st10" d="M22.8,37.4c0,0,0.1-0.1,0.2-0.3c0.1-0.2,0.2-0.5,0.5-0.9c0.2-0.4,0.5-0.8,0.9-1.3c0.4-0.5,0.8-1,1.4-1.6
				c0.5-0.5,1.2-1.1,1.9-1.6c0.7-0.5,1.5-1.1,2.3-1.5c0.8-0.5,1.7-1,2.6-1.4c0.9-0.4,1.9-0.8,2.8-1.2c1.9-0.7,3.9-1.4,5.7-1.9
				c1.8-0.5,3.6-1,5-1.4c3-0.7,4.9-1.2,4.9-1.2s-0.1,0-0.3,0.1c-0.2,0.1-0.5,0.2-1,0.4c-0.8,0.3-2,0.7-3.5,1.2c-1.4,0.5-3.1,1-5,1.6
				c-0.9,0.3-1.8,0.6-2.8,1c-0.9,0.3-1.9,0.7-2.8,1.1c-0.9,0.4-1.9,0.8-2.8,1.2c-0.9,0.4-1.8,0.8-2.6,1.3c-0.8,0.4-1.6,0.9-2.3,1.4
				c-0.4,0.2-0.7,0.5-1,0.7c-0.2,0.1-0.3,0.2-0.5,0.4c-0.2,0.1-0.3,0.2-0.4,0.4c-0.6,0.5-1.1,1-1.5,1.4c-0.4,0.4-0.8,0.9-1,1.2
				c-0.3,0.4-0.5,0.6-0.6,0.8C22.8,37.3,22.8,37.4,22.8,37.4z"/>
			<g>
				<path class="st8" d="M10.4,44.4c-0.7-0.7-1.7-1.1-2.7-1.3c3.7,2.9,1.7,10.9-4,11.6c3.2,1.4,6.6,0.1,8.1-3.2
					C12.8,49.2,12.3,46.1,10.4,44.4z"/>
				<path class="st7" d="M7.7,43.1C7.2,43,6.8,43,6.3,43c-1.9,0-3.9,0.8-5,2.3c-2,2.8-1.1,7.5,1.8,9.2c0.2,0.1,0.4,0.2,0.6,0.3
					C9.4,54,11.5,46,7.7,43.1z"/>
			</g>
		</g>
	</g>
</g>
</svg>
