<?xml version="1.0" encoding="utf-8"?>
<!-- Generator: Adobe Illustrator 23.1.0, SVG Export Plug-In . SVG Version: 6.00 Build 0)  -->
<svg version="1.1" id="Capa_1" xmlns="http://www.w3.org/2000/svg" xmlns:xlink="http://www.w3.org/1999/xlink" x="0px" y="0px"
	 viewBox="0 0 83 83" style="enable-background:new 0 0 83 83;" xml:space="preserve">
<style type="text/css">
	.st0{fill:#F2F2F2;}
	.st1{fill:#366EFC;}
</style>
<g>
	<g>
		<path class="st0" d="M12,0h58.5c6.6,0,12,5.4,12,12v58.5c0,6.6-5.4,12-12,12H12c-6.6,0-12-5.4-12-12V12C0,5.4,5.4,0,12,0z"/>
		<path class="st1" d="M64,30.1c-3.8-5.7-10.5-9.3-15.6-2c-4.1,5.9,3.2,10.4,2,16.1c-2.1,10.1-16.5,6.7-15,11.9
			c2.5,8.5,15.8,3.9,23.8-3.7C67.1,44.9,67.7,35.8,64,30.1z"/>
		<path class="st1" d="M60.2,14.6c2,0.8,3,3.2,2.2,5.3s-3,3.1-5,2.3c-2-0.8-3-3.2-2.2-5.3C55.9,14.8,58.2,13.8,60.2,14.6z"/>
		<path class="st1" d="M66.2,21.3c1.3,0.5,2,2.1,1.4,3.5c-0.5,1.4-2,2.1-3.3,1.5c-1.3-0.5-2-2.1-1.4-3.5
			C63.4,21.4,64.9,20.7,66.2,21.3z"/>
		<path class="st1" d="M69.7,26.9c1.2,0.5,1.7,1.9,1.3,3.1c-0.5,1.2-1.8,1.8-3,1.4c-1.2-0.5-1.7-1.9-1.3-3.1
			C67.2,27,68.5,26.4,69.7,26.9z"/>
		<path class="st1" d="M29,50.6c2.7-5.1,11-3.2,11.7-10.5c0.9-9.1-6.5-11.2-12.9-9.6s-11.8,8.8-10.6,20c1.1,11.2,8,24,15.3,19.5
			C37,67.3,24.1,59.6,29,50.6z"/>
		<path class="st1" d="M40.5,21.6c2,0.8,3,3.1,2.3,5.2s-3,3.2-5,2.4c-2-0.8-3-3.1-2.3-5.2C36.3,21.9,38.5,20.8,40.5,21.6z"/>
		<path class="st1" d="M31.8,22.3c1.3,0.5,2,2.1,1.5,3.5s-2,2.1-3.3,1.6s-2-2.1-1.5-3.5S30.5,21.8,31.8,22.3z"/>
		<path class="st1" d="M25.7,24c1.2,0.5,1.8,1.8,1.3,3.1c-0.4,1.2-1.8,1.9-2.9,1.4c-1.2-0.5-1.8-1.8-1.3-3.1S24.5,23.5,25.7,24z"/>
	</g>
</g>
</svg>
