<svg width="240" height="100" viewBox="0 0 240 100" fill="none" xmlns="http://www.w3.org/2000/svg">
<rect x="0.5" y="0.5" width="239" height="99" rx="9.5" stroke="#A1A3BB" stroke-dasharray="6 6"/>
<path d="M137.217 23.4102C134.909 23.4102 133.032 25.2878 133.032 27.5957C133.032 28.0942 133.436 28.4984 133.935 28.4984C134.433 28.4984 134.837 28.0942 134.837 27.5957C134.837 26.2832 135.905 25.2154 137.217 25.2154C138.53 25.2154 139.598 26.2832 139.598 27.5957C139.598 28.9083 138.53 29.976 137.217 29.976H136.644C136.146 29.976 135.742 30.3802 135.742 30.8787V33.9667C135.742 34.4652 136.146 34.8694 136.644 34.8694C137.143 34.8694 137.547 34.4652 137.547 33.9667V31.7684C139.701 31.5997 141.403 29.7926 141.403 27.5957C141.403 25.2878 139.525 23.4102 137.217 23.4102V23.4102Z" fill="#A1A3BB"/>
<path d="M136.644 36.2441C136.146 36.2441 135.742 36.6483 135.742 37.1468V37.4112C135.742 37.9097 136.146 38.3138 136.644 38.3138C137.143 38.3138 137.547 37.9097 137.547 37.4112V37.1468C137.547 36.6483 137.143 36.2441 136.644 36.2441Z" fill="#A1A3BB"/>
<path d="M145.137 19H129.297C127.123 19 125.355 20.7681 125.355 22.9415V30.0838C122.385 25.817 117.445 23.0185 111.864 23.0185H107.828C103.11 23.0185 98.7147 25.5027 96.2693 29.5259C92.9506 30.5664 90.7331 33.6577 90.834 37.1726L91.0619 45.049C90.3599 45.7076 89.9202 46.6423 89.9202 47.6785V48.5258C89.9202 50.514 91.5381 52.1315 93.5271 52.1315H95.9467C96.5627 53.655 97.4589 55.0765 98.6213 56.3716C97.9815 57.2576 94.6942 61.8099 94.4925 62.0895C94.4272 62.1801 94.3792 62.2823 94.351 62.3904L90.1877 78.4067C90.0489 78.9404 90.1628 79.4969 90.5002 79.9332C90.8376 80.3695 91.3475 80.6198 91.899 80.6198H125.477C126.079 80.6198 126.659 80.3671 127.069 79.9264C127.479 79.4857 127.69 78.8884 127.647 78.2867L127.305 73.6079C127.219 72.4238 126.905 71.2906 126.37 70.2396C126.144 69.7953 125.601 69.6182 125.156 69.8442C124.712 70.0701 124.535 70.6136 124.761 71.0579C125.186 71.8934 125.436 72.7952 125.504 73.739L125.846 78.4173C125.856 78.5576 125.789 78.6527 125.748 78.6967C125.707 78.7408 125.617 78.8146 125.477 78.8146H121.313V75.1265C121.313 74.628 120.909 74.2239 120.411 74.2239C119.912 74.2239 119.508 74.628 119.508 75.1265V78.8144H99.7443L102.047 69.9547C102.055 69.9255 102.081 69.9052 102.111 69.9052H106.099C106.909 69.9052 107.672 69.7037 108.342 69.3498C108.922 69.455 109.516 69.509 110.113 69.509C112.644 69.509 115.06 68.542 116.828 66.8382L116.832 66.8388C117.008 66.8754 116.874 66.8484 119.548 67.2693C120.529 67.4225 121.447 67.7714 122.278 68.3062C122.429 68.4036 122.598 68.45 122.766 68.45C123.062 68.45 123.353 68.3039 123.525 68.0359C123.795 67.6168 123.674 67.0582 123.255 66.7883C122.211 66.1163 121.058 65.6781 119.827 65.4858C117.511 65.0974 117.299 65.1323 116.928 64.9898C116.277 64.7384 115.831 64.1181 115.82 63.394C116.887 62.9358 117.641 61.8926 117.65 60.6816C117.653 60.3485 117.601 60.0239 117.5 59.717C119.635 58.4513 122.697 56.0559 124.279 52.1314H125.978C127.967 52.1314 129.584 50.5139 129.584 48.5257V47.6784C129.584 46.5702 129.081 45.5775 128.293 44.9153V42.5929C128.619 42.6788 128.956 42.7236 129.297 42.7236H132.139C132.468 42.7236 132.735 42.9908 132.735 43.3193V45.8828C132.735 46.52 133.125 47.065 133.728 47.2712C133.888 47.326 134.052 47.3526 134.212 47.3526C134.654 47.3526 135.076 47.1507 135.362 46.7816L138.348 42.9336C138.452 42.8001 138.608 42.7236 138.777 42.7236H145.138C147.312 42.7236 149.08 40.9555 149.08 38.7821V22.9415C149.08 20.7681 147.311 19 145.137 19V19ZM91.7254 48.5257V47.6784C91.7254 46.685 92.5336 45.8768 93.5271 45.8768H94.9917C94.9296 47.4463 94.9703 48.7387 95.3623 50.3261H93.5271C92.5336 50.3261 91.7254 49.5185 91.7254 48.5257ZM110.144 67.7029C110.634 66.9484 110.92 66.0497 110.92 65.085V63.6426H114.024C114.093 64.5443 114.494 65.3546 115.115 65.9437C113.743 67.0645 111.984 67.6958 110.144 67.7029ZM114.61 61.8372H110.715C109.833 61.8372 109.114 62.5554 109.114 63.4381V65.0849C109.114 66.7473 107.762 68.0999 106.099 68.0999H102.111C101.259 68.0999 100.515 68.6758 100.3 69.5004L97.879 78.8144H91.9471L96.0556 63.0084C96.374 62.5673 102.229 54.4596 102.967 53.4355C103.155 53.1758 103.432 53.0048 103.748 52.9541C104.067 52.9027 104.389 52.9804 104.654 53.1721L104.698 53.2042C104.984 53.4123 105.154 53.7341 105.163 54.0946C105.172 54.3388 105.102 54.5737 104.96 54.7753L103.277 57.1792C102.964 57.6257 102.926 58.2038 103.177 58.688C103.429 59.1724 103.925 59.4734 104.471 59.4734H114.663C114.979 59.4734 115.276 59.5965 115.499 59.82C115.725 60.0457 115.848 60.3458 115.845 60.6663C115.84 61.312 115.286 61.8372 114.61 61.8372V61.8372ZM127.779 48.5257C127.779 49.5185 126.971 50.3261 125.978 50.3261H124.864C125.125 49.2699 125.259 48.1794 125.259 47.0694C125.259 46.667 125.25 46.2686 125.235 45.8768H125.978C126.971 45.8768 127.779 46.685 127.779 47.6784V48.5257ZM125.978 44.0715H125.106C125 43.0577 124.839 42.0758 124.623 41.1436C124.201 39.3293 122.6 37.9886 120.729 37.8833C117.232 37.6872 113.665 36.7805 110.414 35.261C109.503 34.8364 108.404 35.1296 107.856 35.9431C107.649 36.2505 107.214 36.4741 106.827 36.4653C106.195 36.458 105.5 36.1108 104.64 35.3729C104.061 34.8744 103.477 34.2908 102.855 33.5894C102.409 33.0838 101.766 32.7935 101.093 32.7929H101.09C100.421 32.7929 99.7817 33.0801 99.3371 33.5812C98.4686 34.5614 97.715 35.6867 97.0975 36.9255C96.8751 37.3717 97.0565 37.9136 97.5026 38.1362C97.9489 38.3586 98.4907 38.1772 98.7132 37.7311C99.2602 36.6337 99.9247 35.6403 100.688 34.779C100.827 34.6219 101 34.5983 101.09 34.5983C101.184 34.5998 101.359 34.6225 101.503 34.7856C102.18 35.5496 102.821 36.1895 103.464 36.7423C104.219 37.3905 105.387 38.2542 106.805 38.2706C107.81 38.2808 108.806 37.7649 109.353 36.9515C109.408 36.8705 109.541 36.8461 109.65 36.8968C113.107 38.5125 116.903 39.4769 120.627 39.6858C121.703 39.7463 122.623 40.5138 122.864 41.5516C123.118 42.6472 123.291 43.8206 123.38 45.0414C123.429 45.6924 123.453 46.3748 123.453 47.0696C123.453 48.4021 123.235 49.7012 122.805 50.9309C121.456 54.7863 118.438 57.0894 116.435 58.2497C115.924 57.8723 115.309 57.6683 114.663 57.6683H105.139L106.438 55.812C106.806 55.2882 106.989 54.6735 106.968 54.0413C106.944 53.1215 106.503 52.2839 105.759 51.7439L105.715 51.7119C105.059 51.2359 104.259 51.0443 103.462 51.1718C102.669 51.2991 101.973 51.728 101.503 52.3797C101.163 52.8507 100.498 53.773 99.7058 54.8697C98.6813 53.6619 97.9145 52.3411 97.4214 50.9308C96.7265 48.9457 96.6877 47.1628 96.8462 45.04C96.9371 43.7934 97.1173 42.5935 97.3817 41.4737C97.4962 40.9886 97.1958 40.5024 96.7106 40.3878C96.2255 40.2732 95.7392 40.5736 95.6247 41.0589C95.3983 42.0176 95.2302 43.0284 95.1209 44.0717H93.5271C93.2926 44.0717 93.0637 44.095 92.8415 44.1379L92.6385 37.1209C92.5581 34.323 94.3899 31.8748 97.0929 31.1672C97.3277 31.1057 97.528 30.9523 97.6484 30.7414C99.7312 27.0912 103.632 24.8238 107.828 24.8238H111.864C119.927 24.8238 126.488 31.384 126.488 39.4476V44.1081C126.321 44.0845 126.151 44.0715 125.978 44.0715V44.0715ZM147.275 38.7821C147.275 39.9601 146.316 40.9183 145.138 40.9183H138.777C138.047 40.9183 137.372 41.2488 136.923 41.8259L134.54 44.8957V43.3193C134.54 41.9955 133.463 40.9183 132.139 40.9183H129.297C128.939 40.9183 128.599 40.8318 128.293 40.6675V39.4476C128.293 37.3333 127.891 35.3112 127.16 33.4531V22.9415C127.16 21.7635 128.119 20.8053 129.297 20.8053H145.137C146.316 20.8053 147.275 21.7635 147.275 22.9415V38.7821Z" fill="#A1A3BB"/>
<path d="M105.552 47.9635C106.051 47.9635 106.455 47.5593 106.455 47.0608V46.053C106.455 45.5545 106.051 45.1504 105.552 45.1504C105.054 45.1504 104.649 45.5545 104.649 46.053V47.0608C104.649 47.5593 105.054 47.9635 105.552 47.9635Z" fill="#A1A3BB"/>
<path d="M119.041 47.9635C119.539 47.9635 119.943 47.5593 119.943 47.0608V46.053C119.943 45.5545 119.539 45.1504 119.041 45.1504C118.542 45.1504 118.138 45.5545 118.138 46.053V47.0608C118.138 47.5593 118.542 47.9635 119.041 47.9635Z" fill="#A1A3BB"/>
<path d="M110.74 52.4044C111.97 51.6865 113.116 51.6865 114.347 52.4044C114.49 52.4878 114.646 52.5275 114.801 52.5274C115.112 52.5274 115.414 52.3669 115.581 52.0794C115.833 51.6488 115.687 51.0962 115.257 50.845C113.481 49.8095 111.605 49.8095 109.83 50.845C109.399 51.0962 109.254 51.6489 109.505 52.0794C109.756 52.5102 110.309 52.6555 110.74 52.4044V52.4044Z" fill="#A1A3BB"/>
</svg>
