<svg width="240" height="100" viewBox="0 0 240 100" fill="none" xmlns="http://www.w3.org/2000/svg">
<rect x="0.5" y="0.5" width="239" height="99" rx="9.5" stroke="#A1A3BB" stroke-dasharray="6 6"/>
<path opacity="0.2" d="M125.4 44.1006C124.9 44.1006 124.5 44.5006 124.5 45.0006C124.5 45.5006 124.9 45.9006 125.4 45.9006C125.9 45.9006 126.3 45.5006 126.3 45.0006C126.3 44.6006 125.9 44.1006 125.4 44.1006Z" fill="black"/>
<path opacity="0.2" d="M143.5 68.2L130.8 55.5C132.9 52.4 134 48.8 134 45C134 34.5 125.5 26 115 26C104.5 26 96 34.5 96 45C96 55.5 104.5 64 115 64C118.8 64 122.4 62.9 125.5 60.8L129 64.3L138.2 73.5C138.9 74.2 139.9 74.6 140.9 74.6C141.9 74.6 142.9 74.2 143.6 73.5C144.3 72.8 144.7 71.8 144.7 70.8C144.7 69.8 144.2 68.9 143.5 68.2ZM125 58.9C122.1 61 118.6 62.2 115 62.2C105.6 62.2 97.9 54.5 97.9 45.1C97.9 35.7 105.6 28 115 28C124.4 28 132.1 35.7 132.1 45.1C132.1 48.7 131 52.2 128.8 55.1C127.7 56.6 126.4 57.9 125 58.9ZM127 59.8C128 59 128.9 58.1 129.7 57.1L132.4 59.8C131.6 60.8 130.7 61.7 129.7 62.5L127 59.8ZM142.1 72.3C141.7 72.7 141.3 72.9 140.8 72.9C140.3 72.9 139.8 72.7 139.5 72.3L131.1 63.9C132.1 63.1 133 62.2 133.8 61.2L142.2 69.6C142.6 70 142.8 70.4 142.8 70.9C142.8 71.4 142.5 71.9 142.1 72.3Z" fill="black"/>
<path opacity="0.2" d="M115 29.9004C106.6 29.9004 99.8 36.7004 99.8 45.1004C99.8 53.5004 106.6 60.3004 115 60.3004C123.4 60.3004 130.2 53.5004 130.2 45.1004C130.2 36.7004 123.3 29.9004 115 29.9004ZM115 58.4004C107.7 58.4004 101.7 52.4004 101.7 45.1004C101.7 37.8004 107.7 31.8004 115 31.8004C122.3 31.8004 128.3 37.8004 128.3 45.1004C128.3 52.4004 122.3 58.4004 115 58.4004Z" fill="black"/>
<path opacity="0.2" d="M125.6 41.0006C124.8 38.9006 123.4 37.1006 121.5 35.7006C119.6 34.4006 117.3 33.6006 115 33.6006C114.5 33.6006 114.1 34.0006 114.1 34.5006C114.1 35.0006 114.5 35.4006 115 35.4006C118.9 35.4006 122.5 37.8006 123.9 41.5006C124 41.9006 124.4 42.1006 124.8 42.1006C124.9 42.1006 125 42.1006 125.1 42.0006C125.5 42.1006 125.8 41.5006 125.6 41.0006Z" fill="black"/>
<path d="M162.5 22C160.57 22 159 23.5247 159 25.3994C159 28.063 162.171 30.8132 162.306 30.9287C162.362 30.9764 162.431 31 162.5 31C162.569 31 162.638 30.9764 162.694 30.9291C162.829 30.8133 166 28.063 166 25.3994C166 23.5247 164.43 22 162.5 22ZM162.5 27.25C161.428 27.25 160.556 26.4089 160.556 25.375C160.556 24.3411 161.428 23.5 162.5 23.5C163.572 23.5 164.444 24.3411 164.444 25.375C164.444 26.4089 163.572 27.25 162.5 27.25Z" fill="#C6C6C9"/>
<path d="M212.5 30C210.019 30 208 31.8636 208 34.1548C208 37.4103 212.077 40.7717 212.251 40.9129C212.322 40.9711 212.411 41 212.5 41C212.589 41 212.678 40.9711 212.749 40.9134C212.923 40.7718 217 37.4103 217 34.1548C217 31.8636 214.981 30 212.5 30ZM212.5 36.4167C211.122 36.4167 210 35.3886 210 34.125C210 32.8614 211.122 31.8333 212.5 31.8333C213.878 31.8333 215 32.8614 215 34.125C215 35.3886 213.878 36.4167 212.5 36.4167Z" fill="#C6C6C9"/>
<path d="M74.5 62C72.019 62 70 63.8636 70 66.1548C70 69.4103 74.077 72.7717 74.2505 72.9129C74.322 72.9711 74.411 73 74.5 73C74.589 73 74.678 72.9711 74.7495 72.9134C74.923 72.7718 79 69.4103 79 66.1548C79 63.8636 76.981 62 74.5 62ZM74.5 68.4167C73.1215 68.4167 72 67.3886 72 66.125C72 64.8614 73.1215 63.8333 74.5 63.8333C75.8785 63.8333 77 64.8614 77 66.125C77 67.3886 75.8785 68.4167 74.5 68.4167Z" fill="#C6C6C9"/>
<path d="M29.5 76C27.5703 76 26 77.5247 26 79.3994C26 82.063 29.171 84.8132 29.3059 84.9287C29.3616 84.9764 29.4308 85 29.5 85C29.5692 85 29.6384 84.9764 29.6941 84.9291C29.829 84.8133 33 82.063 33 79.3994C33 77.5247 31.4297 76 29.5 76ZM29.5 81.25C28.4278 81.25 27.5556 80.4089 27.5556 79.375C27.5556 78.3411 28.4278 77.5 29.5 77.5C30.5722 77.5 31.4444 78.3411 31.4444 79.375C31.4444 80.4089 30.5722 81.25 29.5 81.25Z" fill="#C6C6C9"/>
<path d="M195 61C191.692 61 189 63.5412 189 66.6656C189 71.105 194.436 75.6887 194.667 75.8812C194.763 75.9606 194.881 76 195 76C195.119 76 195.237 75.9606 195.333 75.8819C195.564 75.6888 201 71.105 201 66.6656C201 63.5412 198.308 61 195 61ZM195 69.75C193.162 69.75 191.667 68.3481 191.667 66.625C191.667 64.9019 193.162 63.5 195 63.5C196.838 63.5 198.333 64.9019 198.333 66.625C198.333 68.3481 196.838 69.75 195 69.75Z" fill="#C6C6C9"/>
<path d="M49 16C45.692 16 43 18.5412 43 21.6656C43 26.105 48.436 30.6887 48.6673 30.8812C48.7627 30.9606 48.8813 31 49 31C49.1187 31 49.2373 30.9606 49.3327 30.8819C49.564 30.6888 55 26.105 55 21.6656C55 18.5412 52.308 16 49 16ZM49 24.75C47.162 24.75 45.6667 23.3481 45.6667 21.625C45.6667 19.9019 47.162 18.5 49 18.5C50.838 18.5 52.3333 19.9019 52.3333 21.625C52.3333 23.3481 50.838 24.75 49 24.75Z" fill="#C6C6C9"/>
</svg>
