<svg width="222" height="166" viewBox="0 0 222 166" fill="none" xmlns="http://www.w3.org/2000/svg">
<path opacity="0.5" d="M212.255 1H9.74477C4.91517 1 1 6.86168 1 14.0924V151.908C1 159.138 4.91517 165 9.74477 165H212.255C217.085 165 221 159.138 221 151.908V14.0924C221 6.86168 217.085 1 212.255 1Z" stroke="white" stroke-width="2" stroke-dasharray="6 6"/>
<path opacity="0.6" d="M120.446 70.4235C119.866 70.4235 119.395 70.8922 119.395 71.4719C119.395 72.0511 119.866 72.5206 120.446 72.5206C121.027 72.5206 121.497 72.0511 121.497 71.4719C121.497 70.8922 121.027 70.4235 120.446 70.4235Z" fill="white"/>
<path opacity="0.6" d="M101.353 89.4783C100.772 89.4783 100.302 89.9482 100.302 90.5271C100.302 91.1072 100.772 91.5758 101.353 91.5758C101.933 91.5758 102.404 91.1072 102.404 90.5271C102.404 89.9482 101.933 89.4783 101.353 89.4783Z" fill="white"/>
<path opacity="0.6" d="M136.494 60.6042C136.139 60.5219 135.766 60.6288 135.51 60.8869L131.154 65.2691H129.065L126.766 62.8918V60.7783L131.06 56.4289C131.314 56.1716 131.418 55.8017 131.334 55.4498C131.25 55.0983 130.99 54.8148 130.647 54.6993C129.569 54.3363 128.44 54.1524 127.292 54.1524C123.869 54.1524 120.76 55.7452 118.761 58.5223C116.89 61.122 116.313 64.308 117.14 67.3572L109.399 75.0822L96.5041 62.1827V59.6509C96.5041 59.2826 96.3103 58.941 95.9939 58.7517L88.564 54.3019C88.1502 54.0541 87.6211 54.1192 87.2805 54.4596L84.3087 57.4252C83.968 57.7656 83.9027 58.2937 84.1506 58.7066L88.6083 66.122C88.798 66.4379 89.1399 66.6308 89.5089 66.6312L92.0448 66.6321L104.941 79.5316L97.2306 87.2272C94.1755 86.403 90.9817 86.9794 88.3756 88.8479C85.5947 90.8417 84 93.9441 84 97.3599C84 98.5053 84.1843 99.6323 84.548 100.709C84.6641 101.053 84.9511 101.313 85.3057 101.395C85.6608 101.477 86.033 101.371 86.2896 101.112L90.6455 96.7307H92.7454L95.1381 99.1186V101.214L90.7477 105.562C90.4891 105.818 90.382 106.189 90.4645 106.544C90.5466 106.898 90.8072 107.184 91.1524 107.3C92.2307 107.663 93.3599 107.847 94.5076 107.847C97.9301 107.847 101.038 106.255 103.036 103.48C104.908 100.879 105.486 97.6913 104.66 94.6422L110.853 88.4615L112.271 89.9994L111.62 90.6488C111.21 91.0584 111.21 91.7225 111.62 92.1322C112.031 92.5414 112.696 92.5414 113.107 92.1322L113.696 91.5439L127.006 105.973C127.016 105.984 127.026 105.994 127.036 106.004C129.499 108.462 133.489 108.463 135.953 106.004C138.41 103.55 138.41 99.5582 135.953 97.1047C135.943 97.094 135.932 97.0838 135.921 97.0736L121.44 83.8151L122.023 83.2334C122.434 82.8241 122.434 82.1601 122.023 81.7504C121.613 81.3407 120.948 81.3407 120.537 81.7504L119.891 82.396L118.347 80.9819L124.569 74.7713C125.454 75.0073 126.367 75.1269 127.292 75.1269C133.086 75.1269 137.799 70.4223 137.799 64.6398C137.799 63.494 137.615 62.3674 137.251 61.2908C137.135 60.9463 136.848 60.6862 136.494 60.6042V60.6042ZM93.2244 64.8426C93.0274 64.6456 92.7602 64.5452 92.4811 64.5452L90.1045 64.5444L86.375 58.3298L88.1864 56.5219L94.4025 60.2449V62.6169C94.4025 62.8947 94.5129 63.161 94.7095 63.3576L107.913 76.5657L106.427 78.0486L93.2244 64.8426ZM119.953 85.2997L134.482 98.6028C136.105 100.24 136.1 102.89 134.467 104.521C132.83 106.155 130.18 106.16 128.537 104.536L115.183 90.0592L119.953 85.2997ZM118.403 83.8802L113.759 88.5148L112.34 86.9769L116.859 82.4661L118.403 83.8802ZM127.292 73.0294C126.373 73.0294 125.469 72.8823 124.606 72.5923C124.228 72.4657 123.81 72.5632 123.528 72.8446C118.26 78.1023 106.909 89.4308 102.729 93.6029C102.446 93.8847 102.348 94.3018 102.476 94.6795C103.349 97.2682 102.932 100.029 101.329 102.256C99.7312 104.476 97.2446 105.749 94.5076 105.749C94.2001 105.749 93.8943 105.733 93.5914 105.7L96.9289 102.395C97.1276 102.198 97.2396 101.931 97.2396 101.651V98.684C97.2396 98.4058 97.1288 98.1391 96.9318 97.9425L93.9235 94.94C93.7265 94.7434 93.4592 94.6328 93.1805 94.6328H90.2079C89.9276 94.6328 89.6591 94.7446 89.4617 94.9429L86.1504 98.2739C86.1176 97.9715 86.1012 97.6663 86.1012 97.3595C86.1012 94.6274 87.3769 92.1461 89.6017 90.5513C91.8321 88.9519 94.5991 88.5345 97.1933 89.4067C97.5713 89.5341 97.9892 89.4361 98.2716 89.1543C98.3294 89.0969 119.056 68.4108 119.07 68.3961C119.353 68.1142 119.45 67.6976 119.323 67.3199C118.449 64.7312 118.866 61.9709 120.468 59.746C122.067 57.5239 124.554 56.2499 127.291 56.2499C127.608 56.2499 127.923 56.2675 128.235 56.3019L124.967 59.6124C124.773 59.8086 124.665 60.0729 124.665 60.3482V63.315C124.665 63.587 124.77 63.848 124.959 64.0434L127.863 67.0458C128.06 67.2507 128.333 67.3662 128.619 67.3662H131.591C131.871 67.3662 132.14 67.2547 132.337 67.0561L135.648 63.7255C135.681 64.0278 135.698 64.333 135.698 64.6398C135.698 69.2658 131.927 73.0294 127.292 73.0294V73.0294Z" fill="white"/>
<path opacity="0.6" d="M116.731 73.6963L103.582 86.82C103.172 87.2292 103.172 87.8933 103.582 88.303C103.992 88.7126 104.658 88.7126 105.068 88.303L118.217 75.1793C118.628 74.77 118.628 74.106 118.217 73.6963C117.807 73.2866 117.142 73.2866 116.731 73.6963V73.6963Z" fill="white"/>
<path opacity="0.6" d="M130.01 101.556C130.42 101.964 131.086 101.964 131.496 101.553C131.906 101.143 131.904 100.479 131.494 100.07L122.022 90.6475C121.611 90.2387 120.945 90.2399 120.536 90.65C120.126 91.0605 120.127 91.7241 120.538 92.133L130.01 101.556Z" fill="white"/>
</svg>
