<svg width="110" height="110" viewBox="0 0 110 110" fill="none" xmlns="http://www.w3.org/2000/svg">
<circle cx="54.1487" cy="55" r="45" fill="#EAECF4"/>
<path d="M64.1487 95.9268L69.2178 93L75.2456 103.44L70.1764 106.367L64.1487 95.9268Z" fill="#FABE2C"/>
<path d="M33.1487 103.44L39.1764 93.0004L44.2456 95.9272L38.2178 106.367L33.1487 103.44Z" fill="#FED843"/>
<path d="M51.1643 97H57.0169V108.9H51.1643V97Z" fill="#FED843"/>
<path d="M53.9942 71.9229C53.8799 71.2856 53.7028 70.5856 53.5313 70.0025L38.9905 32.04C42.191 27.8333 43.2626 22.4925 41.931 17.3828L39.3219 7.34942C38.636 4.70602 36.2784 3 33.318 3C33.0694 3 33.0694 3 17.8721 5.27469C14.596 5.76045 12.3818 8.86035 12.9768 12.1132L13.4741 14.8337L12.4111 15.511C9.62489 17.2798 8.35313 20.7235 9.32192 23.8784C11.025 29.4424 15.8489 33.5632 21.6099 34.3804L29.7698 67.5449H21.9014L16.0488 76.9333L21.9014 85.1025H44.1696C50.6222 84.1212 54.7849 78.1044 53.9942 71.9229Z" fill="#FFD5CC"/>
<path d="M78.411 67.5449L86.5708 34.3804C92.3319 33.5632 97.1558 29.4422 98.8589 23.8784C99.8277 20.7235 98.5559 17.28 95.7697 15.511L94.7067 14.8337L95.2039 12.1132C95.7992 8.86035 93.5847 5.76065 90.3087 5.27469C75.1116 3 75.1116 3 74.8628 3C71.9022 3 69.5446 4.70602 68.8589 7.34942L66.2498 17.3828C64.9182 22.4923 65.9898 27.8333 69.1903 32.04L54.6493 70.0025C54.4778 70.5854 54.3007 71.2856 54.1863 71.9229C53.3959 78.1044 57.5584 84.1214 64.011 85.1027H86.2794L92.1319 76.6897L86.2794 67.545H78.411V67.5449Z" fill="#FFBFAB"/>
<mask id="mask0" mask-type="alpha" maskUnits="userSpaceOnUse" x="9" y="10" width="91" height="90">
<circle cx="54.1487" cy="55" r="45" fill="#EAECF4"/>
</mask>
<g mask="url(#mask0)">
<path d="M4.14868 67.5449H21.9014V85.1026H4.14868V67.5449Z" fill="#366EFC"/>
<path d="M86.2795 67.5449H104.032V85.1026H86.2795V67.5449Z" fill="#6F7187"/>
</g>
<path d="M54.0903 97H57.0166V108.9H54.0903V97Z" fill="#FABE2C"/>
</svg>
