<svg width="40" height="40" viewBox="0 0 40 40" fill="none" xmlns="http://www.w3.org/2000/svg">
<rect x="0.727539" width="39.1608" height="40" rx="19.5804" fill="#A1A3BB"/>
<path d="M32.6779 27.0926L22.4233 10.0862C22.0193 9.41621 21.2824 9 20.5 9C19.7176 9 18.9806 9.41621 18.5766 10.0862L8.32204 27.0926C7.90451 27.7851 7.89216 28.6527 8.28977 29.3568C8.68747 30.0609 9.43679 30.4983 10.2454 30.4983H30.7546C31.5632 30.4983 32.3125 30.0609 32.7102 29.3567C33.1078 28.6526 33.0955 27.785 32.6779 27.0926ZM31.2929 28.5564C31.1835 28.7502 30.9772 28.8707 30.7546 28.8707H10.2454C10.0228 28.8707 9.81648 28.7503 9.70705 28.5565C9.59758 28.3626 9.601 28.1237 9.71589 27.9332L19.9705 10.9267C20.0818 10.7423 20.2846 10.6277 20.5 10.6277C20.7154 10.6277 20.9182 10.7423 21.0295 10.9267L31.284 27.9332C31.399 28.1238 31.4024 28.3626 31.2929 28.5564Z" fill="#EBEFFB"/>
<path d="M20.5074 15.6968C19.8882 15.6968 19.405 16.029 19.405 16.618C19.405 18.4149 19.6164 20.9972 19.6164 22.7942C19.6165 23.2623 20.0242 23.4586 20.5074 23.4586C20.8698 23.4586 21.3833 23.2623 21.3833 22.7942C21.3833 20.9972 21.5946 18.415 21.5946 16.618C21.5946 16.0291 21.0963 15.6968 20.5074 15.6968Z" fill="#EBEFFB"/>
<path d="M20.5227 24.5005C19.8583 24.5005 19.3599 25.029 19.3599 25.6633C19.3599 26.2824 19.8582 26.8261 20.5227 26.8261C21.1418 26.8261 21.6704 26.2824 21.6704 25.6633C21.6704 25.029 21.1417 24.5005 20.5227 24.5005Z" fill="#EBEFFB"/>
</svg>
