<svg width="60" height="60" viewBox="0 0 60 60" fill="none" xmlns="http://www.w3.org/2000/svg">
<rect width="60" height="60" rx="30" fill="white"/>
<path d="M14.6165 22.1696H41.4696V33.4686C41.4696 35.035 41.0431 36.5719 40.2359 37.9143C39.4286 39.2567 38.2711 40.3539 36.8874 41.0883L34.9561 42.1141H21.1299L19.1989 41.0893C17.8151 40.3549 16.6574 39.2575 15.85 37.9149C15.0427 36.5723 14.6163 35.0352 14.6165 33.4686V22.1696Z" fill="#EFE6DE"/>
<path d="M41.8956 46.3028H14.1898C13.0788 46.3028 12.0132 45.8615 11.2275 45.076C10.4418 44.2905 10.0003 43.2251 10 42.1141H46.0864C46.0863 42.6643 45.9778 43.2091 45.7671 43.7174C45.5564 44.2256 45.2477 44.6874 44.8585 45.0764C44.4694 45.4653 44.0074 45.7739 43.4991 45.9843C42.9907 46.1947 42.4458 46.3029 41.8956 46.3028Z" fill="#5D5360"/>
<path d="M47.661 22.1707H41.4697V24.9337H47.661C48.3145 24.9337 48.9436 25.1824 49.4206 25.6291C49.8976 26.0759 50.1868 26.6874 50.2296 27.3396C50.2724 27.9917 50.0656 28.6357 49.651 29.141C49.2365 29.6463 48.6453 29.975 47.9973 30.0605L41.4697 30.9215V33.4686C41.4697 33.5495 41.4635 33.6292 41.4614 33.7104L48.3586 32.801C49.7024 32.6243 50.9286 31.9429 51.7884 30.8952C52.6482 29.8475 53.0773 28.512 52.9885 27.1596C52.8997 25.8072 52.2998 24.5391 51.3104 23.6128C50.321 22.6865 49.0163 22.1713 47.661 22.1717V22.1707Z" fill="#DFCCBF"/>
<path d="M24.2794 28.3774C24.5998 28.0569 24.9803 27.8027 25.399 27.6293C25.8177 27.4558 26.2664 27.3666 26.7196 27.3666C27.1728 27.3666 27.6216 27.4558 28.0403 27.6293C28.459 27.8027 28.8394 28.0569 29.1599 28.3774L31.8069 31.0244C32.1274 31.3448 32.3816 31.7252 32.5551 32.1439C32.7285 32.5626 32.8178 33.0114 32.8178 33.4646C32.8178 33.9178 32.7285 34.3666 32.5551 34.7853C32.3816 35.204 32.1274 35.5845 31.8069 35.9049C31.4864 36.2253 31.106 36.4795 30.6874 36.653C30.2687 36.8264 29.8199 36.9157 29.3668 36.9157C28.9136 36.9157 28.4649 36.8264 28.0462 36.653C27.6275 36.4795 27.2471 36.2253 26.9267 35.9049L24.2794 33.2579C23.9589 32.9375 23.7047 32.557 23.5313 32.1383C23.3578 31.7196 23.2686 31.2709 23.2686 30.8177C23.2686 30.3645 23.3578 29.9157 23.5313 29.497C23.7047 29.0783 23.9589 28.6978 24.2794 28.3774Z" fill="#C27B48"/>
<path d="M31.3399 36.2927C31.6751 36.063 31.965 35.7732 32.1947 35.4379L24.7467 27.9899C24.5798 28.105 24.4234 28.2347 24.2794 28.3774C24.1368 28.5215 24.0071 28.6779 23.8918 28.8447L31.3399 36.2927Z" fill="#966857"/>
<path d="M22.3127 19.7077C22.1524 19.7077 21.9986 19.6441 21.8853 19.5307C21.7719 19.4174 21.7083 19.2636 21.7083 19.1033C21.7077 18.7338 21.7818 18.368 21.9261 18.0279C22.0705 17.6878 22.2821 17.3803 22.5482 17.124C22.7178 16.9764 22.8538 16.7943 22.9472 16.5899C23.0406 16.3854 23.0892 16.1634 23.0898 15.9386C23.0881 15.7139 23.039 15.4921 22.9457 15.2876C22.8523 15.0832 22.7169 14.9008 22.5482 14.7523C22.2825 14.4953 22.0712 14.1875 21.9269 13.8473C21.7826 13.507 21.7083 13.1411 21.7083 12.7715C21.7083 12.4019 21.7826 12.0361 21.9269 11.6958C22.0712 11.3555 22.2825 11.0477 22.5482 10.7908C22.7169 10.6423 22.8523 10.4599 22.9457 10.2554C23.039 10.051 23.0881 9.82914 23.0898 9.60441C23.0898 9.44411 23.1534 9.29038 23.2668 9.17703C23.3801 9.06368 23.5339 9 23.6942 9C23.8545 9 24.0082 9.06368 24.1216 9.17703C24.2349 9.29038 24.2986 9.44411 24.2986 9.60441C24.2992 9.97409 24.2251 10.3401 24.0808 10.6804C23.9366 11.0208 23.7251 11.3285 23.459 11.5852C23.2889 11.7325 23.1525 11.9147 23.059 12.1194C22.9655 12.3241 22.9171 12.5465 22.9171 12.7715C22.9171 12.9966 22.9655 13.219 23.059 13.4236C23.1525 13.6283 23.2889 13.8105 23.459 13.9579C23.7246 14.2148 23.9358 14.5225 24.0801 14.8628C24.2244 15.203 24.2987 15.5687 24.2987 15.9383C24.2987 16.3078 24.2244 16.6736 24.0801 17.0138C23.9358 17.3541 23.7246 17.6618 23.459 17.9187C23.2894 18.0661 23.1533 18.248 23.0599 18.4524C22.9665 18.6567 22.9179 18.8787 22.9174 19.1033C22.9175 19.1827 22.9019 19.2614 22.8715 19.3348C22.8411 19.4081 22.7965 19.4748 22.7404 19.5309C22.6842 19.5871 22.6175 19.6316 22.5441 19.6619C22.4707 19.6923 22.3921 19.7078 22.3127 19.7077Z" fill="#BF9E80"/>
<path d="M27.3525 19.7077C27.1922 19.7077 27.0385 19.6441 26.9251 19.5307C26.8118 19.4174 26.7481 19.2636 26.7481 19.1033C26.7474 18.7338 26.8215 18.368 26.9659 18.0278C27.1102 17.6877 27.3218 17.3802 27.588 17.124C27.7576 16.9764 27.8936 16.7943 27.987 16.5899C28.0805 16.3855 28.1291 16.1634 28.1296 15.9386C28.1279 15.7139 28.0788 15.492 27.9854 15.2875C27.892 15.0831 27.7565 14.9007 27.5877 14.7523C27.3221 14.4953 27.1109 14.1875 26.9666 13.8472C26.8224 13.5069 26.748 13.1411 26.748 12.7715C26.748 12.4019 26.8224 12.0361 26.9666 11.6958C27.1109 11.3556 27.3221 11.0478 27.5877 10.7908C27.7565 10.6424 27.892 10.46 27.9854 10.2555C28.0788 10.0511 28.1279 9.82918 28.1296 9.60441C28.1296 9.44411 28.1933 9.29038 28.3066 9.17703C28.42 9.06368 28.5737 9 28.734 9C28.8943 9 29.048 9.06368 29.1614 9.17703C29.2747 9.29038 29.3384 9.44411 29.3384 9.60441C29.339 9.97409 29.265 10.3401 29.1207 10.6804C28.9764 11.0208 28.7649 11.3285 28.4988 11.5852C28.3287 11.7325 28.1923 11.9147 28.0988 12.1194C28.0054 12.3241 27.957 12.5465 27.957 12.7715C27.957 12.9966 28.0054 13.219 28.0988 13.4236C28.1923 13.6283 28.3287 13.8105 28.4988 13.9579C28.7644 14.2148 28.9757 14.5225 29.1199 14.8628C29.2642 15.203 29.3386 15.5687 29.3386 15.9383C29.3386 16.3078 29.2642 16.6736 29.1199 17.0138C28.9757 17.3541 28.7644 17.6618 28.4988 17.9187C28.3292 18.0661 28.1932 18.248 28.0998 18.4524C28.0063 18.6567 27.9578 18.8787 27.9573 19.1033C27.9573 19.1827 27.9416 19.2614 27.9112 19.3347C27.8808 19.4081 27.8363 19.4747 27.7801 19.5308C27.7239 19.587 27.6573 19.6315 27.5839 19.6618C27.5105 19.6922 27.4319 19.7078 27.3525 19.7077Z" fill="#BF9E80"/>
<path d="M32.3932 19.7077C32.3138 19.7078 32.2352 19.6922 32.1619 19.6618C32.0885 19.6315 32.0219 19.5869 31.9658 19.5308C31.9096 19.4747 31.8651 19.408 31.8347 19.3347C31.8044 19.2613 31.7888 19.1827 31.7888 19.1033C31.7882 18.7338 31.8623 18.368 32.0066 18.0278C32.151 17.6877 32.3626 17.3802 32.6288 17.124C32.7983 16.9764 32.9344 16.7943 33.0278 16.5899C33.1212 16.3855 33.1698 16.1634 33.1703 15.9386C33.1687 15.7139 33.1196 15.4921 33.0262 15.2876C32.9329 15.0832 32.7975 14.9008 32.6288 14.7523C32.3631 14.4953 32.1518 14.1875 32.0075 13.8473C31.8632 13.507 31.7888 13.1411 31.7888 12.7715C31.7888 12.4019 31.8632 12.0361 32.0075 11.6958C32.1518 11.3555 32.3631 11.0477 32.6288 10.7908C32.7975 10.6423 32.9329 10.4599 33.0262 10.2554C33.1196 10.051 33.1687 9.82914 33.1703 9.60441C33.1703 9.44411 33.234 9.29038 33.3474 9.17703C33.4607 9.06368 33.6144 9 33.7747 9C33.935 9 34.0888 9.06368 34.2021 9.17703C34.3155 9.29038 34.3792 9.44411 34.3792 9.60441C34.3798 9.97412 34.3057 10.3401 34.1613 10.6805C34.017 11.0209 33.8054 11.3286 33.5392 11.5852C33.3692 11.7326 33.2329 11.9148 33.1395 12.1195C33.0461 12.3242 32.9977 12.5465 32.9977 12.7715C32.9977 12.9965 33.0461 13.2189 33.1395 13.4236C33.2329 13.6283 33.3692 13.8105 33.5392 13.9579C33.8049 14.2148 34.0162 14.5225 34.1604 14.8627C34.3047 15.2029 34.3791 15.5687 34.3791 15.9383C34.3791 16.3079 34.3047 16.6736 34.1604 17.0139C34.0162 17.3541 33.8049 17.6618 33.5392 17.9187C33.3696 18.0661 33.2336 18.248 33.1401 18.4524C33.0467 18.6567 32.9981 18.8787 32.9976 19.1033C32.9977 19.1827 32.9821 19.2613 32.9517 19.3347C32.9214 19.408 32.8769 19.4747 32.8207 19.5308C32.7646 19.5869 32.6979 19.6315 32.6246 19.6618C32.5512 19.6922 32.4726 19.7078 32.3932 19.7077Z" fill="#BF9E80"/>
</svg>
