<svg width="60" height="60" viewBox="0 0 60 60" fill="none" xmlns="http://www.w3.org/2000/svg">
<rect width="60" height="60" rx="30" fill="white"/>
<path d="M52.9123 29.9981C52.9142 40.8749 45.2692 50.2542 34.6155 52.4456C23.9618 54.637 13.2355 49.0366 8.94431 39.0421C4.65311 29.0476 7.97962 17.4136 16.9056 11.1983C24.7717 5.70946 35.2263 5.70946 43.0923 11.1983C49.2502 15.4756 52.9196 22.5004 52.9123 29.9981Z" fill="#F09E30"/>
<path d="M49.9555 18.7488C42.2945 14.4401 32.8431 14.898 25.6346 19.9272C15.9446 26.6723 12.9685 39.6774 18.7606 49.9654C11.891 46.0974 7.4924 38.9694 7.11562 31.0947C6.73883 23.2199 10.4368 15.7045 16.9058 11.1983C24.7718 5.70946 35.2264 5.70946 43.0924 11.1983C45.9168 13.1692 48.2623 15.7496 49.9555 18.7488Z" fill="#F29C1F" fill-opacity="0.5"/>
<path d="M37.6465 40.1738C37.1221 40.1734 36.6721 39.7999 36.575 39.2845C36.2477 37.5387 38.1899 37.1208 39.7513 36.7815C42.3438 36.2196 44.3492 35.6217 44.6362 33.4962C44.8228 32.0941 44.2707 31.6326 43.8408 31.4067C42.5162 30.7149 39.784 31.2736 38.4267 32.512C37.98 32.9047 37.3012 32.8674 36.9002 32.4281C36.4993 31.9889 36.524 31.3094 36.9558 30.9004C38.7845 29.2288 42.4791 28.2305 44.85 29.4732C46.407 30.2987 47.2096 32.0719 46.802 33.7864C46.2881 37.5988 42.4878 38.4225 40.2172 38.9146C39.7106 39.0108 39.2106 39.1387 38.7202 39.2976C38.6316 39.7347 38.2859 40.0738 37.8473 40.1541C37.7811 40.167 37.7139 40.1735 37.6465 40.1738Z" fill="#ECF0F1"/>
<path d="M42.0012 28.5141C42.0012 33.8496 40.3536 44.1824 27.8168 44.1824C14.8107 44.1824 13.5232 33.0531 13.6433 27.9358C13.796 30.8927 20.0808 33.2713 27.8168 33.2713C35.5527 33.2713 41.8375 30.8927 41.9903 27.9358C41.9903 28.1213 42.0012 28.3177 42.0012 28.5141Z" fill="#BDC3C7"/>
<path d="M42.0011 27.8159C42.0029 27.8562 41.9993 27.8966 41.9902 27.9359C41.8375 30.8928 35.5527 33.2714 27.8167 33.2714C20.0807 33.2714 13.7959 30.8928 13.6432 27.9359C13.6342 27.8966 13.6305 27.8562 13.6323 27.8159C13.6323 24.8044 19.9825 22.3604 27.8167 22.3604C35.6509 22.3604 42.0011 24.8044 42.0011 27.8159Z" fill="#ECF0F1"/>
<path d="M39.819 27.2704C39.8204 27.2987 39.8174 27.327 39.8102 27.3544C39.6804 29.4243 34.3634 31.0893 27.8168 31.0893C21.2701 31.0893 15.9531 29.4243 15.8233 27.3544C15.8161 27.327 15.8131 27.2987 15.8146 27.2704C15.8146 25.1624 21.1883 23.4515 27.8168 23.4515C34.4453 23.4515 39.819 25.1624 39.819 27.2704Z" fill="#BDC3C7"/>
<path d="M27.8167 31.0891C34.1682 31.0891 39.317 29.8678 39.317 28.3613C39.317 26.8548 34.1682 25.6335 27.8167 25.6335C21.4653 25.6335 16.3164 26.8548 16.3164 28.3613C16.3164 29.8678 21.4653 31.0891 27.8167 31.0891Z" fill="#A56A43"/>
<path d="M21.27 27.8158C20.6674 27.8158 20.1789 27.3273 20.1789 26.7247C20.2152 25.6513 20.7674 24.6614 21.6618 24.0668C22.1909 23.6303 22.3612 23.4535 22.3612 23.0848C22.3612 22.716 22.1909 22.5392 21.6618 22.1028C20.7396 21.5346 20.178 20.529 20.178 19.4459C20.178 18.3628 20.7396 17.3572 21.6618 16.7891C22.2193 16.3253 22.3601 16.1617 22.3601 15.8071C22.3601 15.2044 22.8486 14.7159 23.4512 14.7159C24.0538 14.7159 24.5423 15.2044 24.5423 15.8071C24.5063 16.8802 23.9535 17.8697 23.0584 18.4628C22.5008 18.9265 22.3601 19.0902 22.3601 19.4448C22.3601 19.8125 22.5303 19.9904 23.0595 20.4268C23.981 20.9959 24.542 22.0017 24.542 23.0848C24.542 24.1678 23.981 25.1736 23.0595 25.7427C22.5303 26.1791 22.3601 26.3559 22.3601 26.7247C22.3601 27.3269 21.8722 27.8152 21.27 27.8158Z" fill="#F3D55B"/>
<path d="M26.7254 27.8157C26.1228 27.8157 25.6343 27.3272 25.6343 26.7246C25.6705 25.6512 26.2227 24.6613 27.1171 24.0666C27.6463 23.6302 27.8165 23.4534 27.8165 23.0846C27.8165 22.7158 27.6463 22.5391 27.1171 22.1026C26.1949 21.5345 25.6333 20.5289 25.6333 19.4458C25.6333 18.3627 26.1949 17.357 27.1171 16.7889C27.6746 16.3252 27.8154 16.1615 27.8154 15.8069C27.8154 15.2043 28.3039 14.7158 28.9065 14.7158C29.5091 14.7158 29.9976 15.2043 29.9976 15.8069C29.9617 16.8801 29.4088 17.8696 28.5137 18.4627C27.9561 18.9264 27.8154 19.0901 27.8154 19.4447C27.8154 19.8124 27.9856 19.9902 28.5148 20.4267C29.4363 20.9957 29.9974 22.0015 29.9974 23.0846C29.9974 24.1677 29.4363 25.1735 28.5148 25.7426C27.9856 26.179 27.8154 26.3558 27.8154 26.7246C27.8154 27.3268 27.3275 27.8151 26.7254 27.8157Z" fill="#F3D55B"/>
<path d="M32.1809 27.8157C31.5783 27.8157 31.0898 27.3272 31.0898 26.7246C31.1261 25.6512 31.6783 24.6613 32.5726 24.0666C33.1018 23.6302 33.272 23.4534 33.272 23.0846C33.272 22.7158 33.1018 22.5391 32.5726 22.1026C31.6505 21.5345 31.0889 20.5289 31.0889 19.4458C31.0889 18.3627 31.6505 17.357 32.5726 16.7889C33.1302 16.3252 33.2709 16.1615 33.2709 15.8069C33.2709 15.2043 33.7595 14.7158 34.3621 14.7158C34.9647 14.7158 35.4532 15.2043 35.4532 15.8069C35.4172 16.8801 34.8643 17.8696 33.9693 18.4627C33.4117 18.9264 33.2709 19.0901 33.2709 19.4447C33.2709 19.8124 33.4412 19.9902 33.9703 20.4267C34.8919 20.9957 35.4529 22.0015 35.4529 23.0846C35.4529 24.1677 34.8919 25.1735 33.9703 25.7426C33.4412 26.179 33.2709 26.3558 33.2709 26.7246C33.2709 27.3268 32.7831 27.8151 32.1809 27.8157Z" fill="#F3D55B"/>
</svg>
