<svg width="60" height="60" viewBox="0 0 60 60" fill="none" xmlns="http://www.w3.org/2000/svg">
<rect width="60" height="60" rx="30" fill="white"/>
<path d="M34.6756 9.41803C34.6756 9.50736 34.6734 9.59542 34.6688 9.68359C34.5309 12.5536 32.1605 14.837 29.2578 14.837C26.354 14.837 23.9835 12.5534 23.8457 9.68359C23.8411 9.59542 23.8389 9.50736 23.8389 9.41803C23.8389 6.42605 26.2648 4.00024 29.2578 4.00024C32.2498 4.00001 34.6756 6.42605 34.6756 9.41803Z" fill="#E6E6E6"/>
<path d="M25.986 9.41813C25.986 6.79326 27.8527 4.60478 30.3308 4.10673C29.9838 4.037 29.6249 4 29.2575 4C26.2652 4 23.8394 6.42581 23.8394 9.41813C23.8394 12.4105 26.2652 14.8363 29.2575 14.8363C29.6249 14.8363 29.9839 14.7993 30.3308 14.7295C27.8526 14.2315 25.986 12.043 25.986 9.41813Z" fill="#D3D3D3"/>
<path d="M42.1386 44.7926V54.9695H16.3772V44.7926C16.3772 41.448 18.5093 38.5997 21.4878 37.5353C21.8471 37.4076 22.2178 37.3048 22.5995 37.2303H35.9163C36.2983 37.3049 36.6688 37.4077 37.028 37.5353C40.0065 38.5997 42.1386 41.4481 42.1386 44.7926Z" fill="#FD5D65"/>
<path d="M25.8762 37.2312H22.5995C19.0539 37.9215 16.3772 41.0457 16.3772 44.7936V54.9705H19.6539V44.7936C19.6539 41.0457 22.3306 37.9216 25.8762 37.2312Z" fill="#E54E5C"/>
<path d="M37.0286 37.5352L33.0718 40.4096C30.7974 42.0616 27.7183 42.0616 25.4451 40.4096L21.488 37.5352C21.8473 37.4075 22.218 37.3047 22.5997 37.2302H35.9167C36.2987 37.3047 36.6693 37.4075 37.0286 37.5352Z" fill="#E54E5C"/>
<path d="M17.5163 27.568C16.1152 27.5058 15 26.3498 15 24.9341C15 23.4788 16.1796 22.2981 17.636 22.2981C17.7671 22.2981 17.8958 22.3071 18.0224 22.3263" fill="#E0B394"/>
<path d="M40.9978 27.568C42.3988 27.5059 43.5153 26.35 43.5153 24.9341C43.5153 23.4788 42.3345 22.2981 40.8781 22.2981C40.747 22.2981 40.617 22.3082 40.4917 22.3263" fill="#E0B394"/>
<path d="M34.1752 34.8472V41.1238C34.1752 43.84 31.973 46.041 29.258 46.041C26.5418 46.041 24.3408 43.84 24.3408 41.1238V34.8472H34.1752Z" fill="#F7CBA4"/>
<path d="M34.1752 34.8472V39.6074L33.0712 40.4096C30.7969 42.0627 27.7178 42.0627 25.4446 40.4096L24.3406 39.6074V34.8472H34.1752Z" fill="#E0B394"/>
<path d="M25.4442 38.9624L20.806 35.5926C18.3551 33.8118 17.0292 30.8672 17.3205 27.8516L18.1249 19.5267C18.679 13.7931 23.4971 9.41809 29.2575 9.41809C35.0178 9.41809 39.8361 13.7931 40.3901 19.5267L41.1945 27.8516C41.4859 30.8671 40.16 33.8118 37.709 35.5926L33.0708 38.9624C30.797 40.6146 27.718 40.6146 25.4442 38.9624Z" fill="#F7CBA4"/>
<path d="M20.2069 29.4923C20.1288 30.8109 20.5582 32.1081 21.4079 33.1193L26.2555 39.076C26.5086 39.3777 26.7956 39.6309 27.1062 39.8331C26.5231 39.6297 25.9628 39.3382 25.4441 38.9619L20.8059 35.5926C18.3552 33.8118 17.0298 30.8674 17.3213 27.8517L18.1247 19.5266C18.6738 13.8489 23.4035 9.50343 29.0902 9.4209C25.5877 9.50573 21.6215 12.8073 21.4147 16.3235L20.2069 29.4923Z" fill="#E0B394"/>
<path d="M34.6688 9.68321C34.531 12.5532 32.1605 14.8366 29.2578 14.8366C26.354 14.8366 23.9836 12.553 23.8457 9.68321C25.3812 8.83349 27.1325 8.33533 28.9889 8.29118C29.0228 8.29003 29.0567 8.29003 29.0906 8.29003C29.1459 8.28784 29.2014 8.28784 29.2578 8.28784C31.2137 8.28796 33.0609 8.79177 34.6688 9.68321Z" fill="#D3D3D3"/>
<path d="M40.5252 20.9158C35.1818 20.9158 32.1968 15.2303 32.1968 15.2303C32.1968 15.2303 29.7019 19.8459 21.1012 19.7362C20.1802 19.725 19.1916 19.6582 18.1262 19.5272H18.125C18.6708 13.8822 23.3486 9.55468 28.9889 9.42143C29.0228 9.42028 29.0567 9.42028 29.0906 9.42028C29.1459 9.41809 29.2014 9.41809 29.2578 9.41809C32.138 9.41809 34.783 10.5119 36.7762 12.3219C38.7704 14.1331 40.1139 16.6596 40.3907 19.5272L40.5252 20.9158Z" fill="#E6E6E6"/>
<path d="M29.0908 9.42017C25.5881 9.50488 21.6211 12.8065 21.4144 16.3226L21.1014 19.736C20.1805 19.7247 19.1919 19.658 18.1264 19.5269H18.1252C18.671 13.882 23.3488 9.55445 28.9892 9.4212C29.0229 9.42017 29.0569 9.42017 29.0908 9.42017Z" fill="#D3D3D3"/>
<path d="M34.1486 30.3206C35.8959 30.3206 37.3123 28.9042 37.3123 27.1569C37.3123 25.4096 35.8959 23.9932 34.1486 23.9932C32.4013 23.9932 30.9849 25.4096 30.9849 27.1569C30.9849 28.9042 32.4013 30.3206 34.1486 30.3206Z" fill="#D7E9F4"/>
<path d="M24.3671 30.3206C26.1144 30.3206 27.5308 28.9042 27.5308 27.1569C27.5308 25.4096 26.1144 23.9932 24.3671 23.9932C22.6198 23.9932 21.2034 25.4096 21.2034 27.1569C21.2034 28.9042 22.6198 30.3206 24.3671 30.3206Z" fill="#D7E9F4"/>
<path d="M34.8256 27.2703H33.4702C33.0958 27.2703 32.7922 26.9667 32.7922 26.5923C32.7922 26.2179 33.0958 25.9143 33.4702 25.9143H34.8256C35.1999 25.9143 35.5035 26.2179 35.5035 26.5923C35.5035 26.9668 35.1998 27.2703 34.8256 27.2703Z" fill="#B6CDD8"/>
<path d="M25.0451 27.2703H23.6897C23.3153 27.2703 23.0117 26.9667 23.0117 26.5923C23.0117 26.2179 23.3153 25.9143 23.6897 25.9143H25.0451C25.4194 25.9143 25.723 26.2179 25.723 26.5923C25.723 26.9668 25.4194 27.2703 25.0451 27.2703Z" fill="#B6CDD8"/>
<path d="M28.3618 31.7921L29.8328 31.4003C30.2858 31.2796 30.5553 30.8145 30.4346 30.3613L29.4321 26.5991" fill="#E0B394"/>
<path d="M41.2613 23.749C41.0574 23.5128 40.7008 23.4866 40.4646 23.6903L37.7128 26.0648C37.2447 24.5402 35.8237 23.4286 34.1477 23.4286C32.2838 23.4286 30.7349 24.8034 30.4618 26.5923H28.053C27.78 24.8034 26.231 23.4286 24.3671 23.4286C22.6912 23.4286 21.2703 24.5402 20.8021 26.0648L18.0502 23.6903C17.814 23.4865 17.4571 23.5127 17.2535 23.749C17.0496 23.9853 17.0759 24.342 17.3121 24.5458L20.6492 27.4251C20.7871 29.3563 22.4013 30.8858 24.3672 30.8858C26.2311 30.8858 27.78 29.511 28.0531 27.7221H30.462C30.7349 29.511 32.2839 30.8858 34.1478 30.8858C36.1136 30.8858 37.7279 29.3563 37.8658 27.4251L41.2029 24.5458C41.4388 24.342 41.4652 23.9853 41.2613 23.749ZM24.367 29.7559C22.9341 29.7559 21.7683 28.5901 21.7683 27.1572C21.7683 25.7243 22.9341 24.5585 24.367 24.5585C25.7999 24.5585 26.9657 25.7243 26.9657 27.1572C26.9657 28.5901 25.7999 29.7559 24.367 29.7559ZM34.1476 29.7559C32.7146 29.7559 31.5489 28.5901 31.5489 27.1572C31.5489 25.7243 32.7146 24.5585 34.1476 24.5585C35.5805 24.5585 36.7463 25.7243 36.7463 27.1572C36.7463 28.5901 35.5805 29.7559 34.1476 29.7559Z" fill="#ED7C58"/>
<path d="M22.3644 54.9692H20.6694L21.517 44.2036L22.3644 54.9692Z" fill="#E54E5C"/>
<path d="M37.8437 54.9692H36.1489L36.9964 44.2036L37.8437 54.9692Z" fill="#E54E5C"/>
<path d="M26.1785 33.2512C26.8319 33.3999 27.3462 33.5174 27.8453 33.5806C28.3391 33.6471 28.797 33.6794 29.2574 33.6793C29.7176 33.6776 30.1752 33.6453 30.6685 33.5784C31.1672 33.5149 31.6814 33.3984 32.3363 33.2513C32.1835 33.909 31.7336 34.4397 31.1787 34.8115C30.6191 35.1813 29.9373 35.375 29.2575 35.374C28.5776 35.3731 27.8963 35.1796 27.3372 34.8092C26.7827 34.4372 26.3329 33.9073 26.1785 33.2512Z" fill="#4D4D4D"/>
</svg>
