<svg width="60" height="60" viewBox="0 0 60 60" fill="none" xmlns="http://www.w3.org/2000/svg">
<rect width="60" height="60" rx="30" fill="white"/>
<path d="M15.9577 12.2766C15.9577 11.0192 15.7581 10.0818 14.5122 10.0818C14.1957 10.0818 13.8946 10.0661 13.6214 10.1849C13.5397 10.2204 13.4605 10.2607 13.3841 10.3053C13.0522 10.1115 12.6671 10 12.256 10C11.01 10 10 11.0192 10 12.2766C10 13.1441 10.481 13.8981 11.1884 14.2824C11.1494 14.4501 11.1281 14.6247 11.1281 14.8044C11.1281 15.7422 11.6899 16.5475 12.4925 16.8963C12.766 17.0152 13.0674 16.9993 13.3841 16.9993C14.6301 16.9993 15.5591 16.0618 15.5591 14.8045C15.5591 14.6248 15.5378 14.4502 15.4988 14.2824C16.2062 13.8981 15.9577 13.1441 15.9577 12.2766Z" fill="#FFE177"/>
<path d="M21.2306 25.396C18.3418 25.396 16 23.0316 16 20.115C16 18.2774 16.9301 16.6596 18.3404 15.7137C18.6903 13.1399 20.8756 11.1569 23.5209 11.1569C23.9471 11.1569 24.3609 11.2096 24.7575 11.3067C25.6774 10.4937 26.8811 10 28.1997 10C29.8572 10 31.3337 10.7793 32.292 11.9939C32.6298 11.833 32.9875 11.7075 33.3602 11.6221C33.733 11.5368 34.1208 11.575 34.5191 11.575C37.408 11.575 38.9235 13.856 38.9235 16.7727C38.9235 17.0096 38.9065 17.2424 38.8766 17.471C40.1646 18.433 41 19.9773 41 21.719C41 24.6356 39.4844 27 36.5957 27L21.2306 25.396Z" fill="#FFE177"/>
<path d="M26.5 15C26.2239 15 26 14.7761 26 14.5C26 14.2239 26.2239 14 26.5 14C26.7761 14 27 14.2239 27 14.5C27 14.7761 26.7761 15 26.5 15Z" fill="#FFD15B"/>
<path d="M22 18C21.4477 18 21 17.7761 21 17.5C21 17.2239 21.4477 17 22 17C22.5523 17 23 17.2239 23 17.5C23 17.7761 22.5524 18 22 18Z" fill="#FFD15B"/>
<path d="M17 12.2505C17 11.0076 16.0551 10 14.8894 10C14.5933 10 14.312 10.0659 14.0563 10.1834C14.8065 10.5284 15.3318 11.324 15.3318 12.2505C15.3318 13.1081 14.8819 13.8535 14.2201 14.2334C14.2566 14.3992 14.2765 14.5718 14.2765 14.7495C14.2765 15.6764 13.7507 16.4723 13 16.8171C13.2559 16.9347 13.5378 17 13.8341 17C14.9997 17 15.9447 15.9924 15.9447 14.7495C15.9447 14.5718 15.9247 14.3992 15.8883 14.2334C16.5501 13.8535 17 13.1081 17 12.2505Z" fill="#FFD15B"/>
<path d="M39.9831 18.169C40.0116 17.933 40.0277 17.6929 40.0277 17.4484C40.0277 14.4393 37.8032 12 35.0591 12C34.6954 12 34.3414 12.0441 34 12.1256C36.2345 12.6584 37.9084 14.8385 37.9084 17.4484C37.9084 17.6929 37.8922 17.933 37.8638 18.169C39.0872 19.1614 39.8808 20.7547 39.8808 22.5516C39.8808 25.1674 38.1994 27.3517 35.9574 27.8782L37.0314 28C39.7755 28 42 25.5606 42 22.5516C42.0002 20.7547 41.2067 19.1615 39.9831 18.169Z" fill="#FFD15B"/>
<path d="M34.0814 18.5286C34.8376 18.3284 35.2884 17.553 35.0882 16.7968C34.888 16.0405 34.1126 15.5898 33.3564 15.79C32.6001 15.9902 32.1494 16.7655 32.3496 17.5218C32.5498 18.278 33.3251 18.7288 34.0814 18.5286Z" fill="#FFD15B"/>
<path d="M38.7382 49.7705L41 24.4759C41 23.1084 40.7088 22.1635 39.3381 22.1635C38.9954 22.1635 38.6689 22.0692 38.3719 22.1945C37.4811 22.5704 36.8561 23.4503 36.8561 24.4759C36.8561 23.1085 35.7448 22.8181 34.374 22.8181C33.0032 22.8181 31.892 23.1086 31.892 24.4759C31.892 23.1085 30.7808 22 29.41 22C28.0392 22 26.928 23.1086 26.928 24.4759C26.928 23.1085 25.8168 22.8181 24.446 22.8181C23.0752 22.8181 21.964 23.1086 21.964 24.4759C21.964 23.1085 20.8527 22 19.482 22C18.1113 22 17 23.1086 17 24.4759L19.2618 49.7706C19.3241 50.4665 19.9086 51 20.609 51H22.8657L24.4459 49.3639L26.9279 51H31.892L33.947 49.3639L35.9543 51H37.3909C38.0914 50.9999 38.6759 50.4665 38.7382 49.7705Z" fill="#EFEDEF"/>
<path d="M39.4061 22C39.0073 22 38.6296 22.0861 38.292 22.2397C39.1669 22.6376 39.7717 23.4893 39.7717 24.476L37.4079 49.7706C37.3429 50.4665 36.732 51 36 51H38.2283C38.9602 51 39.5711 50.4665 39.6362 49.7706L42 24.476C42 23.1086 40.8387 22 39.4061 22Z" fill="#E5E1E5"/>
<path d="M32 51H36.0917L37 24.4755V24.4759C37 23.1085 35.8807 22 34.5 22C33.1195 22 32.0003 23.1083 32.0001 24.4755V51H32Z" fill="#F07281"/>
<path d="M27 51V24.4759C27 23.1085 25.8807 22 24.5 22C23.1192 22 22 23.1086 22 24.4759L22.9082 51H27Z" fill="#F07281"/>
<path d="M35.1635 42.5954C38.4242 39.3347 38.4242 34.0481 35.1635 30.7874C31.9029 27.5268 26.6163 27.5268 23.3556 30.7874C20.095 34.0481 20.095 39.3347 23.3556 42.5954C26.6163 45.856 31.9029 45.856 35.1635 42.5954Z" fill="#9EC8FC"/>
<path d="M28.8147 40.5896L26.3416 41.9511C26.0494 42.1119 25.708 41.8522 25.7637 41.5115L26.236 38.6277C26.2582 38.4924 26.2153 38.3544 26.1215 38.2585L24.1207 36.2163C23.8843 35.975 24.0148 35.5547 24.3414 35.505L27.1065 35.0843C27.2362 35.0645 27.3483 34.9793 27.4063 34.8562L28.6429 32.2325C28.789 31.9225 29.211 31.9225 29.3571 32.2325L30.5937 34.8562C30.6517 34.9793 30.7638 35.0646 30.8935 35.0843L33.6586 35.505C33.9852 35.5547 34.1157 35.9751 33.8793 36.2163L31.8785 38.2586C31.7847 38.3545 31.7418 38.4925 31.764 38.6278L32.2363 41.5115C32.2921 41.8523 31.9506 42.112 31.6584 41.9512L29.1853 40.5897C29.0693 40.5257 28.9307 40.5257 28.8147 40.5896Z" fill="#FFE177"/>
<path d="M43.6026 20.9899C44.8071 20.9899 45 20.0083 45 18.6919C45 18.2575 44.8932 17.8507 44.7075 17.5C44.8932 17.1493 45 16.7425 45 16.3081C45 14.9917 44.8071 14.0101 43.6026 14.0101C43.3559 14.0101 43.1188 13.9693 42.8976 14.0518C42.3739 14.2473 41.9399 14.6545 41.6811 15.1801C41.5204 15.1389 41.3531 15.1163 41.1809 15.1163C39.9764 15.1163 39 16.1835 39 17.5C39 18.8165 39.9764 19.8837 41.1809 19.8837C41.3531 19.8837 41.5204 19.8611 41.6811 19.8199C41.9399 20.3455 42.3739 20.7527 42.8976 20.9482C43.1188 21.0307 43.3559 20.9899 43.6026 20.9899Z" fill="#FFE177"/>
<path d="M46 16.3333C46 15.0446 44.9848 14 43.7326 14C43.4761 14 43.2299 14.0448 43 14.1256C43.8921 14.4394 44.5338 15.309 44.5338 16.3333C44.5338 16.7585 44.4228 17.1567 44.2297 17.5C44.4228 17.8433 44.5338 18.2415 44.5338 18.6667C44.5338 19.6911 43.8921 20.5606 43 20.8744C43.23 20.9552 43.4761 21 43.7326 21C44.9848 21 46 19.9554 46 18.6666C46 18.2414 45.889 17.8433 45.6959 17.4999C45.889 17.1566 46 16.7585 46 16.3333Z" fill="#FFD15B"/>
</svg>
