<svg width="60" height="60" viewBox="0 0 60 60" fill="none" xmlns="http://www.w3.org/2000/svg">
<rect width="60" height="60" rx="30" fill="white"/>
<mask id="mask0" mask-type="alpha" maskUnits="userSpaceOnUse" x="3" y="3" width="54" height="54">
<rect x="3" y="3" width="54" height="54" rx="27" fill="white"/>
</mask>
<g mask="url(#mask0)">
<path d="M54.1384 47.0406V61.8185H28.377V47.0406C28.377 43.2928 31.0536 40.1686 34.5993 39.4783H47.9161C47.9172 39.4783 47.9172 39.4783 47.9183 39.4783C48.6866 39.6285 49.4141 39.8918 50.082 40.2523C52.4967 41.5538 54.1384 44.1063 54.1384 47.0406Z" fill="#AD653D"/>
<path d="M37.8755 39.4778H34.5988C31.0532 40.1681 28.3765 43.2923 28.3765 47.0401V61.818H31.6531V47.0401C31.6531 43.2924 34.3298 40.1681 37.8755 39.4778Z" fill="#965535"/>
<path d="M29.5163 30.15C28.1153 30.0879 27 28.9321 27 27.5162C27 26.0609 28.1796 24.8801 29.636 24.8801C29.7671 24.8801 29.8958 24.8891 30.0224 24.9084" fill="#E0B394"/>
<path d="M52.9976 30.15C54.3986 30.0879 55.515 28.9321 55.515 27.5162C55.515 26.0609 54.3343 24.8801 52.8778 24.8801C52.7468 24.8801 52.6167 24.8903 52.4915 24.9084" fill="#E0B394"/>
<path d="M37.4442 41.5444L32.806 38.1746C30.3551 36.3937 29.0292 33.4491 29.3205 30.4335L30.1249 22.1086C30.679 16.375 35.4971 12 41.2575 12C47.0178 12 51.8361 16.375 52.3901 22.1086L53.1945 30.4335C53.4859 33.449 52.16 36.3937 49.709 38.1746L45.0708 41.5444C42.797 43.1964 39.718 43.1964 37.4442 41.5444Z" fill="#F7CBA4"/>
<path d="M37.7524 29.5132C37.7524 29.5132 38.0931 31.8546 35.2119 32.7021C35.2119 32.7021 37.2471 30.863 36.3983 29.7645" fill="#E0B394"/>
<path d="M32.2067 32.0741C32.1287 33.3927 32.5581 34.6899 33.4078 35.7011L38.2554 41.6578C38.5085 41.9594 38.7955 42.2127 39.1062 42.4148C38.5231 42.2115 37.9628 41.92 37.4441 41.5437L32.8059 38.1744C30.3552 36.3936 29.0298 33.4492 29.3213 30.4335L30.1247 22.1084C30.6738 16.4307 35.4035 12.0852 41.0902 12.0027C37.5875 12.0874 33.6214 15.389 33.4146 18.9052L32.2067 32.0741Z" fill="#E0B394"/>
<path d="M36.9052 30.3606H35.5498C35.0818 30.3606 34.7024 29.9813 34.7024 29.5132C34.7024 29.0451 35.0817 28.6658 35.5498 28.6658H36.9052C37.3731 28.6658 37.7526 29.0451 37.7526 29.5132C37.7526 29.9813 37.3731 30.3606 36.9052 30.3606Z" fill="#808080"/>
<path d="M44.762 29.5132C44.762 29.5132 44.4213 31.8546 47.3025 32.7021C47.3025 32.7021 45.2673 30.863 46.1161 29.7645" fill="#E0B394"/>
<path d="M48.2248 26.8581C48.0369 26.8581 47.8488 26.7864 47.7055 26.643C46.9234 25.8612 45.6512 25.8612 44.8692 26.643C44.5824 26.9299 44.1173 26.9298 43.8305 26.643C43.5438 26.3562 43.5438 25.8912 43.8307 25.6044C45.1852 24.2497 47.3896 24.2497 48.7442 25.6044C49.0311 25.8912 49.0311 26.3562 48.7443 26.643C48.6007 26.7864 48.4127 26.8581 48.2248 26.8581Z" fill="#E6E6E6"/>
<path d="M38.1651 26.8581C37.9771 26.8581 37.7891 26.7864 37.6459 26.643C36.8638 25.861 35.5916 25.861 34.8096 26.643C34.5228 26.9298 34.0578 26.9298 33.771 26.643C33.4842 26.3562 33.4842 25.8912 33.771 25.6044C35.1257 24.2497 37.3299 24.2497 38.6846 25.6044C38.9714 25.8912 38.9714 26.3562 38.6846 26.643C38.541 26.7864 38.353 26.8581 38.1651 26.8581Z" fill="#E6E6E6"/>
<path d="M41.9362 43.7186H40.5803V61.8178H41.9362V43.7186Z" fill="#965535"/>
<path d="M46.9651 30.3606H45.6096C45.1416 30.3606 44.7622 29.9813 44.7622 29.5132C44.7622 29.0451 45.1415 28.6658 45.6096 28.6658H46.9651C47.4331 28.6658 47.8125 29.0451 47.8125 29.5132C47.8125 29.9813 47.4331 30.3606 46.9651 30.3606Z" fill="#808080"/>
<path d="M50.0868 40.2939C50.0868 40.2939 50.0857 40.7392 49.9569 41.4056C49.6609 42.9558 48.679 45.7037 45.4384 46.8099L44.8734 45.002L41.2577 49.2955L37.6422 45.0021L37.0772 46.81C33.8367 45.7039 32.8548 42.956 32.5576 41.4057C32.4289 40.7391 32.4277 40.294 32.4277 40.294C35.0671 41.4794 38.5936 41.8951 40.4827 39.4783C40.7877 39.0895 41.0488 38.6275 41.2579 38.0841C41.5234 38.7757 41.9618 39.2129 42.5064 39.4783C43.9876 40.2025 46.2496 39.6534 47.9185 39.4783C48.6869 39.6285 49.4144 39.8919 50.0822 40.2523C50.0845 40.2657 50.0856 40.2793 50.0868 40.2939Z" fill="#965535"/>
<path d="M52.0775 37.8137C51.526 38.2307 50.8425 38.634 50.0865 38.9741C47.0223 40.3502 42.7637 40.6892 41.2576 36.764C40.2169 39.4723 37.8667 40.1503 35.503 39.8588C34.4408 39.7277 33.3765 39.4 32.4274 38.974C31.6714 38.634 30.9881 38.2306 30.4365 37.8136C32.7821 37.8136 33.7245 35.3041 36.1267 33.7979C36.1278 33.7968 36.1289 33.7957 36.1289 33.7957C36.4519 33.5924 36.8023 33.4082 37.1865 33.25C38.6679 32.6398 39.7502 32.8692 40.4881 33.2963C40.8101 33.4827 41.0712 33.7416 41.2598 34.0444C41.4631 33.7213 41.7479 33.4456 42.1004 33.2546C42.8359 32.8545 43.8947 32.6603 45.3285 33.25C48.5601 34.581 49.4165 37.8137 52.0775 37.8137Z" fill="#E6E6E6"/>
<path d="M50.0868 38.9743C50.0868 38.9743 50.0857 39.4196 49.9569 40.086C49.6609 41.6362 48.679 44.3842 45.4384 45.4903L44.8734 43.6824L41.2577 47.976L37.6421 43.6824L37.3021 44.7705L37.0772 45.4903C33.8367 44.3842 32.8548 41.6363 32.5576 40.086C32.4289 39.4194 32.4277 38.9743 32.4277 38.9743C33.2718 39.3539 34.2061 39.6533 35.1495 39.8071C37.6296 40.214 40.1652 39.6082 41.2579 36.7644C42.7639 40.6895 47.0226 40.3506 50.0868 38.9743Z" fill="#E6E6E6"/>
<path d="M50.0868 38.9741C50.0868 38.9741 50.0857 39.4193 49.9569 40.0858C46.9039 41.4134 42.7427 41.6879 41.2579 37.8181C39.7721 41.688 35.6107 41.4135 32.5576 40.0858C32.4289 39.4191 32.4277 38.9741 32.4277 38.9741C35.492 40.3502 39.7506 40.6892 41.2579 36.7639C42.7639 40.6893 47.0226 40.3503 50.0868 38.9741Z" fill="#CCCCCC"/>
<path d="M52.3012 20.2798C52.2529 20.2798 52.2039 20.2756 52.1546 20.267L48.9134 19.702C48.4525 19.6216 48.1438 19.1827 48.2241 18.7215C48.3046 18.2605 48.7425 17.9518 49.2046 18.0323L52.4457 18.5973C52.9067 18.6776 53.2153 19.1166 53.135 19.5777C53.0631 19.9894 52.7053 20.2798 52.3012 20.2798Z" fill="#E6E6E6"/>
<path d="M53.0095 23.3819C52.9576 23.3819 52.905 23.3771 52.852 23.3672L49.8429 22.8022C49.3829 22.7158 49.08 22.273 49.1663 21.8129C49.2526 21.3529 49.6955 21.0499 50.1556 21.1363L53.1649 21.7013C53.6249 21.7876 53.9278 22.2305 53.8415 22.6906C53.7649 23.0979 53.4091 23.3819 53.0095 23.3819Z" fill="#E6E6E6"/>
<path d="M30.213 20.2798C29.8088 20.2798 29.4509 19.9896 29.3792 19.5777C29.2988 19.1167 29.6074 18.6778 30.0684 18.5973L33.3096 18.0323C33.7714 17.9517 34.2096 18.2605 34.29 18.7216C34.3704 19.1826 34.0618 19.6215 33.6008 19.702L30.3595 20.267C30.3103 20.2757 30.2613 20.2798 30.213 20.2798Z" fill="#E6E6E6"/>
<path d="M29.5048 23.3818C29.1049 23.3818 28.7494 23.0978 28.6729 22.6906C28.5865 22.2307 28.8894 21.7877 29.3495 21.7013L32.3587 21.1363C32.8187 21.0499 33.2616 21.3529 33.348 21.8129C33.4344 22.2728 33.1315 22.7157 32.6714 22.8022L29.6622 23.3672C29.6093 23.3772 29.5565 23.3818 29.5048 23.3818Z" fill="#E6E6E6"/>
<path d="M34.3642 61.8183H32.6694L33.517 47.1296L34.3642 61.8183Z" fill="#965535"/>
<path d="M49.8437 61.8183H48.1489L48.9964 47.1296L49.8437 61.8183Z" fill="#965535"/>
<path d="M41.2598 34.0447L42.7307 33.6528C43.1837 33.5321 43.4532 33.0669 43.3325 32.6138L42.3301 28.8517" fill="#E0B394"/>
<path d="M44.0273 51.0647C44.4954 51.0647 44.8747 50.6853 44.8747 50.2173C44.8747 49.7493 44.4954 49.3699 44.0273 49.3699C43.5593 49.3699 43.1799 49.7493 43.1799 50.2173C43.1799 50.6853 43.5593 51.0647 44.0273 51.0647Z" fill="#4D4D4D"/>
<path d="M44.0273 55.0469C44.4954 55.0469 44.8747 54.6675 44.8747 54.1995C44.8747 53.7314 44.4954 53.3521 44.0273 53.3521C43.5593 53.3521 43.1799 53.7314 43.1799 54.1995C43.1799 54.6675 43.5593 55.0469 44.0273 55.0469Z" fill="#4D4D4D"/>
<path d="M37.3021 44.7706L37.0772 45.4904C33.8367 44.3842 32.8548 41.6363 32.5576 40.0861C32.4289 39.4194 32.4277 38.9744 32.4277 38.9744C33.2718 39.3539 34.2061 39.6534 35.1495 39.8071C35.1914 39.9518 35.2128 40.1077 35.2128 40.2727C35.2127 42.8644 36.6342 44.2588 37.3021 44.7706Z" fill="#CCCCCC"/>
<path d="M33.6873 38.0689C33.9709 39.0157 34.868 39.5727 35.503 39.8587C34.4409 39.7276 33.3765 39.3999 32.4274 38.9739C31.6714 38.6339 30.9881 38.2305 30.4365 37.8135C32.7821 37.8135 33.7245 35.304 36.1267 33.7979C36.0453 33.8748 33.2388 36.5719 33.6873 38.0689Z" fill="#CCCCCC"/>
<path d="M23.6756 14.418C23.6756 14.5074 23.6734 14.5954 23.6688 14.6836C23.5309 17.5536 21.1605 19.837 18.2578 19.837C15.354 19.837 12.9835 17.5534 12.8457 14.6836C12.8411 14.5954 12.8389 14.5074 12.8389 14.418C12.8389 11.4261 15.2648 9.00024 18.2578 9.00024C21.2498 9.00001 23.6756 11.4261 23.6756 14.418Z" fill="#E6E6E6"/>
<path d="M14.986 14.4181C14.986 11.7933 16.8527 9.60478 19.3308 9.10673C18.9838 9.037 18.6249 9 18.2575 9C15.2652 9 12.8394 11.4258 12.8394 14.4181C12.8394 17.4105 15.2652 19.8363 18.2575 19.8363C18.6249 19.8363 18.9839 19.7993 19.3308 19.7295C16.8526 19.2315 14.986 17.043 14.986 14.4181Z" fill="#D3D3D3"/>
<path d="M31.1386 49.7926V59.9695H5.3772V49.7926C5.3772 46.448 7.50932 43.5997 10.4878 42.5353C10.8471 42.4076 11.2178 42.3048 11.5995 42.2303H24.9163C25.2983 42.3049 25.6688 42.4077 26.028 42.5353C29.0065 43.5997 31.1386 46.4481 31.1386 49.7926Z" fill="#FD5D65"/>
<path d="M14.8762 42.2312H11.5995C8.05393 42.9215 5.3772 46.0457 5.3772 49.7936V59.9705H8.65387V49.7936C8.65387 46.0457 11.3306 42.9216 14.8762 42.2312Z" fill="#E54E5C"/>
<path d="M26.0286 42.5352L22.0718 45.4096C19.7974 47.0616 16.7183 47.0616 14.4451 45.4096L10.488 42.5352C10.8473 42.4075 11.218 42.3047 11.5997 42.2302H24.9167C25.2987 42.3047 25.6693 42.4075 26.0286 42.5352Z" fill="#E54E5C"/>
<path d="M6.51629 32.568C5.11516 32.5058 4 31.3498 4 29.9341C4 28.4788 5.17959 27.2981 6.63605 27.2981C6.7671 27.2981 6.89585 27.3071 7.02241 27.3263" fill="#E0B394"/>
<path d="M29.9978 32.568C31.3988 32.5059 32.5153 31.35 32.5153 29.9341C32.5153 28.4788 31.3345 27.2981 29.8781 27.2981C29.747 27.2981 29.617 27.3082 29.4917 27.3263" fill="#E0B394"/>
<path d="M23.1752 39.8472V46.1238C23.1752 48.84 20.973 51.041 18.258 51.041C15.5418 51.041 13.3408 48.84 13.3408 46.1238V39.8472H23.1752Z" fill="#F7CBA4"/>
<path d="M23.1752 39.8472V44.6074L22.0712 45.4096C19.7969 47.0627 16.7178 47.0627 14.4446 45.4096L13.3406 44.6074V39.8472H23.1752Z" fill="#E0B394"/>
<path d="M14.4442 43.9624L9.806 40.5926C7.35507 38.8118 6.02921 35.8672 6.32047 32.8516L7.12489 24.5267C7.67896 18.7931 12.4971 14.4181 18.2575 14.4181C24.0178 14.4181 28.8361 18.7931 29.3901 24.5267L30.1945 32.8516C30.4859 35.8671 29.16 38.8118 26.709 40.5926L22.0708 43.9624C19.797 45.6146 16.718 45.6146 14.4442 43.9624Z" fill="#F7CBA4"/>
<path d="M9.20686 34.4923C9.12883 35.8109 9.55818 37.1081 10.4079 38.1193L15.2555 44.076C15.5086 44.3777 15.7956 44.6309 16.1062 44.8331C15.5231 44.6297 14.9628 44.3382 14.4441 43.9619L9.80588 40.5926C7.35518 38.8118 6.02978 35.8674 6.32128 32.8517L7.12465 24.5266C7.67376 18.8489 12.4035 14.5034 18.0902 14.4209C14.5876 14.5057 10.6215 17.8073 10.4147 21.3235L9.20686 34.4923Z" fill="#E0B394"/>
<path d="M23.6688 14.6832C23.531 17.5532 21.1605 19.8366 18.2578 19.8366C15.354 19.8366 12.9836 17.553 12.8457 14.6832C14.3812 13.8335 16.1325 13.3353 17.9889 13.2912C18.0228 13.29 18.0567 13.29 18.0906 13.29C18.1459 13.2878 18.2014 13.2878 18.2578 13.2878C20.2137 13.288 22.0609 13.7918 23.6688 14.6832Z" fill="#D3D3D3"/>
<path d="M29.5252 25.9158C24.1818 25.9158 21.1968 20.2303 21.1968 20.2303C21.1968 20.2303 18.7019 24.8459 10.1012 24.7362C9.18024 24.725 8.19164 24.6582 7.12615 24.5272H7.125C7.67077 18.8822 12.3486 14.5547 17.9889 14.4214C18.0228 14.4203 18.0567 14.4203 18.0906 14.4203C18.1459 14.4181 18.2014 14.4181 18.2578 14.4181C21.138 14.4181 23.783 15.5119 25.7762 17.3219C27.7704 19.1331 29.1139 21.6596 29.3907 24.5272L29.5252 25.9158Z" fill="#E6E6E6"/>
<path d="M18.0908 14.4202C14.5881 14.5049 10.6211 17.8065 10.4144 21.3226L10.1014 24.736C9.18048 24.7247 8.19188 24.658 7.1264 24.5269H7.12524C7.67101 18.882 12.3488 14.5544 17.9892 14.4212C18.0229 14.4202 18.0569 14.4202 18.0908 14.4202Z" fill="#D3D3D3"/>
<path d="M23.1486 35.3206C24.8959 35.3206 26.3123 33.9042 26.3123 32.1569C26.3123 30.4096 24.8959 28.9932 23.1486 28.9932C21.4013 28.9932 19.9849 30.4096 19.9849 32.1569C19.9849 33.9042 21.4013 35.3206 23.1486 35.3206Z" fill="#D7E9F4"/>
<path d="M13.3671 35.3206C15.1144 35.3206 16.5308 33.9042 16.5308 32.1569C16.5308 30.4096 15.1144 28.9932 13.3671 28.9932C11.6198 28.9932 10.2034 30.4096 10.2034 32.1569C10.2034 33.9042 11.6198 35.3206 13.3671 35.3206Z" fill="#D7E9F4"/>
<path d="M23.8256 32.2703H22.4702C22.0958 32.2703 21.7922 31.9667 21.7922 31.5923C21.7922 31.2179 22.0958 30.9143 22.4702 30.9143H23.8256C24.1999 30.9143 24.5035 31.2179 24.5035 31.5923C24.5035 31.9668 24.1998 32.2703 23.8256 32.2703Z" fill="#B6CDD8"/>
<path d="M14.0451 32.2703H12.6897C12.3153 32.2703 12.0117 31.9667 12.0117 31.5923C12.0117 31.2179 12.3153 30.9143 12.6897 30.9143H14.0451C14.4194 30.9143 14.723 31.2179 14.723 31.5923C14.723 31.9668 14.4194 32.2703 14.0451 32.2703Z" fill="#B6CDD8"/>
<path d="M17.3618 36.7921L18.8328 36.4003C19.2858 36.2796 19.5553 35.8145 19.4346 35.3613L18.4321 31.5991" fill="#E0B394"/>
<path d="M30.2613 28.749C30.0574 28.5128 29.7008 28.4866 29.4646 28.6903L26.7128 31.0648C26.2447 29.5402 24.8237 28.4286 23.1477 28.4286C21.2838 28.4286 19.7349 29.8034 19.4618 31.5923H17.053C16.78 29.8034 15.231 28.4286 13.3671 28.4286C11.6912 28.4286 10.2703 29.5402 9.80206 31.0648L7.05017 28.6903C6.814 28.4865 6.45715 28.5127 6.25348 28.749C6.04958 28.9853 6.07586 29.342 6.31215 29.5458L9.64922 32.4251C9.78707 34.3563 11.4013 35.8858 13.3672 35.8858C15.2311 35.8858 16.78 34.511 17.0531 32.7221H19.462C19.7349 34.511 21.2839 35.8858 23.1478 35.8858C25.1136 35.8858 26.7279 34.3563 26.8658 32.4251L30.2029 29.5458C30.4388 29.342 30.4652 28.9853 30.2613 28.749ZM13.367 34.7559C11.9341 34.7559 10.7683 33.5901 10.7683 32.1572C10.7683 30.7243 11.9341 29.5585 13.367 29.5585C14.7999 29.5585 15.9657 30.7243 15.9657 32.1572C15.9657 33.5901 14.7999 34.7559 13.367 34.7559ZM23.1476 34.7559C21.7146 34.7559 20.5489 33.5901 20.5489 32.1572C20.5489 30.7243 21.7146 29.5585 23.1476 29.5585C24.5805 29.5585 25.7463 30.7243 25.7463 32.1572C25.7463 33.5901 24.5805 34.7559 23.1476 34.7559Z" fill="#ED7C58"/>
<path d="M11.3644 59.9692H9.66943L10.517 49.2036L11.3644 59.9692Z" fill="#E54E5C"/>
<path d="M26.8437 59.9692H25.1489L25.9964 49.2036L26.8437 59.9692Z" fill="#E54E5C"/>
<path d="M15.1785 38.2512C15.8319 38.3999 16.3462 38.5174 16.8453 38.5806C17.3391 38.6471 17.797 38.6794 18.2574 38.6793C18.7176 38.6776 19.1752 38.6453 19.6685 38.5784C20.1672 38.5149 20.6814 38.3984 21.3363 38.2513C21.1835 38.909 20.7336 39.4397 20.1787 39.8115C19.6191 40.1813 18.9373 40.375 18.2575 40.374C17.5776 40.3731 16.8963 40.1796 16.3372 39.8092C15.7827 39.4372 15.3329 38.9073 15.1785 38.2512Z" fill="#4D4D4D"/>
</g>
</svg>
