<svg width="60" height="60" viewBox="0 0 60 60" fill="none" xmlns="http://www.w3.org/2000/svg">
<rect width="60" height="60" rx="30" fill="white"/>
<path d="M43.1384 39.0406V53.8185H17.377V39.0406C17.377 35.2928 20.0536 32.1686 23.5993 31.4783H36.9161C36.9172 31.4783 36.9172 31.4783 36.9183 31.4783C37.6866 31.6285 38.4141 31.8918 39.082 32.2523C41.4967 33.5538 43.1384 36.1063 43.1384 39.0406Z" fill="#AD653D"/>
<path d="M26.8755 31.4778H23.5988C20.0532 32.1681 17.3765 35.2923 17.3765 39.0401V53.818H20.6531V39.0401C20.6531 35.2924 23.3298 32.1681 26.8755 31.4778Z" fill="#965535"/>
<path d="M18.5163 22.15C17.1153 22.0879 16 20.9321 16 19.5162C16 18.0609 17.1796 16.8801 18.636 16.8801C18.7671 16.8801 18.8958 16.8891 19.0224 16.9084" fill="#E0B394"/>
<path d="M41.9976 22.15C43.3986 22.0879 44.515 20.9321 44.515 19.5162C44.515 18.0609 43.3343 16.8801 41.8778 16.8801C41.7468 16.8801 41.6167 16.8903 41.4915 16.9084" fill="#E0B394"/>
<path d="M26.4442 33.5444L21.806 30.1746C19.3551 28.3937 18.0292 25.4491 18.3205 22.4335L19.1249 14.1086C19.679 8.37501 24.4971 4 30.2575 4C36.0178 4 40.8361 8.37501 41.3901 14.1086L42.1945 22.4335C42.4859 25.449 41.16 28.3937 38.709 30.1746L34.0708 33.5444C31.797 35.1964 28.718 35.1964 26.4442 33.5444Z" fill="#F7CBA4"/>
<path d="M26.7524 21.5132C26.7524 21.5132 27.0931 23.8546 24.2119 24.7021C24.2119 24.7021 26.2471 22.863 25.3983 21.7645" fill="#E0B394"/>
<path d="M21.2067 24.0741C21.1287 25.3927 21.5581 26.6899 22.4078 27.7011L27.2554 33.6578C27.5085 33.9594 27.7955 34.2127 28.1062 34.4148C27.5231 34.2115 26.9628 33.92 26.4441 33.5437L21.8059 30.1744C19.3552 28.3936 18.0298 25.4492 18.3213 22.4335L19.1247 14.1084C19.6738 8.43071 24.4035 4.08521 30.0902 4.00269C26.5875 4.0874 22.6214 7.38897 22.4146 10.9052L21.2067 24.0741Z" fill="#E0B394"/>
<path d="M25.9052 22.3606H24.5498C24.0818 22.3606 23.7024 21.9813 23.7024 21.5132C23.7024 21.0451 24.0817 20.6658 24.5498 20.6658H25.9052C26.3731 20.6658 26.7526 21.0451 26.7526 21.5132C26.7526 21.9813 26.3731 22.3606 25.9052 22.3606Z" fill="#808080"/>
<path d="M33.762 21.5132C33.762 21.5132 33.4213 23.8546 36.3025 24.7021C36.3025 24.7021 34.2673 22.863 35.1161 21.7645" fill="#E0B394"/>
<path d="M37.2248 18.8581C37.0369 18.8581 36.8488 18.7864 36.7055 18.643C35.9234 17.8612 34.6512 17.8612 33.8692 18.643C33.5824 18.9299 33.1173 18.9298 32.8305 18.643C32.5438 18.3562 32.5438 17.8912 32.8307 17.6044C34.1852 16.2497 36.3896 16.2497 37.7442 17.6044C38.0311 17.8912 38.0311 18.3562 37.7443 18.643C37.6007 18.7864 37.4127 18.8581 37.2248 18.8581Z" fill="#E6E6E6"/>
<path d="M27.1651 18.8581C26.9771 18.8581 26.7891 18.7864 26.6459 18.643C25.8638 17.861 24.5916 17.861 23.8096 18.643C23.5228 18.9298 23.0578 18.9298 22.771 18.643C22.4842 18.3562 22.4842 17.8912 22.771 17.6044C24.1257 16.2497 26.3299 16.2497 27.6846 17.6044C27.9714 17.8912 27.9714 18.3562 27.6846 18.643C27.541 18.7864 27.353 18.8581 27.1651 18.8581Z" fill="#E6E6E6"/>
<path d="M30.9362 35.7186H29.5803V53.8178H30.9362V35.7186Z" fill="#965535"/>
<path d="M35.9651 22.3606H34.6096C34.1416 22.3606 33.7622 21.9813 33.7622 21.5132C33.7622 21.0451 34.1415 20.6658 34.6096 20.6658H35.9651C36.4331 20.6658 36.8125 21.0451 36.8125 21.5132C36.8125 21.9813 36.4331 22.3606 35.9651 22.3606Z" fill="#808080"/>
<path d="M39.0868 32.2939C39.0868 32.2939 39.0857 32.7392 38.9569 33.4056C38.6609 34.9558 37.679 37.7037 34.4384 38.8099L33.8734 37.002L30.2577 41.2955L26.6422 37.0021L26.0772 38.81C22.8367 37.7039 21.8548 34.956 21.5576 33.4057C21.4289 32.7391 21.4277 32.294 21.4277 32.294C24.0671 33.4794 27.5936 33.8951 29.4827 31.4783C29.7877 31.0895 30.0488 30.6275 30.2579 30.0841C30.5234 30.7757 30.9618 31.2129 31.5064 31.4783C32.9876 32.2025 35.2496 31.6534 36.9185 31.4783C37.6869 31.6285 38.4144 31.8919 39.0822 32.2523C39.0845 32.2657 39.0856 32.2793 39.0868 32.2939Z" fill="#965535"/>
<path d="M41.0775 29.8137C40.526 30.2307 39.8425 30.634 39.0865 30.9741C36.0223 32.3502 31.7637 32.6892 30.2576 28.764C29.2169 31.4723 26.8667 32.1503 24.503 31.8588C23.4408 31.7277 22.3765 31.4 21.4274 30.974C20.6714 30.634 19.9881 30.2306 19.4365 29.8136C21.7821 29.8136 22.7245 27.3041 25.1267 25.7979C25.1278 25.7968 25.1289 25.7957 25.1289 25.7957C25.4519 25.5924 25.8023 25.4082 26.1865 25.25C27.6679 24.6398 28.7502 24.8692 29.4881 25.2963C29.8101 25.4827 30.0712 25.7416 30.2598 26.0444C30.4631 25.7213 30.7479 25.4456 31.1004 25.2546C31.8359 24.8545 32.8947 24.6603 34.3285 25.25C37.5601 26.581 38.4165 29.8137 41.0775 29.8137Z" fill="#E6E6E6"/>
<path d="M39.0868 30.9743C39.0868 30.9743 39.0857 31.4196 38.9569 32.086C38.6609 33.6362 37.679 36.3842 34.4384 37.4903L33.8734 35.6824L30.2577 39.976L26.6421 35.6824L26.3021 36.7705L26.0772 37.4903C22.8367 36.3842 21.8548 33.6363 21.5576 32.086C21.4289 31.4194 21.4277 30.9743 21.4277 30.9743C22.2718 31.3539 23.2061 31.6533 24.1495 31.8071C26.6296 32.214 29.1652 31.6082 30.2579 28.7644C31.7639 32.6895 36.0226 32.3506 39.0868 30.9743Z" fill="#E6E6E6"/>
<path d="M39.0868 30.9741C39.0868 30.9741 39.0857 31.4193 38.9569 32.0858C35.9039 33.4134 31.7427 33.6879 30.2579 29.8181C28.7721 33.688 24.6107 33.4135 21.5576 32.0858C21.4289 31.4191 21.4277 30.9741 21.4277 30.9741C24.492 32.3502 28.7506 32.6892 30.2579 28.7639C31.7639 32.6893 36.0226 32.3503 39.0868 30.9741Z" fill="#CCCCCC"/>
<path d="M41.3012 12.2798C41.2529 12.2798 41.2039 12.2756 41.1546 12.267L37.9134 11.702C37.4525 11.6216 37.1438 11.1827 37.2241 10.7215C37.3046 10.2605 37.7425 9.95183 38.2046 10.0323L41.4457 10.5973C41.9067 10.6776 42.2153 11.1166 42.135 11.5777C42.0631 11.9894 41.7053 12.2798 41.3012 12.2798Z" fill="#E6E6E6"/>
<path d="M42.0095 15.3819C41.9576 15.3819 41.905 15.3771 41.852 15.3672L38.8429 14.8022C38.3829 14.7158 38.08 14.273 38.1663 13.8129C38.2526 13.3529 38.6955 13.0499 39.1556 13.1363L42.1649 13.7013C42.6249 13.7876 42.9278 14.2305 42.8415 14.6906C42.7649 15.0979 42.4091 15.3819 42.0095 15.3819Z" fill="#E6E6E6"/>
<path d="M19.213 12.2798C18.8088 12.2798 18.4509 11.9896 18.3792 11.5777C18.2988 11.1167 18.6074 10.6778 19.0684 10.5973L22.3096 10.0323C22.7714 9.95174 23.2096 10.2605 23.29 10.7216C23.3704 11.1826 23.0618 11.6215 22.6008 11.702L19.3595 12.267C19.3103 12.2757 19.2613 12.2798 19.213 12.2798Z" fill="#E6E6E6"/>
<path d="M18.5048 15.3818C18.1049 15.3818 17.7494 15.0978 17.6729 14.6906C17.5865 14.2307 17.8894 13.7877 18.3495 13.7013L21.3587 13.1363C21.8187 13.0499 22.2616 13.3529 22.348 13.8129C22.4344 14.2728 22.1315 14.7157 21.6714 14.8022L18.6622 15.3672C18.6093 15.3772 18.5565 15.3818 18.5048 15.3818Z" fill="#E6E6E6"/>
<path d="M23.3642 53.8183H21.6694L22.517 39.1296L23.3642 53.8183Z" fill="#965535"/>
<path d="M38.8437 53.8183H37.1489L37.9964 39.1296L38.8437 53.8183Z" fill="#965535"/>
<path d="M30.2598 26.0447L31.7307 25.6528C32.1837 25.5321 32.4532 25.0669 32.3325 24.6138L31.3301 20.8517" fill="#E0B394"/>
<path d="M33.0273 43.0647C33.4954 43.0647 33.8747 42.6853 33.8747 42.2173C33.8747 41.7493 33.4954 41.3699 33.0273 41.3699C32.5593 41.3699 32.1799 41.7493 32.1799 42.2173C32.1799 42.6853 32.5593 43.0647 33.0273 43.0647Z" fill="#4D4D4D"/>
<path d="M33.0273 47.0469C33.4954 47.0469 33.8747 46.6675 33.8747 46.1995C33.8747 45.7314 33.4954 45.3521 33.0273 45.3521C32.5593 45.3521 32.1799 45.7314 32.1799 46.1995C32.1799 46.6675 32.5593 47.0469 33.0273 47.0469Z" fill="#4D4D4D"/>
<path d="M33.0273 51.0464C33.4954 51.0464 33.8747 50.667 33.8747 50.199C33.8747 49.731 33.4954 49.3516 33.0273 49.3516C32.5593 49.3516 32.1799 49.731 32.1799 50.199C32.1799 50.667 32.5593 51.0464 33.0273 51.0464Z" fill="#4D4D4D"/>
<path d="M26.3021 36.7706L26.0772 37.4904C22.8367 36.3842 21.8548 33.6363 21.5576 32.0861C21.4289 31.4194 21.4277 30.9744 21.4277 30.9744C22.2718 31.3539 23.2061 31.6534 24.1495 31.8071C24.1914 31.9518 24.2128 32.1077 24.2128 32.2727C24.2127 34.8644 25.6342 36.2588 26.3021 36.7706Z" fill="#CCCCCC"/>
<path d="M22.6873 30.0689C22.9709 31.0157 23.868 31.5727 24.503 31.8587C23.4409 31.7276 22.3765 31.3999 21.4274 30.9739C20.6714 30.6339 19.9881 30.2305 19.4365 29.8135C21.7821 29.8135 22.7245 27.304 25.1267 25.7979C25.0453 25.8748 22.2388 28.5719 22.6873 30.0689Z" fill="#CCCCCC"/>
</svg>
