<svg width="60" height="60" viewBox="0 0 60 60" fill="none" xmlns="http://www.w3.org/2000/svg">
<rect width="60" height="60" rx="30" fill="white"/>
<path d="M49.335 46.5727H10.4407V12.7203C10.4407 12.3225 10.7632 12 11.161 12H48.6147C49.0125 12 49.335 12.3225 49.335 12.7203V46.5727Z" fill="#B9785F"/>
<path d="M49.3348 23.4622C49.1872 23.4989 49.0353 23.5242 48.8764 23.5242C47.8277 23.5242 46.9775 22.674 46.9775 21.6253C46.9775 22.6739 46.1273 23.5242 45.0786 23.5242C44.0299 23.5242 43.1797 22.674 43.1797 21.6253C43.1797 22.6739 42.3296 23.5242 41.2808 23.5242C40.2321 23.5242 39.3819 22.674 39.3819 21.6253C39.3819 22.6739 38.5317 23.5242 37.483 23.5242C36.4343 23.5242 35.5841 22.674 35.5841 21.6253C35.5841 22.6739 34.7339 23.5242 33.6852 23.5242C32.6365 23.5242 31.7863 22.674 31.7863 21.6253C31.7863 22.6739 30.9362 23.5242 29.8874 23.5242C28.8386 23.5242 27.9885 22.674 27.9885 21.6253C27.9885 22.6739 27.1383 23.5242 26.0896 23.5242C25.0408 23.5242 24.1907 22.674 24.1907 21.6253C24.1907 22.6739 23.3405 23.5242 22.2917 23.5242C21.243 23.5242 20.3928 22.674 20.3928 21.6253C20.3928 22.6739 19.5427 23.5242 18.4939 23.5242C17.4452 23.5242 16.595 22.674 16.595 21.6253C16.595 22.6739 15.7448 23.5242 14.6961 23.5242C13.6474 23.5242 12.7972 22.674 12.7972 21.6253C12.7972 22.6739 11.9471 23.5242 10.8983 23.5242C10.7394 23.5242 10.5875 23.4989 10.4399 23.4622V24.9185C10.5912 24.9394 10.7413 24.9648 10.8983 24.9648C11.6032 24.9648 12.2577 24.7453 12.7972 24.3711C13.3369 24.7452 13.9913 24.9647 14.6963 24.9647C15.4012 24.9647 16.0557 24.7452 16.5952 24.371C17.1347 24.7452 17.7892 24.9647 18.4941 24.9647C19.199 24.9647 19.8535 24.7452 20.393 24.371C20.9325 24.7452 21.587 24.9647 22.2919 24.9647C22.9968 24.9647 23.6513 24.7452 24.1908 24.371C24.7303 24.7452 25.3848 24.9647 26.0897 24.9647C26.7946 24.9647 27.4491 24.7452 27.9886 24.371C28.528 24.7452 29.1826 24.9647 29.8874 24.9647C30.5923 24.9647 31.2469 24.7452 31.7864 24.371C32.3258 24.7452 32.9804 24.9647 33.6853 24.9647C34.3901 24.9647 35.0447 24.7452 35.5842 24.371C36.1236 24.7452 36.7782 24.9647 37.4831 24.9647C38.1879 24.9647 38.8425 24.7452 39.382 24.371C39.9215 24.7452 40.576 24.9647 41.2809 24.9647C41.9857 24.9647 42.6403 24.7452 43.1798 24.371C43.7193 24.7452 44.3738 24.9647 45.0787 24.9647C45.7836 24.9647 46.4381 24.7452 46.9776 24.371C47.5171 24.7452 48.1716 24.9647 48.8765 24.9647C49.0334 24.9647 49.1836 24.9394 49.3349 24.9184V23.4622H49.3348Z" fill="#AA6455"/>
<path d="M34.2094 26.4053H14.042V39.3701H34.2094V26.4053Z" fill="#B4E1FA"/>
<path d="M30.608 38.6498H29.1674L20.5242 27.1255H21.9648L30.608 38.6498Z" fill="#DAF0FD"/>
<path d="M26.0898 23.5242C25.0411 23.5242 24.1909 22.674 24.1909 21.6253V19.9229H27.9887V21.6253C27.9887 22.674 27.1385 23.5242 26.0898 23.5242Z" fill="#D2555A"/>
<path d="M33.6855 23.5242C32.6368 23.5242 31.7866 22.674 31.7866 21.6253V19.9229H35.5844V21.6253C35.5843 22.674 34.7342 23.5242 33.6855 23.5242Z" fill="#D2555A"/>
<path d="M18.4944 23.5242C17.4457 23.5242 16.5955 22.674 16.5955 21.6253V19.9229H20.3933V21.6253C20.3932 22.674 19.5431 23.5242 18.4944 23.5242Z" fill="#D2555A"/>
<path d="M10.8989 23.5243C9.85019 23.5243 9 22.6741 9 21.6254V19.923H12.7978V21.6254C12.7978 22.6741 11.9476 23.5243 10.8989 23.5243Z" fill="#D2555A"/>
<path d="M41.281 23.5242C40.2323 23.5242 39.3821 22.674 39.3821 21.6253V19.9229H43.1799V21.6253C43.1799 22.674 42.3298 23.5242 41.281 23.5242Z" fill="#D2555A"/>
<path d="M22.2922 23.5243C21.2435 23.5243 20.3933 22.6741 20.3933 21.6254V19.923H24.1911V21.6254C24.1911 22.6741 23.341 23.5243 22.2922 23.5243Z" fill="#C7CFE2"/>
<path d="M37.4831 23.5242C36.4344 23.5242 35.5842 22.674 35.5842 21.6253V19.9229H39.382V21.6253C39.382 22.674 38.5318 23.5242 37.4831 23.5242Z" fill="#C7CFE2"/>
<path d="M48.8764 23.5243C47.8277 23.5243 46.9775 22.6741 46.9775 21.6254V19.923H50.7753V21.6254C50.7753 22.6741 49.9251 23.5243 48.8764 23.5243Z" fill="#D2555A"/>
<path d="M45.0788 23.5242C44.0301 23.5242 43.1799 22.674 43.1799 21.6253V19.9229H46.9777V21.6253C46.9777 22.674 46.1275 23.5242 45.0788 23.5242Z" fill="#C7CFE2"/>
<path d="M14.6968 23.5243C13.648 23.5243 12.7979 22.6741 12.7979 21.6254V19.923H16.5957V21.6254C16.5957 22.6741 15.7455 23.5243 14.6968 23.5243Z" fill="#C7CFE2"/>
<path d="M29.8877 23.5242C28.839 23.5242 27.9888 22.674 27.9888 21.6253V19.9229H31.7866V21.6253C31.7866 22.674 30.9364 23.5242 29.8877 23.5242Z" fill="#C7CFE2"/>
<path d="M27.9886 19.9229H24.1909L24.5838 14.1608H28.1197L27.9886 19.9229Z" fill="#FF6464"/>
<path d="M35.5843 19.9229H31.7866L31.6555 14.1608H35.1914L35.5843 19.9229Z" fill="#FF6464"/>
<path d="M20.3932 19.9229H16.5955L17.5122 14.1608H21.048L20.3932 19.9229Z" fill="#FF6464"/>
<path d="M12.7978 19.923H9L10.4405 14.1608H13.9764L12.7978 19.923Z" fill="#FF6464"/>
<path d="M43.1798 19.9229H39.382L38.7273 14.1608H42.263L43.1798 19.9229Z" fill="#FF6464"/>
<path d="M24.1911 19.923H20.3933L21.0481 14.1608H24.584L24.1911 19.923Z" fill="#EFF2FA"/>
<path d="M39.382 19.9229H35.5843L35.1914 14.1608H38.7273L39.382 19.9229Z" fill="#EFF2FA"/>
<path d="M50.7752 19.923H46.9774L45.7988 14.1608H49.3347L50.7752 19.923Z" fill="#FF6464"/>
<path d="M46.9777 19.9229H43.18L42.2632 14.1608H45.7991L46.9777 19.9229Z" fill="#EFF2FA"/>
<path d="M16.5956 19.923H12.7979L13.9765 14.1608H17.5123L16.5956 19.923Z" fill="#EFF2FA"/>
<path d="M31.7866 19.9229H27.9888L28.1198 14.1608H31.6555L31.7866 19.9229Z" fill="#EFF2FA"/>
<path d="M50.0551 47.293H9.7203C9.32254 47.293 9 46.9705 9 46.5727C9 46.175 9.32254 45.8524 9.7203 45.8524H50.0552C50.4529 45.8524 50.7755 46.175 50.7755 46.5727C50.7754 46.9705 50.4529 47.293 50.0551 47.293Z" fill="#C7CFE2"/>
<g opacity="0.97">
<path opacity="0.97" d="M49.335 44.412H10.4407V45.8525H49.335V44.412Z" fill="#AFB9D2"/>
</g>
<path d="M49.335 41.5309H10.4407V44.4119H49.335V41.5309Z" fill="#AA6455"/>
<path d="M33.489 27.1256V38.6498H14.7621V27.1256H33.489ZM34.2093 25.6851H14.0418C13.6441 25.6851 13.3215 26.0076 13.3215 26.4054V39.3702C13.3215 39.7679 13.6441 40.0905 14.0418 40.0905H34.2092C34.607 40.0905 34.9295 39.7679 34.9295 39.3702V26.4054C34.9295 26.0076 34.6071 25.6851 34.2093 25.6851Z" fill="#5B5D6E"/>
<path d="M45.7335 25.685H38.5308C38.1331 25.685 37.8105 26.0075 37.8105 26.4053V44.412H46.4537V26.4053C46.4537 26.0075 46.1313 25.685 45.7335 25.685Z" fill="#5B5D6E"/>
<path d="M45.0134 27.1255H39.2512V38.6497H45.0134V27.1255Z" fill="#B4E1FA"/>
<path d="M33.4891 27.1255H14.7622V28.566H33.4891V27.1255Z" fill="#A0D2F0"/>
<path d="M45.0134 27.1255H39.2512V28.566H45.0134V27.1255Z" fill="#A0D2F0"/>
<path d="M27.7269 38.6498H24.8458L16.2026 27.1255H19.0837L27.7269 38.6498Z" fill="#A0D2F0"/>
<path d="M23.0451 28.5661L21.9648 27.1255H20.5242L21.6046 28.5661H23.0451Z" fill="#B4E1FA"/>
<path d="M45.0133 32.8876L40.6917 27.1255H39.2512L45.0133 34.8084V32.8876Z" fill="#DAF0FD"/>
<path d="M41.7721 28.5661L40.6917 27.1255H39.2512L40.3316 28.5661H41.7721Z" fill="#B4E1FA"/>
<path d="M45.0134 27.1255H39.2512V28.566H45.0134V27.1255Z" fill="#A0D2F0"/>
<path d="M45.0133 32.8876L40.6917 27.1255H39.2512L45.0133 34.8084V32.8876Z" fill="#DAF0FD"/>
<path d="M39.2512 29.0463V32.8877L43.5728 38.6499H45.0133V36.7291L39.2512 29.0463Z" fill="#A0D2F0"/>
</svg>
