<svg width="60" height="60" viewBox="0 0 60 60" fill="none" xmlns="http://www.w3.org/2000/svg">
<rect width="60" height="60" rx="30" fill="white"/>
<path d="M36.1396 34.5504V48.4964C36.1396 49.4489 36.9116 50.2211 37.8641 50.2212H37.8643C38.8167 50.2212 39.5888 49.4491 39.5889 48.4967L39.59 34.5504L37.7851 34.0521L36.1396 34.5504Z" fill="#5F6E9B"/>
<path d="M45.2733 50.2237C44.485 50.2237 43.7734 49.6797 43.5925 48.8784L40.3477 34.5504C40.1381 33.6212 40.8549 33.2437 41.784 33.0339C42.7133 32.8242 43.6364 33.4073 43.8461 34.3365L46.9573 48.1189C47.167 49.048 46.5838 49.9712 45.6548 50.181C45.5268 50.2098 45.399 50.2237 45.2733 50.2237Z" fill="#414B82"/>
<path d="M30.217 20.7885C29.9118 20.0542 29.0691 19.7062 28.3345 20.0116L23.1901 22.1505L22.7326 22.1267L22.2856 23.7418L22.7326 25.0106L23.3669 25.0435C23.5786 25.0546 23.7937 25.0185 23.9944 24.9351L29.4402 22.6709C30.1745 22.3657 30.5223 21.5228 30.217 20.7885Z" fill="#FFB69E"/>
<path d="M22.7329 22.1267L18.1108 21.8867V24.7707L22.7329 25.0107V22.1267Z" fill="#FF4A5B"/>
<path d="M34.0562 25.4158C33.871 25.4158 33.6867 25.3809 33.513 25.312L28.3443 23.2637C27.5874 22.9637 27.2169 22.1069 27.5169 21.3499C27.817 20.5928 28.6735 20.2222 29.4308 20.5224L34.2016 22.4132L38.9308 21.5159C39.7304 21.364 40.5024 21.8896 40.6541 22.6895C40.8059 23.4895 40.2804 24.2611 39.4804 24.4128L34.3309 25.3899C34.2401 25.4072 34.1481 25.4158 34.0562 25.4158Z" fill="#FFA78A"/>
<path d="M13.7282 50.1771C13.5261 50.1771 13.3207 50.1414 13.1204 50.0661C12.2271 49.7302 11.7751 48.7338 12.111 47.8405L14.5228 41.4252V34.7653C14.5228 33.8109 15.2965 33.0372 16.2508 33.0372C17.2052 33.0372 17.9789 33.8109 17.9789 34.7653V41.7393C17.9789 41.947 17.9414 42.153 17.8683 42.3474L15.346 49.0567C15.0854 49.7497 14.4273 50.1771 13.7282 50.1771Z" fill="#FFB69E"/>
<path d="M21.479 50.1768C20.5584 50.1768 19.7933 49.4508 19.7538 48.5223L19.4541 41.4887L17.7902 35.208C17.5458 34.2854 18.0956 33.3394 19.0181 33.095C19.9407 32.8507 20.8867 33.4004 21.1311 34.3229L22.8431 40.7851C22.875 40.9057 22.8938 41.0294 22.8991 41.154L23.2068 48.3751C23.2474 49.3286 22.5074 50.1345 21.5538 50.1751C21.5288 50.1763 21.5037 50.1767 21.479 50.1768Z" fill="#FFB69E"/>
<path d="M21.3966 22.8454C21.2368 21.9724 20.529 21.3414 19.7063 21.3414C18.6468 21.3414 17.9017 21.3414 16.7257 21.3414C15.9013 21.3414 15.1955 21.9707 15.0355 22.8454L12.4007 37.2446C12.3581 37.4772 12.4141 37.7182 12.5533 37.9015C12.6924 38.0848 12.9002 38.1918 13.1194 38.1918H23.3126C23.532 38.1918 23.7398 38.0854 23.8789 37.902C24.0181 37.7186 24.0739 37.4773 24.0312 37.2446L21.3966 22.8454Z" fill="#FF6473"/>
<path d="M20.9517 18.4199C21.5771 16.9111 20.861 15.181 19.3522 14.5556C17.8434 13.9302 16.1133 14.6464 15.4879 16.1552C14.8625 17.664 15.5786 19.3941 17.0874 20.0195C18.5962 20.6449 20.3263 19.9287 20.9517 18.4199Z" fill="#FFB69E"/>
<path d="M28.6555 27.8138L24.0434 26.3792L22.9581 25.3885L20.8611 25.2184V27.3738L22.3385 28.7224C22.4945 28.8649 22.68 28.9712 22.8817 29.0339L27.8002 30.5638C27.9426 30.6081 28.0867 30.6292 28.2284 30.6292C28.8422 30.6292 29.411 30.2335 29.603 29.6165C29.8391 28.8572 29.415 28.0501 28.6555 27.8138Z" fill="#FFB69E"/>
<path d="M22.9578 25.3886L19.6267 22.3478C19.0393 21.8117 18.1286 21.8531 17.5923 22.4404C17.0561 23.0278 17.0976 23.9387 17.685 24.4749L20.8789 27.3905L22.9578 25.3886Z" fill="#FF4A5B"/>
<path d="M41.8699 21.2161H38.1636C37.0458 21.2161 36.1396 22.1222 36.1396 23.2401V34.5504H43.8939V23.2401C43.8938 22.1222 42.9877 21.2161 41.8699 21.2161Z" fill="#64AFFF"/>
<path d="M39.6814 20.2716C41.4596 20.2716 42.9011 18.8301 42.9011 17.0519C42.9011 15.2737 41.4596 13.8322 39.6814 13.8322C37.9032 13.8322 36.4617 15.2737 36.4617 17.0519C36.4617 18.8301 37.9032 20.2716 39.6814 20.2716Z" fill="#FFB69E"/>
<path d="M38.085 25.0456L36.5942 24.3419L35.0995 25.2831L29.8802 25.7379C29.0689 25.8085 28.4687 26.5234 28.5393 27.3346C28.6063 28.1022 29.2501 28.681 30.0064 28.681C30.0493 28.681 30.0925 28.6792 30.136 28.6753L35.711 28.1896C35.9447 28.1693 36.1701 28.0935 36.3687 27.9685L38.1202 26.8656L38.085 25.0456Z" fill="#FFB69E"/>
<path d="M38.12 26.8655L41.4818 24.7485C42.1708 24.3147 42.3776 23.4044 41.9438 22.7154C41.5098 22.0263 40.5994 21.8196 39.9105 22.2534L36.594 24.3419L38.12 26.8655Z" fill="#4699F2"/>
<path d="M31.3799 18.1377C31.1188 18.1377 30.907 17.9259 30.907 17.6648V14.5897C30.907 14.395 31.0263 14.2202 31.2076 14.1492L31.8461 13.8995C32.2571 13.7387 32.7202 13.7914 33.0846 14.0402C33.4492 14.2891 33.6668 14.7012 33.6668 15.1425C33.6668 15.4036 33.455 15.6154 33.1939 15.6154C32.9327 15.6154 32.7209 15.4036 32.7209 15.1425C32.7209 15.012 32.6591 14.895 32.5514 14.8214C32.4435 14.7478 32.3121 14.733 32.1907 14.7805L31.8529 14.9126V17.6648C31.8528 17.9259 31.6411 18.1377 31.3799 18.1377Z" fill="#87AFB9"/>
<path d="M30.855 17.0959C30.3027 17.0959 29.855 17.3702 29.855 17.7085C29.855 18.0468 30.3027 18.321 30.855 18.321C31.4073 18.321 31.855 18.0468 31.855 17.7085C31.855 17.3702 31.4073 17.0959 30.855 17.0959Z" fill="#C8E6EB"/>
<path d="M27.2479 10.0938C27.1283 10.0046 26.9736 9.97709 26.8304 10.0196L23.9129 10.8866C23.7123 10.9462 23.5747 11.1307 23.5747 11.3399V14.415C23.5747 14.6762 23.7865 14.888 24.0476 14.888C24.3088 14.888 24.5206 14.6762 24.5206 14.415V11.6927L26.4922 11.1068V13.548H27.438V10.4729C27.438 10.3236 27.3676 10.1831 27.2479 10.0938Z" fill="#87AFB9"/>
<path d="M23.5164 13.8369C22.9641 13.8369 22.5164 14.1111 22.5164 14.4494C22.5164 14.7877 22.9641 15.062 23.5164 15.062C24.0687 15.062 24.5164 14.7877 24.5164 14.4494C24.5164 14.1111 24.0687 13.8369 23.5164 13.8369Z" fill="#C8E6EB"/>
<path d="M26.4414 12.8868C25.8891 12.8868 25.4414 13.1611 25.4414 13.4994C25.4414 13.8377 25.8891 14.1119 26.4414 14.1119C26.9937 14.1119 27.4414 13.8377 27.4414 13.4994C27.4414 13.1611 26.9937 12.8868 26.4414 12.8868Z" fill="#C8E6EB"/>
</svg>
