<svg width="60" height="60" viewBox="0 0 60 60" fill="none" xmlns="http://www.w3.org/2000/svg">
<rect width="60" height="60" rx="30" fill="white"/>
<path d="M38.9861 12.3047C38.9861 13.5024 38.0149 14.4733 36.8175 14.4733C35.6198 14.4733 34.6489 13.5024 34.6489 12.3047C34.6489 11.1073 35.6198 10.1361 36.8175 10.1361C38.0149 10.1361 38.9861 11.1073 38.9861 12.3047Z" fill="#F7B594"/>
<path d="M37.3409 12.3047C37.3409 11.6158 37.6624 11.0025 38.1636 10.6051C37.7937 10.3117 37.3261 10.1361 36.8175 10.1361C35.6201 10.1361 34.6489 11.1069 34.6489 12.3047C34.6489 13.5021 35.6201 14.4733 36.8175 14.4733C37.3261 14.4733 37.7937 14.2974 38.1636 14.0043C37.6624 13.6072 37.3409 12.9935 37.3409 12.3047Z" fill="#F0A479"/>
<path d="M25.4025 12.3047C25.4025 13.5024 24.4317 14.4733 23.2343 14.4733C22.0365 14.4733 21.0657 13.5024 21.0657 12.3047C21.0657 11.1073 22.0365 10.1361 23.2343 10.1361C24.4317 10.1361 25.4025 11.1073 25.4025 12.3047Z" fill="#F7B594"/>
<path d="M23.7576 12.3047C23.7576 11.6158 24.0792 11.0025 24.58 10.6051C24.2104 10.3117 23.7428 10.1361 23.2343 10.1361C22.0365 10.1361 21.0657 11.1069 21.0657 12.3047C21.0657 13.5021 22.0365 14.4733 23.2343 14.4733C23.7432 14.4733 24.2104 14.2974 24.58 14.0043C24.0792 13.6072 23.7576 12.9935 23.7576 12.3047Z" fill="#F0A479"/>
<path d="M36.8174 14.4733C35.8744 14.4733 34.8368 14.8251 34.1812 15.4035C34.3644 15.9013 34.4651 16.4391 34.4651 17.0004V21.3755C34.4651 21.7162 34.1889 21.9928 33.8481 21.9928H40.039C40.3136 21.9928 40.5362 21.7702 40.5362 21.4956V18.1921C40.5362 16.1383 38.8711 14.4733 36.8174 14.4733Z" fill="#00AAF0"/>
<path d="M33.8481 21.9928H37.239C37.2773 21.7927 37.2981 21.5866 37.2981 21.3755V17.0004C37.2981 16.1125 37.1376 15.2611 36.8449 14.4739C36.8355 14.4739 36.8264 14.4733 36.8174 14.4733C35.8741 14.4733 34.8368 14.8251 34.1812 15.4035C34.3644 15.9013 34.4651 16.4391 34.4651 17.0004V21.3755C34.4651 21.7162 34.1889 21.9928 33.8481 21.9928Z" fill="#059ADB"/>
<path d="M25.5866 21.3755V17.0004C25.5866 16.4391 25.687 15.9013 25.8706 15.4035C25.215 14.8251 24.1774 14.4733 23.2344 14.4733C21.1807 14.4733 19.5156 16.1383 19.5156 18.1921V21.4956C19.5156 21.7699 19.7382 21.9928 20.0128 21.9928H26.2037C25.8629 21.9928 25.5866 21.7162 25.5866 21.3755Z" fill="#FFC850"/>
<path d="M22.1716 21.4956V18.1921C22.1716 16.5908 23.1834 15.2266 24.6024 14.7025C24.1596 14.5548 23.6863 14.4733 23.2344 14.4733C21.1807 14.4733 19.5156 16.1383 19.5156 18.1921V21.4956C19.5156 21.7699 19.7379 21.9928 20.0125 21.9928H22.6685C22.3942 21.9928 22.1716 21.7699 22.1716 21.4956Z" fill="#FEB644"/>
<path d="M32.7176 9.69193C32.7176 11.1787 31.5125 12.3839 30.0257 12.3839C28.5389 12.3839 27.3337 11.1787 27.3337 9.69193C27.3337 8.20514 28.5389 7 30.0257 7C31.5125 7 32.7176 8.20514 32.7176 9.69193Z" fill="#F7B594"/>
<path d="M30.0257 9.69193C30.0257 8.69559 30.5671 7.82648 31.3715 7.36121C30.9757 7.13193 30.5161 7 30.0257 7C28.5389 7 27.3337 8.20514 27.3337 9.69193C27.3337 11.1787 28.5389 12.3839 30.0257 12.3839C30.5161 12.3839 30.9757 12.2519 31.3715 12.023C30.5671 11.5574 30.0257 10.6883 30.0257 9.69193Z" fill="#F0A479"/>
<path d="M30.0259 12.3837C27.4763 12.3837 25.4094 14.4505 25.4094 17.0001V21.3752C25.4094 21.7159 25.6854 21.9922 26.0264 21.9922H34.0253C34.3661 21.9922 34.6423 21.7159 34.6423 21.3752V17.0001C34.6423 14.4505 32.5755 12.3837 30.0259 12.3837Z" fill="#D665D3"/>
<path d="M28.0654 21.3752V17.0001C28.0654 14.9124 29.4518 13.149 31.3539 12.5787C30.9333 12.4525 30.4878 12.3837 30.0259 12.3837C27.4763 12.3837 25.4094 14.4505 25.4094 17.0001V21.3752C25.4094 21.7159 25.6854 21.9926 26.0264 21.9926H28.6824C28.3417 21.9926 28.0654 21.7159 28.0654 21.3752Z" fill="#C64AC6"/>
<path d="M45.5985 24.5313C45.6734 24.7341 45.6898 24.951 45.6492 25.1598L46.1759 24.579C46.3763 24.3578 46.4868 24.0748 46.4868 23.7817V17.2068C46.4868 16.8054 46.6059 16.4307 46.8114 16.1135C46.24 15.6096 45.4045 15.4179 44.6223 15.6841C43.4961 16.0675 42.9073 17.2545 43.3068 18.3348L45.5985 24.5313Z" fill="#F0A479"/>
<path d="M45.5421 18.3351C45.1923 17.3894 45.6002 16.3619 46.4629 15.8634C45.9275 15.5539 45.2575 15.4683 44.6223 15.6845C43.4961 16.0678 42.9073 17.2548 43.3068 18.3351L45.5985 24.5317C45.6734 24.7344 45.6898 24.9513 45.6492 25.1601L46.1759 24.5793C46.3763 24.3584 46.4868 24.0751 46.4868 23.782V20.8894L45.5421 18.3351Z" fill="#E5966E"/>
<path d="M44.3021 34.1833L49.1898 27.459C50.0438 26.315 50.505 24.9255 50.505 23.4982V17.2536C50.505 16.0898 49.5523 15.1092 48.3888 15.1313C47.2609 15.1525 46.3528 16.0736 46.3528 17.2069V23.7818C46.3528 24.0749 46.2471 24.3579 46.0547 24.5791L43.6787 27.31C43.6233 27.3734 43.5182 27.316 43.5444 27.2354C43.8156 26.4113 43.6031 25.4687 42.925 24.8426C42.022 24.0091 40.5547 24.0826 39.7004 24.9658L33.2437 31.6408C32.5098 32.3994 32.0996 33.4135 32.0996 34.4693V40.9519H41.881C42.0603 38.5792 42.8955 36.1186 44.3021 34.1833Z" fill="#F7B594"/>
<path d="M34.7556 40.9521V34.4695C34.7556 33.4137 35.1658 32.3996 35.9 31.6409L42.3564 24.966C42.4651 24.8539 42.5836 24.7549 42.7095 24.6693C41.8025 24.0257 40.4896 24.1503 39.7004 24.966L33.244 31.6409C32.5098 32.3996 32.0996 33.4141 32.0996 34.4695V40.9521H41.881H34.7556Z" fill="#F0A479"/>
<path d="M38.1116 31.7552C38.1116 31.9207 38.178 32.0852 38.3086 32.2064C38.558 32.4367 38.9464 32.4216 39.1771 32.1725L43.6586 27.3261C43.6015 27.3603 43.5209 27.3073 43.5444 27.2358C43.7106 26.7306 43.6942 26.1807 43.5011 25.6869L38.2747 31.3383C38.1656 31.4564 38.1116 31.6062 38.1116 31.7552Z" fill="#F0A479"/>
<path d="M14.4538 24.5316C14.379 24.7343 14.3625 24.9512 14.4028 25.16L13.8764 24.5793C13.6757 24.358 13.5656 24.075 13.5656 23.782V17.2071C13.5656 16.8056 13.4464 16.431 13.241 16.1137C13.8123 15.6099 14.6475 15.4182 15.43 15.6844C16.5563 16.0677 17.1451 17.2548 16.7456 18.335L14.4538 24.5316Z" fill="#F0A479"/>
<path d="M15.4295 15.6841C14.647 15.4179 13.8118 15.6096 13.2405 16.1135C13.4459 16.4311 13.5651 16.8054 13.5651 17.2068V23.7817C13.5651 24.0748 13.6755 24.3581 13.8759 24.579L14.4023 25.1598C14.362 24.951 14.3785 24.7341 14.4533 24.5313L15.3799 22.0264V17.2068C15.3799 16.9786 15.3412 16.759 15.2701 16.5536C15.1627 16.2424 15.308 15.8939 15.6085 15.7597C15.6105 15.7587 15.6125 15.758 15.6145 15.757C15.5547 15.7305 15.493 15.706 15.4295 15.6841Z" fill="#E5966E"/>
<path d="M15.7498 34.1833L10.8621 27.459C10.0085 26.315 9.54688 24.9259 9.54688 23.4982V17.2536C9.54688 16.0898 10.4992 15.1092 11.6631 15.1313C12.791 15.1528 13.6991 16.074 13.6991 17.2069V23.7818C13.6991 24.0749 13.8048 24.3579 13.9972 24.5791L16.3732 27.31C16.4286 27.3738 16.5337 27.316 16.5075 27.2358C16.2362 26.4117 16.4487 25.4687 17.1268 24.8426C18.0295 24.0091 19.4972 24.083 20.3515 24.9658L26.8082 31.6408C27.5421 32.3994 27.9523 33.4139 27.9523 34.4693V40.9522H18.1708C17.9916 38.5792 17.1564 36.1186 15.7498 34.1833Z" fill="#F7B594"/>
<path d="M18.4062 34.1833L13.5181 27.459C12.6645 26.315 12.2029 24.9259 12.2029 23.4982V17.2536C12.2029 16.605 12.499 16.0139 12.9622 15.6208C12.6104 15.3234 12.1579 15.1407 11.6631 15.1313C10.4996 15.1092 9.54688 16.0898 9.54688 17.2536V23.4982C9.54688 24.9259 10.0081 26.315 10.8621 27.459L15.7498 34.1836C17.1564 36.1186 17.9916 38.5792 18.1708 40.9522H20.8268C20.6476 38.5792 19.8127 36.1186 18.4062 34.1833Z" fill="#F0A479"/>
<path d="M21.9408 31.7552C21.9408 31.9207 21.8743 32.0852 21.7434 32.2064C21.4943 32.4367 21.1059 32.4216 20.8753 32.1725L16.3938 27.3261C16.4509 27.3603 16.5314 27.3073 16.5079 27.2358C16.3418 26.7306 16.3582 26.1807 16.5512 25.6869L21.7776 31.3383C21.8867 31.4565 21.9408 31.6062 21.9408 31.7552Z" fill="#F0A479"/>
<path d="M30.0275 44.0913V50.0626C30.0275 50.5803 29.6079 50.9999 29.0899 50.9999H17.2178C16.7001 50.9999 16.2805 50.5803 16.2805 50.0626V44.0913H30.0275Z" fill="#00AAF0"/>
<path d="M18.9365 50.0626V44.0913H16.2805V50.0626C16.2805 50.5803 16.7001 50.9999 17.2178 50.9999H19.8738C19.3561 50.9999 18.9365 50.5803 18.9365 50.0626Z" fill="#059ADB"/>
<path d="M17.2178 40.7751H29.0899C29.6079 40.7751 30.0275 41.1948 30.0275 41.7124V44.2687H16.2805V41.7124C16.2805 41.1948 16.7001 40.7751 17.2178 40.7751Z" fill="#E4EAF8"/>
<path d="M19.8738 40.7751H17.2178C16.7001 40.7751 16.2805 41.1948 16.2805 41.7124V44.2687H18.9365V41.7124C18.9365 41.1948 19.3561 40.7751 19.8738 40.7751Z" fill="#D8DCE5"/>
<path d="M43.7709 44.0913V50.0626C43.7709 50.5803 43.3513 50.9999 42.8336 50.9999H30.9612C30.4435 50.9999 30.0239 50.5803 30.0239 50.0626V44.0913H43.7709Z" fill="#00AAF0"/>
<path d="M32.6799 50.0626V44.0913H30.0239V50.0626C30.0239 50.5803 30.4435 50.9999 30.9612 50.9999H33.6172C33.0995 50.9999 32.6799 50.5803 32.6799 50.0626Z" fill="#059ADB"/>
<path d="M30.9608 40.7751H42.8333C43.351 40.7751 43.7706 41.1948 43.7706 41.7124V44.2687H30.0239V41.7124C30.0239 41.1948 30.4435 40.7751 30.9608 40.7751Z" fill="#E4EAF8"/>
<path d="M33.6175 40.7751H30.9612C30.4439 40.7751 30.0239 41.1948 30.0239 41.7124V44.2687H32.6799V41.7124C32.6803 41.1948 33.0999 40.7751 33.6175 40.7751Z" fill="#D8DCE5"/>
</svg>
