<svg width="60" height="60" viewBox="0 0 60 60" fill="none" xmlns="http://www.w3.org/2000/svg">
<rect width="60" height="60" rx="30" fill="white"/>
<path d="M12.2982 47.6997L8.07752 23.737C8.03676 23.5057 8.01136 23.272 8.00147 23.0374C7.93875 20.3206 9.88949 17.9739 12.5719 17.5391L20.7167 16.1018L20.4961 47.6997H12.2982Z" fill="#35495E"/>
<path d="M43.6451 46.6502C43.5039 47.2365 43.0295 47.684 42.436 47.7909L18.4657 52.0192C16.9548 52.2829 15.4036 51.8833 14.2082 50.9223C13.0129 49.9614 12.2892 48.5322 12.2222 47C12.1623 44.4025 13.9506 42.1265 16.4884 41.5702L23.2035 43.4562H23.1959L17.1501 44.5285C16.4758 44.647 15.8902 45.0615 15.5543 45.6581C15.2185 46.2547 15.1678 46.9704 15.4162 47.6084C15.8463 48.6359 16.9388 49.2202 18.0322 49.0077L36.3521 45.7756L43.6451 46.6502Z" fill="#2C3E50"/>
<path d="M23.1957 43.4562L17.1499 44.5285C16.4756 44.647 15.89 45.0615 15.5541 45.6581C15.2183 46.2547 15.1676 46.9704 15.416 47.6084C15.8461 48.6359 16.9386 49.2202 18.032 49.0077L36.352 45.7756L23.1957 43.4562Z" fill="#F9EAB0"/>
<path d="M17.7021 33.2209L21.9281 9.25521C22.0794 8.43142 22.8643 7.88193 23.6902 8.02171L47.4756 12.2158C50.16 12.6509 52.1123 14.9991 52.0499 17.7178C52.0396 17.9514 52.0142 18.1841 51.9739 18.4144L47.7479 42.3801L17.7021 33.2209Z" fill="#E64C3C"/>
<path d="M42.5028 15.9604C42.4582 15.9603 42.4137 15.9565 42.3698 15.949L25.1442 12.9116C24.7554 12.8157 24.5076 12.4349 24.5774 12.0406C24.6473 11.6464 25.0108 11.3738 25.4088 11.4173L42.6336 14.4508C43.0221 14.5189 43.2941 14.8726 43.2601 15.2655C43.226 15.6585 42.8972 15.9601 42.5028 15.9604Z" fill="#3F5C6C"/>
<path d="M38.8464 19.174C38.8018 19.1741 38.7572 19.17 38.7134 19.1619L27.4796 17.1839C27.0754 17.1019 26.8102 16.7127 26.8818 16.3066C26.9534 15.9004 27.3356 15.6253 27.7435 15.6865L38.978 17.6637C39.3687 17.7298 39.6433 18.0848 39.6089 18.4796C39.5745 18.8744 39.2427 19.1766 38.8464 19.174Z" fill="#3F5C6C"/>
<path d="M40.4341 22.5707L24.7037 19.7919C24.29 19.7188 23.8953 19.9949 23.8223 20.4086L22.4991 27.8993C22.426 28.313 22.7021 28.7076 23.1158 28.7807L38.8463 31.5596C39.26 31.6326 39.6546 31.3565 39.7277 30.9428L41.0509 23.4521C41.124 23.0384 40.8478 22.6438 40.4341 22.5707Z" fill="#ECF0F1"/>
<path d="M52.0485 17.7139C52.0394 17.9486 52.014 18.1824 51.9724 18.4136L47.7442 42.3763L41.8809 40.5891L45.2802 21.3186L46.0863 16.7709L46.9076 12.1168L47.478 12.2157C50.1592 12.6526 52.1089 14.998 52.0485 17.7139Z" fill="#C03A2B"/>
<path d="M43.2498 36.1784L19.462 31.9881C19.3741 31.973 19.2851 31.9654 19.1959 31.9653C18.4077 31.9673 17.7516 32.5712 17.6843 33.3565C17.6171 34.1418 18.1609 34.8484 18.9373 34.9844L42.9 39.2051C43.5737 39.3271 44.1575 39.744 44.4916 40.3415C44.8258 40.9391 44.8751 41.6548 44.6263 42.2926C44.1985 43.3179 43.1076 43.8999 42.0178 43.6843L18.1464 39.4789C18.0585 39.4637 17.9695 39.4561 17.8802 39.456C17.0906 39.4541 16.4308 40.0568 16.3614 40.8434C16.2921 41.63 16.8362 42.3389 17.6141 42.4751L41.5844 46.6958C43.0941 46.9605 44.6447 46.5622 45.8401 45.6027C47.0354 44.6433 47.7597 43.2155 47.8279 41.6842C47.8876 38.9644 45.9349 36.616 43.2498 36.1784Z" fill="#802F34"/>
<path d="M44.6261 42.2927C44.1983 43.3179 43.1075 43.8999 42.0177 43.6844L18.1462 39.4789L18.9371 34.9845L42.8998 39.2052C43.5735 39.3272 44.1573 39.744 44.4915 40.3416C44.8256 40.9392 44.875 41.6549 44.6261 42.2927Z" fill="#F9EAB0"/>
</svg>
