<svg width="60" height="60" viewBox="0 0 60 60" fill="none" xmlns="http://www.w3.org/2000/svg">
<rect width="60" height="60" rx="30" fill="white"/>
<path d="M17.3474 18.5039H30.3899V25.0078H17.3474V18.5039Z" fill="#C6D9F2"/>
<path d="M23.8689 18.5039H30.3901V25.0078H23.8689V18.5039Z" fill="#A2B8D8"/>
<path d="M13 22.8398H34.7375V49H13V22.8398Z" fill="#E5F3FD"/>
<path d="M23.8689 22.8398H34.7376V49H23.8689V22.8398Z" fill="#E5F3FD"/>
<path d="M15.1738 12H32.5638V20.6719H15.1738V12Z" fill="#47799A"/>
<path d="M23.8689 12H32.5639V20.6719H23.8689V12Z" fill="#375D76"/>
<path d="M13 27.6094H34.7375V44.2305H13V27.6094Z" fill="#EB5E60"/>
<path d="M23.8689 27.6094H34.7376V44.2305H23.8689V27.6094Z" fill="#E84040"/>
<path d="M26.0425 12H28.2162V16.3063H26.0425V12Z" fill="#284354"/>
<path d="M19.5212 12H21.695V16.3063H19.5212V12Z" fill="#375D76"/>
<path d="M27.854 34.8359H24.9556V31.9453H22.7819V34.8359H19.8835V37.0039H22.7819V39.8945H24.9556V37.0039H27.854V34.8359Z" fill="#E5F3FD"/>
<path d="M25.0869 34.8906V32H24V39.9492H25.0869V37.0586H27.9852V34.8906H25.0869Z" fill="#C6D9F2"/>
<path d="M45.2439 47.4102H36.5489C34.3513 47.4102 32.5637 45.6274 32.5637 43.4355C32.5637 41.2437 34.3513 39.4609 36.5489 39.4609H45.2439C47.4416 39.4609 49.2291 41.2437 49.2291 43.4355C49.2291 45.6274 47.4416 47.4102 45.2439 47.4102Z" fill="#E5F3FD"/>
<path d="M36.5489 47.4102H45.2439C47.4416 47.4102 49.2291 45.6274 49.2291 43.4355H32.5637C32.5637 45.6274 34.3513 47.4102 36.5489 47.4102Z" fill="#C6D9F2"/>
<path d="M45.244 39.4609H40.8965V47.4102H45.244C47.4416 47.4102 49.2292 45.6274 49.2292 43.4355C49.2292 41.2437 47.4416 39.4609 45.244 39.4609Z" fill="#EB5E60"/>
<path d="M40.8965 47.4102H45.244C47.4416 47.4102 49.2292 45.6274 49.2292 43.4355H40.8965V47.4102Z" fill="#E84040"/>
<path d="M45.5149 30.5643L39.3669 36.6961C37.8126 38.2454 35.2846 38.2454 33.731 36.6961C32.1775 35.1467 32.1775 32.6246 33.731 31.0752L39.8791 24.9435C41.4334 23.3941 43.9614 23.3941 45.5149 24.9435C47.0692 26.4929 47.0692 29.0149 45.5149 30.5643Z" fill="#E5F3FD"/>
<path d="M39.3668 36.6961L45.5149 30.5643C47.0684 29.0149 47.0684 26.4929 45.5149 24.9435L33.731 36.6961C35.2845 38.2462 37.8133 38.2462 39.3668 36.6961Z" fill="#C6D9F2"/>
<path d="M39.8791 24.9435L36.8047 28.0097L42.4405 33.6305L45.5149 30.5643C47.0684 29.0149 47.0684 26.4929 45.5149 24.9435C43.9614 23.3934 41.4333 23.3934 39.8791 24.9435Z" fill="#6A9CD3"/>
<path d="M42.4412 33.6305L45.5156 30.5643C47.0691 29.0149 47.0691 26.4929 45.5156 24.9435L39.6233 30.8201L42.4412 33.6305Z" fill="#4466AE"/>
</svg>
