<svg width="60" height="60" viewBox="0 0 60 60" fill="none" xmlns="http://www.w3.org/2000/svg">
<rect width="60" height="60" rx="30" fill="white"/>
<path d="M43.6417 20.6347C43.346 20.6347 43.0404 20.5173 42.8317 20.3085L39.6929 17.1697C39.4841 16.9609 39.3667 16.6783 39.3667 16.3826C39.3667 16.0869 39.4841 15.7814 39.6929 15.5726L42.8317 12.4327C43.2492 12.0153 43.9885 12.0153 44.406 12.4327L47.5687 15.5954C47.7774 15.8042 47.8949 16.0868 47.8949 16.3825C47.8949 16.6782 47.7774 16.9609 47.5687 17.1696L44.4288 20.3084C44.2201 20.5173 43.9373 20.6347 43.6417 20.6347Z" fill="#C5C9F7"/>
<path d="M21.0992 34.1783L25.8225 38.9016L38.9018 25.8223L34.1785 21.0991L21.0992 34.1783Z" fill="#C5C9F7"/>
<path d="M16.3873 47.8892C16.1025 47.8892 15.8176 47.7804 15.6002 47.563L12.4375 44.4013C12.2287 44.1925 12.1113 43.9099 12.1113 43.6142C12.1113 43.3185 12.2287 43.0358 12.4375 42.8271L15.5774 39.6883C16.0123 39.2535 16.7169 39.2535 17.1517 39.6883L20.3134 42.85C20.7482 43.2848 20.7482 43.9894 20.3134 44.4243L17.1746 47.563C16.957 47.7804 16.6722 47.8892 16.3873 47.8892Z" fill="#C5C9F7"/>
<path d="M15.6002 47.5629C15.8177 47.7804 16.1026 47.8891 16.3873 47.8891C16.6721 47.8891 16.9571 47.7804 17.1745 47.5629L20.3132 44.4242C20.7481 43.9893 20.7481 43.2847 20.3132 42.8499L18.7324 41.269L14.019 45.9824L15.6002 47.5629Z" fill="#A8AFF1"/>
<path d="M42.8318 20.3085C43.0406 20.5172 43.3461 20.6347 43.6418 20.6347C43.9375 20.6347 44.2202 20.5172 44.4289 20.3085L47.5688 17.1697C47.7776 16.9609 47.895 16.6783 47.895 16.3826C47.895 16.0869 47.7776 15.8042 47.5688 15.5955L45.9875 14.014L41.2625 18.7391L42.8318 20.3085Z" fill="#A8AFF1"/>
<path d="M36.5407 23.4611L23.4614 36.5404L25.8228 38.9018L38.9021 25.8225L36.5407 23.4611Z" fill="#A8AFF1"/>
<path d="M45.9869 28.1839L31.8169 14.0139L34.1786 11.6522C35.0482 10.7826 36.458 10.7826 37.3275 11.6522L48.3486 22.6733C49.2182 23.5429 49.2182 24.9527 48.3486 25.8222L45.9869 28.1839Z" fill="#1689FC"/>
<path d="M42.8382 32.9073L27.0937 17.1627C26.6589 16.728 26.6589 16.0231 27.0937 15.5883L28.6681 14.0139C29.5377 13.1443 30.9475 13.1443 31.817 14.0139L45.9871 28.184C46.8567 29.0535 46.8567 30.4634 45.9871 31.3329L44.4127 32.9073C43.9779 33.3421 43.273 33.3421 42.8382 32.9073Z" fill="#17ACE8"/>
<path d="M14.0139 31.817L28.184 45.9871L25.8223 48.3488C24.9527 49.2184 23.5429 49.2184 22.6734 48.3488L11.6522 37.3276C10.7826 36.458 10.7826 35.0482 11.6522 34.1787L14.0139 31.817Z" fill="#1689FC"/>
<path d="M17.1629 27.0937L32.9074 42.8382C33.3422 43.273 33.3422 43.9779 32.9074 44.4126L31.333 45.9871C30.4634 46.8567 29.0536 46.8567 28.1841 45.9871L14.014 31.8171C13.1444 30.9475 13.1444 29.5377 14.014 28.6682L15.5884 27.0937C16.0232 26.6589 16.7281 26.6589 17.1629 27.0937Z" fill="#17ACE8"/>
<path d="M22.6734 48.3488C23.5429 49.2183 24.9527 49.2183 25.8222 48.3488L28.1839 45.9871L21.0992 38.9022L17.1631 42.8384L22.6734 48.3488Z" fill="#136EF1"/>
<path d="M38.9023 21.0991L45.9871 28.184L48.3488 25.8223C49.2183 24.9528 49.2183 23.543 48.3488 22.6734L42.8385 17.163L38.9023 21.0991Z" fill="#136EF1"/>
<path d="M28.1838 45.9871C29.0533 46.8566 30.4632 46.8566 31.3328 45.9871L32.9072 44.4125C33.342 43.9777 33.342 43.2729 32.9072 42.8381L25.0353 34.9662L21.0991 38.9023L28.1838 45.9871Z" fill="#1689FC"/>
<path d="M42.8383 32.9073C43.2731 33.3421 43.9779 33.3421 44.4127 32.9073L45.9872 31.3327C46.8567 30.4633 46.8567 29.0534 45.9872 28.1839L38.9024 21.099L34.9663 25.0351L42.8383 32.9073Z" fill="#1689FC"/>
</svg>
