<svg width="60" height="60" viewBox="0 0 60 60" fill="none" xmlns="http://www.w3.org/2000/svg">
<rect width="60" height="60" rx="30" fill="white"/>
<path d="M16.2212 13H43.0276C43.7977 13 44.4182 13.62 44.4182 14.3894V16.9136C44.4182 17.683 43.7977 18.303 43.0276 18.303H16.2212C15.4511 18.303 14.8306 17.683 14.8306 16.9136V14.3894C14.8306 13.62 15.4503 13 16.2212 13Z" fill="#BEC4C8"/>
<path d="M11.9819 24.3641H47.7302V45.1853H11.9819V24.3641Z" fill="#A6D3D2"/>
<path d="M11.9819 24.3641V28.0754C12.0471 28.0797 12.1132 28.0823 12.1792 28.0823C13.8289 28.0823 15.1569 26.8371 15.1569 25.2897C15.1569 26.8363 16.485 28.0823 18.1347 28.0823C19.7843 28.0823 21.1124 26.8371 21.1124 25.2897C21.1124 26.8363 22.4404 28.0823 24.0901 28.0823C25.7397 28.0823 27.0678 26.8371 27.0678 25.2897C27.0678 26.8363 28.3959 28.0823 30.0455 28.0823C31.6952 28.0823 33.0232 26.8371 33.0232 25.2897C33.0232 26.8363 34.3513 28.0823 36.0009 28.0823C37.6506 28.0823 38.9787 26.8371 38.9787 25.2897C38.9787 26.8363 40.3067 28.0823 41.9564 28.0823C43.606 28.0823 44.9341 26.8371 44.9341 25.2897C44.9341 26.7789 46.1657 27.9885 47.7293 28.0763V24.3641H11.9819Z" fill="#92B6B3"/>
<path d="M9 22.4702L50.7193 22.4919L44.4145 16.9614L14.8303 16.8841L9 22.4702Z" fill="#ECF0F1"/>
<path d="M15.0071 22.4667L19.4076 16.8702L23.7142 16.898L20.9364 22.4806L15.0071 22.4667Z" fill="#E84C3D"/>
<path d="M27.9444 16.9127L32.0234 16.9214L32.8447 22.471L26.8901 22.4675L27.9444 16.9127Z" fill="#E84C3D"/>
<path d="M36.4048 16.9432L38.8071 22.4702L44.7721 22.5023L40.6602 16.9249L36.4048 16.9432Z" fill="#E84C3D"/>
<path d="M9.02344 22.4667V25.0318C9.02344 26.5783 10.3515 27.8235 12.0012 27.8235C13.6508 27.8235 14.9789 26.5783 14.9789 25.0318V22.4667H9.02344Z" fill="#BEC4C8"/>
<path d="M14.979 22.4667V25.0318C14.979 26.5783 16.3071 27.8235 17.9567 27.8235C19.6064 27.8235 20.9344 26.5783 20.9344 25.0318V22.4667H14.979Z" fill="#C03A2B"/>
<path d="M20.9343 22.4667V25.0318C20.9343 26.5783 22.2624 27.8235 23.912 27.8235C25.5617 27.8235 26.8898 26.5783 26.8898 25.0318V22.4667H20.9343Z" fill="#BEC4C8"/>
<path d="M26.8896 22.4667V25.0318C26.8896 26.5783 28.2177 27.8235 29.8674 27.8235C31.517 27.8235 32.8451 26.5783 32.8451 25.0318V22.4667H26.8896Z" fill="#C03A2B"/>
<path d="M32.8455 22.4667V25.0318C32.8455 26.5783 34.1735 27.8235 35.8232 27.8235C37.4728 27.8235 38.8009 26.5783 38.8009 25.0318V22.4667H32.8455Z" fill="#BEC4C8"/>
<path d="M38.8015 22.4667V25.0318C38.8015 26.5783 40.1296 27.8235 41.7792 27.8235C43.4289 27.8235 44.7569 26.5783 44.7569 25.0318V22.4667H38.8015Z" fill="#C03A2B"/>
<path d="M44.7571 22.4667V25.0318C44.7571 26.5783 46.0851 27.8235 47.7348 27.8235C49.3844 27.8235 50.7125 26.5783 50.7125 25.0318V22.4667H44.7571Z" fill="#BEC4C8"/>
<path d="M9.59619 45.1852H50.1169V46.9714H9.59619V45.1852Z" fill="#7F8C8D"/>
<path d="M17.4822 32.6828H24.7952V45.1852H17.4822V32.6828Z" fill="#945744"/>
<path d="M16.9678 31.2891H25.3099V32.7175H16.9678V31.2891Z" fill="#774637"/>
<path d="M17.4822 32.7184V33.0162H24.7952V32.7184H17.4822Z" fill="#835243"/>
<path d="M29.8892 31.2891V31.428V38.8202H42.7448V31.2899H29.8892V31.2891Z" fill="#6F7474"/>
<path d="M30.1665 31.5661H42.4667V38.5424H30.1665V31.5661Z" fill="#B3C8D7"/>
<path d="M30.4907 31.8205H42.1443V38.2888H30.4907V31.8205Z" fill="#C1D2DD"/>
<path d="M42.6058 34.8702V35.2401H30.0283V34.8702H42.6058Z" fill="#6F7474"/>
<path d="M36.1323 31.428H36.5026V38.6813H36.1323V31.428Z" fill="#6F7474"/>
<path d="M24.1546 38.5528C24.1546 38.7543 23.9912 38.9175 23.7896 38.9175C23.588 38.9175 23.4246 38.7543 23.4246 38.5528C23.4246 38.3514 23.588 38.1881 23.7896 38.1881C23.9912 38.1872 24.1546 38.3505 24.1546 38.5528Z" fill="#6E4133"/>
</svg>
