<svg width="60" height="60" viewBox="0 0 60 60" fill="none" xmlns="http://www.w3.org/2000/svg">
<rect width="60" height="60" rx="30" fill="white"/>
<path d="M38.3746 22.9791C43.0682 22.9791 46.873 19.1782 46.873 14.4895C46.873 9.80089 43.0682 6 38.3746 6C33.6811 6 29.8762 9.80089 29.8762 14.4895C29.8762 19.1782 33.6811 22.9791 38.3746 22.9791Z" fill="#FFB200"/>
<path d="M38.3745 6C37.8972 6 37.4294 6.03994 36.9736 6.11546C41.0005 6.78279 44.0712 10.2776 44.0712 14.4895C44.0712 18.7014 41.0005 22.1964 36.9736 22.8636C37.4294 22.9391 37.8972 22.9791 38.3745 22.9791C43.068 22.9791 46.8729 19.1781 46.8729 14.4895C46.8729 9.80093 43.0681 6 38.3745 6V6Z" fill="#FFA000"/>
<path d="M37.0017 49.5673H31.3877C29.5209 49.5673 28.0077 48.0548 28.0077 46.1891V43.7012C28.0077 36.8337 29.9382 35.5866 33.2378 33.0271C36.7431 30.3079 38.6903 26.0426 38.4476 21.6143L38.1035 16.8416C38.0898 16.6521 37.932 16.5053 37.7418 16.5053H15.4732C15.2831 16.5053 15.1252 16.652 15.1115 16.8416L14.7674 21.6143C14.5248 26.0426 16.4719 30.3079 19.9773 33.0271C23.2768 35.5866 25.2074 36.8337 25.2074 43.7012V46.1891C25.2074 48.0549 23.6941 49.5673 21.8274 49.5673H16.2133C14.987 49.5673 13.9936 50.5641 14 51.7912C14.0017 52.1104 14.2675 52.3661 14.5869 52.3661H38.6279C38.9475 52.3661 39.2132 52.1104 39.2149 51.7912C39.2214 50.564 38.228 49.5673 37.0017 49.5673Z" fill="#BBF7FF"/>
<path d="M30.4362 33.0271C27.1624 35.5666 25.2367 36.8151 25.2068 43.5422C25.2071 43.5952 25.2075 43.6474 25.2075 43.7011V46.1891C25.2075 46.1984 25.2069 46.2076 25.2068 46.217C25.2219 48.0698 26.7287 49.5673 28.5862 49.5673H31.3879C29.5211 49.5673 28.0079 48.0548 28.0079 46.1891V43.7011C28.0079 36.8336 29.9384 35.5865 33.238 33.0271C36.7433 30.3079 38.6905 26.0425 38.4478 21.6142L38.1037 16.8415C38.09 16.652 37.9322 16.5052 37.742 16.5052H35.2778L35.6462 21.6142C35.8887 26.0425 33.9415 30.308 30.4362 33.0271Z" fill="#8BF0FF"/>
<path d="M37.0018 49.5674H34.2002C35.4226 49.5674 36.4135 50.5578 36.4135 51.7795C36.4135 52.1035 36.1507 52.3662 35.8265 52.3662H38.6282C38.9524 52.3662 39.2152 52.1035 39.2152 51.7795C39.2152 50.5578 38.2242 49.5674 37.0018 49.5674Z" fill="#8BF0FF"/>
<path d="M37.7417 16.5053H30.1177C31.0293 20.2446 34.4193 23.0145 38.4514 22.9788C38.4516 22.9785 38.4518 22.9785 38.452 22.9782C38.4729 22.5262 38.4725 22.0712 38.4475 21.6143L38.1033 16.8416C38.0897 16.652 37.9319 16.5053 37.7417 16.5053Z" fill="#F57F17"/>
<path d="M36.9412 28.5898C34.616 33.0146 30.0919 35.6865 26.6077 35.6865C23.1233 35.6865 18.599 33.0149 16.2739 28.5898C16.2739 28.5898 17.8937 26.0763 21.0488 26.0763C23.9472 26.0763 27.2037 29.1791 29.7325 29.7149C33.0828 30.4247 36.9412 28.5898 36.9412 28.5898Z" fill="#FFC328"/>
<path d="M25.6737 29.2297C27.9946 29.2297 29.8761 27.3501 29.8761 25.0316C29.8761 22.713 27.9946 20.8334 25.6737 20.8334C23.3527 20.8334 21.4712 22.713 21.4712 25.0316C21.4712 27.3501 23.3527 29.2297 25.6737 29.2297Z" fill="#F74F68"/>
<path d="M25.6736 20.8334C25.1823 20.8334 24.711 20.9185 24.2727 21.0732C25.9048 21.6496 27.0744 23.2038 27.0744 25.0316C27.0744 26.8593 25.9048 28.4135 24.2727 28.9899C24.711 29.1447 25.1822 29.2297 25.6736 29.2297C27.9945 29.2297 29.876 27.3501 29.876 25.0316C29.8761 22.713 27.9946 20.8334 25.6736 20.8334Z" fill="#E83A53"/>
<path d="M16.2739 28.5898C18.5991 33.0146 23.1232 35.6865 26.6074 35.6865C30.0918 35.6865 34.6161 33.0149 36.9412 28.5898C36.9412 28.5898 35.3214 26.0763 32.1663 26.0763C29.2679 26.0763 26.0114 29.1791 23.4826 29.7149C20.1323 30.4247 16.2739 28.5898 16.2739 28.5898Z" fill="#FFD54F"/>
<path d="M36.9412 28.5898C36.9412 28.5898 36.2581 27.5314 34.9166 26.7881C34.0696 29.2233 32.5317 31.4016 30.4362 33.0272C29.2327 33.9607 28.2118 34.72 27.3999 35.6409C30.7519 35.2783 34.7887 32.6863 36.9412 28.5898Z" fill="#FFC328"/>
<path d="M38.468 8.16626C38.0928 8.16626 37.7888 8.47036 37.7888 8.84545V10.3381C37.7888 10.7132 38.0928 11.0173 38.468 11.0173C38.8432 11.0173 39.1472 10.7132 39.1472 10.3381V8.84545C39.1472 8.47036 38.8431 8.16626 38.468 8.16626Z" fill="#FFD54F"/>
<path d="M36.1181 9.28868C35.9304 8.96394 35.515 8.85291 35.1902 9.04046C34.8655 9.22819 34.7544 9.64358 34.9421 9.96841L35.6892 11.261C35.8151 11.4788 36.0432 11.6006 36.2779 11.6006C36.3931 11.6006 36.51 11.5711 36.6171 11.5093C36.9418 11.3215 37.0529 10.9062 36.8652 10.5813L36.1181 9.28868Z" fill="#FFD54F"/>
<path d="M41.2546 18.1758C41.0669 17.8511 40.6514 17.7401 40.3267 17.9276C40.002 18.1153 39.8909 18.5307 40.0786 18.8556L40.8257 20.1482C40.9516 20.3659 41.1797 20.4877 41.4143 20.4877C41.5296 20.4877 41.6465 20.4583 41.7536 20.3964C42.0783 20.2087 42.1894 19.7933 42.0017 19.4685L41.2546 18.1758Z" fill="#FFD54F"/>
<path d="M35.0114 11.932L33.7173 11.1857C33.3922 10.9984 32.977 11.1098 32.7897 11.4348C32.6023 11.7597 32.7138 12.1751 33.0387 12.3624L34.3328 13.1087C34.4397 13.1704 34.5564 13.1997 34.6715 13.1997C34.9063 13.1997 35.1347 13.0777 35.2605 12.8597C35.4478 12.5348 35.3363 12.1195 35.0114 11.932Z" fill="#FFD54F"/>
<path d="M43.9081 17.0632L42.6141 16.3169C42.2891 16.1293 41.8738 16.2409 41.6864 16.5659C41.499 16.8908 41.6105 17.3061 41.9354 17.4936L43.2294 18.24C43.3364 18.3016 43.453 18.331 43.5681 18.331C43.8029 18.331 44.0313 18.209 44.1571 17.991C44.3445 17.666 44.233 17.2506 43.9081 17.0632Z" fill="#FFD54F"/>
<path d="M34.0823 14.028H32.5881C32.2129 14.028 31.9089 14.3321 31.9089 14.7071C31.9089 15.0822 32.2129 15.3863 32.5881 15.3863H34.0823C34.4575 15.3863 34.7615 15.0822 34.7615 14.7071C34.7615 14.3321 34.4574 14.028 34.0823 14.028Z" fill="#FFD54F"/>
<path d="M44.3553 14.028H42.8611C42.4859 14.028 42.1819 14.3321 42.1819 14.7071C42.1819 15.0822 42.4859 15.3863 42.8611 15.3863H44.3553C44.7305 15.3863 45.0345 15.0822 45.0345 14.7071C45.0345 14.3321 44.7305 14.028 44.3553 14.028Z" fill="#FFD54F"/>
<path d="M41.6803 12.85C41.8061 13.068 42.0345 13.1899 42.2693 13.1899C42.3844 13.1899 42.5011 13.1606 42.608 13.099L43.902 12.3527C44.2269 12.1652 44.3384 11.7499 44.151 11.425C43.9635 11.1 43.5482 10.9886 43.2233 11.176L41.9293 11.9223C41.6044 12.1097 41.4929 12.525 41.6803 12.85Z" fill="#FFD54F"/>
<path d="M40.3163 11.4924C40.4233 11.5543 40.5402 11.5837 40.6555 11.5837C40.8901 11.5837 41.1183 11.462 41.2441 11.2442L41.9912 9.95147C42.179 9.62672 42.0678 9.21124 41.7431 9.02351C41.4184 8.83578 41.0028 8.94699 40.8152 9.27173L40.0681 10.5645C39.8803 10.8893 39.9915 11.3048 40.3163 11.4924Z" fill="#FFD54F"/>
</svg>
