<svg width="60" height="60" viewBox="0 0 60 60" fill="none" xmlns="http://www.w3.org/2000/svg">
<rect width="60" height="60" rx="30" fill="white"/>
<path d="M46.7563 26.5338C46.3772 26.5338 46.0698 26.2265 46.0698 25.8473V19.4132C46.0698 19.034 46.3772 18.7267 46.7563 18.7267C47.1355 18.7267 47.4428 19.034 47.4428 19.4132V25.8473C47.4428 26.2265 47.1355 26.5338 46.7563 26.5338Z" fill="#75CFF9"/>
<path d="M46.7566 20.1938C44.9044 20.1938 43.4028 18.6923 43.4028 16.84V12.3318C43.4028 12.1764 43.5288 12.0504 43.6842 12.0504H49.8291C49.9845 12.0504 50.1105 12.1764 50.1105 12.3318V16.84C50.1105 18.6922 48.609 20.1938 46.7566 20.1938Z" fill="#75CFF9"/>
<path d="M49.8289 12.0504H47.8634C48.0188 12.0504 48.1448 12.1764 48.1448 12.3318V16.84C48.1448 18.3502 47.1466 19.6271 45.7739 20.0472C46.0847 20.1424 46.4146 20.1938 46.7566 20.1938C48.6088 20.1938 50.1104 18.6923 50.1104 16.84V12.3318C50.1103 12.1764 49.9843 12.0504 49.8289 12.0504Z" fill="#5FA7EE"/>
<path d="M43.4028 15.9973V16.8399C43.4028 18.6921 44.9043 20.1937 46.7566 20.1937C48.6089 20.1937 50.1105 18.6922 50.1105 16.8399V15.9973H43.4028Z" fill="#744C9E"/>
<path d="M48.1448 15.9973V16.8399C48.1448 18.3501 47.1465 19.6269 45.7739 20.0471C46.1015 20.1473 46.4374 20.1936 46.7556 20.1937H46.7566C48.0328 20.1937 49.1423 19.4808 49.7091 18.4316C49.965 17.958 50.1104 17.416 50.1104 16.8399V15.9973H48.1448Z" fill="#644187"/>
<path d="M43.3574 27.9191V29.7117C43.3574 30.1673 43.5978 30.5659 43.958 30.7904L41.3838 37.891L44.6346 39.0695L47.5661 30.9833H48.5639C49.7104 30.9833 50.6398 30.0539 50.6398 28.9074V27.9191H43.3574Z" fill="#FFCDBE"/>
<path d="M54.5969 25.0669H38.9161C38.6934 25.0669 38.5129 25.2475 38.5129 25.47V26.3025C38.5129 27.1953 39.2367 27.919 40.1295 27.919H53.3835C54.2763 27.919 55.0001 27.1953 55.0001 26.3025V25.47C55 25.2474 54.8195 25.0669 54.5969 25.0669Z" fill="#AA3584"/>
<path d="M54.5969 25.0669H52.4007C52.6234 25.0669 52.8038 25.2475 52.8038 25.47V26.3025C52.8038 27.1952 52.0801 27.919 51.1873 27.919H53.3834C54.2763 27.919 55 27.1953 55 26.3025V25.47C55 25.2474 54.8196 25.0669 54.5969 25.0669Z" fill="#902D72"/>
<path d="M42.0324 32.9728L39.5565 39.8022L37.8749 34.8473C37.1404 32.6832 35.4938 30.9501 33.3701 30.1059L29.556 28.5898V23.3348H24.2886V28.5898C18.7689 28.5898 14.6777 36.5653 12.6025 39.9037C12.2253 40.5105 12 41.1986 12 41.913C12 43.9294 13.6346 45.564 15.651 45.564H18.5494V48.7902H35.2951V43.3054L36.3856 46.1982C36.9945 47.8133 38.6559 48.777 40.3601 48.5035C41.5536 48.5035 42.6192 47.7563 43.0259 46.6343L47.288 34.8781C47.3741 34.6405 47.2513 34.3779 47.0137 34.2918L42.6185 32.6984C42.3811 32.6123 42.1186 32.7351 42.0324 32.9728Z" fill="#DDEBFD"/>
<path d="M45.5962 33.7777L41.149 46.0448C40.7298 47.2011 39.6316 47.9711 38.4016 47.9711C38.2316 47.9984 38.0622 48.0134 37.894 48.0173C38.6122 48.4553 39.4804 48.6446 40.3605 48.5034C41.554 48.5034 42.6196 47.7562 43.0263 46.6343L47.2884 34.878C47.3745 34.6404 47.2517 34.3779 47.0141 34.2917L45.5962 33.7777Z" fill="#BED9FD"/>
<path d="M23.3809 29.3538C25.7421 31.7476 28.103 31.7476 30.4637 29.3538V28.9505L29.556 28.5896V23.3347H24.2885V28.5896C23.9814 28.5896 23.6791 28.6157 23.3809 28.6628V29.3538Z" fill="#FFCDBE"/>
<path d="M24.2888 23.3347V26.8583C25.3293 27.6451 26.658 28.2785 27.5497 28.2785C28.1068 28.2785 28.8347 28.0306 29.5563 27.6533V23.3347H24.2888Z" fill="#EBAE9D"/>
<path d="M35.2956 41.835V51.0259C35.2956 51.2849 35.0856 51.4949 34.8266 51.4949H19.0188C18.7598 51.4949 18.5498 51.2849 18.5498 51.0259V41.835L19.9212 40.7881C21.3058 39.7319 21.9877 37.9938 21.6894 36.278L20.5656 29.7962C21.5796 29.1405 22.6649 28.7043 23.8149 28.6105L26.4946 35.5325C26.6457 35.9229 27.1982 35.9223 27.3486 35.5317L29.9591 28.7502L33.2348 30.0523L32.1551 36.278C31.8577 37.9937 32.5396 39.7319 33.9232 40.7881L35.2956 41.835Z" fill="#26447E"/>
<path d="M18.5497 42.3841C18.2464 42.3841 18.0005 42.1381 18.0005 41.8349V37.6259C18.0005 37.3226 18.2464 37.0767 18.5497 37.0767C18.853 37.0767 19.0989 37.3226 19.0989 37.6259V41.8349C19.0989 42.1382 18.853 42.3841 18.5497 42.3841Z" fill="#BED9FD"/>
<path d="M29.4019 40.7417H28.6642V40.0131C28.6642 39.6109 28.3381 39.2848 27.9358 39.2848H26.7217C26.2913 39.2848 25.9424 39.6337 25.9424 40.0642V45.3739H29.402C30.5581 45.3739 31.4952 44.4367 31.4952 43.2807V42.8349C31.4951 41.6789 30.558 40.7417 29.4019 40.7417Z" fill="#FFCDBE"/>
<path d="M16.2355 51.4949H25.7547C25.8583 51.4949 25.9423 51.4109 25.9423 51.3073V40.2773H17.9665C16.9068 40.2773 16.0479 41.1363 16.0479 42.1959V51.3073C16.0479 51.4109 16.1319 51.4949 16.2355 51.4949Z" fill="#75CFF9"/>
<path d="M22.5585 46.9121C22.2552 46.9121 22.0093 47.1581 22.0093 47.4613V51.4949H23.1077V47.4613C23.1077 47.1581 22.8619 46.9121 22.5585 46.9121Z" fill="#5FA7EE"/>
<path d="M19.4315 48.929C19.1283 48.929 18.8823 49.1749 18.8823 49.4782V51.495H19.9808V49.4782C19.9808 49.1749 19.7349 48.929 19.4315 48.929Z" fill="#5FA7EE"/>
<path d="M35.9309 13.1064C35.7249 11.605 33.9714 10.7281 33.1297 10.5703C31.9676 8.75124 27.9903 6.15564 24.3216 6.00023C24.1281 5.99205 24.0055 6.20655 24.1068 6.37156C24.7026 7.34072 24.8992 7.77737 25.0155 8.07015C25.0929 8.26501 24.9043 8.45881 24.7068 8.38844C22.9202 7.75204 19.9629 7.20575 17.3365 8.13075C17.174 8.18797 17.1205 8.3919 17.2337 8.52181C18.2678 9.70912 19.4523 10.7807 19.4523 10.7807C19.4523 10.7807 16.3486 15.1996 20.031 19.8288L33.9187 20.2197C33.9188 20.2198 36.2086 15.1314 35.9309 13.1064Z" fill="#26447E"/>
<path d="M35.9307 13.1064C35.7247 11.605 33.9712 10.7281 33.1296 10.5703C31.9674 8.75124 27.9902 6.15564 24.3214 6.00023C24.1498 5.99294 24.0348 6.16079 24.0815 6.31398C27.0821 7.08437 29.9057 9.0857 30.8542 10.5703C31.6959 10.7281 33.4494 11.605 33.6553 13.1064C33.915 14.9992 31.9315 19.5681 31.6714 20.1566L33.9186 20.2198C33.9186 20.2198 36.2085 15.1314 35.9307 13.1064Z" fill="#20396B"/>
<path d="M33.6139 21.464H30.1929V18.1011H33.6139C34.5425 18.1011 35.2954 18.8539 35.2954 19.7826C35.2954 20.7113 34.5425 21.464 33.6139 21.464Z" fill="#EBAE9D"/>
<path d="M20.2308 21.464H23.6518V18.1011H20.2308C19.3022 18.1011 18.5493 18.8539 18.5493 19.7826C18.5493 20.7113 19.3022 21.464 20.2308 21.464Z" fill="#EBAE9D"/>
<path d="M31.6109 23.2679C30.9518 24.5521 28.365 26.209 26.9223 26.209C25.4806 26.209 22.8927 24.5522 22.2345 23.2679C21.7366 22.2984 21.6734 19.2878 21.7613 16.7878C24.3491 16.3741 26.8032 15.1419 28.6862 13.3203H30.7741C31.3819 13.3203 31.89 13.7835 31.943 14.3886C32.1601 16.8309 32.2892 21.947 31.6109 23.2679Z" fill="#FFCDBE"/>
<path d="M35.8446 37.0767C35.5414 37.0767 35.2954 37.3226 35.2954 37.6259V43.3062C35.2954 43.3062 36.3912 46.2117 36.3939 46.2186V37.6258C36.3939 37.3226 36.148 37.0767 35.8446 37.0767Z" fill="#BED9FD"/>
<path d="M38.3231 41.5578C38.385 41.5803 38.4481 41.5909 38.5103 41.5909C38.7349 41.5909 38.9457 41.4521 39.0266 41.2287L39.5503 39.7841L38.9854 38.1195L37.9939 40.8543C37.8907 41.1395 38.038 41.4545 38.3231 41.5578Z" fill="#BED9FD"/>
<path d="M24.1546 38.5528C24.1546 38.7543 23.9912 38.9175 23.7896 38.9175C23.588 38.9175 23.4246 38.7543 23.4246 38.5528C23.4246 38.3514 23.588 38.1881 23.7896 38.1881C23.9912 38.1872 24.1546 38.3505 24.1546 38.5528Z" fill="#6E4133"/>
</svg>
