<svg width="60" height="60" viewBox="0 0 60 60" fill="none" xmlns="http://www.w3.org/2000/svg">
<rect width="60" height="60" rx="30" fill="white"/>
<mask id="mask0" mask-type="alpha" maskUnits="userSpaceOnUse" x="5" y="4" width="51" height="51">
<rect x="5.5" y="4.5" width="50" height="50" rx="25" fill="white" stroke="#E0E0E0"/>
</mask>
<g mask="url(#mask0)">
<path d="M53.6228 47.8919V55H7.94189V47.8919C7.94189 46.0115 9.05537 44.3171 10.7484 43.6388L20.3804 39.7206L27.8988 48.267L30.258 43.2952V43.2853L30.7824 42.172L31.3163 43.2854L33.6764 48.267L41.1842 39.7206L50.8258 43.6388C52.5094 44.328 53.6228 46.0115 53.6228 47.8919Z" fill="#E5F0FD"/>
<path d="M37.5201 38.2439H37.5296V34.1976C37.03 34.9813 36.4494 35.7767 35.7748 36.5722L34.8421 37.6354C33.9856 38.5993 32.7675 39.1614 31.5017 39.1614H30.0742C28.8084 39.1614 27.5893 38.6002 26.7338 37.6354L25.8011 36.5722C25.1188 35.7698 24.5316 34.9635 24.03 34.172V38.237L24.0453 38.2449L29.9172 41.671L30.7832 42.1731L31.6493 41.671L37.5201 38.2439Z" fill="#F8B64C"/>
<path opacity="0.1" d="M28.3756 38.8011C28.3699 38.7992 28.3642 38.7971 28.3585 38.7952C28.3489 38.7912 28.3385 38.7883 28.3289 38.7853C28.3194 38.7804 28.3089 38.7794 28.2957 38.7745L31.8845 41.5321L37.5203 38.2438H37.5261L37.5299 34.2182C37.5203 34.2329 36.1918 36.0336 35.775 36.5702L34.8424 37.6345C33.9859 38.5983 32.7677 39.1604 31.502 39.1604H30.0744C29.7861 39.1604 29.5034 39.1279 29.2265 39.0669C28.9333 39.0089 28.6507 38.9182 28.3756 38.8011Z" fill="#40596B"/>
<path d="M24.1032 25.9522C24.2517 27.7194 23.4228 29.2385 22.2522 29.3429C21.0797 29.4492 20.0091 28.1014 19.8578 26.3343C19.7093 24.567 20.5383 23.05 21.7107 22.9436C22.8823 22.8373 23.9548 24.1841 24.1032 25.9522Z" fill="#F8B64C"/>
<path d="M41.715 26.3362C41.5666 28.1034 40.494 29.4502 39.3225 29.3439C38.15 29.2375 37.3201 27.7205 37.4714 25.9532C37.6199 24.186 38.6924 22.8383 39.864 22.9446C41.0364 23.0489 41.8654 24.568 41.715 26.3362Z" fill="#F8B64C"/>
<path d="M40.494 25.9581C40.3142 27.937 39.4081 32.2974 35.7746 36.5701L34.842 37.6334C33.9855 38.5981 32.7674 39.1603 31.5016 39.1603H30.0741C28.8083 39.1603 27.5892 38.5992 26.7336 37.6334L25.801 36.5701C22.1655 32.2974 21.271 27.936 21.0797 25.9581C20.8228 23.231 20.9274 19.7656 21.0797 18.8697C21.9458 13.6224 26.2864 10.3636 30.7879 10.3636C35.2885 10.3636 39.6281 13.6224 40.4941 18.8697C40.6463 19.7656 40.751 23.2321 40.494 25.9581Z" fill="#FFD15C"/>
<path d="M23.368 12.8515C23.368 12.8515 23.4346 6.22282 32.7507 8.34049C32.7507 8.34049 37.373 9.84281 40.347 14.2869C40.347 14.2869 43.1374 18.479 41.6203 22.0055C41.1274 23.1504 40.5982 24.4608 40.6592 25.5132C40.6592 25.5132 40.1424 23.2793 39.8341 21.4177C39.5761 19.8583 38.9271 18.3973 37.9307 17.1982L37.9012 17.1617C36.2881 15.2291 33.7632 14.3253 31.3755 14.9623C30.2363 15.2666 28.9401 15.8602 27.5145 16.9127C27.5145 16.9127 23.6335 14.2181 21.7149 18.9348C21.7149 18.9348 20.8602 22.3826 20.9811 25.1057C20.9811 25.1046 15.6393 13.5348 23.368 12.8515Z" fill="#40596B"/>
<path d="M43.5058 42.4771C43.4868 42.3098 43.4496 40.7749 43.145 40.1546C42.6301 39.1101 41.708 38.4121 40.5945 38.2349L37.53 37.595V38.2447H37.5205L37.0818 38.5007L40.4422 39.2095C41.2512 39.3375 41.9278 39.8396 42.2884 40.5967C42.5264 41.0791 42.6235 41.6019 42.5464 42.1137L42.5264 42.3697C38.5008 45.9828 37.3587 49.2415 37.3112 49.3892C37.0085 50.3244 37.0267 51.0628 37.3597 51.5944C37.7319 52.195 38.339 52.2638 38.4151 52.2737L38.5103 51.2892C38.5008 51.2892 38.2723 51.2489 38.1496 51.043C37.9973 50.7861 38.0154 50.3145 38.2162 49.7129C38.2258 49.6923 38.7872 48.0895 40.5003 45.9216C40.9761 45.6755 41.5081 45.6273 42.023 45.7838C42.5179 45.9414 42.9356 46.287 43.1936 46.7477C43.383 49.5939 42.9652 51.2676 42.9556 51.2774C42.7739 51.8877 42.5264 52.2914 42.2514 52.3997C42.0326 52.4991 41.8317 52.3898 41.8317 52.38L41.5938 52.8123L41.3464 53.2386C41.3853 53.2681 41.6794 53.4355 42.0697 53.4355C42.2314 53.4355 42.4047 53.4059 42.5846 53.3272C43.1556 53.1017 43.5943 52.5101 43.8779 51.565C43.9169 51.4174 44.801 47.9805 43.5058 42.4771ZM42.2419 45.027C41.9554 44.9384 41.6509 44.9 41.3644 44.9099C41.7755 44.4462 42.2304 43.9746 42.7452 43.4932C42.888 44.1814 42.9927 44.841 43.0688 45.4622C42.8214 45.2732 42.5445 45.1264 42.2419 45.027Z" fill="#ACB3BA"/>
<path d="M39.2526 51.955C39.1765 52.3507 38.8043 52.6087 38.4218 52.5309C38.0411 52.4531 38.3123 51.0187 38.6949 51.0965C39.0775 51.1743 39.3278 51.5592 39.2526 51.955Z" fill="#F8B64C"/>
<path d="M40.7952 52.4472C40.6334 52.8145 40.7876 53.2476 41.1425 53.416C41.4975 53.5843 42.0865 52.2563 41.7316 52.0869C41.3795 51.9186 40.9589 52.08 40.7952 52.4472Z" fill="#F8B64C"/>
<path d="M24.0447 38.2439L24.0295 38.236V37.5941L21.972 38.0322C19.7764 38.4999 17.9292 39.949 16.8995 42.0066C15.8717 44.0662 15.7975 46.4645 16.6987 48.5871L17.5704 48.1913C16.7863 46.3424 16.8471 44.2543 17.7456 42.4595C18.6411 40.6678 20.2513 39.4046 22.1624 38.998L24.4874 38.5028L24.0447 38.2439Z" fill="#ACB3BA"/>
<path d="M41.1844 39.7206L34.1619 49.2506L30.7825 42.172L31.6485 41.6699L37.5204 38.2439H37.53L37.5394 38.234L41.1844 39.7206Z" fill="#CDD6E0"/>
<path d="M20.3804 39.7206L27.4143 49.2506L30.7823 42.172L29.9163 41.6699L24.0444 38.2439L24.0254 38.234L20.3804 39.7206Z" fill="#CDD6E0"/>
<path d="M27.4146 55L29.336 50.4713L28.5071 49.2111L27.8999 48.266L30.2582 43.2855L30.7825 42.172L31.3164 43.2855V43.2953L33.6766 48.266L33.058 49.2023L32.2291 50.4713L34.1619 55H27.4146Z" fill="#334A5E"/>
<path d="M33.6766 48.266L33.058 49.2023L30.7921 44.4068L28.507 49.2111L27.8999 48.266L30.2582 43.2855L30.7825 42.172L31.3164 43.2855V43.2953L33.6766 48.266Z" fill="#2A4356"/>
<path d="M19.9962 50.1287C19.9962 51.3593 19.0293 52.3586 17.8396 52.3586C16.65 52.3586 15.6851 51.3593 15.6851 50.1287C15.6851 48.8981 16.6501 47.8998 17.8396 47.8998C19.0292 47.8998 19.9962 48.898 19.9962 50.1287Z" fill="#FF7058"/>
<path d="M19.2883 50.1287C19.2883 50.9557 18.6411 51.6262 17.8417 51.6262C17.0404 51.6262 16.3923 50.9547 16.3923 50.1287C16.3923 49.3027 17.0414 48.6313 17.8417 48.6313C18.6411 48.6313 19.2883 49.3017 19.2883 50.1287Z" fill="#F2F2F2"/>
<path d="M18.8551 50.1287C18.8551 50.7096 18.4012 51.1782 17.8426 51.1782C17.2811 51.1782 16.8262 50.7086 16.8262 50.1287C16.8262 49.5498 17.282 49.0802 17.8426 49.0802C18.4012 49.0802 18.8551 49.5498 18.8551 50.1287Z" fill="#ACB3BA"/>
</g>
</svg>
