<svg width="100" height="100" viewBox="0 0 100 100" fill="none" xmlns="http://www.w3.org/2000/svg">
<g filter="url(#filter0_d)">
<rect x="20" y="20" width="60" height="60" rx="30" fill="white"/>
</g>
<path d="M61.3124 37.0554C61.3124 34.7388 59.4714 32.8533 57.1726 32.7791V31.6735H62.7906C65.1543 31.6735 67.0705 33.5894 67.0705 35.953V44.0781C67.0705 44.3287 66.8671 44.5318 66.6165 44.5318C63.6868 44.5318 61.3121 42.157 61.3121 39.2278V37.0554H61.3124Z" fill="#FFA300"/>
<path d="M58.9033 34.4823H59.3107C59.9571 34.4823 60.4808 33.9582 60.4808 33.3122V31.6676C60.4808 31.0215 59.9567 30.4974 59.3107 30.4974H58.9033C58.2569 30.4974 57.7332 31.0215 57.7332 31.6676V33.3122C57.7332 33.9582 58.2569 34.4823 58.9033 34.4823Z" fill="#DD5298"/>
<path d="M62.7906 31.6735H60.1738C62.5375 31.6735 64.4534 33.5894 64.4534 35.953V44.0707C65.1143 44.3661 65.8459 44.5318 66.6165 44.5318C66.8671 44.5318 67.0706 44.3287 67.0706 44.0778V35.953C67.0706 33.5894 65.1543 31.6735 62.7906 31.6735Z" fill="#FF8B00"/>
<path d="M59.2812 30.4974H58.9327C58.8304 30.4974 58.7319 30.5119 58.637 30.536C59.1562 30.6679 59.5406 31.1368 59.5406 31.6972V33.2829C59.5406 33.843 59.1562 34.3122 58.637 34.4442C58.7319 34.4683 58.8304 34.4823 58.9327 34.4823H59.2812C59.9439 34.4823 60.481 33.9453 60.481 33.2829V31.6972C60.481 31.0345 59.9439 30.4974 59.2812 30.4974Z" fill="#C93F84"/>
<path d="M39.3925 37.0554C39.3925 34.7388 41.2332 32.8533 43.532 32.7791V31.6735H37.914C35.5503 31.6735 33.634 33.5894 33.634 35.953V44.0781C33.634 44.3287 33.8375 44.5318 34.0881 44.5318C37.0177 44.5318 39.3925 42.157 39.3925 39.2278V37.0554Z" fill="#FFA300"/>
<path d="M40.9152 32.7793C38.6164 32.8534 36.7753 34.7389 36.7753 37.0555V39.2279C36.7753 41.3866 35.4851 43.2429 33.634 44.0709V44.0783C33.634 44.3289 33.8375 44.532 34.0881 44.532C37.0177 44.532 39.3925 42.1572 39.3925 39.2279V37.0555C39.3925 34.7389 41.2332 32.8534 43.532 32.7793H40.9152Z" fill="#FF8B00"/>
<path d="M41.8014 34.4823H41.394C40.748 34.4823 40.2239 33.9582 40.2239 33.3122V31.6676C40.2239 31.0215 40.748 30.4974 41.394 30.4974H41.8014C42.4478 30.4974 42.9715 31.0215 42.9715 31.6676V33.3122C42.9715 33.9582 42.4478 34.4823 41.8014 34.4823Z" fill="#DD5298"/>
<path d="M41.7719 30.4974H41.4235C41.3212 30.4974 41.2222 30.5119 41.1277 30.536C41.6466 30.6679 42.0313 31.1368 42.0313 31.6972V33.2829C42.0313 33.843 41.6466 34.3122 41.1277 34.4442C41.2222 34.4683 41.3212 34.4823 41.4235 34.4823H41.7719C42.4342 34.4823 42.9713 33.9453 42.9713 33.2829V31.6972C42.9713 31.0345 42.4342 30.4974 41.7719 30.4974Z" fill="#C93F84"/>
<path d="M59.9102 37.7234H59.7289V36.2626C59.7289 31.6991 56.0294 28 51.4663 28H49.2639C44.7004 28 41.0013 31.6991 41.0013 36.2626V37.7234H40.5943C39.618 37.7234 38.8267 38.5151 38.8267 39.4914V40.3065C38.8267 41.663 39.9264 42.7628 41.283 42.7628C41.3905 42.7628 41.4957 42.7517 41.598 42.7331C42.8201 45.7691 45.7905 47.913 49.2639 47.913H51.4663C54.9364 47.913 57.905 45.7725 59.1292 42.7409C59.2193 42.7539 59.3108 42.7628 59.405 42.7628C60.7442 42.7628 61.8298 41.6771 61.8298 40.338V39.6434C61.8302 38.5829 60.9706 37.7234 59.9102 37.7234Z" fill="#FFC5B2"/>
<path d="M59.91 37.7234H59.7287V36.2626C59.7287 31.6991 56.0292 28 51.4661 28H49.2637C49.2255 28 49.1884 28.0022 49.1506 28.003C53.6615 28.0638 57.2998 31.7373 57.2998 36.2626V39.6504C57.2998 44.1757 53.6615 47.8493 49.1506 47.91C49.1884 47.9108 49.2255 47.913 49.2637 47.913H51.4661C54.9362 47.913 57.9047 45.7725 59.129 42.7409C59.2191 42.7539 59.3106 42.7628 59.4048 42.7628C60.7439 42.7628 61.8296 41.6771 61.8296 40.338V39.6434C61.83 38.5829 60.9704 37.7234 59.91 37.7234Z" fill="#FFAE92"/>
<path d="M47.6512 34.0331H53.0784C55.8056 34.0331 58.2238 35.3553 59.7286 37.3931V36.2626C59.7286 31.6991 56.0295 28 51.466 28H49.2636C44.7001 28 41.001 31.6991 41.001 36.2626V37.3931C42.5058 35.3553 44.9236 34.0331 47.6512 34.0331Z" fill="#FFA300"/>
<path d="M51.4661 28H49.2637C48.9598 28 48.6599 28.0174 48.3645 28.0497C51.8816 28.4303 54.7346 31.0175 55.5148 34.3986C57.2213 34.9246 58.6917 35.9891 59.7288 37.3931V36.2626C59.7288 31.6991 56.0293 28 51.4661 28Z" fill="#FF8B00"/>
<path d="M47.9363 38.8424C47.9363 39.4417 47.4504 39.9276 46.8507 39.9276C46.2513 39.9276 45.7654 39.4417 45.7654 38.8424C45.7654 38.2426 46.2513 37.7567 46.8507 37.7567C47.4504 37.7567 47.9363 38.2426 47.9363 38.8424Z" fill="#BC693F"/>
<path d="M54.964 38.8424C54.964 39.4417 54.4784 39.9276 53.8787 39.9276C53.2794 39.9276 52.7935 39.4417 52.7935 38.8424C52.7935 38.2426 53.2794 37.7567 53.8787 37.7567C54.4784 37.7567 54.964 38.2426 54.964 38.8424Z" fill="#BC693F"/>
<path d="M50.3648 45.1249C52.2485 45.1249 53.7993 43.7005 53.9995 41.8702C54.0228 41.6563 53.8553 41.4684 53.6399 41.4684H47.0897C46.8744 41.4684 46.7069 41.6563 46.7302 41.8702C46.9304 43.7005 48.4812 45.1249 50.3648 45.1249Z" fill="white"/>
<path d="M72.6624 58H72.4811V56.5392C72.4811 51.9757 68.782 48.2766 64.2185 48.2766H62.0161C57.453 48.2766 53.7535 51.9757 53.7535 56.5392V58H53.3469C52.3702 58 51.5789 58.7917 51.5789 59.768V60.5831C51.5789 61.9397 52.6786 63.0394 54.0352 63.0394C54.143 63.0394 54.2479 63.0283 54.3502 63.0097C55.5723 66.0454 58.5431 68.1896 62.0161 68.1896H64.2185C67.689 68.1896 70.6575 66.0491 71.8814 63.0175C71.9719 63.0305 72.0634 63.0394 72.1572 63.0394C73.4967 63.0394 74.5824 61.9537 74.5824 60.6146V59.92C74.5824 58.8595 73.7228 58 72.6624 58Z" fill="#FFC5B2"/>
<path d="M72.6624 58H72.4812V56.5392C72.4812 51.9757 68.782 48.2766 64.2186 48.2766H62.0161C61.9783 48.2766 61.9409 48.2788 61.9031 48.2796C66.4139 48.3404 70.0526 52.0139 70.0526 56.5392V59.927C70.0526 64.4523 66.4139 68.1259 61.9031 68.1867C61.9409 68.1874 61.9783 68.1896 62.0161 68.1896H64.2186C67.689 68.1896 70.6575 66.0491 71.8814 63.0175C71.9719 63.0305 72.0634 63.0394 72.1572 63.0394C73.4968 63.0394 74.5824 61.9537 74.5824 60.6146V59.92C74.5824 58.8595 73.7229 58 72.6624 58Z" fill="#FFAE92"/>
<path d="M60.4037 54.3097H65.8308C68.5584 54.3097 70.9762 55.6319 72.4811 57.6697V56.5392C72.4811 51.9757 68.7819 48.2766 64.2185 48.2766H62.016C57.4529 48.2766 53.7534 51.9757 53.7534 56.5392V57.6697C55.2583 55.6319 57.6764 54.3097 60.4037 54.3097Z" fill="#FFC50D"/>
<path d="M60.6889 59.1186C60.6889 59.7183 60.2029 60.2042 59.6036 60.2042C59.0042 60.2042 58.5183 59.7183 58.5183 59.1186C58.5183 58.5193 59.0042 58.0333 59.6036 58.0333C60.2029 58.0333 60.6889 58.5193 60.6889 59.1186Z" fill="#257EDF"/>
<path d="M67.7167 59.1186C67.7167 59.7183 67.2308 60.2042 66.6314 60.2042C66.0321 60.2042 65.5461 59.7183 65.5461 59.1186C65.5461 58.5193 66.0321 58.0333 66.6314 58.0333C67.2308 58.0333 67.7167 58.5193 67.7167 59.1186Z" fill="#257EDF"/>
<path d="M63.1173 65.4015C65.0009 65.4015 66.5518 63.9771 66.7519 62.1468C66.7753 61.9325 66.6077 61.745 66.3924 61.745H59.8422C59.6272 61.745 59.4593 61.9325 59.4826 62.1468C59.6828 63.9771 61.2336 65.4015 63.1173 65.4015Z" fill="white"/>
<path d="M47.0835 58H46.9023V56.5392C46.9023 51.9757 43.2032 48.2766 38.6397 48.2766H36.4372C31.8738 48.2766 28.1746 51.9757 28.1746 56.5392V58H27.768C26.7913 58 26 58.7917 26 59.768V60.5831C26 61.9397 27.0997 63.0394 28.4563 63.0394C28.5642 63.0394 28.6691 63.0283 28.7714 63.0097C29.9934 66.0454 32.9642 68.1896 36.4372 68.1896H38.6397C42.1097 68.1896 45.0787 66.0491 46.3026 63.0175C46.3926 63.0305 46.4846 63.0394 46.5783 63.0394C47.9175 63.0394 49.0035 61.9537 49.0035 60.6146V59.92C49.0035 58.8595 48.144 58 47.0835 58Z" fill="#BC663B"/>
<path d="M47.0836 58H46.9023V56.5392C46.9023 51.9757 43.2032 48.2766 38.6397 48.2766H36.4373C36.3995 48.2766 36.362 48.2788 36.3242 48.2796C40.8351 48.3404 44.4738 52.0139 44.4738 56.5392V59.927C44.4738 64.4523 40.8351 68.1259 36.3242 68.1867C36.362 68.1874 36.3995 68.1896 36.4373 68.1896H38.6397C42.1098 68.1896 45.0787 66.0491 46.3026 63.0175C46.3927 63.0305 46.4846 63.0394 46.5784 63.0394C47.9175 63.0394 49.0035 61.9537 49.0035 60.6146V59.92C49.0035 58.8595 48.144 58 47.0836 58Z" fill="#AD5731"/>
<path d="M34.8251 54.3097H40.2522C42.9798 54.3097 45.3976 55.6319 46.9025 57.6697V56.5392C46.9025 51.9757 43.2033 48.2766 38.6398 48.2766H36.4374C31.8743 48.2766 28.1748 51.9757 28.1748 56.5392V57.6697C29.6797 55.6319 32.0978 54.3097 34.8251 54.3097Z" fill="#824A25"/>
<path d="M64.2185 48.2766H62.0161C61.7388 48.2766 61.4649 48.2907 61.1943 48.3174C64.7656 48.6702 67.6663 51.2967 68.4339 54.7293C70.0693 55.272 71.4781 56.3116 72.4811 57.6697V56.5392C72.4811 51.9757 68.782 48.2766 64.2185 48.2766Z" fill="#FFA300"/>
<path d="M38.6394 48.2766H36.437C36.1597 48.2766 35.8854 48.2907 35.6152 48.3174C39.1865 48.6702 42.0872 51.2967 42.8548 54.7293C44.4902 55.272 45.899 56.3116 46.902 57.6697V56.5392C46.902 51.9757 43.2029 48.2766 38.6394 48.2766Z" fill="#703E23"/>
<path d="M35.1098 59.1187C35.1098 59.7184 34.6238 60.2044 34.0245 60.2044C33.4251 60.2044 32.9392 59.7184 32.9392 59.1187C32.9392 58.5194 33.4251 58.0334 34.0245 58.0334C34.6238 58.0334 35.1098 58.5194 35.1098 59.1187Z" fill="#703E23"/>
<path d="M42.138 59.1187C42.138 59.7184 41.652 60.2044 41.0527 60.2044C40.453 60.2044 39.967 59.7184 39.967 59.1187C39.967 58.5194 40.453 58.0334 41.0527 58.0334C41.652 58.0334 42.138 58.5194 42.138 59.1187Z" fill="#703E23"/>
<path d="M37.5384 65.4015C39.4221 65.4015 40.9729 63.9771 41.1731 62.1468C41.1964 61.9325 41.0289 61.745 40.8135 61.745H34.2633C34.048 61.745 33.8804 61.9325 33.9038 62.1468C34.1039 63.9771 35.6548 65.4015 37.5384 65.4015Z" fill="white"/>
<defs>
<filter id="filter0_d" x="0" y="0" width="100" height="100" filterUnits="userSpaceOnUse" color-interpolation-filters="sRGB">
<feFlood flood-opacity="0" result="BackgroundImageFix"/>
<feColorMatrix in="SourceAlpha" type="matrix" values="0 0 0 0 0 0 0 0 0 0 0 0 0 0 0 0 0 0 127 0"/>
<feOffset/>
<feGaussianBlur stdDeviation="10"/>
<feColorMatrix type="matrix" values="0 0 0 0 0 0 0 0 0 0 0 0 0 0 0 0 0 0 0.1 0"/>
<feBlend mode="normal" in2="BackgroundImageFix" result="effect1_dropShadow"/>
<feBlend mode="normal" in="SourceGraphic" in2="effect1_dropShadow" result="shape"/>
</filter>
</defs>
</svg>
