<svg width="60" height="60" viewBox="0 0 60 60" fill="none" xmlns="http://www.w3.org/2000/svg">
<rect width="60" height="60" rx="30" fill="white"/>
<path d="M41.3124 17.0554C41.3124 14.7388 39.4714 12.8533 37.1726 12.7791V11.6735H42.7906C45.1543 11.6735 47.0705 13.5894 47.0705 15.953V24.0781C47.0705 24.3287 46.8671 24.5318 46.6165 24.5318C43.6868 24.5318 41.3121 22.157 41.3121 19.2278V17.0554H41.3124Z" fill="#FFA300"/>
<path d="M38.9033 14.4823H39.3107C39.9571 14.4823 40.4808 13.9582 40.4808 13.3122V11.6676C40.4808 11.0215 39.9567 10.4974 39.3107 10.4974H38.9033C38.2569 10.4974 37.7332 11.0215 37.7332 11.6676V13.3122C37.7332 13.9582 38.2569 14.4823 38.9033 14.4823Z" fill="#DD5298"/>
<path d="M42.7906 11.6735H40.1738C42.5375 11.6735 44.4534 13.5894 44.4534 15.953V24.0707C45.1143 24.3661 45.8459 24.5318 46.6165 24.5318C46.8671 24.5318 47.0706 24.3287 47.0706 24.0778V15.953C47.0706 13.5894 45.1543 11.6735 42.7906 11.6735Z" fill="#FF8B00"/>
<path d="M39.2812 10.4974H38.9327C38.8304 10.4974 38.7319 10.5119 38.637 10.536C39.1562 10.6679 39.5406 11.1368 39.5406 11.6972V13.2829C39.5406 13.843 39.1562 14.3122 38.637 14.4442C38.7319 14.4683 38.8304 14.4823 38.9327 14.4823H39.2812C39.9439 14.4823 40.481 13.9453 40.481 13.2829V11.6972C40.481 11.0345 39.9439 10.4974 39.2812 10.4974Z" fill="#C93F84"/>
<path d="M19.3925 17.0554C19.3925 14.7388 21.2332 12.8533 23.532 12.7791V11.6735H17.914C15.5503 11.6735 13.634 13.5894 13.634 15.953V24.0781C13.634 24.3287 13.8375 24.5318 14.0881 24.5318C17.0177 24.5318 19.3925 22.157 19.3925 19.2278V17.0554Z" fill="#FFA300"/>
<path d="M20.9152 12.7793C18.6164 12.8534 16.7753 14.7389 16.7753 17.0555V19.2279C16.7753 21.3866 15.4851 23.2429 13.634 24.0709V24.0783C13.634 24.3289 13.8375 24.532 14.0881 24.532C17.0177 24.532 19.3925 22.1572 19.3925 19.2279V17.0555C19.3925 14.7389 21.2332 12.8534 23.532 12.7793H20.9152Z" fill="#FF8B00"/>
<path d="M21.8014 14.4823H21.394C20.748 14.4823 20.2239 13.9582 20.2239 13.3122V11.6676C20.2239 11.0215 20.748 10.4974 21.394 10.4974H21.8014C22.4478 10.4974 22.9715 11.0215 22.9715 11.6676V13.3122C22.9715 13.9582 22.4478 14.4823 21.8014 14.4823Z" fill="#DD5298"/>
<path d="M21.7719 10.4974H21.4235C21.3212 10.4974 21.2222 10.5119 21.1277 10.536C21.6466 10.6679 22.0313 11.1368 22.0313 11.6972V13.2829C22.0313 13.843 21.6466 14.3122 21.1277 14.4442C21.2222 14.4683 21.3212 14.4823 21.4235 14.4823H21.7719C22.4342 14.4823 22.9713 13.9453 22.9713 13.2829V11.6972C22.9713 11.0345 22.4342 10.4974 21.7719 10.4974Z" fill="#C93F84"/>
<path d="M39.9102 17.7234H39.7289V16.2626C39.7289 11.6991 36.0294 8 31.4663 8H29.2639C24.7004 8 21.0013 11.6991 21.0013 16.2626V17.7234H20.5943C19.618 17.7234 18.8267 18.5151 18.8267 19.4914V20.3065C18.8267 21.663 19.9264 22.7628 21.283 22.7628C21.3905 22.7628 21.4957 22.7517 21.598 22.7331C22.8201 25.7691 25.7905 27.913 29.2639 27.913H31.4663C34.9364 27.913 37.905 25.7725 39.1292 22.7409C39.2193 22.7539 39.3108 22.7628 39.405 22.7628C40.7442 22.7628 41.8298 21.6771 41.8298 20.338V19.6434C41.8302 18.5829 40.9706 17.7234 39.9102 17.7234Z" fill="#FFC5B2"/>
<path d="M39.91 17.7234H39.7287V16.2626C39.7287 11.6991 36.0292 8 31.4661 8H29.2637C29.2255 8 29.1884 8.00222 29.1506 8.00297C33.6615 8.06375 37.2998 11.7373 37.2998 16.2626V19.6504C37.2998 24.1757 33.6615 27.8493 29.1506 27.91C29.1884 27.9108 29.2255 27.913 29.2637 27.913H31.4661C34.9362 27.913 37.9047 25.7725 39.129 22.7409C39.2191 22.7539 39.3106 22.7628 39.4048 22.7628C40.7439 22.7628 41.8296 21.6771 41.8296 20.338V19.6434C41.83 18.5829 40.9704 17.7234 39.91 17.7234Z" fill="#FFAE92"/>
<path d="M27.6512 14.0331H33.0784C35.8056 14.0331 38.2238 15.3553 39.7286 17.3931V16.2626C39.7286 11.6991 36.0295 8 31.466 8H29.2636C24.7001 8 21.001 11.6991 21.001 16.2626V17.3931C22.5058 15.3553 24.9236 14.0331 27.6512 14.0331Z" fill="#FFA300"/>
<path d="M31.4661 8H29.2637C28.9598 8 28.6599 8.01742 28.3645 8.04967C31.8816 8.43033 34.7346 11.0175 35.5148 14.3986C37.2213 14.9246 38.6917 15.9891 39.7288 17.3931V16.2626C39.7288 11.6991 36.0293 8 31.4661 8Z" fill="#FF8B00"/>
<path d="M27.9363 18.8424C27.9363 19.4417 27.4504 19.9276 26.8507 19.9276C26.2513 19.9276 25.7654 19.4417 25.7654 18.8424C25.7654 18.2426 26.2513 17.7567 26.8507 17.7567C27.4504 17.7567 27.9363 18.2426 27.9363 18.8424Z" fill="#BC693F"/>
<path d="M34.964 18.8424C34.964 19.4417 34.4784 19.9276 33.8787 19.9276C33.2794 19.9276 32.7935 19.4417 32.7935 18.8424C32.7935 18.2426 33.2794 17.7567 33.8787 17.7567C34.4784 17.7567 34.964 18.2426 34.964 18.8424Z" fill="#BC693F"/>
<path d="M30.3648 25.1249C32.2485 25.1249 33.7993 23.7005 33.9995 21.8702C34.0228 21.6563 33.8553 21.4684 33.6399 21.4684H27.0897C26.8744 21.4684 26.7069 21.6563 26.7302 21.8702C26.9304 23.7005 28.4812 25.1249 30.3648 25.1249Z" fill="white"/>
<path d="M52.6624 38H52.4811V36.5392C52.4811 31.9757 48.782 28.2766 44.2185 28.2766H42.0161C37.453 28.2766 33.7535 31.9757 33.7535 36.5392V38H33.3469C32.3702 38 31.5789 38.7917 31.5789 39.768V40.5831C31.5789 41.9397 32.6786 43.0394 34.0352 43.0394C34.143 43.0394 34.2479 43.0283 34.3502 43.0097C35.5723 46.0454 38.5431 48.1896 42.0161 48.1896H44.2185C47.689 48.1896 50.6575 46.0491 51.8814 43.0175C51.9719 43.0305 52.0634 43.0394 52.1572 43.0394C53.4967 43.0394 54.5824 41.9537 54.5824 40.6146V39.92C54.5824 38.8595 53.7228 38 52.6624 38Z" fill="#FFC5B2"/>
<path d="M52.6624 38H52.4812V36.5392C52.4812 31.9757 48.782 28.2766 44.2186 28.2766H42.0161C41.9783 28.2766 41.9409 28.2788 41.9031 28.2796C46.4139 28.3404 50.0526 32.0139 50.0526 36.5392V39.927C50.0526 44.4523 46.4139 48.1259 41.9031 48.1867C41.9409 48.1874 41.9783 48.1896 42.0161 48.1896H44.2186C47.689 48.1896 50.6575 46.0491 51.8814 43.0175C51.9719 43.0305 52.0634 43.0394 52.1572 43.0394C53.4968 43.0394 54.5824 41.9537 54.5824 40.6146V39.92C54.5824 38.8595 53.7229 38 52.6624 38Z" fill="#FFAE92"/>
<path d="M40.4037 34.3097H45.8308C48.5584 34.3097 50.9762 35.6319 52.4811 37.6697V36.5392C52.4811 31.9757 48.7819 28.2766 44.2185 28.2766H42.016C37.4529 28.2766 33.7534 31.9757 33.7534 36.5392V37.6697C35.2583 35.6319 37.6764 34.3097 40.4037 34.3097Z" fill="#FFC50D"/>
<path d="M40.6889 39.1186C40.6889 39.7183 40.2029 40.2042 39.6036 40.2042C39.0042 40.2042 38.5183 39.7183 38.5183 39.1186C38.5183 38.5193 39.0042 38.0333 39.6036 38.0333C40.2029 38.0333 40.6889 38.5193 40.6889 39.1186Z" fill="#257EDF"/>
<path d="M47.7167 39.1186C47.7167 39.7183 47.2308 40.2042 46.6314 40.2042C46.0321 40.2042 45.5461 39.7183 45.5461 39.1186C45.5461 38.5193 46.0321 38.0333 46.6314 38.0333C47.2308 38.0333 47.7167 38.5193 47.7167 39.1186Z" fill="#257EDF"/>
<path d="M43.1173 45.4015C45.0009 45.4015 46.5518 43.9771 46.7519 42.1468C46.7753 41.9325 46.6077 41.745 46.3924 41.745H39.8422C39.6272 41.745 39.4593 41.9325 39.4826 42.1468C39.6828 43.9771 41.2336 45.4015 43.1173 45.4015Z" fill="white"/>
<path d="M27.0835 38H26.9023V36.5392C26.9023 31.9757 23.2032 28.2766 18.6397 28.2766H16.4372C11.8738 28.2766 8.17463 31.9757 8.17463 36.5392V38H7.76802C6.79135 38 6 38.7917 6 39.768V40.5831C6 41.9397 7.09973 43.0394 8.45632 43.0394C8.56418 43.0394 8.66908 43.0283 8.77138 43.0097C9.99342 46.0454 12.9642 48.1896 16.4372 48.1896H18.6397C22.1097 48.1896 25.0787 46.0491 26.3026 43.0175C26.3926 43.0305 26.4846 43.0394 26.5783 43.0394C27.9175 43.0394 29.0035 41.9537 29.0035 40.6146V39.92C29.0035 38.8595 28.144 38 27.0835 38Z" fill="#BC663B"/>
<path d="M27.0836 38H26.9023V36.5392C26.9023 31.9757 23.2032 28.2766 18.6397 28.2766H16.4373C16.3995 28.2766 16.362 28.2788 16.3242 28.2796C20.8351 28.3404 24.4738 32.0139 24.4738 36.5392V39.927C24.4738 44.4523 20.8351 48.1259 16.3242 48.1867C16.362 48.1874 16.3995 48.1896 16.4373 48.1896H18.6397C22.1098 48.1896 25.0787 46.0491 26.3026 43.0175C26.3927 43.0305 26.4846 43.0394 26.5784 43.0394C27.9175 43.0394 29.0035 41.9537 29.0035 40.6146V39.92C29.0035 38.8595 28.144 38 27.0836 38Z" fill="#AD5731"/>
<path d="M14.8251 34.3097H20.2522C22.9798 34.3097 25.3976 35.6319 26.9025 37.6697V36.5392C26.9025 31.9757 23.2033 28.2766 18.6398 28.2766H16.4374C11.8743 28.2766 8.1748 31.9757 8.1748 36.5392V37.6697C9.67966 35.6319 12.0978 34.3097 14.8251 34.3097Z" fill="#824A25"/>
<path d="M44.2185 28.2766H42.0161C41.7388 28.2766 41.4649 28.2907 41.1943 28.3174C44.7656 28.6702 47.6663 31.2967 48.4339 34.7293C50.0693 35.272 51.4781 36.3116 52.4811 37.6697V36.5392C52.4811 31.9757 48.782 28.2766 44.2185 28.2766Z" fill="#FFA300"/>
<path d="M18.6394 28.2766H16.437C16.1597 28.2766 15.8854 28.2907 15.6152 28.3174C19.1865 28.6702 22.0872 31.2967 22.8548 34.7293C24.4902 35.272 25.899 36.3116 26.902 37.6697V36.5392C26.902 31.9757 23.2029 28.2766 18.6394 28.2766Z" fill="#703E23"/>
<path d="M15.1098 39.1187C15.1098 39.7184 14.6238 40.2044 14.0245 40.2044C13.4251 40.2044 12.9392 39.7184 12.9392 39.1187C12.9392 38.5194 13.4251 38.0334 14.0245 38.0334C14.6238 38.0334 15.1098 38.5194 15.1098 39.1187Z" fill="#703E23"/>
<path d="M22.138 39.1187C22.138 39.7184 21.652 40.2044 21.0527 40.2044C20.453 40.2044 19.967 39.7184 19.967 39.1187C19.967 38.5194 20.453 38.0334 21.0527 38.0334C21.652 38.0334 22.138 38.5194 22.138 39.1187Z" fill="#703E23"/>
<path d="M17.5384 45.4015C19.4221 45.4015 20.9729 43.9771 21.1731 42.1468C21.1964 41.9325 21.0289 41.745 20.8135 41.745H14.2633C14.048 41.745 13.8804 41.9325 13.9038 42.1468C14.1039 43.9771 15.6548 45.4015 17.5384 45.4015Z" fill="white"/>
</svg>
