<svg width="60" height="60" viewBox="0 0 60 60" fill="none" xmlns="http://www.w3.org/2000/svg">
<rect width="60" height="60" rx="30" fill="white"/>
<path d="M40.0307 38.4383L40.9213 37.9682L46.2807 35.0784L46.9241 34.7306C48.299 33.9879 50.0152 34.4573 50.8211 35.7963L38.1911 44.4684C36.4887 45.3114 34.5597 45.5837 32.6903 45.2451L25.3895 43.9001C24.7181 43.7317 24.0073 43.8263 23.4031 44.1642L19.4495 46.6636L16.687 37.6033L16.7104 37.5959C17.5627 37.4388 18.3554 37.0506 19.0021 36.4742L20.2121 35.3978C22.6313 33.5774 25.8657 33.2615 28.5916 34.5792L29.0926 34.8214C29.8764 35.2007 30.7358 35.3978 31.6065 35.3978H36.4649C38.239 35.3986 39.7496 36.6869 40.0307 38.4383V38.4383Z" fill="#F7CAA5"/>
<path d="M46.7469 24.8589V28.3931H37.0804V24.3554C37.0815 23.5553 36.8439 22.7732 36.3979 22.1092C37.0021 21.6196 37.7515 21.3441 38.529 21.3257C39.087 22.0804 39.9623 22.5353 40.9004 22.5583C41.8389 22.5814 42.7354 22.1701 43.33 21.4437C43.3594 21.4029 43.3927 21.3654 43.43 21.3313C45.2937 21.4462 46.7465 22.9916 46.7469 24.8589Z" fill="#F8EC7D"/>
<path d="M46.2758 35.0703L46.2804 35.0784L40.921 37.9682L40.0304 38.4383C39.8989 37.6094 39.4813 36.8528 38.8506 36.2991L42.2952 34.4431L43.1719 33.9702C44.2546 33.421 45.6759 34.0149 46.2758 35.0703V35.0703Z" fill="#EDB288"/>
<path d="M44.0561 15.4345V17.0058C44.0561 18.7405 42.6497 20.1469 40.915 20.1469C39.1803 20.1469 37.7739 18.7405 37.7739 17.0058V15.4345C37.7739 13.6998 39.1803 12.2934 40.915 12.2934C42.6497 12.2934 44.0561 13.6998 44.0561 15.4345Z" fill="#F8EC7D"/>
<path d="M42.2527 34.3633L42.2956 34.4431L38.8511 36.299C38.1931 35.7169 37.344 35.3961 36.4651 35.3978H35.3877L38.2523 33.8404C39.5502 33.0878 41.192 33.3022 42.2527 34.3633V34.3633Z" fill="#EDB288"/>
<path d="M36.3979 22.1092C36.8439 22.7732 37.0814 23.5553 37.0803 24.3554V30.1874H23.7551V24.3554C23.7544 22.1645 25.5012 20.373 27.6914 20.3185C28.3289 21.1807 29.329 21.7004 30.4011 21.7266C31.4731 21.7532 32.4974 21.2835 33.1766 20.4535C33.2107 20.4074 33.2486 20.3642 33.2901 20.3248C34.5476 20.4021 35.697 21.0622 36.3979 22.1092Z" fill="#E48E66"/>
<path d="M34.0064 13.5885V15.3828C34.0064 17.3649 32.3996 18.9716 30.4179 18.9716C28.4361 18.9716 26.8293 17.3649 26.8293 15.3828V13.5885C26.8293 11.6067 28.4361 10 30.4179 10C32.3996 10 34.0064 11.6067 34.0064 13.5885Z" fill="#E48E66"/>
<path d="M24.2834 22.001L24.4248 22.1272C23.987 22.7877 23.754 23.5627 23.7551 24.3554V28.3931H14.0737V24.8589C14.0737 22.9416 15.6024 21.3742 17.519 21.3257C18.0774 22.0804 18.9527 22.5353 19.8911 22.5583C20.8296 22.5814 21.7262 22.1701 22.3211 21.4437C22.3505 21.4029 22.3835 21.3654 22.42 21.3313C23.0925 21.371 23.7392 21.6036 24.2834 22.001Z" fill="#F8EC7D"/>
<path d="M23.0473 15.4345V17.0058C23.0473 18.7405 21.6409 20.1469 19.9062 20.1469C18.1715 20.1469 16.7651 18.7405 16.7651 17.0058V15.4345C16.7651 13.6998 18.1715 12.2934 19.9062 12.2934C21.6409 12.2934 23.0473 13.6998 23.0473 15.4345Z" fill="#F8EC7D"/>
<path d="M40.0761 39.5547C40.068 39.5547 40.0598 39.5547 40.0517 39.554L35.9083 39.3661C34.6948 39.3115 33.4784 39.3675 32.2751 39.5341C32.0816 39.5621 31.888 39.4845 31.7675 39.3306C31.6469 39.1767 31.6186 38.9701 31.6923 38.7889C31.7664 38.6081 31.9316 38.4808 32.1255 38.4553C33.3947 38.2798 34.6774 38.2206 35.9576 38.278L39.478 38.4379C39.2029 36.9904 37.9383 35.9428 36.4649 35.9421H31.6065C30.6539 35.9406 29.7137 35.7251 28.8554 35.3114L28.3544 35.0689C25.8203 33.8365 22.8097 34.1265 20.557 35.8194L19.364 36.8808C18.6429 37.5236 17.7591 37.9561 16.8093 38.1309C16.6168 38.1692 16.4186 38.1008 16.2907 37.9519C16.1627 37.8033 16.1247 37.597 16.191 37.4123C16.2577 37.2279 16.4183 37.0932 16.6119 37.0602C17.3659 36.9213 18.0675 36.5777 18.6397 36.0676L19.8501 34.9909C19.8611 34.9806 19.8728 34.9714 19.8845 34.9625C22.464 33.0119 25.9203 32.6744 28.8288 34.0886L29.3297 34.3311C30.0402 34.6736 30.818 34.8519 31.6065 34.853H36.4649C38.7605 34.853 40.6214 36.7142 40.6207 39.0098C40.6207 39.3104 40.3771 39.5543 40.0761 39.5543V39.5547Z" fill="#EDB288"/>
<path d="M19.4495 46.6636L20.724 50.8431H11.9492L10 34.855H15.8493L16.6871 37.6033L19.4495 46.6636ZM17.0462 48.0459C17.0462 47.3999 16.5226 46.8759 15.8766 46.8759C15.2303 46.8759 14.7067 47.3999 14.7067 48.0459C14.7067 48.6922 15.2303 49.2158 15.8766 49.2158C16.5226 49.2158 17.0465 48.6922 17.0462 48.0459Z" fill="#E48E66"/>
<path d="M17.0463 48.0459C17.0463 48.6922 16.5227 49.2158 15.8767 49.2158C15.2304 49.2158 14.7068 48.6922 14.7068 48.0459C14.7068 47.4 15.2304 46.876 15.8767 46.876C16.5227 46.876 17.0463 47.4 17.0463 48.0459Z" fill="#F8EC7D"/>
</svg>
