<svg width="60" height="60" viewBox="0 0 60 60" fill="none" xmlns="http://www.w3.org/2000/svg">
<rect width="60" height="60" rx="30" fill="white"/>
<g clip-path="url(#clip0)">
<path d="M47.0878 19.3502C46.854 19.0702 46.5072 18.9084 46.1427 18.9084H16.2683C15.8869 18.9084 15.5254 19.0848 15.2917 19.387C15.0602 19.6915 14.9818 20.0841 15.0802 20.4523L19.0175 35.1284C19.1628 35.6683 19.6496 36.0387 20.2064 36.0387C20.2264 36.0387 20.2479 36.0387 20.2679 36.0364L43.7441 34.8584C44.3124 34.8293 44.79 34.4144 44.893 33.8545L47.3539 20.3564C47.42 19.9959 47.3216 19.6278 47.0878 19.3502Z" fill="#FCC010"/>
<path d="M38.7602 31.1794C38.0812 31.1794 37.5298 30.6295 37.5298 29.9523V25.0439C37.5298 24.3667 38.0812 23.8168 38.7602 23.8168C39.4392 23.8168 39.9906 24.3667 39.9906 25.0439V29.9523C39.9906 30.6295 39.4392 31.1794 38.7602 31.1794Z" fill="#FBFBFB"/>
<path d="M31.3779 31.1794C30.6988 31.1794 30.1475 30.6295 30.1475 29.9523V25.0439C30.1475 24.3667 30.6988 23.8168 31.3779 23.8168C32.0569 23.8168 32.6083 24.3667 32.6083 25.0439V29.9523C32.6083 30.6295 32.0569 31.1794 31.3779 31.1794Z" fill="#FBFBFB"/>
<path d="M23.9953 31.1794C23.3163 31.1794 22.7649 30.6295 22.7649 29.9523V25.0439C22.7649 24.3667 23.3163 23.8168 23.9953 23.8168C24.6743 23.8168 25.2257 24.3667 25.2257 25.0439V29.9523C25.2257 30.6295 24.6743 31.1794 23.9953 31.1794Z" fill="#FBFBFB"/>
<path d="M23.9954 50.813C26.034 50.813 27.6867 49.1648 27.6867 47.1317C27.6867 45.0986 26.034 43.4504 23.9954 43.4504C21.9568 43.4504 20.3042 45.0986 20.3042 47.1317C20.3042 49.1648 21.9568 50.813 23.9954 50.813Z" fill="#465B65"/>
<path d="M38.7603 50.813C40.7989 50.813 42.4516 49.1648 42.4516 47.1317C42.4516 45.0986 40.7989 43.4504 38.7603 43.4504C36.7217 43.4504 35.0691 45.0986 35.0691 47.1317C35.0691 49.1648 36.7217 50.813 38.7603 50.813Z" fill="#465B65"/>
<path d="M41.2211 40.9962H21.5345C20.9762 40.9962 20.4887 40.6235 20.3456 40.0859L14.019 16.4542H9.23041C8.55138 16.4542 8 15.9043 8 15.2271C8 14.5499 8.55138 14 9.23041 14H14.9641C15.5224 14 16.01 14.3727 16.153 14.9104L22.4796 38.542H41.2211C41.9001 38.542 42.4515 39.0919 42.4515 39.7691C42.4515 40.4463 41.9001 40.9962 41.2211 40.9962Z" fill="#465B65"/>
</g>
<defs>
<clipPath id="clip0">
<rect width="39.3739" height="36.813" fill="white" transform="translate(8 14)"/>
</clipPath>
</defs>
</svg>
