<svg width="60" height="60" viewBox="0 0 60 60" fill="none" xmlns="http://www.w3.org/2000/svg">
<rect width="60" height="60" rx="30" fill="white"/>
<g clip-path="url(#clip0)">
<path d="M42.215 47.8976C49.4289 41.8042 51.7344 31.9615 48.0172 23.2811C47.8347 22.8549 47.4714 22.3675 47.0265 22.237V22.3195C45.9903 22.0154 45.1911 21.6778 44.1371 21.4713C38.6262 20.3918 32.92 20.6471 27.5015 22.237C27.0566 22.3675 26.6933 22.6899 26.5108 23.1161C22.7935 31.7965 25.1816 41.8867 32.3954 47.9801C33.9359 49.2813 35.858 49.8872 37.7538 49.7977C39.4058 49.7197 40.8727 49.0313 42.215 47.8976Z" fill="#739AD6"/>
<path d="M48.2647 23.116C48.0822 22.6899 47.7189 22.3675 47.274 22.237C46.2378 21.9329 45.1909 21.6783 44.137 21.4719C44.4948 21.5651 44.8519 21.6627 45.2074 21.767C45.6677 21.9021 46.0437 22.2357 46.2325 22.6767C50.0788 31.6586 47.6078 42.0992 40.1435 48.4042C39.4159 49.0187 38.6058 49.4823 37.7539 49.797C39.4058 49.719 41.0378 49.1138 42.3801 47.9799C49.5938 41.8866 51.9819 31.7965 48.2647 23.116Z" fill="#5A84C8"/>
<path d="M42.8397 32.6181C41.7729 32.6181 40.7062 32.212 39.8941 31.3999C39.6525 31.1582 39.6525 30.7665 39.8941 30.5248C40.1357 30.2832 40.5275 30.2832 40.7691 30.5248C41.9108 31.6666 43.7685 31.6666 44.9102 30.5248C45.1518 30.2832 45.5436 30.2832 45.7852 30.5248C46.0268 30.7665 46.0268 31.1582 45.7852 31.3999C44.9732 32.212 43.9064 32.6181 42.8397 32.6181Z" fill="#6F6571"/>
<path d="M31.9356 32.6181C30.8689 32.6181 29.8021 32.212 28.9901 31.3999C28.7484 31.1582 28.7484 30.7665 28.9901 30.5248C29.2317 30.2832 29.6235 30.2832 29.865 30.5248C30.4181 31.0779 31.1534 31.3826 31.9356 31.3826C32.7178 31.3826 33.4532 31.078 34.0062 30.5248C34.2479 30.2832 34.6396 30.2832 34.8812 30.5248C35.1228 30.7665 35.1228 31.1582 34.8812 31.3999C34.0692 32.212 33.0024 32.6181 31.9356 32.6181Z" fill="#6F6571"/>
<path d="M37.3878 38.6969C39.8418 38.6969 41.9648 40.1104 42.9891 42.1675C43.1498 42.4903 43.6424 42.3744 43.6432 42.0139C43.6432 42.0087 43.6432 42.0037 43.6432 41.9986C43.6432 38.5438 40.8426 35.7432 37.3878 35.7432C33.9329 35.7432 31.1323 38.5438 31.1323 41.9986V42.0139C31.1332 42.3744 31.6257 42.4903 31.7864 42.1675C32.8107 40.1104 34.9337 38.6969 37.3878 38.6969Z" fill="#E5646E"/>
<path d="M26.4396 36.3573C33.6535 30.2639 35.959 20.3388 32.2418 11.6583V11.5758C32.0593 11.1497 31.696 10.9098 31.2511 10.7793L31.1686 10.6143C30.1324 10.3102 29.4157 10.055 28.3618 9.84855C22.8508 8.76903 17.1447 9.02426 11.7261 10.6142C11.2812 10.7447 10.9179 11.0671 10.7354 11.4933C7.01816 20.1737 9.40622 30.2638 16.62 36.3572C18.0613 37.5748 19.8368 38.1835 21.6123 38.1835C23.3877 38.1835 24.9983 37.5748 26.4396 36.3573Z" fill="#FFE07D"/>
<path d="M32.4893 11.4932C32.3068 11.0671 31.9435 10.7447 31.4986 10.6142C30.4624 10.3101 29.4155 10.0555 28.3616 9.84912C28.7195 9.94234 29.0765 10.0399 29.432 10.1442C29.8923 10.2792 30.2683 10.6129 30.4571 11.0538C34.3034 20.0358 31.8325 30.4763 24.3681 36.7813C23.6405 37.3958 22.8304 37.8594 21.9785 38.1741C23.6304 38.0961 25.2624 37.4909 26.6046 36.3571C33.8184 30.2639 36.2065 20.1738 32.4893 11.4932Z" fill="#FFD064"/>
<path d="M18.6685 19.9583C18.5101 19.9583 18.3518 19.8979 18.231 19.777C17.0893 18.6353 15.2316 18.6353 14.0899 19.777C13.8482 20.0187 13.4565 20.0187 13.2149 19.777C12.9733 19.5354 12.9733 19.1436 13.2149 18.9021C14.8391 17.2779 17.4819 17.2779 19.106 18.9021C19.3477 19.1437 19.3477 19.5355 19.106 19.777C18.9852 19.8979 18.8268 19.9583 18.6685 19.9583Z" fill="#6F6571"/>
<path d="M29.5724 19.9583C29.4141 19.9583 29.2557 19.8979 29.1349 19.777C28.5818 19.224 27.8465 18.9194 27.0643 18.9194C26.2821 18.9194 25.5468 19.224 24.9937 19.777C24.752 20.0187 24.3603 20.0187 24.1187 19.777C23.8771 19.5354 23.8771 19.1436 24.1187 18.9021C25.7429 17.2779 28.3857 17.2779 30.0099 18.9021C30.2516 19.1437 30.2516 19.5355 30.0099 19.777C29.8891 19.8979 29.7308 19.9583 29.5724 19.9583Z" fill="#6F6571"/>
<path d="M21.6123 29.3442C18.6976 29.3442 16.1762 27.6654 14.9597 25.2221C14.7688 24.8388 14.1839 24.9765 14.1829 25.4047V25.4228C14.1829 29.5261 17.5091 32.8523 21.6124 32.8523C25.7156 32.8523 29.0419 29.5261 29.0419 25.4228C29.0419 25.4168 29.0419 25.4108 29.0419 25.4047C29.0408 24.9765 28.4558 24.8388 28.2649 25.2221C27.0484 27.6654 24.527 29.3442 21.6123 29.3442Z" fill="#E5646E"/>
</g>
<defs>
<clipPath id="clip0">
<rect width="41" height="41" fill="white" transform="translate(9 9)"/>
</clipPath>
</defs>
</svg>
