<svg width="222" height="166" viewBox="0 0 222 166" fill="none" xmlns="http://www.w3.org/2000/svg">
<path opacity="0.5" d="M212.255 1H9.74477C4.91517 1 1 6.86168 1 14.0924V151.908C1 159.138 4.91517 165 9.74477 165H212.255C217.085 165 221 159.138 221 151.908V14.0924C221 6.86168 217.085 1 212.255 1Z" stroke="white" stroke-width="2" stroke-dasharray="6 6"/>
<g opacity="0.6">
<path d="M128.297 56.41C125.989 56.41 124.112 58.2876 124.112 60.5956C124.112 61.0941 124.516 61.4982 125.014 61.4982C125.513 61.4982 125.917 61.0941 125.917 60.5956C125.917 59.2831 126.985 58.2153 128.297 58.2153C129.61 58.2153 130.678 59.2831 130.678 60.5956C130.678 61.9081 129.61 62.9759 128.297 62.9759H127.724C127.226 62.9759 126.822 63.38 126.822 63.8785V66.9666C126.822 67.4651 127.226 67.8693 127.724 67.8693C128.223 67.8693 128.627 67.4651 128.627 66.9666V64.7683C130.781 64.5996 132.483 62.7925 132.483 60.5956C132.483 58.2876 130.605 56.41 128.297 56.41V56.41Z" fill="white"/>
<path d="M127.724 69.2439C127.226 69.2439 126.822 69.648 126.822 70.1465V70.4109C126.822 70.9094 127.226 71.3136 127.724 71.3136C128.223 71.3136 128.627 70.9094 128.627 70.4109V70.1465C128.627 69.648 128.223 69.2439 127.724 69.2439Z" fill="white"/>
<path d="M136.217 52H120.376C118.203 52 116.435 53.7681 116.435 55.9415V63.0838C113.465 58.817 108.525 56.0185 102.944 56.0185H98.9082C94.1894 56.0185 89.7945 58.5027 87.3491 62.5259C84.0304 63.5664 81.813 66.6577 81.9138 70.1726L82.1418 78.049C81.4398 78.7076 81 79.6423 81 80.6785V81.5258C81 83.514 82.618 85.1315 84.6069 85.1315H87.0266C87.6425 86.655 88.5388 88.0765 89.7011 89.3716C89.0613 90.2576 85.7741 94.8099 85.5724 95.0895C85.507 95.1801 85.459 95.2823 85.4308 95.3904L81.2675 111.407C81.1288 111.94 81.2426 112.497 81.5801 112.933C81.9174 113.369 82.4274 113.62 82.9788 113.62H116.556C117.158 113.62 117.739 113.367 118.149 112.926C118.559 112.486 118.77 111.888 118.726 111.287L118.385 106.608C118.299 105.424 117.984 104.291 117.45 103.24C117.224 102.795 116.68 102.618 116.236 102.844C115.792 103.07 115.615 103.614 115.841 104.058C116.266 104.893 116.516 105.795 116.584 106.739L116.926 111.417C116.936 111.558 116.868 111.653 116.828 111.697C116.787 111.741 116.697 111.815 116.556 111.815H112.393V108.126C112.393 107.628 111.989 107.224 111.491 107.224C110.992 107.224 110.588 107.628 110.588 108.126V111.814H90.8241L93.1273 102.955C93.1349 102.926 93.1611 102.905 93.1912 102.905H97.1793C97.9886 102.905 98.7515 102.704 99.422 102.35C100.002 102.455 100.595 102.509 101.192 102.509C103.724 102.509 106.14 101.542 107.908 99.8382L107.912 99.8388C108.088 99.8754 107.954 99.8484 110.628 100.269C111.609 100.422 112.527 100.771 113.358 101.306C113.509 101.404 113.678 101.45 113.845 101.45C114.142 101.45 114.433 101.304 114.605 101.036C114.875 100.617 114.754 100.058 114.335 99.7883C113.291 99.1163 112.138 98.6781 110.907 98.4858C108.591 98.0974 108.379 98.1323 108.008 97.9898C107.356 97.7384 106.911 97.1181 106.9 96.394C107.967 95.9358 108.72 94.8926 108.73 93.6816C108.733 93.3485 108.681 93.0239 108.58 92.717C110.715 91.4513 113.777 89.0559 115.359 85.1314H117.058C119.047 85.1314 120.664 83.5139 120.664 81.5257V80.6784C120.664 79.5702 120.161 78.5775 119.373 77.9153V75.5929C119.699 75.6788 120.036 75.7236 120.377 75.7236H123.219C123.548 75.7236 123.815 75.9908 123.815 76.3193V78.8828C123.815 79.52 124.204 80.065 124.807 80.2712C124.968 80.326 125.131 80.3526 125.292 80.3526C125.734 80.3526 126.156 80.1507 126.441 79.7816L129.428 75.9336C129.532 75.8001 129.688 75.7236 129.856 75.7236H136.218C138.392 75.7236 140.16 73.9555 140.16 71.7821V55.9415C140.16 53.7681 138.391 52 136.217 52V52ZM82.8053 81.5257V80.6784C82.8053 79.685 83.6134 78.8768 84.6069 78.8768H86.0716C86.0095 80.4463 86.0502 81.7387 86.4421 83.3261H84.6069C83.6134 83.3261 82.8053 82.5185 82.8053 81.5257ZM101.224 100.703C101.714 99.9484 102 99.0497 102 98.085V96.6426H105.104C105.173 97.5443 105.573 98.3546 106.195 98.9437C104.823 100.065 103.064 100.696 101.224 100.703ZM105.689 94.8372H101.795C100.912 94.8372 100.194 95.5554 100.194 96.4381V98.0849C100.194 99.7473 98.8418 101.1 97.1793 101.1H93.1912C92.3392 101.1 91.5945 101.676 91.3801 102.5L88.9588 111.814H83.0269L87.1355 96.0084C87.4538 95.5673 93.3085 87.4596 94.047 86.4355C94.2344 86.1758 94.5116 86.0048 94.8274 85.9541C95.1469 85.9027 95.4693 85.9804 95.7335 86.1721L95.7775 86.2042C96.0643 86.4123 96.2339 86.7341 96.2433 87.0946C96.2515 87.3388 96.1814 87.5737 96.0398 87.7753L94.3573 90.1792C94.0438 90.6257 94.0054 91.2038 94.2569 91.688C94.5087 92.1724 95.0044 92.4734 95.5507 92.4734H105.743C106.059 92.4734 106.356 92.5965 106.579 92.82C106.805 93.0457 106.928 93.3458 106.925 93.6663C106.92 94.312 106.365 94.8372 105.689 94.8372V94.8372ZM118.859 81.5257C118.859 82.5185 118.051 83.3261 117.058 83.3261H115.944C116.205 82.2699 116.339 81.1794 116.339 80.0694C116.339 79.667 116.33 79.2686 116.315 78.8768H117.058C118.051 78.8768 118.859 79.685 118.859 80.6784V81.5257ZM117.058 77.0715H116.185C116.08 76.0577 115.918 75.0758 115.703 74.1436C115.281 72.3293 113.68 70.9886 111.809 70.8833C108.311 70.6872 104.745 69.7805 101.493 68.261C100.583 67.8364 99.4837 68.1296 98.9358 68.9431C98.7289 69.2505 98.2942 69.4741 97.9065 69.4653C97.2746 69.458 96.5797 69.1108 95.7201 68.3729C95.1405 67.8744 94.5564 67.2908 93.9353 66.5894C93.4887 66.0838 92.8461 65.7935 92.1724 65.7929H92.1701C91.5004 65.7929 90.8616 66.0801 90.417 66.5812C89.5484 67.5614 88.7949 68.6867 88.1774 69.9255C87.955 70.3717 88.1363 70.9136 88.5825 71.1362C89.0287 71.3586 89.5705 71.1772 89.7931 70.7311C90.3401 69.6337 91.0045 68.6403 91.7679 67.779C91.9073 67.6219 92.0795 67.5983 92.1702 67.5983C92.2634 67.5998 92.4391 67.6225 92.5832 67.7856C93.2598 68.5496 93.9009 69.1895 94.5437 69.7423C95.2988 70.3905 96.4668 71.2542 97.8851 71.2706C98.8897 71.2808 99.8856 70.7649 100.433 69.9515C100.488 69.8705 100.621 69.8461 100.73 69.8968C104.187 71.5125 107.983 72.4769 111.707 72.6858C112.783 72.7463 113.703 73.5138 113.944 74.5516C114.198 75.6472 114.371 76.8206 114.46 78.0414C114.509 78.6924 114.533 79.3748 114.533 80.0696C114.533 81.4021 114.315 82.7012 113.885 83.9309C112.536 87.7863 109.518 90.0894 107.514 91.2497C107.004 90.8723 106.389 90.6683 105.743 90.6683H96.2185L97.5177 88.812C97.8857 88.2882 98.0689 87.6735 98.0476 87.0413C98.024 86.1215 97.5829 85.2839 96.8387 84.7439L96.7947 84.7119C96.1386 84.2359 95.3384 84.0443 94.5415 84.1718C93.7485 84.2991 93.053 84.728 92.5828 85.3797C92.2432 85.8507 91.5774 86.773 90.7856 87.8697C89.7612 86.6619 88.9943 85.3411 88.5012 83.9308C87.8063 81.9457 87.7676 80.1628 87.9261 78.04C88.0169 76.7934 88.1971 75.5935 88.4615 74.4737C88.5761 73.9886 88.2757 73.5024 87.7904 73.3878C87.3053 73.2732 86.8191 73.5736 86.7045 74.0589C86.4781 75.0176 86.31 76.0284 86.2007 77.0717H84.6069C84.3725 77.0717 84.1436 77.095 83.9214 77.1379L83.7184 70.1209C83.638 67.323 85.4697 64.8748 88.1728 64.1672C88.4076 64.1057 88.6079 63.9523 88.7282 63.7414C90.811 60.0912 94.7118 57.8238 98.9082 57.8238H102.944C111.007 57.8238 117.567 64.384 117.567 72.4476V77.1081C117.401 77.0845 117.231 77.0715 117.058 77.0715V77.0715ZM138.354 71.7821C138.354 72.9601 137.396 73.9183 136.218 73.9183H129.856C129.127 73.9183 128.451 74.2488 128.003 74.8259L125.62 77.8957V76.3193C125.62 74.9955 124.543 73.9183 123.219 73.9183H120.376C120.019 73.9183 119.679 73.8318 119.373 73.6675V72.4476C119.373 70.3333 118.971 68.3112 118.24 66.4531V55.9415C118.24 54.7635 119.199 53.8053 120.376 53.8053H136.217C137.395 53.8053 138.354 54.7635 138.354 55.9415V71.7821Z" fill="white"/>
<path d="M96.6319 80.9632C97.1304 80.9632 97.5345 80.5591 97.5345 80.0606V79.0528C97.5345 78.5543 97.1304 78.1501 96.6319 78.1501C96.1334 78.1501 95.7292 78.5543 95.7292 79.0528V80.0606C95.7292 80.5591 96.1334 80.9632 96.6319 80.9632Z" fill="white"/>
<path d="M110.12 80.9632C110.619 80.9632 111.023 80.5591 111.023 80.0606V79.0528C111.023 78.5543 110.619 78.1501 110.12 78.1501C109.622 78.1501 109.218 78.5543 109.218 79.0528V80.0606C109.218 80.5591 109.622 80.9632 110.12 80.9632Z" fill="white"/>
<path d="M101.819 85.4042C103.05 84.6864 104.196 84.6864 105.427 85.4042C105.57 85.4876 105.726 85.5274 105.881 85.5272C106.191 85.5272 106.493 85.3668 106.661 85.0793C106.912 84.6487 106.767 84.096 106.336 83.8449C104.561 82.8094 102.685 82.8094 100.91 83.8449C100.479 84.096 100.334 84.6488 100.585 85.0793C100.836 85.51 101.389 85.6554 101.819 85.4042V85.4042Z" fill="white"/>
</g>
</svg>
