<svg width="30" height="30" viewBox="0 0 30 30" fill="none" xmlns="http://www.w3.org/2000/svg">
<path d="M8.04019 28C7.82479 27.999 7.61235 27.9495 7.41851 27.8552C7.22466 27.7608 7.05435 27.624 6.92011 27.4548C6.78586 27.2857 6.6911 27.0884 6.6428 26.8775C6.5945 26.6667 6.59389 26.4477 6.64101 26.2365L8.37874 18.5497L2.48577 13.357C2.27606 13.1705 2.125 12.9267 2.05108 12.6554C1.97716 12.3841 1.98359 12.097 2.06957 11.8293C2.15555 11.5616 2.31736 11.3248 2.5352 11.1481C2.75303 10.9713 3.01745 10.8621 3.29611 10.8339L11.0934 10.1231L14.1763 2.8766C14.2865 2.61656 14.4705 2.39481 14.7053 2.23896C14.94 2.0831 15.2153 2 15.4967 2C15.7781 2 16.0533 2.0831 16.2881 2.23896C16.5228 2.39481 16.7068 2.61656 16.8171 2.8766L19.9027 10.1231L27.699 10.8339C27.9781 10.8612 28.2432 10.9697 28.4618 11.1461C28.6804 11.3225 28.843 11.5592 28.9296 11.8271C29.0162 12.095 29.0231 12.3824 28.9494 12.6542C28.8757 12.9259 28.7247 13.1702 28.5148 13.357L22.6218 18.547L24.3595 26.2338C24.4221 26.5091 24.4028 26.7969 24.3041 27.0613C24.2053 27.3257 24.0313 27.5551 23.8038 27.7211C23.5763 27.887 23.3053 27.9822 23.0244 27.9949C22.7436 28.0075 22.4652 27.9369 22.2238 27.792L15.4998 23.7568L8.7758 27.7947C8.55344 27.9283 8.29932 27.9993 8.04019 28V28ZM15.4998 22.0187C15.7592 22.019 16.0136 22.0896 16.2363 22.2231L22.5822 26.0349L20.9426 18.7785C20.8851 18.5248 20.897 18.2602 20.977 18.0128C21.0571 17.7654 21.2023 17.5444 21.3973 17.3731L26.9616 12.4716L19.5992 11.7997C19.3402 11.7764 19.0924 11.6828 18.8822 11.5289C18.6721 11.375 18.5076 11.1667 18.4062 10.9261L15.4998 4.08751L12.5907 10.927C12.4897 11.1668 12.3257 11.3746 12.1161 11.528C11.9066 11.6814 11.6595 11.7747 11.4013 11.7979L4.03802 12.4698L9.60235 17.3713C9.79773 17.5425 9.94322 17.7636 10.0233 18.0113C10.1034 18.2589 10.115 18.5238 10.057 18.7776L8.41835 26.034L14.7642 22.2231C14.9867 22.0898 15.2408 22.0192 15.4998 22.0187V22.0187ZM19.9603 10.2623C19.9603 10.2623 19.9612 10.2605 19.9603 10.2596V10.2623Z" fill="#6F7187"/>
</svg>
