<svg width="50" height="50" viewBox="0 0 50 50" fill="none" xmlns="http://www.w3.org/2000/svg">
<path d="M25.0867 16.6944C25.4589 16.6944 25.7606 16.9961 25.7606 17.3683C25.7606 17.7405 25.4589 18.0422 25.0867 18.0422C22.8567 18.0422 21.0425 19.8562 21.0425 22.0857C21.0425 22.4579 20.7408 22.7597 20.3686 22.7597C19.9964 22.7597 19.6947 22.4579 19.6947 22.0857C19.6947 19.113 22.1135 16.6944 25.0867 16.6944Z" fill="#6F7187"/>
<path d="M26.823 14.1805C29.8674 14.8167 32.3359 17.2615 32.9855 20.3249C33.5339 22.9116 32.8581 25.5086 31.1312 27.4499C30.2871 28.3988 29.803 29.6514 29.803 30.89V32.2376C29.803 33.1343 29.216 33.8961 28.4062 34.1599C28.1399 35.7333 26.7742 36.9994 25.0861 36.9994C23.3984 36.9994 22.0324 35.7337 21.766 34.1599C20.9562 33.8961 20.3692 33.1343 20.3692 32.2376V30.8899C20.3692 29.6489 19.8835 28.4114 19.0017 27.4053C17.7109 25.9327 17 24.0433 17 22.0851C17 16.9835 21.6697 13.1039 26.823 14.1805ZM25.0861 35.6518C25.9523 35.6518 26.7118 35.0557 26.9922 34.2547H23.18C23.4604 35.0557 24.2199 35.6518 25.0861 35.6518ZM21.7169 32.2376C21.7169 32.6092 22.0192 32.9115 22.3907 32.9115H27.7815C28.153 32.9115 28.4553 32.6092 28.4553 32.2376V31.5638H21.7169V32.2376ZM20.0151 26.517C20.9549 27.5892 21.5331 28.8821 21.6798 30.2161H28.4922C28.6388 28.8814 29.2155 27.5758 30.1242 26.5542C31.5634 24.9363 32.1258 22.7676 31.6671 20.6044C31.1317 18.0791 29.0742 16.0277 26.5473 15.4998C22.2337 14.5983 18.3477 17.8378 18.3477 22.0851C18.3477 23.7163 18.9399 25.2903 20.0151 26.517Z" fill="#6F7187"/>
</svg>
