<svg width="178" height="39" viewBox="0 0 178 39" fill="none" xmlns="http://www.w3.org/2000/svg">
<path d="M44.71 30.07C44.69 30.33 44.59 30.55 44.41 30.73C44.23 30.91 44.01 31 43.75 31C43.47 31 43.24 30.92 43.06 30.76C42.9 30.58 42.82 30.35 42.82 30.07V10.93C42.82 10.65 42.91 10.43 43.09 10.27C43.27 10.09 43.5 10 43.78 10C44.04 10 44.26 10.09 44.44 10.27C44.62 10.45 44.71 10.67 44.71 10.93V30.07ZM57.1 15.31C58.96 15.31 60.32 15.86 61.18 16.96C62.06 18.04 62.5 19.48 62.5 21.28V30.1C62.5 30.36 62.41 30.58 62.23 30.76C62.05 30.92 61.84 31 61.6 31C61.34 31 61.12 30.92 60.94 30.76C60.78 30.58 60.7 30.36 60.7 30.1V21.37C60.7 20.07 60.37 19.02 59.71 18.22C59.07 17.4 58.07 16.99 56.71 16.99C55.85 16.99 55.03 17.19 54.25 17.59C53.49 17.99 52.87 18.53 52.39 19.21C51.91 19.87 51.67 20.59 51.67 21.37V30.1C51.67 30.36 51.58 30.58 51.4 30.76C51.24 30.92 51.03 31 50.77 31C50.51 31 50.29 30.92 50.11 30.76C49.95 30.58 49.87 30.36 49.87 30.1V16.66C49.87 16.4 49.95 16.19 50.11 16.03C50.29 15.85 50.51 15.76 50.77 15.76C51.03 15.76 51.24 15.85 51.4 16.03C51.58 16.19 51.67 16.4 51.67 16.66V18.31C52.21 17.45 52.98 16.74 53.98 16.18C55 15.6 56.04 15.31 57.1 15.31ZM72.5537 10.51C71.9138 10.51 71.4138 10.72 71.0538 11.14C70.7138 11.56 70.5438 12.14 70.5438 12.88V15.97H73.9038C74.1238 15.97 74.3138 16.05 74.4738 16.21C74.6538 16.37 74.7438 16.57 74.7438 16.81C74.7438 17.05 74.6538 17.25 74.4738 17.41C74.3138 17.57 74.1238 17.65 73.9038 17.65H70.5438V30.1C70.5438 30.36 70.4538 30.58 70.2738 30.76C70.1138 30.92 69.9038 31 69.6438 31C69.3838 31 69.1638 30.92 68.9838 30.76C68.8238 30.58 68.7438 30.36 68.7438 30.1V17.65H66.5538C66.3138 17.65 66.1138 17.57 65.9538 17.41C65.7938 17.23 65.7138 17.03 65.7138 16.81C65.7138 16.55 65.7938 16.35 65.9538 16.21C66.1138 16.05 66.3138 15.97 66.5538 15.97H68.7438V12.88C68.7438 11.62 69.1038 10.65 69.8238 9.97C70.5638 9.27 71.5438 8.92 72.7637 8.92C73.3238 8.92 73.8438 9.01 74.3238 9.19C74.8038 9.35 75.0438 9.62 75.0438 10C75.0438 10.24 74.9638 10.44 74.8038 10.6C74.6438 10.76 74.4638 10.84 74.2638 10.84C74.0838 10.84 73.8638 10.79 73.6038 10.69C73.1638 10.57 72.8138 10.51 72.5537 10.51ZM91.9499 23.32C91.9499 24.82 91.6199 26.18 90.9599 27.4C90.2999 28.62 89.3899 29.58 88.2299 30.28C87.0699 30.96 85.7799 31.3 84.3599 31.3C82.9399 31.3 81.6499 30.96 80.4899 30.28C79.3299 29.58 78.4199 28.62 77.7599 27.4C77.0999 26.18 76.7699 24.82 76.7699 23.32C76.7699 21.82 77.0999 20.46 77.7599 19.24C78.4199 18.02 79.3299 17.06 80.4899 16.36C81.6499 15.66 82.9399 15.31 84.3599 15.31C85.7799 15.31 87.0699 15.66 88.2299 16.36C89.3899 17.06 90.2999 18.02 90.9599 19.24C91.6199 20.46 91.9499 21.82 91.9499 23.32ZM90.1499 23.32C90.1499 22.12 89.8999 21.04 89.3999 20.08C88.8999 19.12 88.1999 18.37 87.2999 17.83C86.4199 17.27 85.4399 16.99 84.3599 16.99C83.2799 16.99 82.2999 17.27 81.4199 17.83C80.5399 18.37 79.8399 19.12 79.3199 20.08C78.8199 21.04 78.5699 22.12 78.5699 23.32C78.5699 24.5 78.8199 25.57 79.3199 26.53C79.8399 27.49 80.5399 28.25 81.4199 28.81C82.2999 29.35 83.2799 29.62 84.3599 29.62C85.4399 29.62 86.4199 29.35 87.2999 28.81C88.1999 28.27 88.8999 27.52 89.3999 26.56C89.8999 25.6 90.1499 24.52 90.1499 23.32ZM104.182 10C105.202 10 106.172 10.31 107.092 10.93C108.012 11.53 108.752 12.35 109.312 13.39C109.872 14.41 110.152 15.53 110.152 16.75C110.152 17.95 109.872 19.07 109.312 20.11C108.752 21.15 108.012 21.98 107.092 22.6C106.172 23.2 105.202 23.5 104.182 23.5H98.9617V29.17C98.9617 29.71 98.8017 30.15 98.4817 30.49C98.1617 30.83 97.7417 31 97.2217 31C96.7217 31 96.3117 30.83 95.9917 30.49C95.6717 30.13 95.5117 29.69 95.5117 29.17V11.83C95.5117 11.31 95.6817 10.88 96.0217 10.54C96.3817 10.18 96.8217 10 97.3417 10H104.182ZM104.182 20.08C104.562 20.08 104.932 19.92 105.292 19.6C105.672 19.28 105.972 18.87 106.192 18.37C106.432 17.85 106.552 17.31 106.552 16.75C106.552 16.19 106.432 15.66 106.192 15.16C105.972 14.64 105.672 14.23 105.292 13.93C104.932 13.61 104.562 13.45 104.182 13.45H98.9617V20.08H104.182ZM126.131 14.65C126.651 14.65 127.081 14.82 127.421 15.16C127.761 15.5 127.931 15.94 127.931 16.48V29.17C127.931 29.69 127.761 30.13 127.421 30.49C127.081 30.83 126.651 31 126.131 31C125.611 31 125.181 30.83 124.841 30.49C124.521 30.15 124.351 29.72 124.331 29.2C123.831 29.78 123.151 30.28 122.291 30.7C121.451 31.1 120.561 31.3 119.621 31.3C118.241 31.3 116.991 30.95 115.871 30.25C114.751 29.53 113.861 28.54 113.201 27.28C112.561 26.02 112.241 24.59 112.241 22.99C112.241 21.39 112.561 19.96 113.201 18.7C113.841 17.42 114.711 16.43 115.811 15.73C116.931 15.01 118.161 14.65 119.501 14.65C120.461 14.65 121.361 14.83 122.201 15.19C123.041 15.53 123.751 15.97 124.331 16.51V16.48C124.331 15.96 124.501 15.53 124.841 15.19C125.181 14.83 125.611 14.65 126.131 14.65ZM120.071 28C121.371 28 122.431 27.53 123.251 26.59C124.071 25.63 124.481 24.43 124.481 22.99C124.481 21.55 124.071 20.35 123.251 19.39C122.431 18.43 121.371 17.95 120.071 17.95C118.791 17.95 117.741 18.43 116.921 19.39C116.101 20.35 115.691 21.55 115.691 22.99C115.691 24.43 116.091 25.63 116.891 26.59C117.711 27.53 118.771 28 120.071 28ZM130.903 28.51C130.723 28.27 130.633 27.97 130.633 27.61C130.633 27.09 130.893 26.65 131.413 26.29C131.693 26.11 131.983 26.02 132.283 26.02C132.703 26.02 133.103 26.21 133.483 26.59C134.083 27.21 134.703 27.67 135.343 27.97C136.003 28.27 136.793 28.42 137.713 28.42C139.273 28.36 140.053 27.77 140.053 26.65C140.053 26.07 139.783 25.63 139.243 25.33C138.723 25.03 137.903 24.73 136.783 24.43C135.623 24.11 134.673 23.79 133.933 23.47C133.213 23.15 132.583 22.67 132.043 22.03C131.523 21.37 131.263 20.49 131.263 19.39C131.263 18.43 131.533 17.6 132.073 16.9C132.633 16.18 133.353 15.63 134.233 15.25C135.133 14.85 136.083 14.65 137.083 14.65C138.103 14.65 139.123 14.84 140.143 15.22C141.163 15.6 141.963 16.16 142.543 16.9C142.803 17.22 142.933 17.58 142.933 17.98C142.933 18.44 142.743 18.82 142.363 19.12C142.083 19.34 141.763 19.45 141.403 19.45C140.963 19.45 140.603 19.31 140.323 19.03C139.963 18.59 139.493 18.24 138.913 17.98C138.353 17.72 137.713 17.59 136.993 17.59C135.473 17.59 134.713 18.14 134.713 19.24C134.713 19.68 134.853 20.04 135.133 20.32C135.413 20.58 135.763 20.79 136.183 20.95C136.623 21.09 137.233 21.27 138.013 21.49C139.093 21.79 139.993 22.1 140.713 22.42C141.433 22.74 142.043 23.23 142.543 23.89C143.043 24.55 143.293 25.42 143.293 26.5C143.293 27.48 143.003 28.34 142.423 29.08C141.843 29.8 141.093 30.35 140.173 30.73C139.273 31.11 138.343 31.3 137.383 31.3C136.063 31.3 134.833 31.08 133.693 30.64C132.553 30.2 131.623 29.49 130.903 28.51ZM161.725 22.99C161.725 24.59 161.365 26.03 160.645 27.31C159.925 28.57 158.935 29.55 157.675 30.25C156.435 30.95 155.065 31.3 153.565 31.3C152.045 31.3 150.665 30.95 149.425 30.25C148.185 29.55 147.205 28.57 146.485 27.31C145.765 26.03 145.405 24.59 145.405 22.99C145.405 21.39 145.765 19.96 146.485 18.7C147.205 17.42 148.185 16.43 149.425 15.73C150.665 15.01 152.045 14.65 153.565 14.65C155.065 14.65 156.435 15.01 157.675 15.73C158.935 16.43 159.925 17.42 160.645 18.7C161.365 19.96 161.725 21.39 161.725 22.99ZM158.125 22.99C158.125 22.01 157.915 21.14 157.495 20.38C157.095 19.6 156.545 19 155.845 18.58C155.165 18.16 154.405 17.95 153.565 17.95C152.725 17.95 151.955 18.16 151.255 18.58C150.575 19 150.025 19.6 149.605 20.38C149.205 21.14 149.005 22.01 149.005 22.99C149.005 23.97 149.205 24.84 149.605 25.6C150.025 26.36 150.575 26.95 151.255 27.37C151.955 27.79 152.725 28 153.565 28C154.405 28 155.165 27.79 155.845 27.37C156.545 26.95 157.095 26.36 157.495 25.6C157.915 24.84 158.125 23.97 158.125 22.99ZM163.803 28.51C163.623 28.27 163.533 27.97 163.533 27.61C163.533 27.09 163.793 26.65 164.313 26.29C164.593 26.11 164.883 26.02 165.183 26.02C165.603 26.02 166.003 26.21 166.383 26.59C166.983 27.21 167.603 27.67 168.243 27.97C168.903 28.27 169.693 28.42 170.613 28.42C172.173 28.36 172.953 27.77 172.953 26.65C172.953 26.07 172.683 25.63 172.143 25.33C171.623 25.03 170.803 24.73 169.683 24.43C168.523 24.11 167.573 23.79 166.833 23.47C166.113 23.15 165.483 22.67 164.943 22.03C164.423 21.37 164.163 20.49 164.163 19.39C164.163 18.43 164.433 17.6 164.973 16.9C165.533 16.18 166.253 15.63 167.133 15.25C168.033 14.85 168.983 14.65 169.983 14.65C171.003 14.65 172.023 14.84 173.043 15.22C174.063 15.6 174.863 16.16 175.443 16.9C175.703 17.22 175.833 17.58 175.833 17.98C175.833 18.44 175.643 18.82 175.263 19.12C174.983 19.34 174.663 19.45 174.303 19.45C173.863 19.45 173.503 19.31 173.223 19.03C172.863 18.59 172.393 18.24 171.813 17.98C171.253 17.72 170.613 17.59 169.893 17.59C168.373 17.59 167.613 18.14 167.613 19.24C167.613 19.68 167.753 20.04 168.033 20.32C168.313 20.58 168.663 20.79 169.083 20.95C169.523 21.09 170.133 21.27 170.913 21.49C171.993 21.79 172.893 22.1 173.613 22.42C174.333 22.74 174.943 23.23 175.443 23.89C175.943 24.55 176.193 25.42 176.193 26.5C176.193 27.48 175.903 28.34 175.323 29.08C174.743 29.8 173.993 30.35 173.073 30.73C172.173 31.11 171.243 31.3 170.283 31.3C168.963 31.3 167.733 31.08 166.593 30.64C165.453 30.2 164.523 29.49 163.803 28.51Z" fill="white"/>
<path d="M31.2985 10.4604C29.1296 7.33141 25.2148 5.35306 22.2634 9.38862C19.8875 12.6379 24.1243 15.079 23.4333 18.2131C22.2125 23.7522 13.8835 21.8887 14.7898 24.77C16.2582 29.4477 23.9049 26.8872 28.52 22.7319C33.1297 18.582 33.469 13.5938 31.2985 10.4604Z" fill="white"/>
<path d="M29.1005 1.98883C30.2496 2.44154 30.8129 3.73725 30.3613 4.88345C29.9086 6.0325 28.6129 6.59582 27.4638 6.14311C26.3176 5.69153 25.7515 4.39468 26.2042 3.24563C26.6586 2.10055 27.9543 1.53725 29.1005 1.98883Z" fill="white"/>
<path d="M32.5836 5.63066C33.342 5.92946 33.7135 6.784 33.4147 7.54243C33.1159 8.30087 32.2614 8.67237 31.503 8.37356C30.7445 8.07475 30.373 7.22022 30.6718 6.46178C30.9706 5.70335 31.8252 5.33185 32.5836 5.63066Z" fill="white"/>
<path d="M34.5957 8.69968C35.2715 8.96592 35.6033 9.72903 35.337 10.4048C35.0708 11.0805 34.3077 11.4123 33.6319 11.1461C32.9562 10.8798 32.6244 10.1167 32.8907 9.44096C33.1569 8.76521 33.92 8.43345 34.5957 8.69968Z" fill="white"/>
<path d="M11.5864 22.3513C13.1685 19.5588 17.9528 20.5721 18.3578 16.571C18.8605 11.6006 14.6304 10.4528 10.9193 11.3278C7.20983 12.2071 4.12916 16.1444 4.77934 22.3183C5.43076 28.4888 9.40763 35.505 13.6249 33.007C16.2299 31.4678 8.78994 27.2865 11.5864 22.3513Z" fill="white"/>
<path d="M18.2555 6.40773C19.4098 6.83828 19.9967 8.12347 19.5662 9.27774C19.1345 10.4349 17.8493 11.0218 16.6951 10.5912C15.5379 10.1596 14.951 8.8744 15.3827 7.71726C15.8132 6.56299 17.0984 5.97611 18.2555 6.40773Z" fill="white"/>
<path d="M13.2346 6.78518C13.9984 7.07007 14.3854 7.91767 14.1006 8.68144C13.8157 9.44521 12.9681 9.83228 12.2043 9.54738C11.4405 9.26249 11.0535 8.41489 11.3384 7.65112C11.6222 6.89022 12.4708 6.50029 13.2346 6.78518Z" fill="white"/>
<path d="M9.68541 7.72509C10.3659 7.97893 10.7116 8.73585 10.4577 9.41635C10.2039 10.0969 9.44697 10.4425 8.76647 10.1887C8.08597 9.93485 7.74031 9.17791 7.99415 8.49741C8.24798 7.81691 9.00491 7.47126 9.68541 7.72509Z" fill="white"/>
</svg>
