<svg width="30" height="30" viewBox="0 0 30 30" fill="none" xmlns="http://www.w3.org/2000/svg">
<path d="M27.6794 26.1528L20.2988 18.7685C21.9568 16.7186 22.7651 14.1107 22.5571 11.4824C22.3491 8.8541 21.1406 6.4058 19.1808 4.64221C17.221 2.87862 14.6592 1.93417 12.0236 2.00357C9.38802 2.07297 6.87951 3.15093 5.01522 5.01522C3.15093 6.87951 2.07297 9.38802 2.00357 12.0236C1.93417 14.6592 2.87862 17.221 4.64221 19.1808C6.4058 21.1406 8.8541 22.3491 11.4824 22.5571C14.1107 22.7651 16.7186 21.9568 18.7685 20.2988L26.1528 27.6831C26.3557 27.886 26.6309 28 26.9179 28C27.2049 28 27.4801 27.886 27.6831 27.6831C27.886 27.4801 28 27.2049 28 26.9179C28 26.6309 27.886 26.3557 27.6831 26.1528H27.6794ZM12.307 20.4258C10.702 20.4258 9.13304 19.9499 7.79852 19.0582C6.464 18.1665 5.42386 16.8991 4.80965 15.4163C4.19544 13.9334 4.03473 12.3017 4.34785 10.7276C4.66098 9.15338 5.43387 7.70741 6.56878 6.57249C7.7037 5.43757 9.14967 4.66469 10.7239 4.35156C12.298 4.03844 13.9297 4.19915 15.4125 4.81336C16.8954 5.42757 18.1628 6.46771 19.0545 7.80223C19.9462 9.13675 20.4221 10.7057 20.4221 12.3107C20.4199 14.4623 19.5642 16.5251 18.0428 18.0465C16.5214 19.5679 14.4586 20.4236 12.307 20.4258Z" fill="#6F7187"/>
</svg>
