<svg width="18" height="18" viewBox="0 0 18 18" fill="none" xmlns="http://www.w3.org/2000/svg">
<path d="M14.5154 11.2832C13.6816 10.4459 12.6679 9.80988 11.5514 9.42343C12.3443 8.87871 12.9422 8.09452 13.2575 7.18555C13.5729 6.27658 13.5892 5.29053 13.3041 4.37162C13.019 3.45271 12.4474 2.64915 11.673 2.07848C10.8985 1.5078 9.96185 1.19995 8.99994 1.19995C8.03802 1.19995 7.10135 1.5078 6.32691 2.07848C5.55246 2.64915 4.98089 3.45271 4.69578 4.37162C4.41068 5.29053 4.427 6.27658 4.74236 7.18555C5.05772 8.09452 5.65557 8.87871 6.44847 9.42343C4.91629 9.95583 3.58778 10.9521 2.64728 12.2739C1.70678 13.5957 1.20094 15.1776 1.19995 16.7999H2.41848C2.41034 15.9303 2.57455 15.0677 2.90163 14.2619C3.22871 13.456 3.71218 12.7231 4.32411 12.1052C4.93603 11.4874 5.66429 10.9969 6.4668 10.6623C7.26931 10.3276 8.13017 10.1552 8.99965 10.1552C9.86913 10.1552 10.73 10.3276 11.5325 10.6623C12.335 10.9969 13.0633 11.4874 13.6752 12.1052C14.2871 12.7231 14.7706 13.456 15.0977 14.2619C15.4247 15.0677 15.589 15.9303 15.5808 16.7999H16.7999C16.8027 15.775 16.6022 14.7596 16.2101 13.8127C15.818 12.8657 15.2419 12.006 14.5154 11.2832ZM8.99994 8.99808C8.34858 8.99808 7.71185 8.80489 7.17026 8.44292C6.62868 8.08096 6.20656 7.56649 5.9573 6.96457C5.70803 6.36265 5.64282 5.70031 5.76989 5.06131C5.89696 4.42231 6.21062 3.83536 6.6712 3.37467C7.13178 2.91397 7.7186 2.60024 8.35744 2.47314C8.99628 2.34603 9.65846 2.41127 10.2602 2.66059C10.862 2.90991 11.3764 3.33213 11.7382 3.87385C12.1001 4.41556 12.2933 5.05245 12.2933 5.70396C12.2933 6.57762 11.9463 7.41549 11.3287 8.03326C10.7111 8.65102 9.87338 8.99808 8.99994 8.99808Z" fill="white"/>
</svg>
