<svg width="66" height="66" viewBox="0 0 66 66" fill="none" xmlns="http://www.w3.org/2000/svg">
<g filter="url(#filter0_dd)">
<circle cx="33" cy="33" r="25" fill="#E1A826"/>
</g>
<path d="M22.5568 23C22.8968 23 23.2201 23.1033 23.5268 23.31C23.8335 23.51 24.0801 23.7833 24.2668 24.13C24.4535 24.47 24.5468 24.8433 24.5468 25.25C24.5468 25.65 24.4535 26.0233 24.2668 26.37C24.0801 26.7167 23.8335 26.9933 23.5268 27.2C23.2201 27.4 22.8968 27.5 22.5568 27.5H20.8168V29.39C20.8168 29.57 20.7635 29.7167 20.6568 29.83C20.5501 29.9433 20.4101 30 20.2368 30C20.0701 30 19.9335 29.9433 19.8268 29.83C19.7201 29.71 19.6668 29.5633 19.6668 29.39V23.61C19.6668 23.4367 19.7235 23.2933 19.8368 23.18C19.9568 23.06 20.1035 23 20.2768 23H22.5568ZM22.5568 26.36C22.6835 26.36 22.8068 26.3067 22.9268 26.2C23.0535 26.0933 23.1535 25.9567 23.2268 25.79C23.3068 25.6167 23.3468 25.4367 23.3468 25.25C23.3468 25.0633 23.3068 24.8867 23.2268 24.72C23.1535 24.5467 23.0535 24.41 22.9268 24.31C22.8068 24.2033 22.6835 24.15 22.5568 24.15H20.8168V26.36H22.5568ZM31.9818 29.22C32.0151 29.3067 32.0318 29.3867 32.0318 29.46C32.0318 29.6333 31.9751 29.7767 31.8618 29.89C31.7485 29.9967 31.6185 30.05 31.4718 30.05C31.3518 30.05 31.2418 30.0133 31.1418 29.94C31.0485 29.8667 30.9751 29.7667 30.9218 29.64L30.4018 28.43H27.4218L26.9018 29.65C26.8551 29.7767 26.7818 29.8767 26.6818 29.95C26.5885 30.0167 26.4851 30.05 26.3718 30.05C26.1985 30.05 26.0651 30.0033 25.9718 29.91C25.8851 29.8167 25.8418 29.69 25.8418 29.53C25.8418 29.47 25.8518 29.4067 25.8718 29.34L28.3618 23.36C28.4151 23.2267 28.4951 23.1233 28.6018 23.05C28.7085 22.9767 28.8285 22.9467 28.9618 22.96C29.0818 22.96 29.1918 22.9967 29.2918 23.07C29.3985 23.1367 29.4751 23.2333 29.5218 23.36L31.9818 29.22ZM29.9118 27.28L28.9018 24.94L27.9118 27.28H29.9118ZM36.3285 30.1C35.8485 30.1 35.4218 30.04 35.0485 29.92C34.6752 29.8 34.3252 29.5967 33.9985 29.31C33.8185 29.15 33.7285 28.9733 33.7285 28.78C33.7285 28.6267 33.7852 28.4933 33.8985 28.38C34.0118 28.26 34.1485 28.2 34.3085 28.2C34.4352 28.2 34.5485 28.24 34.6485 28.32C34.9152 28.54 35.1752 28.7 35.4285 28.8C35.6818 28.9 35.9818 28.95 36.3285 28.95C36.7018 28.95 37.0218 28.8667 37.2885 28.7C37.5618 28.5333 37.6985 28.3267 37.6985 28.08C37.6985 27.78 37.5652 27.5467 37.2985 27.38C37.0318 27.2067 36.6085 27.0767 36.0285 26.99C34.5685 26.7767 33.8385 26.0967 33.8385 24.95C33.8385 24.53 33.9485 24.1667 34.1685 23.86C34.3885 23.5467 34.6885 23.31 35.0685 23.15C35.4485 22.9833 35.8718 22.9 36.3385 22.9C36.7585 22.9 37.1518 22.9633 37.5185 23.09C37.8918 23.2167 38.2018 23.3833 38.4485 23.59C38.6418 23.7433 38.7385 23.92 38.7385 24.12C38.7385 24.2733 38.6818 24.41 38.5685 24.53C38.4552 24.6433 38.3218 24.7 38.1685 24.7C38.0685 24.7 37.9785 24.67 37.8985 24.61C37.7252 24.47 37.4818 24.3433 37.1685 24.23C36.8618 24.11 36.5852 24.05 36.3385 24.05C35.9185 24.05 35.5918 24.13 35.3585 24.29C35.1318 24.4433 35.0185 24.6467 35.0185 24.9C35.0185 25.1867 35.1352 25.4033 35.3685 25.55C35.6085 25.6967 35.9818 25.8167 36.4885 25.91C37.0618 26.01 37.5185 26.14 37.8585 26.3C38.2052 26.4533 38.4652 26.6667 38.6385 26.94C38.8118 27.2067 38.8985 27.5633 38.8985 28.01C38.8985 28.43 38.7785 28.8 38.5385 29.12C38.3052 29.4333 37.9918 29.6767 37.5985 29.85C37.2052 30.0167 36.7818 30.1 36.3285 30.1ZM47.6853 26.5C47.6853 27.16 47.5386 27.7667 47.2453 28.32C46.952 28.8667 46.5453 29.3 46.0253 29.62C45.512 29.94 44.932 30.1 44.2853 30.1C43.6386 30.1 43.0553 29.94 42.5353 29.62C42.022 29.3 41.6186 28.8667 41.3253 28.32C41.0386 27.7667 40.8953 27.16 40.8953 26.5C40.8953 25.84 41.0386 25.2367 41.3253 24.69C41.6186 24.1367 42.022 23.7 42.5353 23.38C43.0553 23.06 43.6386 22.9 44.2853 22.9C44.932 22.9 45.512 23.06 46.0253 23.38C46.5453 23.7 46.952 24.1367 47.2453 24.69C47.5386 25.2367 47.6853 25.84 47.6853 26.5ZM46.3853 26.5C46.3853 26.0533 46.2953 25.65 46.1153 25.29C45.9353 24.9233 45.6853 24.6333 45.3653 24.42C45.0453 24.2067 44.6853 24.1 44.2853 24.1C43.8786 24.1 43.5153 24.2067 43.1953 24.42C42.882 24.6267 42.6353 24.9133 42.4553 25.28C42.282 25.6467 42.1953 26.0533 42.1953 26.5C42.1953 26.9467 42.282 27.3533 42.4553 27.72C42.6353 28.0867 42.882 28.3767 43.1953 28.59C43.5153 28.7967 43.8786 28.9 44.2853 28.9C44.6853 28.9 45.0453 28.7933 45.3653 28.58C45.6853 28.3667 45.9353 28.08 46.1153 27.72C46.2953 27.3533 46.3853 26.9467 46.3853 26.5Z" fill="white"/>
<path d="M37.0025 46.58C37.3545 46.58 37.6479 46.6973 37.8825 46.932C38.1172 47.1667 38.2345 47.46 38.2345 47.812C38.2345 48.1493 38.1172 48.4353 37.8825 48.67C37.6479 48.89 37.3545 49 37.0025 49H29.5225C29.1412 49 28.8405 48.8827 28.6205 48.648C28.4005 48.4133 28.2905 48.1127 28.2905 47.746C28.2905 47.3793 28.4225 47.0567 28.6865 46.778L33.4825 41.652C34.0252 41.0653 34.4505 40.4787 34.7585 39.892C35.0812 39.2907 35.2425 38.7407 35.2425 38.242C35.2425 37.582 35.0079 37.01 34.5385 36.526C34.0692 36.042 33.5265 35.8 32.9105 35.8C32.4852 35.8 32.0525 35.9467 31.6125 36.24C31.1872 36.5187 30.7985 36.8927 30.4465 37.362C30.1825 37.714 29.8452 37.89 29.4345 37.89C29.1119 37.89 28.8112 37.7653 28.5325 37.516C28.2685 37.2667 28.1365 36.988 28.1365 36.68C28.1365 36.46 28.2099 36.24 28.3565 36.02C28.5032 35.7853 28.7232 35.5213 29.0165 35.228C29.5739 34.6707 30.2192 34.2233 30.9525 33.886C31.6859 33.5487 32.3899 33.38 33.0645 33.38C34.0325 33.38 34.8832 33.5853 35.6165 33.996C36.3499 34.4067 36.9145 34.9713 37.3105 35.69C37.7065 36.4087 37.9045 37.2227 37.9045 38.132C37.9045 39.0267 37.6625 39.9507 37.1785 40.904C36.7092 41.8427 36.0712 42.7447 35.2645 43.61L32.4705 46.58H37.0025Z" fill="white"/>
<defs>
<filter id="filter0_dd" x="0" y="0" width="66" height="66" filterUnits="userSpaceOnUse" color-interpolation-filters="sRGB">
<feFlood flood-opacity="0" result="BackgroundImageFix"/>
<feColorMatrix in="SourceAlpha" type="matrix" values="0 0 0 0 0 0 0 0 0 0 0 0 0 0 0 0 0 0 127 0"/>
<feOffset dx="3" dy="3"/>
<feGaussianBlur stdDeviation="2.5"/>
<feColorMatrix type="matrix" values="0 0 0 0 0.0941176 0 0 0 0 0.109804 0 0 0 0 0.152941 0 0 0 0.35 0"/>
<feBlend mode="normal" in2="BackgroundImageFix" result="effect1_dropShadow"/>
<feColorMatrix in="SourceAlpha" type="matrix" values="0 0 0 0 0 0 0 0 0 0 0 0 0 0 0 0 0 0 127 0"/>
<feOffset dx="-3" dy="-3"/>
<feGaussianBlur stdDeviation="2.5"/>
<feColorMatrix type="matrix" values="0 0 0 0 0.282394 0 0 0 0 0.314085 0 0 0 0 0.386523 0 0 0 0.1 0"/>
<feBlend mode="normal" in2="effect1_dropShadow" result="effect2_dropShadow"/>
<feBlend mode="normal" in="SourceGraphic" in2="effect2_dropShadow" result="shape"/>
</filter>
</defs>
</svg>
